M48
; DRILL file {KiCad (5.1.5)-3} date 28/07/2021 10:18:11
; FORMAT={-:-/ absolute / inch / decimal}
; #@! TF.CreationDate,2021-07-28T10:18:11-03:00
; #@! TF.GenerationSoftware,Kicad,Pcbnew,(5.1.5)-3
; #@! TF.FileFunction,Plated,1,4,PTH
FMAT,2
INCH
T1C0.0118
T2C0.0276
T3C0.0315
T4C0.0335
T5C0.0354
T6C0.0394
T7C0.0433
T8C0.0472
T9C0.0598
T10C0.0709
%
G90
G05
T1
X5.2864Y-3.5433
X5.2864Y-3.6407
X5.2864Y-3.7392
X5.2864Y-3.8376
X5.2864Y-3.936
X5.2864Y-4.0344
X5.2864Y-4.123
X5.2864Y-4.2215
X5.2864Y-4.3199
X5.2864Y-4.4183
X5.2864Y-4.5266
X5.2864Y-4.6348
X5.2864Y-4.7333
X5.2864Y-4.8317
X5.2864Y-4.9301
X5.2864Y-5.0285
X5.3297Y-5.1329
X5.377Y-3.4528
X5.3986Y-5.2018
X5.4035Y-5.3937
X5.4134Y-2.2638
X5.4331Y-3.6122
X5.4331Y-3.6713
X5.4331Y-3.7303
X5.4331Y-3.7894
X5.4331Y-3.9272
X5.4331Y-3.9862
X5.4331Y-4.0453
X5.4331Y-4.252
X5.4331Y-4.311
X5.4331Y-4.3701
X5.4331Y-4.4291
X5.4331Y-4.4882
X5.4331Y-4.5472
X5.4331Y-4.6063
X5.4331Y-4.6654
X5.4331Y-4.7244
X5.4331Y-4.7835
X5.4331Y-4.8425
X5.4331Y-4.9016
X5.4331Y-4.9311
X5.4331Y-4.9606
X5.4331Y-4.9902
X5.4331Y-5.0197
X5.4528Y-5.0492
X5.4823Y-3.4547
X5.4823Y-5.0591
X5.4921Y-5.2067
X5.5118Y-5.0591
X5.5315Y-3.0118
X5.5413Y-5.0591
X5.5512Y-4.3799
X5.5709Y-4.4094
X5.5709Y-5.0591
X5.5787Y-4.1476
X5.5807Y-3.4547
X5.5906Y-4.252
X5.5906Y-4.3799
X5.5906Y-4.6457
X5.5906Y-5.2067
X5.6004Y-5.0591
X5.6102Y-4.4094
X5.6299Y-5.0591
X5.6594Y-3.2185
X5.6594Y-5.0591
X5.6594Y-5.2461
X5.6776Y-3.4531
X5.689Y-3.1693
X5.6929Y-5.0709
X5.7087Y-3.7795
X5.7185Y-3.2087
X5.7185Y-5.0984
X5.7185Y-5.3051
X5.7268Y-3.4039
X5.748Y-5.1181
X5.7776Y-5.1181
X5.7874Y-3.563
X5.8071Y-5.1181
X5.8268Y-3.5236
X5.8268Y-4.7343
X5.8268Y-4.7638
X5.8366Y-5.1181
X5.8661Y-3.4941
X5.8661Y-4.7343
X5.8661Y-4.7638
X5.8661Y-5.1181
X5.8858Y-2.1063
X5.8957Y-5.1181
X5.9055Y-4.4508
X5.9154Y-3.2382
X5.9154Y-3.4547
X5.9252Y-5.1181
X5.9449Y-3.2972
X5.9449Y-3.3563
X5.9449Y-3.4154
X5.9449Y-4.6457
X5.9449Y-4.6752
X5.9547Y-5.1181
X5.9843Y-4.6457
X5.9843Y-4.6752
X5.9843Y-5.1181
X6.0138Y-5.1181
X6.0217Y-4.3228
X6.0315Y-4.6457
X6.0433Y-5.1181
X6.0531Y-4.8228
X6.0531Y-4.8524
X6.0531Y-4.8819
X6.0531Y-4.9114
X6.0531Y-4.9409
X6.0531Y-4.9705
X6.063Y-5.0
X6.0728Y-5.1181
X6.0827Y-4.8228
X6.0925Y-5.0
X6.0984Y-4.7913
X6.1024Y-5.1181
X6.1122Y-2.1063
X6.1122Y-4.8228
X6.122Y-4.4291
X6.122Y-4.4882
X6.122Y-4.5472
X6.122Y-5.0
X6.1319Y-4.7933
X6.1319Y-5.1181
X6.1378Y-4.689
X6.1496Y-4.3177
X6.1713Y-2.1063
X6.1811Y-2.9134
X6.1811Y-3.4252
X6.1811Y-3.9567
X6.1811Y-4.4291
X6.1811Y-4.4882
X6.1811Y-4.5472
X6.1811Y-4.6063
X6.1909Y-5.1181
X6.2008Y-5.0
X6.2008Y-5.0295
X6.2008Y-5.0591
X6.2008Y-5.0886
X6.2106Y-4.7638
X6.2106Y-4.7933
X6.2106Y-4.8228
X6.2205Y-3.5827
X6.2205Y-5.1181
X6.2283Y-4.7126
X6.2303Y-2.1063
X6.2303Y-5.0
X6.2402Y-4.4291
X6.2402Y-4.4882
X6.2402Y-4.5472
X6.2402Y-4.6063
X6.2402Y-4.8228
X6.25Y-5.1181
X6.2598Y-3.2992
X6.2598Y-5.0
X6.2697Y-4.8228
X6.2697Y-4.8524
X6.2697Y-4.8819
X6.2697Y-4.9114
X6.2697Y-4.9409
X6.2697Y-4.9705
X6.2795Y-5.1181
X6.2894Y-2.1063
X6.2992Y-4.4291
X6.2992Y-4.4882
X6.2992Y-4.5472
X6.2992Y-4.6063
X6.3091Y-5.1181
X6.3189Y-4.2815
X6.3386Y-5.1181
X6.3484Y-2.1063
X6.3681Y-5.1181
X6.3976Y-5.1181
X6.3982Y-4.5906
X6.4075Y-2.1063
X6.4173Y-4.4173
X6.4272Y-5.1181
X6.4331Y-4.3465
X6.4469Y-4.4173
X6.4567Y-5.1181
X6.4665Y-2.1063
X6.4862Y-5.1181
X6.5157Y-5.1181
X6.5256Y-2.1063
X6.5354Y-4.5236
X6.5453Y-5.1181
X6.563Y-4.5039
X6.565Y-4.4685
X6.5748Y-5.1181
X6.5846Y-2.1063
X6.6043Y-5.1181
X6.6142Y-4.685
X6.6339Y-5.1181
X6.6437Y-2.1063
X6.6634Y-5.1181
X6.6732Y-2.185
X6.6732Y-2.7559
X6.6732Y-3.1693
X6.6732Y-3.6614
X6.6732Y-4.1535
X6.6929Y-5.1181
X6.7028Y-2.1063
X6.7224Y-5.1181
X6.7323Y-2.1063
X6.752Y-2.1358
X6.752Y-2.1654
X6.752Y-2.2244
X6.752Y-2.2835
X6.752Y-2.3425
X6.752Y-2.4016
X6.752Y-2.4606
X6.752Y-2.5197
X6.752Y-2.5787
X6.752Y-2.6378
X6.752Y-2.6969
X6.752Y-2.7559
X6.752Y-2.815
X6.752Y-2.874
X6.752Y-2.9331
X6.752Y-2.9921
X6.752Y-3.0512
X6.752Y-3.1102
X6.752Y-3.1693
X6.752Y-3.2283
X6.752Y-3.2874
X6.752Y-3.3465
X6.752Y-3.4055
X6.752Y-3.4646
X6.752Y-3.5236
X6.752Y-3.5827
X6.752Y-3.6417
X6.752Y-3.7008
X6.752Y-3.7598
X6.752Y-3.8189
X6.752Y-3.878
X6.752Y-3.937
X6.752Y-3.9961
X6.752Y-4.0551
X6.752Y-4.1142
X6.752Y-4.1732
X6.752Y-4.2323
X6.752Y-4.2913
X6.752Y-4.3504
X6.752Y-4.4094
X6.752Y-4.4685
X6.752Y-4.5276
X6.752Y-4.5866
X6.752Y-4.6457
X6.752Y-4.7047
X6.752Y-4.7638
X6.752Y-4.8228
X6.752Y-4.8819
X6.752Y-4.9409
X6.752Y-5.0
X6.752Y-5.0295
X6.752Y-5.0591
X6.752Y-5.0886
X6.752Y-5.1181
T3
X5.965Y-3.5724
X5.965Y-3.6591
X6.3386Y-2.185
X6.6339Y-2.2992
T5
X5.5102Y-4.9409
X5.6102Y-4.9409
X5.7661Y-4.9409
X5.8661Y-4.9409
T6
X5.9402Y-4.124
X6.0402Y-4.124
X6.1402Y-4.124
X6.2402Y-4.124
X6.4173Y-2.9134
X6.4173Y-3.1102
X6.4173Y-3.7598
X6.4173Y-3.8583
X6.4961Y-4.7047
X6.3819Y-4.124
X6.4819Y-4.124
T7
X6.4173Y-4.8622
X6.4173Y-5.0394
X6.6732Y-4.8622
X6.6732Y-5.0394
T8
X6.2008Y-2.5
X6.2008Y-2.6772
X6.5945Y-2.5
X6.5945Y-2.6772
X5.8661Y-2.5197
X5.8661Y-3.1102
T9
X5.561Y-2.2638
X5.761Y-2.2638
X5.5185Y-5.3937
X5.7185Y-5.3937
T10
X5.2756Y-2.2638
X5.2756Y-5.3937
T2
G00X5.4843Y-3.2858
M15
G01X5.4606Y-3.2858
M16
G05
G00X5.7843Y-3.3583
M15
G01X5.7606Y-3.3583
M16
G05
T4
G00X5.4813Y-3.8583
M15
G01X5.4636Y-3.8583
M16
G05
G00X5.7813Y-3.8583
M15
G01X5.7636Y-3.8583
M16
G05
T0
M30
