G04 #@! TF.GenerationSoftware,KiCad,Pcbnew,(5.1.5)-3*
G04 #@! TF.CreationDate,2021-07-28T10:17:32-03:00*
G04 #@! TF.ProjectId,relayer_hw,72656c61-7965-4725-9f68-772e6b696361,rev?*
G04 #@! TF.SameCoordinates,Original*
G04 #@! TF.FileFunction,Legend,Bot*
G04 #@! TF.FilePolarity,Positive*
%FSLAX46Y46*%
G04 Gerber Fmt 4.6, Leading zero omitted, Abs format (unit mm)*
G04 Created by KiCad (PCBNEW (5.1.5)-3) date 2021-07-28 10:17:32*
%MOMM*%
%LPD*%
G04 APERTURE LIST*
%ADD10C,0.250000*%
%ADD11C,0.127000*%
%ADD12C,0.120000*%
%ADD13C,0.200000*%
%ADD14C,0.150000*%
%ADD15C,0.118517*%
G04 APERTURE END LIST*
D10*
X155900000Y-121500000D02*
X155900000Y-121500000D01*
D11*
X154200000Y-118150000D02*
X154545000Y-118150000D01*
X154200000Y-111050000D02*
X154545000Y-111050000D01*
X161300000Y-118150000D02*
X160955000Y-118150000D01*
X161300000Y-111050000D02*
X160955000Y-111050000D01*
X154200000Y-118150000D02*
X154200000Y-117805000D01*
X154200000Y-111050000D02*
X154200000Y-111395000D01*
X161300000Y-118150000D02*
X161300000Y-117805000D01*
X161300000Y-111050000D02*
X161300000Y-111395000D01*
X147150000Y-105850000D02*
X147150000Y-106150000D01*
X146250000Y-105850000D02*
X146250000Y-106150000D01*
D12*
X145900000Y-106000000D02*
X145900000Y-104200000D01*
X145900000Y-104200000D02*
X147500000Y-104200000D01*
X147500000Y-104200000D02*
X147500000Y-106000000D01*
X142300000Y-103800000D02*
X140500000Y-103800000D01*
X142300000Y-102200000D02*
X142300000Y-103800000D01*
X140500000Y-102200000D02*
X142300000Y-102200000D01*
D11*
X140650000Y-102550000D02*
X140350000Y-102550000D01*
X140650000Y-103450000D02*
X140350000Y-103450000D01*
X141400000Y-97015000D02*
X142600000Y-97015000D01*
D13*
X143650000Y-96500000D02*
G75*
G03X143650000Y-96500000I-50000J0D01*
G01*
D11*
X142600000Y-95985000D02*
X141400000Y-95985000D01*
D12*
X139740000Y-94580000D02*
X139740000Y-93650000D01*
X139740000Y-91420000D02*
X139740000Y-92350000D01*
X139740000Y-91420000D02*
X141900000Y-91420000D01*
X139740000Y-94580000D02*
X141200000Y-94580000D01*
X167210000Y-101261252D02*
X167210000Y-100738748D01*
X165790000Y-101261252D02*
X165790000Y-100738748D01*
X167160000Y-108761252D02*
X167160000Y-108238748D01*
X165740000Y-108761252D02*
X165740000Y-108238748D01*
X169210000Y-87261252D02*
X169210000Y-86738748D01*
X167790000Y-87261252D02*
X167790000Y-86738748D01*
X168938748Y-116590000D02*
X169461252Y-116590000D01*
X168938748Y-118010000D02*
X169461252Y-118010000D01*
X144710000Y-92738748D02*
X144710000Y-93261252D01*
X143290000Y-92738748D02*
X143290000Y-93261252D01*
X147710000Y-93261252D02*
X147710000Y-92738748D01*
X146290000Y-93261252D02*
X146290000Y-92738748D01*
X145710000Y-117738748D02*
X145710000Y-118261252D01*
X144290000Y-117738748D02*
X144290000Y-118261252D01*
X141261252Y-116210000D02*
X140738748Y-116210000D01*
X141261252Y-114790000D02*
X140738748Y-114790000D01*
X163700000Y-88500000D02*
G75*
G03X163700000Y-88500000I-700000J0D01*
G01*
X158700000Y-91000000D02*
G75*
G03X158700000Y-91000000I-700000J0D01*
G01*
X158500000Y-124600000D02*
X158500000Y-125030000D01*
X158500000Y-124600000D02*
X158500000Y-124170000D01*
X154500000Y-124600000D02*
X154500000Y-125030000D01*
X154500000Y-124600000D02*
X154500000Y-124170000D01*
X145110000Y-110410000D02*
X143850000Y-110410000D01*
X138290000Y-110410000D02*
X139550000Y-110410000D01*
X145110000Y-106650000D02*
X145110000Y-110410000D01*
X138290000Y-104400000D02*
X138290000Y-110410000D01*
X152700000Y-117250000D02*
X152700000Y-121750000D01*
X152700000Y-121750000D02*
X147300000Y-121750000D01*
X163250000Y-112700000D02*
X166100000Y-112700000D01*
X166100000Y-112700000D02*
X166100000Y-114300000D01*
X166100000Y-114300000D02*
X163250000Y-114300000D01*
D14*
X161116666Y-108985714D02*
X161164285Y-109023809D01*
X161307142Y-109061904D01*
X161402380Y-109061904D01*
X161545238Y-109023809D01*
X161640476Y-108947619D01*
X161688095Y-108871428D01*
X161735714Y-108719047D01*
X161735714Y-108604761D01*
X161688095Y-108452380D01*
X161640476Y-108376190D01*
X161545238Y-108300000D01*
X161402380Y-108261904D01*
X161307142Y-108261904D01*
X161164285Y-108300000D01*
X161116666Y-108338095D01*
X160545238Y-108604761D02*
X160640476Y-108566666D01*
X160688095Y-108528571D01*
X160735714Y-108452380D01*
X160735714Y-108414285D01*
X160688095Y-108338095D01*
X160640476Y-108300000D01*
X160545238Y-108261904D01*
X160354761Y-108261904D01*
X160259523Y-108300000D01*
X160211904Y-108338095D01*
X160164285Y-108414285D01*
X160164285Y-108452380D01*
X160211904Y-108528571D01*
X160259523Y-108566666D01*
X160354761Y-108604761D01*
X160545238Y-108604761D01*
X160640476Y-108642857D01*
X160688095Y-108680952D01*
X160735714Y-108757142D01*
X160735714Y-108909523D01*
X160688095Y-108985714D01*
X160640476Y-109023809D01*
X160545238Y-109061904D01*
X160354761Y-109061904D01*
X160259523Y-109023809D01*
X160211904Y-108985714D01*
X160164285Y-108909523D01*
X160164285Y-108757142D01*
X160211904Y-108680952D01*
X160259523Y-108642857D01*
X160354761Y-108604761D01*
X165181666Y-111295714D02*
X165229285Y-111333809D01*
X165372142Y-111371904D01*
X165467380Y-111371904D01*
X165610238Y-111333809D01*
X165705476Y-111257619D01*
X165753095Y-111181428D01*
X165800714Y-111029047D01*
X165800714Y-110914761D01*
X165753095Y-110762380D01*
X165705476Y-110686190D01*
X165610238Y-110610000D01*
X165467380Y-110571904D01*
X165372142Y-110571904D01*
X165229285Y-110610000D01*
X165181666Y-110648095D01*
X164229285Y-111371904D02*
X164800714Y-111371904D01*
X164515000Y-111371904D02*
X164515000Y-110571904D01*
X164610238Y-110686190D01*
X164705476Y-110762380D01*
X164800714Y-110800476D01*
X170116666Y-121085714D02*
X170164285Y-121123809D01*
X170307142Y-121161904D01*
X170402380Y-121161904D01*
X170545238Y-121123809D01*
X170640476Y-121047619D01*
X170688095Y-120971428D01*
X170735714Y-120819047D01*
X170735714Y-120704761D01*
X170688095Y-120552380D01*
X170640476Y-120476190D01*
X170545238Y-120400000D01*
X170402380Y-120361904D01*
X170307142Y-120361904D01*
X170164285Y-120400000D01*
X170116666Y-120438095D01*
X169783333Y-120361904D02*
X169164285Y-120361904D01*
X169497619Y-120666666D01*
X169354761Y-120666666D01*
X169259523Y-120704761D01*
X169211904Y-120742857D01*
X169164285Y-120819047D01*
X169164285Y-121009523D01*
X169211904Y-121085714D01*
X169259523Y-121123809D01*
X169354761Y-121161904D01*
X169640476Y-121161904D01*
X169735714Y-121123809D01*
X169783333Y-121085714D01*
X164806666Y-116245714D02*
X164854285Y-116283809D01*
X164997142Y-116321904D01*
X165092380Y-116321904D01*
X165235238Y-116283809D01*
X165330476Y-116207619D01*
X165378095Y-116131428D01*
X165425714Y-115979047D01*
X165425714Y-115864761D01*
X165378095Y-115712380D01*
X165330476Y-115636190D01*
X165235238Y-115560000D01*
X165092380Y-115521904D01*
X164997142Y-115521904D01*
X164854285Y-115560000D01*
X164806666Y-115598095D01*
X163949523Y-115788571D02*
X163949523Y-116321904D01*
X164187619Y-115483809D02*
X164425714Y-116055238D01*
X163806666Y-116055238D01*
X160352538Y-120656599D02*
X160359272Y-120717208D01*
X160433350Y-120845160D01*
X160500693Y-120912504D01*
X160628646Y-120986582D01*
X160749864Y-121000051D01*
X160837411Y-120979847D01*
X160978832Y-120905770D01*
X161059644Y-120824957D01*
X161133722Y-120683536D01*
X161153925Y-120595990D01*
X161140457Y-120474771D01*
X161066379Y-120346819D01*
X160999035Y-120279475D01*
X160871083Y-120205397D01*
X160810473Y-120198663D01*
X159625228Y-120037038D02*
X160029289Y-120441099D01*
X159827258Y-120239069D02*
X160392944Y-119673384D01*
X160379475Y-119821539D01*
X160392944Y-119942758D01*
X160433350Y-120037038D01*
X159753180Y-119033620D02*
X159685837Y-118966277D01*
X159591556Y-118925871D01*
X159530947Y-118919136D01*
X159443400Y-118939339D01*
X159301979Y-119013417D01*
X159167292Y-119148104D01*
X159093214Y-119289526D01*
X159073011Y-119377072D01*
X159079745Y-119437681D01*
X159120152Y-119531962D01*
X159187495Y-119599306D01*
X159281776Y-119639712D01*
X159342385Y-119646446D01*
X159429932Y-119626243D01*
X159571353Y-119552165D01*
X159706040Y-119417478D01*
X159780118Y-119276057D01*
X159800321Y-119188510D01*
X159793587Y-119127901D01*
X159753180Y-119033620D01*
D15*
X148415714Y-106662857D02*
X148453809Y-106710476D01*
X148491904Y-106853333D01*
X148491904Y-106948571D01*
X148453809Y-107091428D01*
X148377619Y-107186666D01*
X148301428Y-107234285D01*
X148149047Y-107281904D01*
X148034761Y-107281904D01*
X147882380Y-107234285D01*
X147806190Y-107186666D01*
X147730000Y-107091428D01*
X147691904Y-106948571D01*
X147691904Y-106853333D01*
X147730000Y-106710476D01*
X147768095Y-106662857D01*
X148491904Y-105710476D02*
X148491904Y-106281904D01*
X148491904Y-105996190D02*
X147691904Y-105996190D01*
X147806190Y-106091428D01*
X147882380Y-106186666D01*
X147920476Y-106281904D01*
X147691904Y-104853333D02*
X147691904Y-105043809D01*
X147730000Y-105139047D01*
X147768095Y-105186666D01*
X147882380Y-105281904D01*
X148034761Y-105329523D01*
X148339523Y-105329523D01*
X148415714Y-105281904D01*
X148453809Y-105234285D01*
X148491904Y-105139047D01*
X148491904Y-104948571D01*
X148453809Y-104853333D01*
X148415714Y-104805714D01*
X148339523Y-104758095D01*
X148149047Y-104758095D01*
X148072857Y-104805714D01*
X148034761Y-104853333D01*
X147996666Y-104948571D01*
X147996666Y-105139047D01*
X148034761Y-105234285D01*
X148072857Y-105281904D01*
X148149047Y-105329523D01*
D14*
X141042857Y-100355714D02*
X141090476Y-100393809D01*
X141233333Y-100431904D01*
X141328571Y-100431904D01*
X141471428Y-100393809D01*
X141566666Y-100317619D01*
X141614285Y-100241428D01*
X141661904Y-100089047D01*
X141661904Y-99974761D01*
X141614285Y-99822380D01*
X141566666Y-99746190D01*
X141471428Y-99670000D01*
X141328571Y-99631904D01*
X141233333Y-99631904D01*
X141090476Y-99670000D01*
X141042857Y-99708095D01*
X140661904Y-99708095D02*
X140614285Y-99670000D01*
X140519047Y-99631904D01*
X140280952Y-99631904D01*
X140185714Y-99670000D01*
X140138095Y-99708095D01*
X140090476Y-99784285D01*
X140090476Y-99860476D01*
X140138095Y-99974761D01*
X140709523Y-100431904D01*
X140090476Y-100431904D01*
X139471428Y-99631904D02*
X139376190Y-99631904D01*
X139280952Y-99670000D01*
X139233333Y-99708095D01*
X139185714Y-99784285D01*
X139138095Y-99936666D01*
X139138095Y-100127142D01*
X139185714Y-100279523D01*
X139233333Y-100355714D01*
X139280952Y-100393809D01*
X139376190Y-100431904D01*
X139471428Y-100431904D01*
X139566666Y-100393809D01*
X139614285Y-100355714D01*
X139661904Y-100279523D01*
X139709523Y-100127142D01*
X139709523Y-99936666D01*
X139661904Y-99784285D01*
X139614285Y-99708095D01*
X139566666Y-99670000D01*
X139471428Y-99631904D01*
X138668095Y-93024761D02*
X138630000Y-92929523D01*
X138553809Y-92834285D01*
X138439523Y-92691428D01*
X138401428Y-92596190D01*
X138401428Y-92500952D01*
X138591904Y-92548571D02*
X138553809Y-92453333D01*
X138477619Y-92358095D01*
X138325238Y-92310476D01*
X138058571Y-92310476D01*
X137906190Y-92358095D01*
X137830000Y-92453333D01*
X137791904Y-92548571D01*
X137791904Y-92739047D01*
X137830000Y-92834285D01*
X137906190Y-92929523D01*
X138058571Y-92977142D01*
X138325238Y-92977142D01*
X138477619Y-92929523D01*
X138553809Y-92834285D01*
X138591904Y-92739047D01*
X138591904Y-92548571D01*
X138591904Y-93929523D02*
X138591904Y-93358095D01*
X138591904Y-93643809D02*
X137791904Y-93643809D01*
X137906190Y-93548571D01*
X137982380Y-93453333D01*
X138020476Y-93358095D01*
X168602380Y-100833333D02*
X168126190Y-100500000D01*
X168602380Y-100261904D02*
X167602380Y-100261904D01*
X167602380Y-100642857D01*
X167650000Y-100738095D01*
X167697619Y-100785714D01*
X167792857Y-100833333D01*
X167935714Y-100833333D01*
X168030952Y-100785714D01*
X168078571Y-100738095D01*
X168126190Y-100642857D01*
X168126190Y-100261904D01*
X168602380Y-101785714D02*
X168602380Y-101214285D01*
X168602380Y-101500000D02*
X167602380Y-101500000D01*
X167745238Y-101404761D01*
X167840476Y-101309523D01*
X167888095Y-101214285D01*
X168461904Y-108333333D02*
X168080952Y-108000000D01*
X168461904Y-107761904D02*
X167661904Y-107761904D01*
X167661904Y-108142857D01*
X167700000Y-108238095D01*
X167738095Y-108285714D01*
X167814285Y-108333333D01*
X167928571Y-108333333D01*
X168004761Y-108285714D01*
X168042857Y-108238095D01*
X168080952Y-108142857D01*
X168080952Y-107761904D01*
X167738095Y-108714285D02*
X167700000Y-108761904D01*
X167661904Y-108857142D01*
X167661904Y-109095238D01*
X167700000Y-109190476D01*
X167738095Y-109238095D01*
X167814285Y-109285714D01*
X167890476Y-109285714D01*
X168004761Y-109238095D01*
X168461904Y-108666666D01*
X168461904Y-109285714D01*
X170511904Y-86833333D02*
X170130952Y-86500000D01*
X170511904Y-86261904D02*
X169711904Y-86261904D01*
X169711904Y-86642857D01*
X169750000Y-86738095D01*
X169788095Y-86785714D01*
X169864285Y-86833333D01*
X169978571Y-86833333D01*
X170054761Y-86785714D01*
X170092857Y-86738095D01*
X170130952Y-86642857D01*
X170130952Y-86261904D01*
X169711904Y-87166666D02*
X169711904Y-87785714D01*
X170016666Y-87452380D01*
X170016666Y-87595238D01*
X170054761Y-87690476D01*
X170092857Y-87738095D01*
X170169047Y-87785714D01*
X170359523Y-87785714D01*
X170435714Y-87738095D01*
X170473809Y-87690476D01*
X170511904Y-87595238D01*
X170511904Y-87309523D01*
X170473809Y-87214285D01*
X170435714Y-87166666D01*
X169366666Y-116161904D02*
X169700000Y-115780952D01*
X169938095Y-116161904D02*
X169938095Y-115361904D01*
X169557142Y-115361904D01*
X169461904Y-115400000D01*
X169414285Y-115438095D01*
X169366666Y-115514285D01*
X169366666Y-115628571D01*
X169414285Y-115704761D01*
X169461904Y-115742857D01*
X169557142Y-115780952D01*
X169938095Y-115780952D01*
X168509523Y-115628571D02*
X168509523Y-116161904D01*
X168747619Y-115323809D02*
X168985714Y-115895238D01*
X168366666Y-115895238D01*
X148861904Y-92833333D02*
X148480952Y-92500000D01*
X148861904Y-92261904D02*
X148061904Y-92261904D01*
X148061904Y-92642857D01*
X148100000Y-92738095D01*
X148138095Y-92785714D01*
X148214285Y-92833333D01*
X148328571Y-92833333D01*
X148404761Y-92785714D01*
X148442857Y-92738095D01*
X148480952Y-92642857D01*
X148480952Y-92261904D01*
X148061904Y-93690476D02*
X148061904Y-93500000D01*
X148100000Y-93404761D01*
X148138095Y-93357142D01*
X148252380Y-93261904D01*
X148404761Y-93214285D01*
X148709523Y-93214285D01*
X148785714Y-93261904D01*
X148823809Y-93309523D01*
X148861904Y-93404761D01*
X148861904Y-93595238D01*
X148823809Y-93690476D01*
X148785714Y-93738095D01*
X148709523Y-93785714D01*
X148519047Y-93785714D01*
X148442857Y-93738095D01*
X148404761Y-93690476D01*
X148366666Y-93595238D01*
X148366666Y-93404761D01*
X148404761Y-93309523D01*
X148442857Y-93261904D01*
X148519047Y-93214285D01*
X143751904Y-117833333D02*
X143370952Y-117500000D01*
X143751904Y-117261904D02*
X142951904Y-117261904D01*
X142951904Y-117642857D01*
X142990000Y-117738095D01*
X143028095Y-117785714D01*
X143104285Y-117833333D01*
X143218571Y-117833333D01*
X143294761Y-117785714D01*
X143332857Y-117738095D01*
X143370952Y-117642857D01*
X143370952Y-117261904D01*
X142951904Y-118166666D02*
X142951904Y-118833333D01*
X143751904Y-118404761D01*
X141166666Y-117461904D02*
X141500000Y-117080952D01*
X141738095Y-117461904D02*
X141738095Y-116661904D01*
X141357142Y-116661904D01*
X141261904Y-116700000D01*
X141214285Y-116738095D01*
X141166666Y-116814285D01*
X141166666Y-116928571D01*
X141214285Y-117004761D01*
X141261904Y-117042857D01*
X141357142Y-117080952D01*
X141738095Y-117080952D01*
X140595238Y-117004761D02*
X140690476Y-116966666D01*
X140738095Y-116928571D01*
X140785714Y-116852380D01*
X140785714Y-116814285D01*
X140738095Y-116738095D01*
X140690476Y-116700000D01*
X140595238Y-116661904D01*
X140404761Y-116661904D01*
X140309523Y-116700000D01*
X140261904Y-116738095D01*
X140214285Y-116814285D01*
X140214285Y-116852380D01*
X140261904Y-116928571D01*
X140309523Y-116966666D01*
X140404761Y-117004761D01*
X140595238Y-117004761D01*
X140690476Y-117042857D01*
X140738095Y-117080952D01*
X140785714Y-117157142D01*
X140785714Y-117309523D01*
X140738095Y-117385714D01*
X140690476Y-117423809D01*
X140595238Y-117461904D01*
X140404761Y-117461904D01*
X140309523Y-117423809D01*
X140261904Y-117385714D01*
X140214285Y-117309523D01*
X140214285Y-117157142D01*
X140261904Y-117080952D01*
X140309523Y-117042857D01*
X140404761Y-117004761D01*
X166511904Y-88061904D02*
X165940476Y-88061904D01*
X166226190Y-88861904D02*
X166226190Y-88061904D01*
X165607142Y-88861904D02*
X165607142Y-88061904D01*
X165226190Y-88061904D01*
X165130952Y-88100000D01*
X165083333Y-88138095D01*
X165035714Y-88214285D01*
X165035714Y-88328571D01*
X165083333Y-88404761D01*
X165130952Y-88442857D01*
X165226190Y-88480952D01*
X165607142Y-88480952D01*
X164654761Y-88138095D02*
X164607142Y-88100000D01*
X164511904Y-88061904D01*
X164273809Y-88061904D01*
X164178571Y-88100000D01*
X164130952Y-88138095D01*
X164083333Y-88214285D01*
X164083333Y-88290476D01*
X164130952Y-88404761D01*
X164702380Y-88861904D01*
X164083333Y-88861904D01*
X159261904Y-92061904D02*
X158690476Y-92061904D01*
X158976190Y-92861904D02*
X158976190Y-92061904D01*
X158357142Y-92861904D02*
X158357142Y-92061904D01*
X157976190Y-92061904D01*
X157880952Y-92100000D01*
X157833333Y-92138095D01*
X157785714Y-92214285D01*
X157785714Y-92328571D01*
X157833333Y-92404761D01*
X157880952Y-92442857D01*
X157976190Y-92480952D01*
X158357142Y-92480952D01*
X157452380Y-92061904D02*
X156833333Y-92061904D01*
X157166666Y-92366666D01*
X157023809Y-92366666D01*
X156928571Y-92404761D01*
X156880952Y-92442857D01*
X156833333Y-92519047D01*
X156833333Y-92709523D01*
X156880952Y-92785714D01*
X156928571Y-92823809D01*
X157023809Y-92861904D01*
X157309523Y-92861904D01*
X157404761Y-92823809D01*
X157452380Y-92785714D01*
X152821904Y-123808095D02*
X153469523Y-123808095D01*
X153545714Y-123855714D01*
X153583809Y-123903333D01*
X153621904Y-123998571D01*
X153621904Y-124189047D01*
X153583809Y-124284285D01*
X153545714Y-124331904D01*
X153469523Y-124379523D01*
X152821904Y-124379523D01*
X152898095Y-124808095D02*
X152860000Y-124855714D01*
X152821904Y-124950952D01*
X152821904Y-125189047D01*
X152860000Y-125284285D01*
X152898095Y-125331904D01*
X152974285Y-125379523D01*
X153050476Y-125379523D01*
X153164761Y-125331904D01*
X153621904Y-124760476D01*
X153621904Y-125379523D01*
X138461904Y-107738095D02*
X139109523Y-107738095D01*
X139185714Y-107785714D01*
X139223809Y-107833333D01*
X139261904Y-107928571D01*
X139261904Y-108119047D01*
X139223809Y-108214285D01*
X139185714Y-108261904D01*
X139109523Y-108309523D01*
X138461904Y-108309523D01*
X138461904Y-108690476D02*
X138461904Y-109309523D01*
X138766666Y-108976190D01*
X138766666Y-109119047D01*
X138804761Y-109214285D01*
X138842857Y-109261904D01*
X138919047Y-109309523D01*
X139109523Y-109309523D01*
X139185714Y-109261904D01*
X139223809Y-109214285D01*
X139261904Y-109119047D01*
X139261904Y-108833333D01*
X139223809Y-108738095D01*
X139185714Y-108690476D01*
X154351904Y-137642380D02*
X154351904Y-138175714D01*
X155151904Y-137642380D01*
X155151904Y-138175714D01*
X154618571Y-138823333D02*
X155151904Y-138823333D01*
X154313809Y-138632857D02*
X154885238Y-138442380D01*
X154885238Y-138937619D01*
X150476190Y-116560952D02*
X150476190Y-116941904D01*
X150809523Y-116141904D02*
X150476190Y-116560952D01*
X150142857Y-116141904D01*
X149857142Y-116218095D02*
X149809523Y-116180000D01*
X149714285Y-116141904D01*
X149476190Y-116141904D01*
X149380952Y-116180000D01*
X149333333Y-116218095D01*
X149285714Y-116294285D01*
X149285714Y-116370476D01*
X149333333Y-116484761D01*
X149904761Y-116941904D01*
X149285714Y-116941904D01*
X167426190Y-113480952D02*
X167426190Y-113861904D01*
X167759523Y-113061904D02*
X167426190Y-113480952D01*
X167092857Y-113061904D01*
X166235714Y-113861904D02*
X166807142Y-113861904D01*
X166521428Y-113861904D02*
X166521428Y-113061904D01*
X166616666Y-113176190D01*
X166711904Y-113252380D01*
X166807142Y-113290476D01*
X152646666Y-109875714D02*
X152694285Y-109913809D01*
X152837142Y-109951904D01*
X152932380Y-109951904D01*
X153075238Y-109913809D01*
X153170476Y-109837619D01*
X153218095Y-109761428D01*
X153265714Y-109609047D01*
X153265714Y-109494761D01*
X153218095Y-109342380D01*
X153170476Y-109266190D01*
X153075238Y-109190000D01*
X152932380Y-109151904D01*
X152837142Y-109151904D01*
X152694285Y-109190000D01*
X152646666Y-109228095D01*
X151741904Y-109151904D02*
X152218095Y-109151904D01*
X152265714Y-109532857D01*
X152218095Y-109494761D01*
X152122857Y-109456666D01*
X151884761Y-109456666D01*
X151789523Y-109494761D01*
X151741904Y-109532857D01*
X151694285Y-109609047D01*
X151694285Y-109799523D01*
X151741904Y-109875714D01*
X151789523Y-109913809D01*
X151884761Y-109951904D01*
X152122857Y-109951904D01*
X152218095Y-109913809D01*
X152265714Y-109875714D01*
X150185714Y-112907142D02*
X150223809Y-112859523D01*
X150261904Y-112716666D01*
X150261904Y-112621428D01*
X150223809Y-112478571D01*
X150147619Y-112383333D01*
X150071428Y-112335714D01*
X149919047Y-112288095D01*
X149804761Y-112288095D01*
X149652380Y-112335714D01*
X149576190Y-112383333D01*
X149500000Y-112478571D01*
X149461904Y-112621428D01*
X149461904Y-112716666D01*
X149500000Y-112859523D01*
X149538095Y-112907142D01*
X150261904Y-113859523D02*
X150261904Y-113288095D01*
X150261904Y-113573809D02*
X149461904Y-113573809D01*
X149576190Y-113478571D01*
X149652380Y-113383333D01*
X149690476Y-113288095D01*
X149538095Y-114240476D02*
X149500000Y-114288095D01*
X149461904Y-114383333D01*
X149461904Y-114621428D01*
X149500000Y-114716666D01*
X149538095Y-114764285D01*
X149614285Y-114811904D01*
X149690476Y-114811904D01*
X149804761Y-114764285D01*
X150261904Y-114192857D01*
X150261904Y-114811904D01*
M02*
