G04 #@! TF.GenerationSoftware,KiCad,Pcbnew,(5.1.5)-3*
G04 #@! TF.CreationDate,2021-07-28T10:17:32-03:00*
G04 #@! TF.ProjectId,relayer_hw,72656c61-7965-4725-9f68-772e6b696361,rev?*
G04 #@! TF.SameCoordinates,Original*
G04 #@! TF.FileFunction,Soldermask,Bot*
G04 #@! TF.FilePolarity,Negative*
%FSLAX46Y46*%
G04 Gerber Fmt 4.6, Leading zero omitted, Abs format (unit mm)*
G04 Created by KiCad (PCBNEW (5.1.5)-3) date 2021-07-28 10:17:32*
%MOMM*%
%LPD*%
G04 APERTURE LIST*
%ADD10C,0.100000*%
G04 APERTURE END LIST*
D10*
G36*
X134403894Y-135268526D02*
G01*
X134518332Y-135291289D01*
X134841725Y-135425243D01*
X135040667Y-135558172D01*
X135132771Y-135619714D01*
X135380286Y-135867229D01*
X135565517Y-136144447D01*
X135581062Y-136163389D01*
X135600004Y-136178934D01*
X135621615Y-136190485D01*
X135645064Y-136197598D01*
X135669450Y-136200000D01*
X138680954Y-136200000D01*
X138705340Y-136197598D01*
X138728789Y-136190485D01*
X138750400Y-136178934D01*
X138769342Y-136163389D01*
X138784887Y-136144447D01*
X138906227Y-135962848D01*
X139132848Y-135736227D01*
X139399327Y-135558172D01*
X139399328Y-135558171D01*
X139572776Y-135486327D01*
X139695422Y-135435525D01*
X139800200Y-135414683D01*
X140009753Y-135373000D01*
X140330247Y-135373000D01*
X140539800Y-135414683D01*
X140644578Y-135435525D01*
X140767224Y-135486327D01*
X140940672Y-135558171D01*
X140940673Y-135558172D01*
X141207152Y-135736227D01*
X141433773Y-135962848D01*
X141552746Y-136140904D01*
X141611829Y-136229328D01*
X141734475Y-136525423D01*
X141797000Y-136839753D01*
X141797000Y-137160247D01*
X141734475Y-137474577D01*
X141611829Y-137770672D01*
X141585875Y-137809515D01*
X141433773Y-138037152D01*
X141207152Y-138263773D01*
X141032777Y-138380286D01*
X140940672Y-138441829D01*
X140767224Y-138513673D01*
X140644578Y-138564475D01*
X140592887Y-138574757D01*
X140330247Y-138627000D01*
X140009753Y-138627000D01*
X139747113Y-138574757D01*
X139695422Y-138564475D01*
X139572776Y-138513673D01*
X139399328Y-138441829D01*
X139307223Y-138380286D01*
X139132848Y-138263773D01*
X138906227Y-138037152D01*
X138784886Y-137855552D01*
X138769342Y-137836611D01*
X138750400Y-137821066D01*
X138728789Y-137809515D01*
X138705340Y-137802402D01*
X138680954Y-137800000D01*
X135669450Y-137800000D01*
X135645064Y-137802402D01*
X135621615Y-137809515D01*
X135600004Y-137821066D01*
X135581062Y-137836611D01*
X135565519Y-137855550D01*
X135380286Y-138132771D01*
X135132771Y-138380286D01*
X134841725Y-138574757D01*
X134518332Y-138708711D01*
X134403894Y-138731474D01*
X134175021Y-138777000D01*
X133824979Y-138777000D01*
X133596106Y-138731474D01*
X133481668Y-138708711D01*
X133158275Y-138574757D01*
X132867229Y-138380286D01*
X132619714Y-138132771D01*
X132425243Y-137841725D01*
X132291289Y-137518332D01*
X132223000Y-137175019D01*
X132223000Y-136824981D01*
X132291289Y-136481668D01*
X132425243Y-136158275D01*
X132619714Y-135867229D01*
X132867229Y-135619714D01*
X133158275Y-135425243D01*
X133481668Y-135291289D01*
X133596106Y-135268526D01*
X133824979Y-135223000D01*
X134175021Y-135223000D01*
X134403894Y-135268526D01*
G37*
G36*
X147747000Y-86127000D02*
G01*
X146965506Y-86127000D01*
X146941120Y-86129402D01*
X146917671Y-86136515D01*
X146896060Y-86148066D01*
X146876949Y-86163782D01*
X144490000Y-88560000D01*
X136901777Y-88560000D01*
X136877391Y-88562402D01*
X136853942Y-88569515D01*
X136832331Y-88581066D01*
X136813389Y-88596611D01*
X135086661Y-90323339D01*
X135071116Y-90342281D01*
X135059565Y-90363892D01*
X135052452Y-90387341D01*
X135050050Y-90411844D01*
X135087449Y-128892746D01*
X135089875Y-128917130D01*
X135097011Y-128940572D01*
X135108583Y-128962172D01*
X135124723Y-128981670D01*
X135736087Y-129583945D01*
X137573788Y-131394326D01*
X137592846Y-131409729D01*
X137614542Y-131421118D01*
X137638044Y-131428055D01*
X137660832Y-131430276D01*
X139864405Y-131442252D01*
X143130000Y-131460000D01*
X146022500Y-134400000D01*
X146021099Y-135246458D01*
X146021096Y-135247794D01*
X146023458Y-135272184D01*
X146030532Y-135295645D01*
X146042047Y-135317275D01*
X146057561Y-135336242D01*
X146076477Y-135351819D01*
X146098069Y-135363406D01*
X146121506Y-135370558D01*
X146146095Y-135373000D01*
X146877000Y-135373000D01*
X146877000Y-138627000D01*
X143623000Y-138627000D01*
X143623000Y-135373000D01*
X144316943Y-135373000D01*
X144341329Y-135370598D01*
X144364778Y-135363485D01*
X144386389Y-135351934D01*
X144405331Y-135336389D01*
X144420876Y-135317447D01*
X144432427Y-135295836D01*
X144439540Y-135272387D01*
X144441932Y-135246458D01*
X144440626Y-135140691D01*
X144437924Y-135116336D01*
X144430522Y-135092977D01*
X144418705Y-135071510D01*
X144404244Y-135054066D01*
X142466836Y-133107019D01*
X142447933Y-133091428D01*
X142426351Y-133079823D01*
X142402920Y-133072652D01*
X142377778Y-133070190D01*
X140205123Y-133078105D01*
X136946144Y-133089978D01*
X136946140Y-133089978D01*
X136940000Y-133090000D01*
X133460000Y-129590000D01*
X133465517Y-107604000D01*
X133469998Y-89746141D01*
X133469998Y-89746136D01*
X133470000Y-89740000D01*
X136150000Y-86950000D01*
X143788035Y-86969865D01*
X143812425Y-86967526D01*
X143835893Y-86960474D01*
X143857533Y-86948979D01*
X143876746Y-86933254D01*
X145456389Y-85353611D01*
X145471934Y-85334669D01*
X145483485Y-85313058D01*
X145490598Y-85289609D01*
X145493000Y-85265223D01*
X145493000Y-84473000D01*
X147747000Y-84473000D01*
X147747000Y-86127000D01*
G37*
G36*
X156827000Y-131027000D02*
G01*
X156173000Y-131027000D01*
X156173000Y-130373000D01*
X156827000Y-130373000D01*
X156827000Y-131027000D01*
G37*
G36*
X154717354Y-127656446D02*
G01*
X154745097Y-127664862D01*
X154770665Y-127678529D01*
X154793079Y-127696923D01*
X154803375Y-127709469D01*
X154820702Y-127726796D01*
X154841077Y-127740410D01*
X154863716Y-127749787D01*
X154887749Y-127754567D01*
X154912253Y-127754567D01*
X154936286Y-127749786D01*
X154958925Y-127740409D01*
X154979299Y-127726795D01*
X154996625Y-127709469D01*
X155006921Y-127696923D01*
X155029335Y-127678529D01*
X155054903Y-127664862D01*
X155082646Y-127656446D01*
X155117640Y-127653000D01*
X155652360Y-127653000D01*
X155687354Y-127656446D01*
X155715097Y-127664862D01*
X155740665Y-127678529D01*
X155763078Y-127696922D01*
X155781471Y-127719335D01*
X155795138Y-127744903D01*
X155803554Y-127772646D01*
X155807573Y-127813455D01*
X155812353Y-127837488D01*
X155821731Y-127860127D01*
X155835345Y-127880502D01*
X155852672Y-127897829D01*
X155873046Y-127911442D01*
X155895685Y-127920820D01*
X155919718Y-127925600D01*
X155944222Y-127925600D01*
X155968255Y-127920820D01*
X155990894Y-127911442D01*
X156011269Y-127897828D01*
X156028596Y-127880501D01*
X156042209Y-127860127D01*
X156051587Y-127837488D01*
X156056367Y-127813452D01*
X156056446Y-127812646D01*
X156064862Y-127784903D01*
X156078529Y-127759335D01*
X156096922Y-127736922D01*
X156119335Y-127718529D01*
X156144903Y-127704862D01*
X156172646Y-127696446D01*
X156207640Y-127693000D01*
X156792360Y-127693000D01*
X156827354Y-127696446D01*
X156855097Y-127704862D01*
X156880665Y-127718529D01*
X156903078Y-127736922D01*
X156921471Y-127759335D01*
X156935138Y-127784903D01*
X156943554Y-127812646D01*
X156947000Y-127847640D01*
X156947000Y-128382360D01*
X156943554Y-128417354D01*
X156935138Y-128445097D01*
X156921471Y-128470665D01*
X156903077Y-128493079D01*
X156890531Y-128503375D01*
X156873204Y-128520702D01*
X156859590Y-128541077D01*
X156850213Y-128563716D01*
X156845433Y-128587749D01*
X156845433Y-128612253D01*
X156850214Y-128636286D01*
X156859591Y-128658925D01*
X156873205Y-128679299D01*
X156890531Y-128696625D01*
X156903077Y-128706921D01*
X156921471Y-128729335D01*
X156935138Y-128754903D01*
X156943554Y-128782646D01*
X156947000Y-128817640D01*
X156947000Y-129352360D01*
X156943554Y-129387354D01*
X156935138Y-129415097D01*
X156921471Y-129440665D01*
X156903078Y-129463078D01*
X156880665Y-129481471D01*
X156855097Y-129495138D01*
X156827354Y-129503554D01*
X156792360Y-129507000D01*
X156207640Y-129507000D01*
X156172646Y-129503554D01*
X156144903Y-129495138D01*
X156119335Y-129481471D01*
X156096922Y-129463078D01*
X156078529Y-129440665D01*
X156064862Y-129415097D01*
X156056446Y-129387354D01*
X156056367Y-129386548D01*
X156051587Y-129362514D01*
X156042211Y-129339875D01*
X156028597Y-129319501D01*
X156011271Y-129302173D01*
X155990897Y-129288559D01*
X155968258Y-129279181D01*
X155944225Y-129274400D01*
X155919721Y-129274400D01*
X155895687Y-129279180D01*
X155873048Y-129288556D01*
X155852674Y-129302170D01*
X155835346Y-129319496D01*
X155821732Y-129339870D01*
X155812354Y-129362509D01*
X155807573Y-129386545D01*
X155803554Y-129427354D01*
X155795138Y-129455097D01*
X155781471Y-129480665D01*
X155763078Y-129503078D01*
X155740665Y-129521471D01*
X155715097Y-129535138D01*
X155687354Y-129543554D01*
X155652360Y-129547000D01*
X155117640Y-129547000D01*
X155082646Y-129543554D01*
X155054903Y-129535138D01*
X155029335Y-129521471D01*
X155006921Y-129503077D01*
X154996625Y-129490531D01*
X154979298Y-129473204D01*
X154958923Y-129459590D01*
X154936284Y-129450213D01*
X154912251Y-129445433D01*
X154887747Y-129445433D01*
X154863714Y-129450214D01*
X154841075Y-129459591D01*
X154820701Y-129473205D01*
X154803375Y-129490531D01*
X154793079Y-129503077D01*
X154770665Y-129521471D01*
X154745097Y-129535138D01*
X154717354Y-129543554D01*
X154682360Y-129547000D01*
X154147640Y-129547000D01*
X154112646Y-129543554D01*
X154084903Y-129535138D01*
X154059335Y-129521471D01*
X154036922Y-129503078D01*
X154018529Y-129480665D01*
X154004862Y-129455097D01*
X153996446Y-129427354D01*
X153993000Y-129392360D01*
X153993000Y-128807640D01*
X153996446Y-128772646D01*
X154004862Y-128744903D01*
X154018529Y-128719335D01*
X154036924Y-128696920D01*
X154037285Y-128696624D01*
X154054612Y-128679297D01*
X154068225Y-128658922D01*
X154077602Y-128636283D01*
X154082382Y-128612250D01*
X154082382Y-128587750D01*
X154747618Y-128587750D01*
X154747618Y-128612255D01*
X154752399Y-128636288D01*
X154761777Y-128658926D01*
X154775391Y-128679300D01*
X154792715Y-128696624D01*
X154793077Y-128696921D01*
X154803375Y-128709469D01*
X154820702Y-128726796D01*
X154841077Y-128740410D01*
X154863716Y-128749787D01*
X154887749Y-128754567D01*
X154912253Y-128754567D01*
X154936286Y-128749786D01*
X154958925Y-128740409D01*
X154979299Y-128726795D01*
X154996625Y-128709469D01*
X155006923Y-128696921D01*
X155007285Y-128696624D01*
X155024612Y-128679297D01*
X155038225Y-128658922D01*
X155047602Y-128636283D01*
X155052382Y-128612250D01*
X155052382Y-128587750D01*
X155717618Y-128587750D01*
X155717618Y-128612255D01*
X155722399Y-128636288D01*
X155731777Y-128658926D01*
X155745391Y-128679300D01*
X155762715Y-128696624D01*
X155763076Y-128696920D01*
X155781471Y-128719335D01*
X155795138Y-128744903D01*
X155803554Y-128772646D01*
X155806095Y-128798453D01*
X155810875Y-128822486D01*
X155820252Y-128845125D01*
X155833865Y-128865500D01*
X155851192Y-128882827D01*
X155871566Y-128896441D01*
X155894205Y-128905819D01*
X155918238Y-128910600D01*
X155942742Y-128910600D01*
X155966775Y-128905820D01*
X155989414Y-128896443D01*
X156009789Y-128882830D01*
X156027116Y-128865503D01*
X156040730Y-128845129D01*
X156050108Y-128822490D01*
X156054889Y-128798456D01*
X156056446Y-128782646D01*
X156064862Y-128754903D01*
X156078529Y-128729335D01*
X156096923Y-128706921D01*
X156109469Y-128696625D01*
X156126796Y-128679298D01*
X156140410Y-128658923D01*
X156149787Y-128636284D01*
X156154567Y-128612251D01*
X156154567Y-128587747D01*
X156149786Y-128563714D01*
X156140409Y-128541075D01*
X156126795Y-128520701D01*
X156109469Y-128503375D01*
X156096923Y-128493079D01*
X156078529Y-128470665D01*
X156064862Y-128445097D01*
X156056446Y-128417354D01*
X156054889Y-128401544D01*
X156050108Y-128377510D01*
X156040731Y-128354872D01*
X156027117Y-128334497D01*
X156009789Y-128317171D01*
X155989415Y-128303557D01*
X155966776Y-128294180D01*
X155942743Y-128289400D01*
X155918239Y-128289400D01*
X155894205Y-128294181D01*
X155871567Y-128303558D01*
X155851192Y-128317172D01*
X155833866Y-128334500D01*
X155820252Y-128354874D01*
X155810875Y-128377513D01*
X155806095Y-128401547D01*
X155803554Y-128427354D01*
X155795138Y-128455097D01*
X155781471Y-128480665D01*
X155763076Y-128503080D01*
X155762715Y-128503376D01*
X155745388Y-128520703D01*
X155731775Y-128541078D01*
X155722398Y-128563717D01*
X155717618Y-128587750D01*
X155052382Y-128587750D01*
X155052382Y-128587745D01*
X155047601Y-128563712D01*
X155038223Y-128541074D01*
X155024609Y-128520700D01*
X155007285Y-128503376D01*
X155006923Y-128503079D01*
X154996625Y-128490531D01*
X154979298Y-128473204D01*
X154958923Y-128459590D01*
X154936284Y-128450213D01*
X154912251Y-128445433D01*
X154887747Y-128445433D01*
X154863714Y-128450214D01*
X154841075Y-128459591D01*
X154820701Y-128473205D01*
X154803375Y-128490531D01*
X154793077Y-128503079D01*
X154792715Y-128503376D01*
X154775388Y-128520703D01*
X154761775Y-128541078D01*
X154752398Y-128563717D01*
X154747618Y-128587750D01*
X154082382Y-128587750D01*
X154082382Y-128587745D01*
X154077601Y-128563712D01*
X154068223Y-128541074D01*
X154054609Y-128520700D01*
X154037285Y-128503376D01*
X154036924Y-128503080D01*
X154018529Y-128480665D01*
X154004862Y-128455097D01*
X153996446Y-128427354D01*
X153993000Y-128392360D01*
X153993000Y-127807640D01*
X153996446Y-127772646D01*
X154004862Y-127744903D01*
X154018529Y-127719335D01*
X154036922Y-127696922D01*
X154059335Y-127678529D01*
X154084903Y-127664862D01*
X154112646Y-127656446D01*
X154147640Y-127653000D01*
X154682360Y-127653000D01*
X154717354Y-127656446D01*
G37*
G36*
X169719867Y-126894655D02*
G01*
X169828734Y-126916310D01*
X170033835Y-127001266D01*
X170218421Y-127124602D01*
X170375398Y-127281579D01*
X170498734Y-127466165D01*
X170583690Y-127671266D01*
X170594735Y-127726795D01*
X170625310Y-127880501D01*
X170627000Y-127889000D01*
X170627000Y-128111000D01*
X170583690Y-128328734D01*
X170533371Y-128450214D01*
X170504174Y-128520703D01*
X170498734Y-128533835D01*
X170375398Y-128718421D01*
X170218421Y-128875398D01*
X170033835Y-128998734D01*
X169828734Y-129083690D01*
X169719867Y-129105345D01*
X169611001Y-129127000D01*
X169388999Y-129127000D01*
X169280133Y-129105345D01*
X169171266Y-129083690D01*
X168966165Y-128998734D01*
X168781579Y-128875398D01*
X168624602Y-128718421D01*
X168501266Y-128533835D01*
X168495827Y-128520703D01*
X168466629Y-128450214D01*
X168416310Y-128328734D01*
X168373000Y-128111000D01*
X168373000Y-127889000D01*
X168374691Y-127880501D01*
X168405265Y-127726795D01*
X168416310Y-127671266D01*
X168501266Y-127466165D01*
X168624602Y-127281579D01*
X168781579Y-127124602D01*
X168966165Y-127001266D01*
X169171266Y-126916310D01*
X169280133Y-126894655D01*
X169388999Y-126873000D01*
X169611001Y-126873000D01*
X169719867Y-126894655D01*
G37*
G36*
X163219867Y-126894655D02*
G01*
X163328734Y-126916310D01*
X163533835Y-127001266D01*
X163718421Y-127124602D01*
X163875398Y-127281579D01*
X163998734Y-127466165D01*
X164083690Y-127671266D01*
X164094735Y-127726795D01*
X164125310Y-127880501D01*
X164127000Y-127889000D01*
X164127000Y-128111000D01*
X164083690Y-128328734D01*
X164033371Y-128450214D01*
X164004174Y-128520703D01*
X163998734Y-128533835D01*
X163875398Y-128718421D01*
X163718421Y-128875398D01*
X163533835Y-128998734D01*
X163328734Y-129083690D01*
X163219867Y-129105345D01*
X163111001Y-129127000D01*
X162888999Y-129127000D01*
X162780133Y-129105345D01*
X162671266Y-129083690D01*
X162466165Y-128998734D01*
X162281579Y-128875398D01*
X162124602Y-128718421D01*
X162001266Y-128533835D01*
X161995827Y-128520703D01*
X161966629Y-128450214D01*
X161916310Y-128328734D01*
X161873000Y-128111000D01*
X161873000Y-127889000D01*
X161874691Y-127880501D01*
X161905265Y-127726795D01*
X161916310Y-127671266D01*
X162001266Y-127466165D01*
X162124602Y-127281579D01*
X162281579Y-127124602D01*
X162466165Y-127001266D01*
X162671266Y-126916310D01*
X162780133Y-126894655D01*
X162888999Y-126873000D01*
X163111001Y-126873000D01*
X163219867Y-126894655D01*
G37*
G36*
X155627000Y-125898001D02*
G01*
X155629402Y-125922387D01*
X155636515Y-125945836D01*
X155648066Y-125967447D01*
X155663611Y-125986389D01*
X155682553Y-126001934D01*
X155704164Y-126013485D01*
X155727613Y-126020598D01*
X155751999Y-126023000D01*
X157248001Y-126023000D01*
X157272387Y-126020598D01*
X157295836Y-126013485D01*
X157317447Y-126001934D01*
X157336389Y-125986389D01*
X157351934Y-125967447D01*
X157363485Y-125945836D01*
X157370598Y-125922387D01*
X157373000Y-125898001D01*
X157373000Y-125023000D01*
X158627000Y-125023000D01*
X158627000Y-126277000D01*
X157251999Y-126277000D01*
X157227613Y-126279402D01*
X157204164Y-126286515D01*
X157182553Y-126298066D01*
X157163611Y-126313611D01*
X157148066Y-126332553D01*
X157136515Y-126354164D01*
X157129402Y-126377613D01*
X157127000Y-126401999D01*
X157127000Y-126777000D01*
X155873000Y-126777000D01*
X155873000Y-126401999D01*
X155870598Y-126377613D01*
X155863485Y-126354164D01*
X155851934Y-126332553D01*
X155836389Y-126313611D01*
X155817447Y-126298066D01*
X155795836Y-126286515D01*
X155772387Y-126279402D01*
X155748001Y-126277000D01*
X154373000Y-126277000D01*
X154373000Y-125023000D01*
X155627000Y-125023000D01*
X155627000Y-125898001D01*
G37*
G36*
X150027000Y-126527000D02*
G01*
X147973000Y-126527000D01*
X147973000Y-124473000D01*
X150027000Y-124473000D01*
X150027000Y-126527000D01*
G37*
G36*
X143527000Y-126527000D02*
G01*
X141473000Y-126527000D01*
X141473000Y-124473000D01*
X143527000Y-124473000D01*
X143527000Y-126527000D01*
G37*
G36*
X140160358Y-124492733D02*
G01*
X140259565Y-124512467D01*
X140353016Y-124551176D01*
X140446468Y-124589885D01*
X140614672Y-124702275D01*
X140757725Y-124845328D01*
X140870115Y-125013532D01*
X140947533Y-125200436D01*
X140987000Y-125398848D01*
X140987000Y-125601152D01*
X140947533Y-125799564D01*
X140870115Y-125986468D01*
X140757725Y-126154672D01*
X140614672Y-126297725D01*
X140446468Y-126410115D01*
X140353016Y-126448824D01*
X140259565Y-126487533D01*
X140160358Y-126507267D01*
X140061152Y-126527000D01*
X139858848Y-126527000D01*
X139759642Y-126507267D01*
X139660435Y-126487533D01*
X139566984Y-126448824D01*
X139473532Y-126410115D01*
X139305328Y-126297725D01*
X139162275Y-126154672D01*
X139049885Y-125986468D01*
X138972467Y-125799564D01*
X138933000Y-125601152D01*
X138933000Y-125398848D01*
X138972467Y-125200436D01*
X139049885Y-125013532D01*
X139162275Y-124845328D01*
X139305328Y-124702275D01*
X139473532Y-124589885D01*
X139566984Y-124551176D01*
X139660435Y-124512467D01*
X139759642Y-124492733D01*
X139858848Y-124473000D01*
X140061152Y-124473000D01*
X140160358Y-124492733D01*
G37*
G36*
X146660358Y-124492733D02*
G01*
X146759565Y-124512467D01*
X146853016Y-124551176D01*
X146946468Y-124589885D01*
X147114672Y-124702275D01*
X147257725Y-124845328D01*
X147370115Y-125013532D01*
X147447533Y-125200436D01*
X147487000Y-125398848D01*
X147487000Y-125601152D01*
X147447533Y-125799564D01*
X147370115Y-125986468D01*
X147257725Y-126154672D01*
X147114672Y-126297725D01*
X146946468Y-126410115D01*
X146853016Y-126448824D01*
X146759565Y-126487533D01*
X146660358Y-126507267D01*
X146561152Y-126527000D01*
X146358848Y-126527000D01*
X146259642Y-126507267D01*
X146160435Y-126487533D01*
X146066984Y-126448824D01*
X145973532Y-126410115D01*
X145805328Y-126297725D01*
X145662275Y-126154672D01*
X145549885Y-125986468D01*
X145472467Y-125799564D01*
X145433000Y-125601152D01*
X145433000Y-125398848D01*
X145472467Y-125200436D01*
X145549885Y-125013532D01*
X145662275Y-124845328D01*
X145805328Y-124702275D01*
X145973532Y-124589885D01*
X146066984Y-124551176D01*
X146160435Y-124512467D01*
X146259642Y-124492733D01*
X146358848Y-124473000D01*
X146561152Y-124473000D01*
X146660358Y-124492733D01*
G37*
G36*
X169719867Y-122394655D02*
G01*
X169828734Y-122416310D01*
X170033835Y-122501266D01*
X170218421Y-122624602D01*
X170375398Y-122781579D01*
X170498734Y-122966165D01*
X170583690Y-123171266D01*
X170627000Y-123389000D01*
X170627000Y-123611000D01*
X170583690Y-123828734D01*
X170498734Y-124033835D01*
X170375398Y-124218421D01*
X170218421Y-124375398D01*
X170033835Y-124498734D01*
X169828734Y-124583690D01*
X169719867Y-124605345D01*
X169611001Y-124627000D01*
X169388999Y-124627000D01*
X169280133Y-124605345D01*
X169171266Y-124583690D01*
X168966165Y-124498734D01*
X168781579Y-124375398D01*
X168624602Y-124218421D01*
X168501266Y-124033835D01*
X168416310Y-123828734D01*
X168373000Y-123611000D01*
X168373000Y-123389000D01*
X168416310Y-123171266D01*
X168501266Y-122966165D01*
X168624602Y-122781579D01*
X168781579Y-122624602D01*
X168966165Y-122501266D01*
X169171266Y-122416310D01*
X169280133Y-122394655D01*
X169388999Y-122373000D01*
X169611001Y-122373000D01*
X169719867Y-122394655D01*
G37*
G36*
X163219867Y-122394655D02*
G01*
X163328734Y-122416310D01*
X163533835Y-122501266D01*
X163718421Y-122624602D01*
X163875398Y-122781579D01*
X163998734Y-122966165D01*
X164083690Y-123171266D01*
X164127000Y-123389000D01*
X164127000Y-123611000D01*
X164083690Y-123828734D01*
X163998734Y-124033835D01*
X163875398Y-124218421D01*
X163718421Y-124375398D01*
X163533835Y-124498734D01*
X163328734Y-124583690D01*
X163219867Y-124605345D01*
X163111001Y-124627000D01*
X162888999Y-124627000D01*
X162780133Y-124605345D01*
X162671266Y-124583690D01*
X162466165Y-124498734D01*
X162281579Y-124375398D01*
X162124602Y-124218421D01*
X162001266Y-124033835D01*
X161916310Y-123828734D01*
X161873000Y-123611000D01*
X161873000Y-123389000D01*
X161916310Y-123171266D01*
X162001266Y-122966165D01*
X162124602Y-122781579D01*
X162281579Y-122624602D01*
X162466165Y-122501266D01*
X162671266Y-122416310D01*
X162780133Y-122394655D01*
X162888999Y-122373000D01*
X163111001Y-122373000D01*
X163219867Y-122394655D01*
G37*
G36*
X158627000Y-124177000D02*
G01*
X157373000Y-124177000D01*
X157373000Y-122923000D01*
X158627000Y-122923000D01*
X158627000Y-124177000D01*
G37*
G36*
X157117000Y-123177000D02*
G01*
X155751999Y-123177000D01*
X155727613Y-123179402D01*
X155704164Y-123186515D01*
X155682553Y-123198066D01*
X155663611Y-123213611D01*
X155648066Y-123232553D01*
X155636515Y-123254164D01*
X155629402Y-123277613D01*
X155627000Y-123301999D01*
X155627000Y-124177000D01*
X154373000Y-124177000D01*
X154373000Y-122923000D01*
X155738001Y-122923000D01*
X155762387Y-122920598D01*
X155785836Y-122913485D01*
X155807447Y-122901934D01*
X155826389Y-122886389D01*
X155841934Y-122867447D01*
X155853485Y-122845836D01*
X155860598Y-122822387D01*
X155863000Y-122798001D01*
X155863000Y-122423000D01*
X157117000Y-122423000D01*
X157117000Y-123177000D01*
G37*
G36*
X152627000Y-121677000D02*
G01*
X150273000Y-121677000D01*
X150273000Y-117323000D01*
X152627000Y-117323000D01*
X152627000Y-121677000D01*
G37*
G36*
X149727000Y-121677000D02*
G01*
X147373000Y-121677000D01*
X147373000Y-117323000D01*
X149727000Y-117323000D01*
X149727000Y-121677000D01*
G37*
G36*
X157227000Y-121627000D02*
G01*
X156273000Y-121627000D01*
X156273000Y-119993000D01*
X157227000Y-119993000D01*
X157227000Y-121627000D01*
G37*
G36*
X158803585Y-119607534D02*
G01*
X158831328Y-119615950D01*
X158856896Y-119629617D01*
X158884075Y-119651922D01*
X158923920Y-119691767D01*
X158923931Y-119691776D01*
X159222330Y-119990175D01*
X159222339Y-119990186D01*
X159262184Y-120030031D01*
X159284489Y-120057210D01*
X159298156Y-120082778D01*
X159306572Y-120110521D01*
X159309413Y-120139374D01*
X159307822Y-120155528D01*
X159307822Y-120180032D01*
X159312602Y-120204065D01*
X159321979Y-120226704D01*
X159335593Y-120247079D01*
X159352920Y-120264406D01*
X159373294Y-120278020D01*
X159395933Y-120287397D01*
X159419966Y-120292178D01*
X159444472Y-120292178D01*
X159460626Y-120290587D01*
X159489479Y-120293428D01*
X159517222Y-120301844D01*
X159542790Y-120315511D01*
X159569969Y-120337816D01*
X159609814Y-120377661D01*
X159609825Y-120377670D01*
X159908224Y-120676069D01*
X159908233Y-120676080D01*
X159948078Y-120715925D01*
X159970383Y-120743104D01*
X159984050Y-120768672D01*
X159992466Y-120796415D01*
X159995307Y-120825269D01*
X159992466Y-120854123D01*
X159984050Y-120881866D01*
X159970383Y-120907434D01*
X159948078Y-120934613D01*
X159908233Y-120974458D01*
X159908224Y-120974469D01*
X159574469Y-121308224D01*
X159574458Y-121308233D01*
X159534613Y-121348078D01*
X159507434Y-121370383D01*
X159481866Y-121384050D01*
X159454123Y-121392466D01*
X159425269Y-121395307D01*
X159396415Y-121392466D01*
X159368672Y-121384050D01*
X159343104Y-121370383D01*
X159315925Y-121348078D01*
X159276080Y-121308233D01*
X159276069Y-121308224D01*
X158977670Y-121009825D01*
X158977661Y-121009814D01*
X158937816Y-120969969D01*
X158915511Y-120942790D01*
X158901844Y-120917222D01*
X158893428Y-120889479D01*
X158890587Y-120860625D01*
X158892178Y-120844472D01*
X158892178Y-120819968D01*
X158887398Y-120795935D01*
X158878021Y-120773296D01*
X158864407Y-120752921D01*
X158847080Y-120735594D01*
X158826706Y-120721980D01*
X158804067Y-120712603D01*
X158780034Y-120707822D01*
X158755528Y-120707822D01*
X158739374Y-120709413D01*
X158710521Y-120706572D01*
X158682778Y-120698156D01*
X158657210Y-120684489D01*
X158630031Y-120662184D01*
X158590186Y-120622339D01*
X158590175Y-120622330D01*
X158291776Y-120323931D01*
X158291767Y-120323920D01*
X158251922Y-120284075D01*
X158229617Y-120256896D01*
X158215950Y-120231328D01*
X158207534Y-120203585D01*
X158204693Y-120174731D01*
X158207534Y-120145877D01*
X158215950Y-120118134D01*
X158229617Y-120092566D01*
X158251922Y-120065387D01*
X158291767Y-120025542D01*
X158291776Y-120025531D01*
X158625531Y-119691776D01*
X158625542Y-119691767D01*
X158665387Y-119651922D01*
X158692566Y-119629617D01*
X158718134Y-119615950D01*
X158745877Y-119607534D01*
X158774731Y-119604693D01*
X158803585Y-119607534D01*
G37*
G36*
X154367354Y-119356446D02*
G01*
X154395097Y-119364862D01*
X154420665Y-119378529D01*
X154443079Y-119396923D01*
X154453375Y-119409469D01*
X154470702Y-119426796D01*
X154491077Y-119440410D01*
X154513716Y-119449787D01*
X154537749Y-119454567D01*
X154562253Y-119454567D01*
X154586286Y-119449786D01*
X154608925Y-119440409D01*
X154629299Y-119426795D01*
X154646625Y-119409469D01*
X154656921Y-119396923D01*
X154679335Y-119378529D01*
X154704903Y-119364862D01*
X154732646Y-119356446D01*
X154767640Y-119353000D01*
X155302360Y-119353000D01*
X155337354Y-119356446D01*
X155365097Y-119364862D01*
X155390665Y-119378529D01*
X155413078Y-119396922D01*
X155431471Y-119419335D01*
X155445138Y-119444903D01*
X155453554Y-119472646D01*
X155457000Y-119507640D01*
X155457000Y-120092360D01*
X155453554Y-120127354D01*
X155445138Y-120155097D01*
X155431471Y-120180665D01*
X155413078Y-120203078D01*
X155390667Y-120221470D01*
X155356447Y-120239761D01*
X155336073Y-120253375D01*
X155318746Y-120270702D01*
X155305132Y-120291077D01*
X155295755Y-120313715D01*
X155290975Y-120337749D01*
X155290975Y-120362253D01*
X155295756Y-120386286D01*
X155305133Y-120408925D01*
X155318747Y-120429299D01*
X155336074Y-120446626D01*
X155356447Y-120460239D01*
X155390667Y-120478530D01*
X155413078Y-120496922D01*
X155431471Y-120519335D01*
X155445138Y-120544903D01*
X155453554Y-120572646D01*
X155457000Y-120607640D01*
X155457000Y-121192360D01*
X155453554Y-121227354D01*
X155445138Y-121255097D01*
X155431471Y-121280665D01*
X155413078Y-121303078D01*
X155390665Y-121321471D01*
X155365097Y-121335138D01*
X155337354Y-121343554D01*
X155302360Y-121347000D01*
X154767640Y-121347000D01*
X154732646Y-121343554D01*
X154704903Y-121335138D01*
X154679335Y-121321471D01*
X154656921Y-121303077D01*
X154646625Y-121290531D01*
X154629298Y-121273204D01*
X154608923Y-121259590D01*
X154586284Y-121250213D01*
X154562251Y-121245433D01*
X154537747Y-121245433D01*
X154513714Y-121250214D01*
X154491075Y-121259591D01*
X154470701Y-121273205D01*
X154453375Y-121290531D01*
X154443079Y-121303077D01*
X154420665Y-121321471D01*
X154395097Y-121335138D01*
X154367354Y-121343554D01*
X154332360Y-121347000D01*
X153797640Y-121347000D01*
X153762646Y-121343554D01*
X153734903Y-121335138D01*
X153709335Y-121321471D01*
X153686922Y-121303078D01*
X153668529Y-121280665D01*
X153654862Y-121255097D01*
X153646446Y-121227354D01*
X153643000Y-121192360D01*
X153643000Y-120607640D01*
X153646446Y-120572646D01*
X153654862Y-120544903D01*
X153668529Y-120519335D01*
X153686922Y-120496922D01*
X153709333Y-120478530D01*
X153743553Y-120460239D01*
X153763927Y-120446625D01*
X153781254Y-120429298D01*
X153794868Y-120408923D01*
X153804245Y-120386285D01*
X153809025Y-120362251D01*
X153809025Y-120337749D01*
X154320975Y-120337749D01*
X154320975Y-120362253D01*
X154325756Y-120386286D01*
X154335133Y-120408925D01*
X154348747Y-120429299D01*
X154366074Y-120446626D01*
X154386447Y-120460239D01*
X154420667Y-120478530D01*
X154443079Y-120496923D01*
X154453375Y-120509469D01*
X154470702Y-120526796D01*
X154491077Y-120540410D01*
X154513716Y-120549787D01*
X154537749Y-120554567D01*
X154562253Y-120554567D01*
X154586286Y-120549786D01*
X154608925Y-120540409D01*
X154629299Y-120526795D01*
X154646625Y-120509469D01*
X154656921Y-120496923D01*
X154679333Y-120478530D01*
X154713553Y-120460239D01*
X154733927Y-120446625D01*
X154751254Y-120429298D01*
X154764868Y-120408923D01*
X154774245Y-120386285D01*
X154779025Y-120362251D01*
X154779025Y-120337747D01*
X154774244Y-120313714D01*
X154764867Y-120291075D01*
X154751253Y-120270701D01*
X154733926Y-120253374D01*
X154713553Y-120239761D01*
X154679333Y-120221470D01*
X154656921Y-120203077D01*
X154646625Y-120190531D01*
X154629298Y-120173204D01*
X154608923Y-120159590D01*
X154586284Y-120150213D01*
X154562251Y-120145433D01*
X154537747Y-120145433D01*
X154513714Y-120150214D01*
X154491075Y-120159591D01*
X154470701Y-120173205D01*
X154453375Y-120190531D01*
X154443079Y-120203077D01*
X154420667Y-120221470D01*
X154386447Y-120239761D01*
X154366073Y-120253375D01*
X154348746Y-120270702D01*
X154335132Y-120291077D01*
X154325755Y-120313715D01*
X154320975Y-120337749D01*
X153809025Y-120337749D01*
X153809025Y-120337747D01*
X153804244Y-120313714D01*
X153794867Y-120291075D01*
X153781253Y-120270701D01*
X153763926Y-120253374D01*
X153743553Y-120239761D01*
X153709333Y-120221470D01*
X153686922Y-120203078D01*
X153668529Y-120180665D01*
X153654862Y-120155097D01*
X153646446Y-120127354D01*
X153643000Y-120092360D01*
X153643000Y-119507640D01*
X153646446Y-119472646D01*
X153654862Y-119444903D01*
X153668529Y-119419335D01*
X153686922Y-119396922D01*
X153709335Y-119378529D01*
X153734903Y-119364862D01*
X153762646Y-119356446D01*
X153797640Y-119353000D01*
X154332360Y-119353000D01*
X154367354Y-119356446D01*
G37*
G36*
X165977000Y-120477000D02*
G01*
X164023000Y-120477000D01*
X164023000Y-118523000D01*
X165977000Y-118523000D01*
X165977000Y-120477000D01*
G37*
G36*
X169767354Y-119306446D02*
G01*
X169795097Y-119314862D01*
X169820665Y-119328529D01*
X169843079Y-119346923D01*
X169853375Y-119359469D01*
X169870702Y-119376796D01*
X169891077Y-119390410D01*
X169913716Y-119399787D01*
X169937749Y-119404567D01*
X169962253Y-119404567D01*
X169986286Y-119399786D01*
X170008925Y-119390409D01*
X170029299Y-119376795D01*
X170046625Y-119359469D01*
X170056921Y-119346923D01*
X170079335Y-119328529D01*
X170104903Y-119314862D01*
X170132646Y-119306446D01*
X170167640Y-119303000D01*
X170702360Y-119303000D01*
X170737354Y-119306446D01*
X170765097Y-119314862D01*
X170790665Y-119328529D01*
X170813078Y-119346922D01*
X170831471Y-119369335D01*
X170845138Y-119394903D01*
X170853554Y-119422646D01*
X170857000Y-119457640D01*
X170857000Y-120042360D01*
X170853554Y-120077354D01*
X170845138Y-120105097D01*
X170831471Y-120130665D01*
X170813078Y-120153078D01*
X170790665Y-120171471D01*
X170765097Y-120185138D01*
X170737354Y-120193554D01*
X170702360Y-120197000D01*
X170167640Y-120197000D01*
X170132646Y-120193554D01*
X170104903Y-120185138D01*
X170079335Y-120171471D01*
X170056921Y-120153077D01*
X170046625Y-120140531D01*
X170029298Y-120123204D01*
X170008923Y-120109590D01*
X169986284Y-120100213D01*
X169962251Y-120095433D01*
X169937747Y-120095433D01*
X169913714Y-120100214D01*
X169891075Y-120109591D01*
X169870701Y-120123205D01*
X169853375Y-120140531D01*
X169843079Y-120153077D01*
X169820665Y-120171471D01*
X169795097Y-120185138D01*
X169767354Y-120193554D01*
X169732360Y-120197000D01*
X169197640Y-120197000D01*
X169162646Y-120193554D01*
X169134903Y-120185138D01*
X169109335Y-120171471D01*
X169086922Y-120153078D01*
X169068529Y-120130665D01*
X169054862Y-120105097D01*
X169046446Y-120077354D01*
X169043000Y-120042360D01*
X169043000Y-119457640D01*
X169046446Y-119422646D01*
X169054862Y-119394903D01*
X169068529Y-119369335D01*
X169086922Y-119346922D01*
X169109335Y-119328529D01*
X169134903Y-119314862D01*
X169162646Y-119306446D01*
X169197640Y-119303000D01*
X169732360Y-119303000D01*
X169767354Y-119306446D01*
G37*
G36*
X145638076Y-118328100D02*
G01*
X145681967Y-118341414D01*
X145722419Y-118363036D01*
X145757870Y-118392130D01*
X145786964Y-118427581D01*
X145808586Y-118468033D01*
X145821900Y-118511924D01*
X145827000Y-118563705D01*
X145827000Y-119486295D01*
X145821900Y-119538076D01*
X145808586Y-119581967D01*
X145786964Y-119622419D01*
X145757870Y-119657870D01*
X145722419Y-119686964D01*
X145681967Y-119708586D01*
X145638076Y-119721900D01*
X145586295Y-119727000D01*
X144413705Y-119727000D01*
X144361924Y-119721900D01*
X144318033Y-119708586D01*
X144277581Y-119686964D01*
X144242130Y-119657870D01*
X144213036Y-119622419D01*
X144191414Y-119581967D01*
X144178100Y-119538076D01*
X144173000Y-119486295D01*
X144173000Y-118563705D01*
X144178100Y-118511924D01*
X144191414Y-118468033D01*
X144213036Y-118427581D01*
X144242130Y-118392130D01*
X144277581Y-118363036D01*
X144318033Y-118341414D01*
X144361924Y-118328100D01*
X144413705Y-118323000D01*
X145586295Y-118323000D01*
X145638076Y-118328100D01*
G37*
G36*
X160762000Y-111463001D02*
G01*
X160764402Y-111487387D01*
X160771515Y-111510836D01*
X160783066Y-111532447D01*
X160798611Y-111551389D01*
X160817553Y-111566934D01*
X160839164Y-111578485D01*
X160862613Y-111585598D01*
X160886999Y-111588000D01*
X161742000Y-111588000D01*
X161742000Y-117612000D01*
X160886999Y-117612000D01*
X160862613Y-117614402D01*
X160839164Y-117621515D01*
X160817553Y-117633066D01*
X160798611Y-117648611D01*
X160783066Y-117667553D01*
X160771515Y-117689164D01*
X160764402Y-117712613D01*
X160762000Y-117736999D01*
X160762000Y-118592000D01*
X154738000Y-118592000D01*
X154738000Y-117736999D01*
X154735598Y-117712613D01*
X154728485Y-117689164D01*
X154716934Y-117667553D01*
X154701389Y-117648611D01*
X154682447Y-117633066D01*
X154660836Y-117621515D01*
X154637387Y-117614402D01*
X154613001Y-117612000D01*
X153758000Y-117612000D01*
X153758000Y-111588000D01*
X154613001Y-111588000D01*
X154637387Y-111585598D01*
X154660836Y-111578485D01*
X154682447Y-111566934D01*
X154701389Y-111551389D01*
X154716934Y-111532447D01*
X154728485Y-111510836D01*
X154735598Y-111487387D01*
X154738000Y-111463001D01*
X154738000Y-110608000D01*
X160762000Y-110608000D01*
X160762000Y-111463001D01*
G37*
G36*
X168688076Y-116478100D02*
G01*
X168731967Y-116491414D01*
X168772419Y-116513036D01*
X168807870Y-116542130D01*
X168836964Y-116577581D01*
X168858586Y-116618033D01*
X168871900Y-116661924D01*
X168877000Y-116713705D01*
X168877000Y-117886295D01*
X168871900Y-117938076D01*
X168858586Y-117981967D01*
X168836964Y-118022419D01*
X168807870Y-118057870D01*
X168772419Y-118086964D01*
X168731967Y-118108586D01*
X168688076Y-118121900D01*
X168636295Y-118127000D01*
X167713705Y-118127000D01*
X167661924Y-118121900D01*
X167618033Y-118108586D01*
X167577581Y-118086964D01*
X167542130Y-118057870D01*
X167513036Y-118022419D01*
X167491414Y-117981967D01*
X167478100Y-117938076D01*
X167473000Y-117886295D01*
X167473000Y-116713705D01*
X167478100Y-116661924D01*
X167491414Y-116618033D01*
X167513036Y-116577581D01*
X167542130Y-116542130D01*
X167577581Y-116513036D01*
X167618033Y-116491414D01*
X167661924Y-116478100D01*
X167713705Y-116473000D01*
X168636295Y-116473000D01*
X168688076Y-116478100D01*
G37*
G36*
X170738076Y-116478100D02*
G01*
X170781967Y-116491414D01*
X170822419Y-116513036D01*
X170857870Y-116542130D01*
X170886964Y-116577581D01*
X170908586Y-116618033D01*
X170921900Y-116661924D01*
X170927000Y-116713705D01*
X170927000Y-117886295D01*
X170921900Y-117938076D01*
X170908586Y-117981967D01*
X170886964Y-118022419D01*
X170857870Y-118057870D01*
X170822419Y-118086964D01*
X170781967Y-118108586D01*
X170738076Y-118121900D01*
X170686295Y-118127000D01*
X169763705Y-118127000D01*
X169711924Y-118121900D01*
X169668033Y-118108586D01*
X169627581Y-118086964D01*
X169592130Y-118057870D01*
X169563036Y-118022419D01*
X169541414Y-117981967D01*
X169528100Y-117938076D01*
X169523000Y-117886295D01*
X169523000Y-116713705D01*
X169528100Y-116661924D01*
X169541414Y-116618033D01*
X169563036Y-116577581D01*
X169592130Y-116542130D01*
X169627581Y-116513036D01*
X169668033Y-116491414D01*
X169711924Y-116478100D01*
X169763705Y-116473000D01*
X170686295Y-116473000D01*
X170738076Y-116478100D01*
G37*
G36*
X145638076Y-116278100D02*
G01*
X145681967Y-116291414D01*
X145722419Y-116313036D01*
X145757870Y-116342130D01*
X145786964Y-116377581D01*
X145808586Y-116418033D01*
X145821900Y-116461924D01*
X145827000Y-116513705D01*
X145827000Y-117436295D01*
X145821900Y-117488076D01*
X145808586Y-117531967D01*
X145786964Y-117572419D01*
X145757870Y-117607870D01*
X145722419Y-117636964D01*
X145681967Y-117658586D01*
X145638076Y-117671900D01*
X145586295Y-117677000D01*
X144413705Y-117677000D01*
X144361924Y-117671900D01*
X144318033Y-117658586D01*
X144277581Y-117636964D01*
X144242130Y-117607870D01*
X144213036Y-117572419D01*
X144191414Y-117531967D01*
X144178100Y-117488076D01*
X144173000Y-117436295D01*
X144173000Y-116513705D01*
X144178100Y-116461924D01*
X144191414Y-116418033D01*
X144213036Y-116377581D01*
X144242130Y-116342130D01*
X144277581Y-116313036D01*
X144318033Y-116291414D01*
X144361924Y-116278100D01*
X144413705Y-116273000D01*
X145586295Y-116273000D01*
X145638076Y-116278100D01*
G37*
G36*
X163817354Y-116656446D02*
G01*
X163845097Y-116664862D01*
X163870665Y-116678529D01*
X163893079Y-116696923D01*
X163903375Y-116709469D01*
X163920702Y-116726796D01*
X163941077Y-116740410D01*
X163963716Y-116749787D01*
X163987749Y-116754567D01*
X164012253Y-116754567D01*
X164036286Y-116749786D01*
X164058925Y-116740409D01*
X164079299Y-116726795D01*
X164096625Y-116709469D01*
X164106921Y-116696923D01*
X164129335Y-116678529D01*
X164154903Y-116664862D01*
X164182646Y-116656446D01*
X164217640Y-116653000D01*
X164752360Y-116653000D01*
X164787354Y-116656446D01*
X164815097Y-116664862D01*
X164840665Y-116678529D01*
X164863078Y-116696922D01*
X164881471Y-116719335D01*
X164895138Y-116744903D01*
X164903554Y-116772646D01*
X164907000Y-116807640D01*
X164907000Y-117392360D01*
X164903554Y-117427354D01*
X164895138Y-117455097D01*
X164881471Y-117480665D01*
X164863078Y-117503078D01*
X164840665Y-117521471D01*
X164815097Y-117535138D01*
X164787354Y-117543554D01*
X164752360Y-117547000D01*
X164217640Y-117547000D01*
X164182646Y-117543554D01*
X164154903Y-117535138D01*
X164129335Y-117521471D01*
X164106921Y-117503077D01*
X164096625Y-117490531D01*
X164079298Y-117473204D01*
X164058923Y-117459590D01*
X164036284Y-117450213D01*
X164012251Y-117445433D01*
X163987747Y-117445433D01*
X163963714Y-117450214D01*
X163941075Y-117459591D01*
X163920701Y-117473205D01*
X163903375Y-117490531D01*
X163893079Y-117503077D01*
X163870665Y-117521471D01*
X163845097Y-117535138D01*
X163817354Y-117543554D01*
X163782360Y-117547000D01*
X163247640Y-117547000D01*
X163212646Y-117543554D01*
X163184903Y-117535138D01*
X163159335Y-117521471D01*
X163136922Y-117503078D01*
X163118529Y-117480665D01*
X163104862Y-117455097D01*
X163096446Y-117427354D01*
X163093000Y-117392360D01*
X163093000Y-116807640D01*
X163096446Y-116772646D01*
X163104862Y-116744903D01*
X163118529Y-116719335D01*
X163136922Y-116696922D01*
X163159335Y-116678529D01*
X163184903Y-116664862D01*
X163212646Y-116656446D01*
X163247640Y-116653000D01*
X163782360Y-116653000D01*
X163817354Y-116656446D01*
G37*
G36*
X142538076Y-114678100D02*
G01*
X142581967Y-114691414D01*
X142622419Y-114713036D01*
X142657870Y-114742130D01*
X142686964Y-114777581D01*
X142708586Y-114818033D01*
X142721900Y-114861924D01*
X142727000Y-114913705D01*
X142727000Y-116086295D01*
X142721900Y-116138076D01*
X142708586Y-116181967D01*
X142686964Y-116222419D01*
X142657870Y-116257870D01*
X142622419Y-116286964D01*
X142581967Y-116308586D01*
X142538076Y-116321900D01*
X142486295Y-116327000D01*
X141563705Y-116327000D01*
X141511924Y-116321900D01*
X141468033Y-116308586D01*
X141427581Y-116286964D01*
X141392130Y-116257870D01*
X141363036Y-116222419D01*
X141341414Y-116181967D01*
X141328100Y-116138076D01*
X141323000Y-116086295D01*
X141323000Y-114913705D01*
X141328100Y-114861924D01*
X141341414Y-114818033D01*
X141363036Y-114777581D01*
X141392130Y-114742130D01*
X141427581Y-114713036D01*
X141468033Y-114691414D01*
X141511924Y-114678100D01*
X141563705Y-114673000D01*
X142486295Y-114673000D01*
X142538076Y-114678100D01*
G37*
G36*
X140488076Y-114678100D02*
G01*
X140531967Y-114691414D01*
X140572419Y-114713036D01*
X140607870Y-114742130D01*
X140636964Y-114777581D01*
X140658586Y-114818033D01*
X140671900Y-114861924D01*
X140677000Y-114913705D01*
X140677000Y-116086295D01*
X140671900Y-116138076D01*
X140658586Y-116181967D01*
X140636964Y-116222419D01*
X140607870Y-116257870D01*
X140572419Y-116286964D01*
X140531967Y-116308586D01*
X140488076Y-116321900D01*
X140436295Y-116327000D01*
X139513705Y-116327000D01*
X139461924Y-116321900D01*
X139418033Y-116308586D01*
X139377581Y-116286964D01*
X139342130Y-116257870D01*
X139313036Y-116222419D01*
X139291414Y-116181967D01*
X139278100Y-116138076D01*
X139273000Y-116086295D01*
X139273000Y-114913705D01*
X139278100Y-114861924D01*
X139291414Y-114818033D01*
X139313036Y-114777581D01*
X139342130Y-114742130D01*
X139377581Y-114713036D01*
X139418033Y-114691414D01*
X139461924Y-114678100D01*
X139513705Y-114673000D01*
X140436295Y-114673000D01*
X140488076Y-114678100D01*
G37*
G36*
X164467354Y-114456446D02*
G01*
X164495097Y-114464862D01*
X164520665Y-114478529D01*
X164543079Y-114496923D01*
X164553375Y-114509469D01*
X164570702Y-114526796D01*
X164591077Y-114540410D01*
X164613716Y-114549787D01*
X164637749Y-114554567D01*
X164662253Y-114554567D01*
X164686286Y-114549786D01*
X164708925Y-114540409D01*
X164729299Y-114526795D01*
X164746625Y-114509469D01*
X164756921Y-114496923D01*
X164779335Y-114478529D01*
X164804903Y-114464862D01*
X164832646Y-114456446D01*
X164867640Y-114453000D01*
X165402360Y-114453000D01*
X165437354Y-114456446D01*
X165465097Y-114464862D01*
X165490665Y-114478529D01*
X165513078Y-114496922D01*
X165531471Y-114519335D01*
X165545138Y-114544903D01*
X165553554Y-114572646D01*
X165557000Y-114607640D01*
X165557000Y-115192360D01*
X165553554Y-115227354D01*
X165545138Y-115255097D01*
X165531471Y-115280665D01*
X165513078Y-115303078D01*
X165490665Y-115321471D01*
X165465097Y-115335138D01*
X165437354Y-115343554D01*
X165402360Y-115347000D01*
X164867640Y-115347000D01*
X164832646Y-115343554D01*
X164804903Y-115335138D01*
X164779335Y-115321471D01*
X164756921Y-115303077D01*
X164746625Y-115290531D01*
X164729298Y-115273204D01*
X164708923Y-115259590D01*
X164686284Y-115250213D01*
X164662251Y-115245433D01*
X164637747Y-115245433D01*
X164613714Y-115250214D01*
X164591075Y-115259591D01*
X164570701Y-115273205D01*
X164553375Y-115290531D01*
X164543079Y-115303077D01*
X164520665Y-115321471D01*
X164495097Y-115335138D01*
X164467354Y-115343554D01*
X164432360Y-115347000D01*
X163897640Y-115347000D01*
X163862646Y-115343554D01*
X163834903Y-115335138D01*
X163809335Y-115321471D01*
X163786922Y-115303078D01*
X163768529Y-115280665D01*
X163754862Y-115255097D01*
X163746446Y-115227354D01*
X163743000Y-115192360D01*
X163743000Y-114607640D01*
X163746446Y-114572646D01*
X163754862Y-114544903D01*
X163768529Y-114519335D01*
X163786922Y-114496922D01*
X163809335Y-114478529D01*
X163834903Y-114464862D01*
X163862646Y-114456446D01*
X163897640Y-114453000D01*
X164432360Y-114453000D01*
X164467354Y-114456446D01*
G37*
G36*
X152477354Y-112646446D02*
G01*
X152505097Y-112654862D01*
X152530665Y-112668529D01*
X152553078Y-112686922D01*
X152571471Y-112709335D01*
X152585138Y-112734903D01*
X152593554Y-112762646D01*
X152597000Y-112797640D01*
X152597000Y-113332360D01*
X152593554Y-113367354D01*
X152585138Y-113395097D01*
X152571471Y-113420665D01*
X152553077Y-113443079D01*
X152540531Y-113453375D01*
X152523204Y-113470702D01*
X152509590Y-113491077D01*
X152500213Y-113513716D01*
X152495433Y-113537749D01*
X152495433Y-113562253D01*
X152500214Y-113586286D01*
X152509591Y-113608925D01*
X152523205Y-113629299D01*
X152540531Y-113646625D01*
X152553077Y-113656921D01*
X152571471Y-113679335D01*
X152585138Y-113704903D01*
X152593554Y-113732646D01*
X152597000Y-113767640D01*
X152597000Y-114302360D01*
X152593554Y-114337354D01*
X152585138Y-114365097D01*
X152571471Y-114390665D01*
X152553078Y-114413078D01*
X152530665Y-114431471D01*
X152505097Y-114445138D01*
X152477354Y-114453554D01*
X152442360Y-114457000D01*
X151857640Y-114457000D01*
X151822646Y-114453554D01*
X151794903Y-114445138D01*
X151769335Y-114431471D01*
X151746922Y-114413078D01*
X151728529Y-114390665D01*
X151714862Y-114365097D01*
X151706446Y-114337354D01*
X151703000Y-114302360D01*
X151703000Y-113767640D01*
X151706446Y-113732646D01*
X151714862Y-113704903D01*
X151728529Y-113679335D01*
X151746923Y-113656921D01*
X151759469Y-113646625D01*
X151776796Y-113629298D01*
X151790410Y-113608923D01*
X151799787Y-113586284D01*
X151804567Y-113562251D01*
X151804567Y-113537747D01*
X151799786Y-113513714D01*
X151790409Y-113491075D01*
X151776795Y-113470701D01*
X151759469Y-113453375D01*
X151746923Y-113443079D01*
X151728529Y-113420665D01*
X151714862Y-113395097D01*
X151706446Y-113367354D01*
X151703000Y-113332360D01*
X151703000Y-112797640D01*
X151706446Y-112762646D01*
X151714862Y-112734903D01*
X151728529Y-112709335D01*
X151746922Y-112686922D01*
X151769335Y-112668529D01*
X151794903Y-112654862D01*
X151822646Y-112646446D01*
X151857640Y-112643000D01*
X152442360Y-112643000D01*
X152477354Y-112646446D01*
G37*
G36*
X151277354Y-112646446D02*
G01*
X151305097Y-112654862D01*
X151330665Y-112668529D01*
X151353078Y-112686922D01*
X151371471Y-112709335D01*
X151385138Y-112734903D01*
X151393554Y-112762646D01*
X151397000Y-112797640D01*
X151397000Y-113332360D01*
X151393554Y-113367354D01*
X151385138Y-113395097D01*
X151371471Y-113420665D01*
X151353077Y-113443079D01*
X151340531Y-113453375D01*
X151323204Y-113470702D01*
X151309590Y-113491077D01*
X151300213Y-113513716D01*
X151295433Y-113537749D01*
X151295433Y-113562253D01*
X151300214Y-113586286D01*
X151309591Y-113608925D01*
X151323205Y-113629299D01*
X151340531Y-113646625D01*
X151353077Y-113656921D01*
X151371471Y-113679335D01*
X151385138Y-113704903D01*
X151393554Y-113732646D01*
X151397000Y-113767640D01*
X151397000Y-114302360D01*
X151393554Y-114337354D01*
X151385138Y-114365097D01*
X151371471Y-114390665D01*
X151353078Y-114413078D01*
X151330665Y-114431471D01*
X151305097Y-114445138D01*
X151277354Y-114453554D01*
X151242360Y-114457000D01*
X150657640Y-114457000D01*
X150622646Y-114453554D01*
X150594903Y-114445138D01*
X150569335Y-114431471D01*
X150546922Y-114413078D01*
X150528529Y-114390665D01*
X150514862Y-114365097D01*
X150506446Y-114337354D01*
X150503000Y-114302360D01*
X150503000Y-113767640D01*
X150506446Y-113732646D01*
X150514862Y-113704903D01*
X150528529Y-113679335D01*
X150546923Y-113656921D01*
X150559469Y-113646625D01*
X150576796Y-113629298D01*
X150590410Y-113608923D01*
X150599787Y-113586284D01*
X150604567Y-113562251D01*
X150604567Y-113537747D01*
X150599786Y-113513714D01*
X150590409Y-113491075D01*
X150576795Y-113470701D01*
X150559469Y-113453375D01*
X150546923Y-113443079D01*
X150528529Y-113420665D01*
X150514862Y-113395097D01*
X150506446Y-113367354D01*
X150503000Y-113332360D01*
X150503000Y-112797640D01*
X150506446Y-112762646D01*
X150514862Y-112734903D01*
X150528529Y-112709335D01*
X150546922Y-112686922D01*
X150569335Y-112668529D01*
X150594903Y-112654862D01*
X150622646Y-112646446D01*
X150657640Y-112643000D01*
X151242360Y-112643000D01*
X151277354Y-112646446D01*
G37*
G36*
X166027000Y-114177000D02*
G01*
X164723000Y-114177000D01*
X164723000Y-112823000D01*
X166027000Y-112823000D01*
X166027000Y-114177000D01*
G37*
G36*
X164177000Y-114177000D02*
G01*
X162873000Y-114177000D01*
X162873000Y-112823000D01*
X164177000Y-112823000D01*
X164177000Y-114177000D01*
G37*
G36*
X143727000Y-112777000D02*
G01*
X139673000Y-112777000D01*
X139673000Y-110523000D01*
X143727000Y-110523000D01*
X143727000Y-112777000D01*
G37*
G36*
X164832354Y-111656446D02*
G01*
X164860097Y-111664862D01*
X164885665Y-111678529D01*
X164908079Y-111696923D01*
X164918375Y-111709469D01*
X164935702Y-111726796D01*
X164956077Y-111740410D01*
X164978716Y-111749787D01*
X165002749Y-111754567D01*
X165027253Y-111754567D01*
X165051286Y-111749786D01*
X165073925Y-111740409D01*
X165094299Y-111726795D01*
X165111625Y-111709469D01*
X165121921Y-111696923D01*
X165144335Y-111678529D01*
X165169903Y-111664862D01*
X165197646Y-111656446D01*
X165232640Y-111653000D01*
X165767360Y-111653000D01*
X165802354Y-111656446D01*
X165830097Y-111664862D01*
X165855665Y-111678529D01*
X165878078Y-111696922D01*
X165896471Y-111719335D01*
X165910138Y-111744903D01*
X165918554Y-111772646D01*
X165922000Y-111807640D01*
X165922000Y-112392360D01*
X165918554Y-112427354D01*
X165910138Y-112455097D01*
X165896471Y-112480665D01*
X165878078Y-112503078D01*
X165855665Y-112521471D01*
X165830097Y-112535138D01*
X165802354Y-112543554D01*
X165767360Y-112547000D01*
X165232640Y-112547000D01*
X165197646Y-112543554D01*
X165169903Y-112535138D01*
X165144335Y-112521471D01*
X165121921Y-112503077D01*
X165111625Y-112490531D01*
X165094298Y-112473204D01*
X165073923Y-112459590D01*
X165051284Y-112450213D01*
X165027251Y-112445433D01*
X165002747Y-112445433D01*
X164978714Y-112450214D01*
X164956075Y-112459591D01*
X164935701Y-112473205D01*
X164918375Y-112490531D01*
X164908079Y-112503077D01*
X164885665Y-112521471D01*
X164860097Y-112535138D01*
X164832354Y-112543554D01*
X164797360Y-112547000D01*
X164262640Y-112547000D01*
X164227646Y-112543554D01*
X164199903Y-112535138D01*
X164174335Y-112521471D01*
X164151922Y-112503078D01*
X164133529Y-112480665D01*
X164119862Y-112455097D01*
X164111446Y-112427354D01*
X164108000Y-112392360D01*
X164108000Y-111807640D01*
X164111446Y-111772646D01*
X164119862Y-111744903D01*
X164133529Y-111719335D01*
X164151922Y-111696922D01*
X164174335Y-111678529D01*
X164199903Y-111664862D01*
X164227646Y-111656446D01*
X164262640Y-111653000D01*
X164797360Y-111653000D01*
X164832354Y-111656446D01*
G37*
G36*
X152282354Y-111406446D02*
G01*
X152310097Y-111414862D01*
X152335665Y-111428529D01*
X152358079Y-111446923D01*
X152368375Y-111459469D01*
X152385702Y-111476796D01*
X152406077Y-111490410D01*
X152428716Y-111499787D01*
X152452749Y-111504567D01*
X152477253Y-111504567D01*
X152501286Y-111499786D01*
X152523925Y-111490409D01*
X152544299Y-111476795D01*
X152561625Y-111459469D01*
X152571921Y-111446923D01*
X152594335Y-111428529D01*
X152619903Y-111414862D01*
X152647646Y-111406446D01*
X152682640Y-111403000D01*
X153217360Y-111403000D01*
X153252354Y-111406446D01*
X153280097Y-111414862D01*
X153305665Y-111428529D01*
X153328078Y-111446922D01*
X153346471Y-111469335D01*
X153360138Y-111494903D01*
X153368554Y-111522646D01*
X153372000Y-111557640D01*
X153372000Y-112142360D01*
X153368554Y-112177354D01*
X153360138Y-112205097D01*
X153346471Y-112230665D01*
X153328078Y-112253078D01*
X153305665Y-112271471D01*
X153280097Y-112285138D01*
X153252354Y-112293554D01*
X153217360Y-112297000D01*
X152682640Y-112297000D01*
X152647646Y-112293554D01*
X152619903Y-112285138D01*
X152594335Y-112271471D01*
X152571921Y-112253077D01*
X152561625Y-112240531D01*
X152544298Y-112223204D01*
X152523923Y-112209590D01*
X152501284Y-112200213D01*
X152477251Y-112195433D01*
X152452747Y-112195433D01*
X152428714Y-112200214D01*
X152406075Y-112209591D01*
X152385701Y-112223205D01*
X152368375Y-112240531D01*
X152358079Y-112253077D01*
X152335665Y-112271471D01*
X152310097Y-112285138D01*
X152282354Y-112293554D01*
X152247360Y-112297000D01*
X151712640Y-112297000D01*
X151677646Y-112293554D01*
X151649903Y-112285138D01*
X151624335Y-112271471D01*
X151601922Y-112253078D01*
X151583529Y-112230665D01*
X151569862Y-112205097D01*
X151561446Y-112177354D01*
X151558000Y-112142360D01*
X151558000Y-111557640D01*
X151561446Y-111522646D01*
X151569862Y-111494903D01*
X151583529Y-111469335D01*
X151601922Y-111446922D01*
X151624335Y-111428529D01*
X151649903Y-111414862D01*
X151677646Y-111406446D01*
X151712640Y-111403000D01*
X152247360Y-111403000D01*
X152282354Y-111406446D01*
G37*
G36*
X160767354Y-109256446D02*
G01*
X160795097Y-109264862D01*
X160820665Y-109278529D01*
X160843079Y-109296923D01*
X160853375Y-109309469D01*
X160870702Y-109326796D01*
X160891077Y-109340410D01*
X160913716Y-109349787D01*
X160937749Y-109354567D01*
X160962253Y-109354567D01*
X160986286Y-109349786D01*
X161008925Y-109340409D01*
X161029299Y-109326795D01*
X161046625Y-109309469D01*
X161056921Y-109296923D01*
X161079335Y-109278529D01*
X161104903Y-109264862D01*
X161132646Y-109256446D01*
X161167640Y-109253000D01*
X161702360Y-109253000D01*
X161737354Y-109256446D01*
X161765097Y-109264862D01*
X161790665Y-109278529D01*
X161813078Y-109296922D01*
X161831471Y-109319335D01*
X161845136Y-109344899D01*
X161853403Y-109372153D01*
X161862780Y-109394792D01*
X161876394Y-109415166D01*
X161893721Y-109432493D01*
X161914095Y-109446107D01*
X161936734Y-109455484D01*
X161960767Y-109460265D01*
X161985271Y-109460265D01*
X162009305Y-109455485D01*
X162031944Y-109446108D01*
X162052318Y-109432494D01*
X162069335Y-109418529D01*
X162094903Y-109404862D01*
X162122646Y-109396446D01*
X162157640Y-109393000D01*
X162742360Y-109393000D01*
X162777354Y-109396446D01*
X162805097Y-109404862D01*
X162830665Y-109418529D01*
X162853078Y-109436922D01*
X162871471Y-109459335D01*
X162885138Y-109484903D01*
X162893554Y-109512646D01*
X162897000Y-109547640D01*
X162897000Y-110082360D01*
X162893554Y-110117354D01*
X162885138Y-110145097D01*
X162871471Y-110170665D01*
X162853077Y-110193079D01*
X162840531Y-110203375D01*
X162823204Y-110220702D01*
X162809590Y-110241077D01*
X162800213Y-110263716D01*
X162795433Y-110287749D01*
X162795433Y-110312253D01*
X162800214Y-110336286D01*
X162809591Y-110358925D01*
X162823205Y-110379299D01*
X162840531Y-110396625D01*
X162853077Y-110406921D01*
X162871471Y-110429335D01*
X162885138Y-110454903D01*
X162893554Y-110482646D01*
X162897000Y-110517640D01*
X162897000Y-111052360D01*
X162893554Y-111087354D01*
X162885138Y-111115097D01*
X162871471Y-111140665D01*
X162853078Y-111163078D01*
X162830665Y-111181471D01*
X162805097Y-111195138D01*
X162777354Y-111203554D01*
X162742360Y-111207000D01*
X162157640Y-111207000D01*
X162122646Y-111203554D01*
X162094903Y-111195138D01*
X162069335Y-111181471D01*
X162046922Y-111163078D01*
X162028529Y-111140665D01*
X162014862Y-111115097D01*
X162006446Y-111087354D01*
X162003000Y-111052360D01*
X162003000Y-110517640D01*
X162006446Y-110482646D01*
X162014862Y-110454903D01*
X162028529Y-110429335D01*
X162046923Y-110406921D01*
X162059469Y-110396625D01*
X162076796Y-110379298D01*
X162090410Y-110358923D01*
X162099787Y-110336284D01*
X162104567Y-110312251D01*
X162104567Y-110287747D01*
X162099786Y-110263714D01*
X162090409Y-110241075D01*
X162076795Y-110220701D01*
X162059469Y-110203375D01*
X162046923Y-110193079D01*
X162028529Y-110170665D01*
X162009524Y-110135110D01*
X161995910Y-110114735D01*
X161978583Y-110097408D01*
X161958209Y-110083795D01*
X161935570Y-110074417D01*
X161911537Y-110069637D01*
X161887033Y-110069637D01*
X161862999Y-110074418D01*
X161840361Y-110083795D01*
X161819988Y-110097408D01*
X161790668Y-110121470D01*
X161765097Y-110135138D01*
X161737354Y-110143554D01*
X161702360Y-110147000D01*
X161167640Y-110147000D01*
X161132646Y-110143554D01*
X161104903Y-110135138D01*
X161079335Y-110121471D01*
X161056921Y-110103077D01*
X161046625Y-110090531D01*
X161029298Y-110073204D01*
X161008923Y-110059590D01*
X160986284Y-110050213D01*
X160962251Y-110045433D01*
X160937747Y-110045433D01*
X160913714Y-110050214D01*
X160891075Y-110059591D01*
X160870701Y-110073205D01*
X160853375Y-110090531D01*
X160843079Y-110103077D01*
X160820665Y-110121471D01*
X160795097Y-110135138D01*
X160767354Y-110143554D01*
X160732360Y-110147000D01*
X160197640Y-110147000D01*
X160162646Y-110143554D01*
X160134903Y-110135138D01*
X160109335Y-110121471D01*
X160086922Y-110103078D01*
X160068529Y-110080665D01*
X160054862Y-110055097D01*
X160046446Y-110027354D01*
X160043000Y-109992360D01*
X160043000Y-109407640D01*
X160046446Y-109372646D01*
X160054862Y-109344903D01*
X160068529Y-109319335D01*
X160086922Y-109296922D01*
X160109335Y-109278529D01*
X160134903Y-109264862D01*
X160162646Y-109256446D01*
X160197640Y-109253000D01*
X160732360Y-109253000D01*
X160767354Y-109256446D01*
G37*
G36*
X152267354Y-110206446D02*
G01*
X152295097Y-110214862D01*
X152320665Y-110228529D01*
X152343079Y-110246923D01*
X152353375Y-110259469D01*
X152370702Y-110276796D01*
X152391077Y-110290410D01*
X152413716Y-110299787D01*
X152437749Y-110304567D01*
X152462253Y-110304567D01*
X152486286Y-110299786D01*
X152508925Y-110290409D01*
X152529299Y-110276795D01*
X152546625Y-110259469D01*
X152556921Y-110246923D01*
X152579335Y-110228529D01*
X152604903Y-110214862D01*
X152632646Y-110206446D01*
X152667640Y-110203000D01*
X153202360Y-110203000D01*
X153237354Y-110206446D01*
X153265097Y-110214862D01*
X153290665Y-110228529D01*
X153313078Y-110246922D01*
X153331471Y-110269335D01*
X153345138Y-110294903D01*
X153353554Y-110322646D01*
X153357000Y-110357640D01*
X153357000Y-110942360D01*
X153353554Y-110977354D01*
X153345138Y-111005097D01*
X153331471Y-111030665D01*
X153313078Y-111053078D01*
X153290665Y-111071471D01*
X153265097Y-111085138D01*
X153237354Y-111093554D01*
X153202360Y-111097000D01*
X152667640Y-111097000D01*
X152632646Y-111093554D01*
X152604903Y-111085138D01*
X152579335Y-111071471D01*
X152556921Y-111053077D01*
X152546625Y-111040531D01*
X152529298Y-111023204D01*
X152508923Y-111009590D01*
X152486284Y-111000213D01*
X152462251Y-110995433D01*
X152437747Y-110995433D01*
X152413714Y-111000214D01*
X152391075Y-111009591D01*
X152370701Y-111023205D01*
X152353375Y-111040531D01*
X152343079Y-111053077D01*
X152320665Y-111071471D01*
X152295097Y-111085138D01*
X152267354Y-111093554D01*
X152232360Y-111097000D01*
X151697640Y-111097000D01*
X151662646Y-111093554D01*
X151634903Y-111085138D01*
X151609335Y-111071471D01*
X151586922Y-111053078D01*
X151568529Y-111030665D01*
X151554862Y-111005097D01*
X151546446Y-110977354D01*
X151543000Y-110942360D01*
X151543000Y-110357640D01*
X151546446Y-110322646D01*
X151554862Y-110294903D01*
X151568529Y-110269335D01*
X151586922Y-110246922D01*
X151609335Y-110228529D01*
X151634903Y-110214862D01*
X151662646Y-110206446D01*
X151697640Y-110203000D01*
X152232360Y-110203000D01*
X152267354Y-110206446D01*
G37*
G36*
X167088076Y-108828100D02*
G01*
X167131967Y-108841414D01*
X167172419Y-108863036D01*
X167207870Y-108892130D01*
X167236964Y-108927581D01*
X167258586Y-108968033D01*
X167271900Y-109011924D01*
X167277000Y-109063705D01*
X167277000Y-109986295D01*
X167271900Y-110038076D01*
X167258586Y-110081967D01*
X167236964Y-110122419D01*
X167207870Y-110157870D01*
X167172419Y-110186964D01*
X167131967Y-110208586D01*
X167088076Y-110221900D01*
X167036295Y-110227000D01*
X165863705Y-110227000D01*
X165811924Y-110221900D01*
X165768033Y-110208586D01*
X165727581Y-110186964D01*
X165692130Y-110157870D01*
X165663036Y-110122419D01*
X165641414Y-110081967D01*
X165628100Y-110038076D01*
X165623000Y-109986295D01*
X165623000Y-109063705D01*
X165628100Y-109011924D01*
X165641414Y-108968033D01*
X165663036Y-108927581D01*
X165692130Y-108892130D01*
X165727581Y-108863036D01*
X165768033Y-108841414D01*
X165811924Y-108828100D01*
X165863705Y-108823000D01*
X167036295Y-108823000D01*
X167088076Y-108828100D01*
G37*
G36*
X156527354Y-107396446D02*
G01*
X156555097Y-107404862D01*
X156580665Y-107418529D01*
X156603078Y-107436922D01*
X156621471Y-107459335D01*
X156635138Y-107484903D01*
X156643554Y-107512646D01*
X156647000Y-107547640D01*
X156647000Y-108082360D01*
X156643554Y-108117354D01*
X156635138Y-108145097D01*
X156621471Y-108170665D01*
X156603077Y-108193079D01*
X156590531Y-108203375D01*
X156573204Y-108220702D01*
X156559590Y-108241077D01*
X156550213Y-108263716D01*
X156545433Y-108287749D01*
X156545433Y-108312253D01*
X156550214Y-108336286D01*
X156559591Y-108358925D01*
X156573205Y-108379299D01*
X156590531Y-108396625D01*
X156603077Y-108406921D01*
X156621471Y-108429335D01*
X156635138Y-108454903D01*
X156643554Y-108482646D01*
X156647000Y-108517640D01*
X156647000Y-109052360D01*
X156643554Y-109087354D01*
X156635138Y-109115097D01*
X156621471Y-109140665D01*
X156603078Y-109163078D01*
X156580665Y-109181471D01*
X156555097Y-109195138D01*
X156527354Y-109203554D01*
X156492360Y-109207000D01*
X155907640Y-109207000D01*
X155872646Y-109203554D01*
X155844903Y-109195138D01*
X155819335Y-109181471D01*
X155796922Y-109163078D01*
X155778529Y-109140665D01*
X155764862Y-109115097D01*
X155756446Y-109087354D01*
X155753000Y-109052360D01*
X155753000Y-108517640D01*
X155756446Y-108482646D01*
X155764862Y-108454903D01*
X155778529Y-108429335D01*
X155796923Y-108406921D01*
X155809469Y-108396625D01*
X155826796Y-108379298D01*
X155840410Y-108358923D01*
X155849787Y-108336284D01*
X155854567Y-108312251D01*
X155854567Y-108287747D01*
X155849786Y-108263714D01*
X155840409Y-108241075D01*
X155826795Y-108220701D01*
X155809469Y-108203375D01*
X155796923Y-108193079D01*
X155778529Y-108170665D01*
X155764862Y-108145097D01*
X155756446Y-108117354D01*
X155753000Y-108082360D01*
X155753000Y-107547640D01*
X155756446Y-107512646D01*
X155764862Y-107484903D01*
X155778529Y-107459335D01*
X155796922Y-107436922D01*
X155819335Y-107418529D01*
X155844903Y-107404862D01*
X155872646Y-107396446D01*
X155907640Y-107393000D01*
X156492360Y-107393000D01*
X156527354Y-107396446D01*
G37*
G36*
X167088076Y-106778100D02*
G01*
X167131967Y-106791414D01*
X167172419Y-106813036D01*
X167207870Y-106842130D01*
X167236964Y-106877581D01*
X167258586Y-106918033D01*
X167271900Y-106961924D01*
X167277000Y-107013705D01*
X167277000Y-107936295D01*
X167271900Y-107988076D01*
X167258586Y-108031967D01*
X167236964Y-108072419D01*
X167207870Y-108107870D01*
X167172419Y-108136964D01*
X167131967Y-108158586D01*
X167088076Y-108171900D01*
X167036295Y-108177000D01*
X165863705Y-108177000D01*
X165811924Y-108171900D01*
X165768033Y-108158586D01*
X165727581Y-108136964D01*
X165692130Y-108107870D01*
X165663036Y-108072419D01*
X165641414Y-108031967D01*
X165628100Y-107988076D01*
X165623000Y-107936295D01*
X165623000Y-107013705D01*
X165628100Y-106961924D01*
X165641414Y-106918033D01*
X165663036Y-106877581D01*
X165692130Y-106842130D01*
X165727581Y-106813036D01*
X165768033Y-106791414D01*
X165811924Y-106778100D01*
X165863705Y-106773000D01*
X167036295Y-106773000D01*
X167088076Y-106778100D01*
G37*
G36*
X147327000Y-107527000D02*
G01*
X146073000Y-107527000D01*
X146073000Y-106173000D01*
X147327000Y-106173000D01*
X147327000Y-107527000D01*
G37*
G36*
X142577000Y-106477000D02*
G01*
X140823000Y-106477000D01*
X140823000Y-104223000D01*
X142577000Y-104223000D01*
X142577000Y-106477000D01*
G37*
G36*
X144877000Y-106477000D02*
G01*
X143123000Y-106477000D01*
X143123000Y-104223000D01*
X144877000Y-104223000D01*
X144877000Y-106477000D01*
G37*
G36*
X140277000Y-106477000D02*
G01*
X138523000Y-106477000D01*
X138523000Y-104223000D01*
X140277000Y-104223000D01*
X140277000Y-106477000D01*
G37*
G36*
X147327000Y-105827000D02*
G01*
X146073000Y-105827000D01*
X146073000Y-104473000D01*
X147327000Y-104473000D01*
X147327000Y-105827000D01*
G37*
G36*
X159477000Y-105727000D02*
G01*
X157523000Y-105727000D01*
X157523000Y-103773000D01*
X159477000Y-103773000D01*
X159477000Y-105727000D01*
G37*
G36*
X163077000Y-105727000D02*
G01*
X161123000Y-105727000D01*
X161123000Y-103773000D01*
X163077000Y-103773000D01*
X163077000Y-105727000D01*
G37*
G36*
X164924979Y-103810545D02*
G01*
X165102781Y-103884193D01*
X165102783Y-103884194D01*
X165262801Y-103991115D01*
X165398885Y-104127199D01*
X165398886Y-104127201D01*
X165505807Y-104287219D01*
X165579455Y-104465021D01*
X165617000Y-104653773D01*
X165617000Y-104846227D01*
X165579455Y-105034979D01*
X165505807Y-105212781D01*
X165505806Y-105212783D01*
X165398885Y-105372801D01*
X165262801Y-105508885D01*
X165102783Y-105615806D01*
X165102782Y-105615807D01*
X165102781Y-105615807D01*
X164924979Y-105689455D01*
X164736227Y-105727000D01*
X164543773Y-105727000D01*
X164355021Y-105689455D01*
X164177219Y-105615807D01*
X164177218Y-105615807D01*
X164177217Y-105615806D01*
X164017199Y-105508885D01*
X163881115Y-105372801D01*
X163774194Y-105212783D01*
X163774193Y-105212781D01*
X163700545Y-105034979D01*
X163663000Y-104846227D01*
X163663000Y-104653773D01*
X163700545Y-104465021D01*
X163774193Y-104287219D01*
X163881114Y-104127201D01*
X163881115Y-104127199D01*
X164017199Y-103991115D01*
X164177217Y-103884194D01*
X164177219Y-103884193D01*
X164355021Y-103810545D01*
X164543773Y-103773000D01*
X164736227Y-103773000D01*
X164924979Y-103810545D01*
G37*
G36*
X156244979Y-103810545D02*
G01*
X156422781Y-103884193D01*
X156422783Y-103884194D01*
X156582801Y-103991115D01*
X156718885Y-104127199D01*
X156718886Y-104127201D01*
X156825807Y-104287219D01*
X156899455Y-104465021D01*
X156937000Y-104653773D01*
X156937000Y-104846227D01*
X156899455Y-105034979D01*
X156825807Y-105212781D01*
X156825806Y-105212783D01*
X156718885Y-105372801D01*
X156582801Y-105508885D01*
X156422783Y-105615806D01*
X156422782Y-105615807D01*
X156422781Y-105615807D01*
X156244979Y-105689455D01*
X156056227Y-105727000D01*
X155863773Y-105727000D01*
X155675021Y-105689455D01*
X155497219Y-105615807D01*
X155497218Y-105615807D01*
X155497217Y-105615806D01*
X155337199Y-105508885D01*
X155201115Y-105372801D01*
X155094194Y-105212783D01*
X155094193Y-105212781D01*
X155020545Y-105034979D01*
X154983000Y-104846227D01*
X154983000Y-104653773D01*
X155020545Y-104465021D01*
X155094193Y-104287219D01*
X155201114Y-104127201D01*
X155201115Y-104127199D01*
X155337199Y-103991115D01*
X155497217Y-103884194D01*
X155497219Y-103884193D01*
X155675021Y-103810545D01*
X155863773Y-103773000D01*
X156056227Y-103773000D01*
X156244979Y-103810545D01*
G37*
G36*
X153704979Y-103810545D02*
G01*
X153882781Y-103884193D01*
X153882783Y-103884194D01*
X154042801Y-103991115D01*
X154178885Y-104127199D01*
X154178886Y-104127201D01*
X154285807Y-104287219D01*
X154359455Y-104465021D01*
X154397000Y-104653773D01*
X154397000Y-104846227D01*
X154359455Y-105034979D01*
X154285807Y-105212781D01*
X154285806Y-105212783D01*
X154178885Y-105372801D01*
X154042801Y-105508885D01*
X153882783Y-105615806D01*
X153882782Y-105615807D01*
X153882781Y-105615807D01*
X153704979Y-105689455D01*
X153516227Y-105727000D01*
X153323773Y-105727000D01*
X153135021Y-105689455D01*
X152957219Y-105615807D01*
X152957218Y-105615807D01*
X152957217Y-105615806D01*
X152797199Y-105508885D01*
X152661115Y-105372801D01*
X152554194Y-105212783D01*
X152554193Y-105212781D01*
X152480545Y-105034979D01*
X152443000Y-104846227D01*
X152443000Y-104653773D01*
X152480545Y-104465021D01*
X152554193Y-104287219D01*
X152661114Y-104127201D01*
X152661115Y-104127199D01*
X152797199Y-103991115D01*
X152957217Y-103884194D01*
X152957219Y-103884193D01*
X153135021Y-103810545D01*
X153323773Y-103773000D01*
X153516227Y-103773000D01*
X153704979Y-103810545D01*
G37*
G36*
X151164979Y-103810545D02*
G01*
X151342781Y-103884193D01*
X151342783Y-103884194D01*
X151502801Y-103991115D01*
X151638885Y-104127199D01*
X151638886Y-104127201D01*
X151745807Y-104287219D01*
X151819455Y-104465021D01*
X151857000Y-104653773D01*
X151857000Y-104846227D01*
X151819455Y-105034979D01*
X151745807Y-105212781D01*
X151745806Y-105212783D01*
X151638885Y-105372801D01*
X151502801Y-105508885D01*
X151342783Y-105615806D01*
X151342782Y-105615807D01*
X151342781Y-105615807D01*
X151164979Y-105689455D01*
X150976227Y-105727000D01*
X150783773Y-105727000D01*
X150595021Y-105689455D01*
X150417219Y-105615807D01*
X150417218Y-105615807D01*
X150417217Y-105615806D01*
X150257199Y-105508885D01*
X150121115Y-105372801D01*
X150014194Y-105212783D01*
X150014193Y-105212781D01*
X149940545Y-105034979D01*
X149903000Y-104846227D01*
X149903000Y-104653773D01*
X149940545Y-104465021D01*
X150014193Y-104287219D01*
X150121114Y-104127201D01*
X150121115Y-104127199D01*
X150257199Y-103991115D01*
X150417217Y-103884194D01*
X150417219Y-103884193D01*
X150595021Y-103810545D01*
X150783773Y-103773000D01*
X150976227Y-103773000D01*
X151164979Y-103810545D01*
G37*
G36*
X140327000Y-103627000D02*
G01*
X138973000Y-103627000D01*
X138973000Y-102373000D01*
X140327000Y-102373000D01*
X140327000Y-103627000D01*
G37*
G36*
X142027000Y-103627000D02*
G01*
X140673000Y-103627000D01*
X140673000Y-102373000D01*
X142027000Y-102373000D01*
X142027000Y-103627000D01*
G37*
G36*
X167138076Y-101328100D02*
G01*
X167181967Y-101341414D01*
X167222419Y-101363036D01*
X167257870Y-101392130D01*
X167286964Y-101427581D01*
X167308586Y-101468033D01*
X167321900Y-101511924D01*
X167327000Y-101563705D01*
X167327000Y-102486295D01*
X167321900Y-102538076D01*
X167308586Y-102581967D01*
X167286964Y-102622419D01*
X167257870Y-102657870D01*
X167222419Y-102686964D01*
X167181967Y-102708586D01*
X167138076Y-102721900D01*
X167086295Y-102727000D01*
X165913705Y-102727000D01*
X165861924Y-102721900D01*
X165818033Y-102708586D01*
X165777581Y-102686964D01*
X165742130Y-102657870D01*
X165713036Y-102622419D01*
X165691414Y-102581967D01*
X165678100Y-102538076D01*
X165673000Y-102486295D01*
X165673000Y-101563705D01*
X165678100Y-101511924D01*
X165691414Y-101468033D01*
X165713036Y-101427581D01*
X165742130Y-101392130D01*
X165777581Y-101363036D01*
X165818033Y-101341414D01*
X165861924Y-101328100D01*
X165913705Y-101323000D01*
X167086295Y-101323000D01*
X167138076Y-101328100D01*
G37*
G36*
X140317354Y-100656446D02*
G01*
X140345097Y-100664862D01*
X140370665Y-100678529D01*
X140393079Y-100696923D01*
X140403375Y-100709469D01*
X140420702Y-100726796D01*
X140441077Y-100740410D01*
X140463716Y-100749787D01*
X140487749Y-100754567D01*
X140512253Y-100754567D01*
X140536286Y-100749786D01*
X140558925Y-100740409D01*
X140579299Y-100726795D01*
X140596625Y-100709469D01*
X140606921Y-100696923D01*
X140629335Y-100678529D01*
X140654903Y-100664862D01*
X140682646Y-100656446D01*
X140717640Y-100653000D01*
X141252360Y-100653000D01*
X141287354Y-100656446D01*
X141315097Y-100664862D01*
X141340665Y-100678529D01*
X141363078Y-100696922D01*
X141381471Y-100719335D01*
X141395138Y-100744903D01*
X141403554Y-100772646D01*
X141407000Y-100807640D01*
X141407000Y-101392360D01*
X141403554Y-101427354D01*
X141395138Y-101455097D01*
X141381471Y-101480665D01*
X141363078Y-101503078D01*
X141340665Y-101521471D01*
X141315097Y-101535138D01*
X141287354Y-101543554D01*
X141252360Y-101547000D01*
X140717640Y-101547000D01*
X140682646Y-101543554D01*
X140654903Y-101535138D01*
X140629335Y-101521471D01*
X140606921Y-101503077D01*
X140596625Y-101490531D01*
X140579298Y-101473204D01*
X140558923Y-101459590D01*
X140536284Y-101450213D01*
X140512251Y-101445433D01*
X140487747Y-101445433D01*
X140463714Y-101450214D01*
X140441075Y-101459591D01*
X140420701Y-101473205D01*
X140403375Y-101490531D01*
X140393079Y-101503077D01*
X140370665Y-101521471D01*
X140345097Y-101535138D01*
X140317354Y-101543554D01*
X140282360Y-101547000D01*
X139747640Y-101547000D01*
X139712646Y-101543554D01*
X139684903Y-101535138D01*
X139659335Y-101521471D01*
X139636922Y-101503078D01*
X139618529Y-101480665D01*
X139604862Y-101455097D01*
X139596446Y-101427354D01*
X139593000Y-101392360D01*
X139593000Y-100807640D01*
X139596446Y-100772646D01*
X139604862Y-100744903D01*
X139618529Y-100719335D01*
X139636922Y-100696922D01*
X139659335Y-100678529D01*
X139684903Y-100664862D01*
X139712646Y-100656446D01*
X139747640Y-100653000D01*
X140282360Y-100653000D01*
X140317354Y-100656446D01*
G37*
G36*
X167138076Y-99278100D02*
G01*
X167181967Y-99291414D01*
X167222419Y-99313036D01*
X167257870Y-99342130D01*
X167286964Y-99377581D01*
X167308586Y-99418033D01*
X167321900Y-99461924D01*
X167327000Y-99513705D01*
X167327000Y-100436295D01*
X167321900Y-100488076D01*
X167308586Y-100531967D01*
X167286964Y-100572419D01*
X167257870Y-100607870D01*
X167222419Y-100636964D01*
X167181967Y-100658586D01*
X167138076Y-100671900D01*
X167086295Y-100677000D01*
X165913705Y-100677000D01*
X165861924Y-100671900D01*
X165818033Y-100658586D01*
X165777581Y-100636964D01*
X165742130Y-100607870D01*
X165713036Y-100572419D01*
X165691414Y-100531967D01*
X165678100Y-100488076D01*
X165673000Y-100436295D01*
X165673000Y-99513705D01*
X165678100Y-99461924D01*
X165691414Y-99418033D01*
X165713036Y-99377581D01*
X165742130Y-99342130D01*
X165777581Y-99313036D01*
X165818033Y-99291414D01*
X165861924Y-99278100D01*
X165913705Y-99273000D01*
X167086295Y-99273000D01*
X167138076Y-99278100D01*
G37*
G36*
X163219867Y-94394655D02*
G01*
X163328734Y-94416310D01*
X163533835Y-94501266D01*
X163718421Y-94624602D01*
X163875398Y-94781579D01*
X163998734Y-94966165D01*
X164083690Y-95171266D01*
X164127000Y-95389000D01*
X164127000Y-95611000D01*
X164083690Y-95828734D01*
X163998734Y-96033835D01*
X163875398Y-96218421D01*
X163718421Y-96375398D01*
X163533835Y-96498734D01*
X163328734Y-96583690D01*
X163219787Y-96605361D01*
X163108975Y-96627403D01*
X163085526Y-96634516D01*
X163063915Y-96646067D01*
X163044973Y-96661612D01*
X163029428Y-96680554D01*
X163017877Y-96702165D01*
X163010764Y-96725614D01*
X163008362Y-96750000D01*
X163010764Y-96774386D01*
X163017877Y-96797835D01*
X163029428Y-96819446D01*
X163044973Y-96838388D01*
X163063915Y-96853933D01*
X163085526Y-96865484D01*
X163108975Y-96872597D01*
X163219787Y-96894639D01*
X163328734Y-96916310D01*
X163533835Y-97001266D01*
X163718421Y-97124602D01*
X163875398Y-97281579D01*
X163998734Y-97466165D01*
X164083690Y-97671266D01*
X164127000Y-97889000D01*
X164127000Y-98111000D01*
X164083690Y-98328734D01*
X163998734Y-98533835D01*
X163875398Y-98718421D01*
X163718421Y-98875398D01*
X163533835Y-98998734D01*
X163328734Y-99083690D01*
X163219867Y-99105345D01*
X163111001Y-99127000D01*
X162888999Y-99127000D01*
X162780133Y-99105345D01*
X162671266Y-99083690D01*
X162466165Y-98998734D01*
X162281579Y-98875398D01*
X162124602Y-98718421D01*
X162001266Y-98533835D01*
X161916310Y-98328734D01*
X161873000Y-98111000D01*
X161873000Y-97889000D01*
X161916310Y-97671266D01*
X162001266Y-97466165D01*
X162124602Y-97281579D01*
X162281579Y-97124602D01*
X162466165Y-97001266D01*
X162671266Y-96916310D01*
X162780213Y-96894639D01*
X162891025Y-96872597D01*
X162914474Y-96865484D01*
X162936085Y-96853933D01*
X162955027Y-96838388D01*
X162970572Y-96819446D01*
X162982123Y-96797835D01*
X162989236Y-96774386D01*
X162991638Y-96750000D01*
X162989236Y-96725614D01*
X162982123Y-96702165D01*
X162970572Y-96680554D01*
X162955027Y-96661612D01*
X162936085Y-96646067D01*
X162914474Y-96634516D01*
X162891025Y-96627403D01*
X162780213Y-96605361D01*
X162671266Y-96583690D01*
X162466165Y-96498734D01*
X162281579Y-96375398D01*
X162124602Y-96218421D01*
X162001266Y-96033835D01*
X161916310Y-95828734D01*
X161873000Y-95611000D01*
X161873000Y-95389000D01*
X161916310Y-95171266D01*
X162001266Y-94966165D01*
X162124602Y-94781579D01*
X162281579Y-94624602D01*
X162466165Y-94501266D01*
X162671266Y-94416310D01*
X162780133Y-94394655D01*
X162888999Y-94373000D01*
X163111001Y-94373000D01*
X163219867Y-94394655D01*
G37*
G36*
X140177000Y-98902000D02*
G01*
X137823000Y-98902000D01*
X137823000Y-97098000D01*
X140177000Y-97098000D01*
X140177000Y-98902000D01*
G37*
G36*
X147797000Y-98902000D02*
G01*
X145443000Y-98902000D01*
X145443000Y-97098000D01*
X147797000Y-97098000D01*
X147797000Y-98902000D01*
G37*
G36*
X141592000Y-96827000D02*
G01*
X140808000Y-96827000D01*
X140808000Y-96173000D01*
X141592000Y-96173000D01*
X141592000Y-96827000D01*
G37*
G36*
X143192000Y-96827000D02*
G01*
X142408000Y-96827000D01*
X142408000Y-96173000D01*
X143192000Y-96173000D01*
X143192000Y-96827000D01*
G37*
G36*
X147638076Y-93328100D02*
G01*
X147681967Y-93341414D01*
X147722419Y-93363036D01*
X147757870Y-93392130D01*
X147786964Y-93427581D01*
X147808586Y-93468033D01*
X147821900Y-93511924D01*
X147827000Y-93563705D01*
X147827000Y-94486295D01*
X147821900Y-94538076D01*
X147808586Y-94581967D01*
X147786964Y-94622419D01*
X147757870Y-94657870D01*
X147722419Y-94686964D01*
X147681967Y-94708586D01*
X147638076Y-94721900D01*
X147586295Y-94727000D01*
X146413705Y-94727000D01*
X146361924Y-94721900D01*
X146318033Y-94708586D01*
X146277581Y-94686964D01*
X146242130Y-94657870D01*
X146213036Y-94622419D01*
X146191414Y-94581967D01*
X146178100Y-94538076D01*
X146173000Y-94486295D01*
X146173000Y-93563705D01*
X146178100Y-93511924D01*
X146191414Y-93468033D01*
X146213036Y-93427581D01*
X146242130Y-93392130D01*
X146277581Y-93363036D01*
X146318033Y-93341414D01*
X146361924Y-93328100D01*
X146413705Y-93323000D01*
X147586295Y-93323000D01*
X147638076Y-93328100D01*
G37*
G36*
X144638076Y-93328100D02*
G01*
X144681967Y-93341414D01*
X144722419Y-93363036D01*
X144757870Y-93392130D01*
X144786964Y-93427581D01*
X144808586Y-93468033D01*
X144821900Y-93511924D01*
X144827000Y-93563705D01*
X144827000Y-94486295D01*
X144821900Y-94538076D01*
X144808586Y-94581967D01*
X144786964Y-94622419D01*
X144757870Y-94657870D01*
X144722419Y-94686964D01*
X144681967Y-94708586D01*
X144638076Y-94721900D01*
X144586295Y-94727000D01*
X143413705Y-94727000D01*
X143361924Y-94721900D01*
X143318033Y-94708586D01*
X143277581Y-94686964D01*
X143242130Y-94657870D01*
X143213036Y-94622419D01*
X143191414Y-94581967D01*
X143178100Y-94538076D01*
X143173000Y-94486295D01*
X143173000Y-93563705D01*
X143178100Y-93511924D01*
X143191414Y-93468033D01*
X143213036Y-93427581D01*
X143242130Y-93392130D01*
X143277581Y-93363036D01*
X143318033Y-93341414D01*
X143361924Y-93328100D01*
X143413705Y-93323000D01*
X144586295Y-93323000D01*
X144638076Y-93328100D01*
G37*
G36*
X142077000Y-94477000D02*
G01*
X140923000Y-94477000D01*
X140923000Y-93423000D01*
X142077000Y-93423000D01*
X142077000Y-94477000D01*
G37*
G36*
X152437000Y-93867000D02*
G01*
X150583000Y-93867000D01*
X150583000Y-92013000D01*
X152437000Y-92013000D01*
X152437000Y-93867000D01*
G37*
G36*
X140077000Y-93527000D02*
G01*
X138923000Y-93527000D01*
X138923000Y-92473000D01*
X140077000Y-92473000D01*
X140077000Y-93527000D01*
G37*
G36*
X144638076Y-91278100D02*
G01*
X144681967Y-91291414D01*
X144722419Y-91313036D01*
X144757870Y-91342130D01*
X144786964Y-91377581D01*
X144808586Y-91418033D01*
X144821900Y-91461924D01*
X144827000Y-91513705D01*
X144827000Y-92436295D01*
X144821900Y-92488076D01*
X144808586Y-92531967D01*
X144786964Y-92572419D01*
X144757870Y-92607870D01*
X144722419Y-92636964D01*
X144681967Y-92658586D01*
X144638076Y-92671900D01*
X144586295Y-92677000D01*
X143413705Y-92677000D01*
X143361924Y-92671900D01*
X143318033Y-92658586D01*
X143277581Y-92636964D01*
X143242130Y-92607870D01*
X143213036Y-92572419D01*
X143191414Y-92531967D01*
X143178100Y-92488076D01*
X143173000Y-92436295D01*
X143173000Y-91513705D01*
X143178100Y-91461924D01*
X143191414Y-91418033D01*
X143213036Y-91377581D01*
X143242130Y-91342130D01*
X143277581Y-91313036D01*
X143318033Y-91291414D01*
X143361924Y-91278100D01*
X143413705Y-91273000D01*
X144586295Y-91273000D01*
X144638076Y-91278100D01*
G37*
G36*
X147638076Y-91278100D02*
G01*
X147681967Y-91291414D01*
X147722419Y-91313036D01*
X147757870Y-91342130D01*
X147786964Y-91377581D01*
X147808586Y-91418033D01*
X147821900Y-91461924D01*
X147827000Y-91513705D01*
X147827000Y-92436295D01*
X147821900Y-92488076D01*
X147808586Y-92531967D01*
X147786964Y-92572419D01*
X147757870Y-92607870D01*
X147722419Y-92636964D01*
X147681967Y-92658586D01*
X147638076Y-92671900D01*
X147586295Y-92677000D01*
X146413705Y-92677000D01*
X146361924Y-92671900D01*
X146318033Y-92658586D01*
X146277581Y-92636964D01*
X146242130Y-92607870D01*
X146213036Y-92572419D01*
X146191414Y-92531967D01*
X146178100Y-92488076D01*
X146173000Y-92436295D01*
X146173000Y-91513705D01*
X146178100Y-91461924D01*
X146191414Y-91418033D01*
X146213036Y-91377581D01*
X146242130Y-91342130D01*
X146277581Y-91313036D01*
X146318033Y-91291414D01*
X146361924Y-91278100D01*
X146413705Y-91273000D01*
X147586295Y-91273000D01*
X147638076Y-91278100D01*
G37*
G36*
X142077000Y-92577000D02*
G01*
X140923000Y-92577000D01*
X140923000Y-91523000D01*
X142077000Y-91523000D01*
X142077000Y-92577000D01*
G37*
G36*
X151720698Y-89836749D02*
G01*
X151780396Y-89848624D01*
X151949099Y-89918504D01*
X152100928Y-90019952D01*
X152230048Y-90149072D01*
X152331496Y-90300901D01*
X152331497Y-90300903D01*
X152401376Y-90469605D01*
X152427376Y-90600313D01*
X152437000Y-90648699D01*
X152437000Y-90831301D01*
X152401376Y-91010396D01*
X152331496Y-91179099D01*
X152230048Y-91330928D01*
X152100928Y-91460048D01*
X151949099Y-91561496D01*
X151780396Y-91631376D01*
X151720698Y-91643251D01*
X151601303Y-91667000D01*
X151418697Y-91667000D01*
X151299302Y-91643251D01*
X151239604Y-91631376D01*
X151070901Y-91561496D01*
X150919072Y-91460048D01*
X150789952Y-91330928D01*
X150688504Y-91179099D01*
X150618624Y-91010396D01*
X150583000Y-90831301D01*
X150583000Y-90648699D01*
X150592625Y-90600313D01*
X150618624Y-90469605D01*
X150688503Y-90300903D01*
X150688504Y-90300901D01*
X150789952Y-90149072D01*
X150919072Y-90019952D01*
X151070901Y-89918504D01*
X151239604Y-89848624D01*
X151299302Y-89836749D01*
X151418697Y-89813000D01*
X151601303Y-89813000D01*
X151720698Y-89836749D01*
G37*
G36*
X158122321Y-90385047D02*
G01*
X158182889Y-90397095D01*
X158239942Y-90420727D01*
X158296997Y-90444360D01*
X158399687Y-90512975D01*
X158487025Y-90600313D01*
X158555640Y-90703003D01*
X158555640Y-90703004D01*
X158602905Y-90817111D01*
X158605728Y-90831303D01*
X158627000Y-90938245D01*
X158627000Y-91061755D01*
X158602905Y-91182888D01*
X158555640Y-91296997D01*
X158487025Y-91399687D01*
X158399687Y-91487025D01*
X158296997Y-91555640D01*
X158242493Y-91578216D01*
X158182889Y-91602905D01*
X158122322Y-91614952D01*
X158061755Y-91627000D01*
X157938245Y-91627000D01*
X157877678Y-91614952D01*
X157817111Y-91602905D01*
X157757507Y-91578216D01*
X157703003Y-91555640D01*
X157600313Y-91487025D01*
X157512975Y-91399687D01*
X157444360Y-91296997D01*
X157397095Y-91182888D01*
X157373000Y-91061755D01*
X157373000Y-90938245D01*
X157394272Y-90831303D01*
X157397095Y-90817111D01*
X157444360Y-90703004D01*
X157444360Y-90703003D01*
X157512975Y-90600313D01*
X157600313Y-90512975D01*
X157703003Y-90444360D01*
X157760058Y-90420727D01*
X157817111Y-90397095D01*
X157877679Y-90385047D01*
X157938245Y-90373000D01*
X158061755Y-90373000D01*
X158122321Y-90385047D01*
G37*
G36*
X163122322Y-87885048D02*
G01*
X163182889Y-87897095D01*
X163239943Y-87920728D01*
X163296997Y-87944360D01*
X163399687Y-88012975D01*
X163487025Y-88100313D01*
X163555640Y-88203003D01*
X163602905Y-88317112D01*
X163627000Y-88438245D01*
X163627000Y-88561755D01*
X163620067Y-88596611D01*
X163607882Y-88657870D01*
X163602905Y-88682888D01*
X163555640Y-88796997D01*
X163487025Y-88899687D01*
X163399687Y-88987025D01*
X163296997Y-89055640D01*
X163239942Y-89079273D01*
X163182889Y-89102905D01*
X163122322Y-89114952D01*
X163061755Y-89127000D01*
X162938245Y-89127000D01*
X162877678Y-89114952D01*
X162817111Y-89102905D01*
X162760058Y-89079273D01*
X162703003Y-89055640D01*
X162600313Y-88987025D01*
X162512975Y-88899687D01*
X162444360Y-88796997D01*
X162397095Y-88682888D01*
X162392119Y-88657870D01*
X162379933Y-88596611D01*
X162373000Y-88561755D01*
X162373000Y-88438245D01*
X162397095Y-88317112D01*
X162444360Y-88203003D01*
X162512975Y-88100313D01*
X162600313Y-88012975D01*
X162703003Y-87944360D01*
X162760058Y-87920727D01*
X162817111Y-87897095D01*
X162877678Y-87885048D01*
X162938245Y-87873000D01*
X163061755Y-87873000D01*
X163122322Y-87885048D01*
G37*
G36*
X169138076Y-87328100D02*
G01*
X169181967Y-87341414D01*
X169222419Y-87363036D01*
X169257870Y-87392130D01*
X169286964Y-87427581D01*
X169308586Y-87468033D01*
X169321900Y-87511924D01*
X169327000Y-87563705D01*
X169327000Y-88486295D01*
X169321900Y-88538076D01*
X169308586Y-88581967D01*
X169286964Y-88622419D01*
X169257870Y-88657870D01*
X169222419Y-88686964D01*
X169181967Y-88708586D01*
X169138076Y-88721900D01*
X169086295Y-88727000D01*
X167913705Y-88727000D01*
X167861924Y-88721900D01*
X167818033Y-88708586D01*
X167777581Y-88686964D01*
X167742130Y-88657870D01*
X167713036Y-88622419D01*
X167691414Y-88581967D01*
X167678100Y-88538076D01*
X167673000Y-88486295D01*
X167673000Y-87563705D01*
X167678100Y-87511924D01*
X167691414Y-87468033D01*
X167713036Y-87427581D01*
X167742130Y-87392130D01*
X167777581Y-87363036D01*
X167818033Y-87341414D01*
X167861924Y-87328100D01*
X167913705Y-87323000D01*
X169086295Y-87323000D01*
X169138076Y-87328100D01*
G37*
G36*
X169138076Y-85278100D02*
G01*
X169181967Y-85291414D01*
X169222419Y-85313036D01*
X169257870Y-85342130D01*
X169286964Y-85377581D01*
X169308586Y-85418033D01*
X169321900Y-85461924D01*
X169327000Y-85513705D01*
X169327000Y-86436295D01*
X169321900Y-86488076D01*
X169308586Y-86531967D01*
X169286964Y-86572419D01*
X169257870Y-86607870D01*
X169222419Y-86636964D01*
X169181967Y-86658586D01*
X169138076Y-86671900D01*
X169086295Y-86677000D01*
X167913705Y-86677000D01*
X167861924Y-86671900D01*
X167818033Y-86658586D01*
X167777581Y-86636964D01*
X167742130Y-86607870D01*
X167713036Y-86572419D01*
X167691414Y-86531967D01*
X167678100Y-86488076D01*
X167673000Y-86436295D01*
X167673000Y-85513705D01*
X167678100Y-85461924D01*
X167691414Y-85418033D01*
X167713036Y-85377581D01*
X167742130Y-85342130D01*
X167777581Y-85313036D01*
X167818033Y-85291414D01*
X167861924Y-85278100D01*
X167913705Y-85273000D01*
X169086295Y-85273000D01*
X169138076Y-85278100D01*
G37*
G36*
X146699800Y-55914683D02*
G01*
X146804578Y-55935525D01*
X146927224Y-55986327D01*
X147100672Y-56058171D01*
X147100673Y-56058172D01*
X147367152Y-56236227D01*
X147593773Y-56462848D01*
X147668711Y-56575001D01*
X147771829Y-56729328D01*
X147894475Y-57025423D01*
X147957000Y-57339753D01*
X147957000Y-57660247D01*
X147894475Y-57974577D01*
X147771829Y-58270672D01*
X147745875Y-58309515D01*
X147593773Y-58537152D01*
X147367152Y-58763773D01*
X147271883Y-58827430D01*
X147196226Y-58877982D01*
X147177284Y-58893528D01*
X147161739Y-58912469D01*
X147150188Y-58934080D01*
X147143075Y-58957529D01*
X147140742Y-58977751D01*
X147110447Y-59886611D01*
X147087500Y-60575000D01*
X147083887Y-60578609D01*
X135136877Y-72513162D01*
X135121322Y-72532096D01*
X135109760Y-72553701D01*
X135102635Y-72577146D01*
X135100221Y-72602126D01*
X135124781Y-78398329D01*
X135127286Y-78422704D01*
X135134499Y-78446123D01*
X135146141Y-78467684D01*
X135161639Y-78486434D01*
X139294932Y-82596636D01*
X139313918Y-82612128D01*
X139335561Y-82623619D01*
X139359029Y-82630666D01*
X139383072Y-82633000D01*
X140127000Y-82633000D01*
X140127000Y-84287000D01*
X137873000Y-84287000D01*
X137873000Y-83529033D01*
X137870598Y-83504647D01*
X137863485Y-83481198D01*
X137851934Y-83459587D01*
X137835667Y-83439930D01*
X137286886Y-82900000D01*
X133450000Y-79125000D01*
X133450000Y-71900000D01*
X145463389Y-59886611D01*
X145478934Y-59867669D01*
X145490485Y-59846058D01*
X145497598Y-59822609D01*
X145500000Y-59798223D01*
X145500000Y-58969001D01*
X145497598Y-58944615D01*
X145490485Y-58921166D01*
X145478934Y-58899555D01*
X145463389Y-58880613D01*
X145444447Y-58865068D01*
X145422364Y-58850312D01*
X145292848Y-58763773D01*
X145066227Y-58537152D01*
X144914125Y-58309515D01*
X144888171Y-58270672D01*
X144765525Y-57974577D01*
X144703000Y-57660247D01*
X144703000Y-57339753D01*
X144765525Y-57025423D01*
X144888171Y-56729328D01*
X144991289Y-56575001D01*
X145066227Y-56462848D01*
X145292848Y-56236227D01*
X145559327Y-56058172D01*
X145559328Y-56058171D01*
X145732776Y-55986327D01*
X145855422Y-55935525D01*
X145960200Y-55914683D01*
X146169753Y-55873000D01*
X146490247Y-55873000D01*
X146699800Y-55914683D01*
G37*
G36*
X149387071Y-77723995D02*
G01*
X149628569Y-77824027D01*
X149845913Y-77969251D01*
X150030749Y-78154087D01*
X150175973Y-78371431D01*
X150276005Y-78612929D01*
X150327000Y-78869301D01*
X150327000Y-79130699D01*
X150276005Y-79387071D01*
X150175973Y-79628569D01*
X150030749Y-79845913D01*
X149845913Y-80030749D01*
X149628569Y-80175973D01*
X149387071Y-80276005D01*
X149130699Y-80327000D01*
X148869301Y-80327000D01*
X148612929Y-80276005D01*
X148371431Y-80175973D01*
X148154087Y-80030749D01*
X147969251Y-79845913D01*
X147824027Y-79628569D01*
X147723995Y-79387071D01*
X147673000Y-79130699D01*
X147673000Y-78869301D01*
X147723995Y-78612929D01*
X147824027Y-78371431D01*
X147969251Y-78154087D01*
X148154087Y-77969251D01*
X148371431Y-77824027D01*
X148612929Y-77723995D01*
X148869301Y-77673000D01*
X149130699Y-77673000D01*
X149387071Y-77723995D01*
G37*
G36*
X163219867Y-77894655D02*
G01*
X163328734Y-77916310D01*
X163533835Y-78001266D01*
X163718421Y-78124602D01*
X163875398Y-78281579D01*
X163998734Y-78466165D01*
X164083690Y-78671266D01*
X164127000Y-78889000D01*
X164127000Y-79111000D01*
X164083690Y-79328734D01*
X163998734Y-79533835D01*
X163875398Y-79718421D01*
X163718421Y-79875398D01*
X163533835Y-79998734D01*
X163328734Y-80083690D01*
X163219867Y-80105345D01*
X163111001Y-80127000D01*
X162888999Y-80127000D01*
X162780133Y-80105345D01*
X162671266Y-80083690D01*
X162466165Y-79998734D01*
X162281579Y-79875398D01*
X162124602Y-79718421D01*
X162001266Y-79533835D01*
X161916310Y-79328734D01*
X161873000Y-79111000D01*
X161873000Y-78889000D01*
X161916310Y-78671266D01*
X162001266Y-78466165D01*
X162124602Y-78281579D01*
X162281579Y-78124602D01*
X162466165Y-78001266D01*
X162671266Y-77916310D01*
X162780133Y-77894655D01*
X162888999Y-77873000D01*
X163111001Y-77873000D01*
X163219867Y-77894655D01*
G37*
G36*
X163219867Y-72894655D02*
G01*
X163328734Y-72916310D01*
X163533835Y-73001266D01*
X163718421Y-73124602D01*
X163875398Y-73281579D01*
X163998734Y-73466165D01*
X164083690Y-73671266D01*
X164127000Y-73889000D01*
X164127000Y-74111000D01*
X164083690Y-74328734D01*
X163998734Y-74533835D01*
X163875398Y-74718421D01*
X163718421Y-74875398D01*
X163533835Y-74998734D01*
X163328734Y-75083690D01*
X163219867Y-75105345D01*
X163111001Y-75127000D01*
X162888999Y-75127000D01*
X162780133Y-75105345D01*
X162671266Y-75083690D01*
X162466165Y-74998734D01*
X162281579Y-74875398D01*
X162124602Y-74718421D01*
X162001266Y-74533835D01*
X161916310Y-74328734D01*
X161873000Y-74111000D01*
X161873000Y-73889000D01*
X161916310Y-73671266D01*
X162001266Y-73466165D01*
X162124602Y-73281579D01*
X162281579Y-73124602D01*
X162466165Y-73001266D01*
X162671266Y-72916310D01*
X162780133Y-72894655D01*
X162888999Y-72873000D01*
X163111001Y-72873000D01*
X163219867Y-72894655D01*
G37*
G36*
X167887071Y-66723995D02*
G01*
X168128569Y-66824027D01*
X168345913Y-66969251D01*
X168530749Y-67154087D01*
X168675973Y-67371431D01*
X168776005Y-67612929D01*
X168827000Y-67869301D01*
X168827000Y-68130699D01*
X168776005Y-68387071D01*
X168675973Y-68628569D01*
X168530749Y-68845913D01*
X168345913Y-69030749D01*
X168128569Y-69175973D01*
X167887071Y-69276005D01*
X167630699Y-69327000D01*
X167369301Y-69327000D01*
X167112929Y-69276005D01*
X166871431Y-69175973D01*
X166654087Y-69030749D01*
X166469251Y-68845913D01*
X166324027Y-68628569D01*
X166223995Y-68387071D01*
X166173000Y-68130699D01*
X166173000Y-67869301D01*
X166223995Y-67612929D01*
X166324027Y-67371431D01*
X166469251Y-67154087D01*
X166654087Y-66969251D01*
X166871431Y-66824027D01*
X167112929Y-66723995D01*
X167369301Y-66673000D01*
X167630699Y-66673000D01*
X167887071Y-66723995D01*
G37*
G36*
X157887071Y-66723995D02*
G01*
X158128569Y-66824027D01*
X158345913Y-66969251D01*
X158530749Y-67154087D01*
X158675973Y-67371431D01*
X158776005Y-67612929D01*
X158827000Y-67869301D01*
X158827000Y-68130699D01*
X158776005Y-68387071D01*
X158675973Y-68628569D01*
X158530749Y-68845913D01*
X158345913Y-69030749D01*
X158128569Y-69175973D01*
X157887071Y-69276005D01*
X157630699Y-69327000D01*
X157369301Y-69327000D01*
X157112929Y-69276005D01*
X156871431Y-69175973D01*
X156654087Y-69030749D01*
X156469251Y-68845913D01*
X156324027Y-68628569D01*
X156223995Y-68387071D01*
X156173000Y-68130699D01*
X156173000Y-67869301D01*
X156223995Y-67612929D01*
X156324027Y-67371431D01*
X156469251Y-67154087D01*
X156654087Y-66969251D01*
X156871431Y-66824027D01*
X157112929Y-66723995D01*
X157369301Y-66673000D01*
X157630699Y-66673000D01*
X157887071Y-66723995D01*
G37*
G36*
X149387071Y-62723995D02*
G01*
X149628569Y-62824027D01*
X149845913Y-62969251D01*
X150030749Y-63154087D01*
X150175973Y-63371431D01*
X150276005Y-63612929D01*
X150327000Y-63869301D01*
X150327000Y-64130699D01*
X150276005Y-64387071D01*
X150175973Y-64628569D01*
X150030749Y-64845913D01*
X149845913Y-65030749D01*
X149628569Y-65175973D01*
X149387071Y-65276005D01*
X149130699Y-65327000D01*
X148869301Y-65327000D01*
X148612929Y-65276005D01*
X148371431Y-65175973D01*
X148154087Y-65030749D01*
X147969251Y-64845913D01*
X147824027Y-64628569D01*
X147723995Y-64387071D01*
X147673000Y-64130699D01*
X147673000Y-63869301D01*
X147723995Y-63612929D01*
X147824027Y-63371431D01*
X147969251Y-63154087D01*
X148154087Y-62969251D01*
X148371431Y-62824027D01*
X148612929Y-62723995D01*
X148869301Y-62673000D01*
X149130699Y-62673000D01*
X149387071Y-62723995D01*
G37*
G36*
X157887071Y-62223995D02*
G01*
X158128569Y-62324027D01*
X158345913Y-62469251D01*
X158530749Y-62654087D01*
X158675973Y-62871431D01*
X158776005Y-63112929D01*
X158827000Y-63369301D01*
X158827000Y-63630699D01*
X158776005Y-63887071D01*
X158675973Y-64128569D01*
X158530749Y-64345913D01*
X158345913Y-64530749D01*
X158128569Y-64675973D01*
X157887071Y-64776005D01*
X157630699Y-64827000D01*
X157369301Y-64827000D01*
X157112929Y-64776005D01*
X156871431Y-64675973D01*
X156654087Y-64530749D01*
X156469251Y-64345913D01*
X156324027Y-64128569D01*
X156223995Y-63887071D01*
X156173000Y-63630699D01*
X156173000Y-63369301D01*
X156223995Y-63112929D01*
X156324027Y-62871431D01*
X156469251Y-62654087D01*
X156654087Y-62469251D01*
X156871431Y-62324027D01*
X157112929Y-62223995D01*
X157369301Y-62173000D01*
X157630699Y-62173000D01*
X157887071Y-62223995D01*
G37*
G36*
X167887071Y-62223995D02*
G01*
X168128569Y-62324027D01*
X168345913Y-62469251D01*
X168530749Y-62654087D01*
X168675973Y-62871431D01*
X168776005Y-63112929D01*
X168827000Y-63369301D01*
X168827000Y-63630699D01*
X168776005Y-63887071D01*
X168675973Y-64128569D01*
X168530749Y-64345913D01*
X168345913Y-64530749D01*
X168128569Y-64675973D01*
X167887071Y-64776005D01*
X167630699Y-64827000D01*
X167369301Y-64827000D01*
X167112929Y-64776005D01*
X166871431Y-64675973D01*
X166654087Y-64530749D01*
X166469251Y-64345913D01*
X166324027Y-64128569D01*
X166223995Y-63887071D01*
X166173000Y-63630699D01*
X166173000Y-63369301D01*
X166223995Y-63112929D01*
X166324027Y-62871431D01*
X166469251Y-62654087D01*
X166654087Y-62469251D01*
X166871431Y-62324027D01*
X167112929Y-62223995D01*
X167369301Y-62173000D01*
X167630699Y-62173000D01*
X167887071Y-62223995D01*
G37*
G36*
X168700358Y-57392734D02*
G01*
X168799565Y-57412467D01*
X168893016Y-57451176D01*
X168986468Y-57489885D01*
X169154672Y-57602275D01*
X169297725Y-57745328D01*
X169410115Y-57913532D01*
X169435401Y-57974578D01*
X169453525Y-58018332D01*
X169487533Y-58100436D01*
X169521396Y-58270673D01*
X169527000Y-58298849D01*
X169527000Y-58501151D01*
X169487533Y-58699565D01*
X169448824Y-58793016D01*
X169410115Y-58886468D01*
X169297725Y-59054672D01*
X169154672Y-59197725D01*
X168986468Y-59310115D01*
X168893016Y-59348824D01*
X168799565Y-59387533D01*
X168700358Y-59407266D01*
X168601152Y-59427000D01*
X168398848Y-59427000D01*
X168299642Y-59407266D01*
X168200435Y-59387533D01*
X168106984Y-59348824D01*
X168013532Y-59310115D01*
X167845328Y-59197725D01*
X167702275Y-59054672D01*
X167589885Y-58886468D01*
X167551176Y-58793016D01*
X167512467Y-58699565D01*
X167473000Y-58501151D01*
X167473000Y-58298849D01*
X167478605Y-58270673D01*
X167512467Y-58100436D01*
X167546476Y-58018332D01*
X167564599Y-57974578D01*
X167589885Y-57913532D01*
X167702275Y-57745328D01*
X167845328Y-57602275D01*
X168013532Y-57489885D01*
X168106984Y-57451176D01*
X168200435Y-57412467D01*
X168299642Y-57392734D01*
X168398848Y-57373000D01*
X168601152Y-57373000D01*
X168700358Y-57392734D01*
G37*
G36*
X134403894Y-55768526D02*
G01*
X134518332Y-55791289D01*
X134841725Y-55925243D01*
X135132771Y-56119714D01*
X135380286Y-56367229D01*
X135487042Y-56527000D01*
X135565517Y-56644447D01*
X135581062Y-56663389D01*
X135600004Y-56678934D01*
X135621615Y-56690485D01*
X135645064Y-56697598D01*
X135669450Y-56700000D01*
X139498001Y-56700000D01*
X139522387Y-56697598D01*
X139545836Y-56690485D01*
X139567447Y-56678934D01*
X139586389Y-56663389D01*
X139601934Y-56644447D01*
X139613485Y-56622836D01*
X139620598Y-56599387D01*
X139623000Y-56575001D01*
X139623000Y-55873000D01*
X142877000Y-55873000D01*
X142877000Y-59127000D01*
X139623000Y-59127000D01*
X139623000Y-58424999D01*
X139620598Y-58400613D01*
X139613485Y-58377164D01*
X139601934Y-58355553D01*
X139586389Y-58336611D01*
X139567447Y-58321066D01*
X139545836Y-58309515D01*
X139522387Y-58302402D01*
X139498001Y-58300000D01*
X135669450Y-58300000D01*
X135645064Y-58302402D01*
X135621615Y-58309515D01*
X135600004Y-58321066D01*
X135581062Y-58336611D01*
X135565519Y-58355550D01*
X135380286Y-58632771D01*
X135132771Y-58880286D01*
X134841725Y-59074757D01*
X134518332Y-59208711D01*
X134403894Y-59231474D01*
X134175021Y-59277000D01*
X133824979Y-59277000D01*
X133596106Y-59231474D01*
X133481668Y-59208711D01*
X133158275Y-59074757D01*
X132867229Y-58880286D01*
X132619714Y-58632771D01*
X132425243Y-58341725D01*
X132291289Y-58018332D01*
X132223000Y-57675019D01*
X132223000Y-57324981D01*
X132291289Y-56981668D01*
X132425243Y-56658275D01*
X132619714Y-56367229D01*
X132867229Y-56119714D01*
X133158275Y-55925243D01*
X133481668Y-55791289D01*
X133596106Y-55768526D01*
X133824979Y-55723000D01*
X134175021Y-55723000D01*
X134403894Y-55768526D01*
G37*
G36*
X161200358Y-54492733D02*
G01*
X161299565Y-54512467D01*
X161393016Y-54551176D01*
X161486468Y-54589885D01*
X161654672Y-54702275D01*
X161797725Y-54845328D01*
X161910115Y-55013532D01*
X161987533Y-55200436D01*
X162027000Y-55398848D01*
X162027000Y-55601152D01*
X161987533Y-55799564D01*
X161910115Y-55986468D01*
X161797725Y-56154672D01*
X161654672Y-56297725D01*
X161486468Y-56410115D01*
X161393016Y-56448824D01*
X161299565Y-56487533D01*
X161200358Y-56507266D01*
X161101152Y-56527000D01*
X160898848Y-56527000D01*
X160799642Y-56507266D01*
X160700435Y-56487533D01*
X160606984Y-56448824D01*
X160513532Y-56410115D01*
X160345328Y-56297725D01*
X160202275Y-56154672D01*
X160089885Y-55986468D01*
X160012467Y-55799564D01*
X159973000Y-55601152D01*
X159973000Y-55398848D01*
X160012467Y-55200436D01*
X160089885Y-55013532D01*
X160202275Y-54845328D01*
X160345328Y-54702275D01*
X160513532Y-54589885D01*
X160606984Y-54551176D01*
X160700435Y-54512467D01*
X160799642Y-54492733D01*
X160898848Y-54473000D01*
X161101152Y-54473000D01*
X161200358Y-54492733D01*
G37*
M02*
