G04 #@! TF.GenerationSoftware,KiCad,Pcbnew,(5.1.5)-3*
G04 #@! TF.CreationDate,2021-07-28T10:17:32-03:00*
G04 #@! TF.ProjectId,relayer_hw,72656c61-7965-4725-9f68-772e6b696361,rev?*
G04 #@! TF.SameCoordinates,Original*
G04 #@! TF.FileFunction,Soldermask,Top*
G04 #@! TF.FilePolarity,Negative*
%FSLAX46Y46*%
G04 Gerber Fmt 4.6, Leading zero omitted, Abs format (unit mm)*
G04 Created by KiCad (PCBNEW (5.1.5)-3) date 2021-07-28 10:17:32*
%MOMM*%
%LPD*%
G04 APERTURE LIST*
%ADD10C,0.100000*%
G04 APERTURE END LIST*
D10*
G36*
X134403894Y-135268526D02*
G01*
X134518332Y-135291289D01*
X134841725Y-135425243D01*
X135132771Y-135619714D01*
X135380286Y-135867229D01*
X135574757Y-136158275D01*
X135708711Y-136481668D01*
X135777000Y-136824981D01*
X135777000Y-137175019D01*
X135708711Y-137518332D01*
X135574757Y-137841725D01*
X135380286Y-138132771D01*
X135132771Y-138380286D01*
X134841725Y-138574757D01*
X134518332Y-138708711D01*
X134403894Y-138731474D01*
X134175021Y-138777000D01*
X133824979Y-138777000D01*
X133596106Y-138731474D01*
X133481668Y-138708711D01*
X133158275Y-138574757D01*
X132867229Y-138380286D01*
X132619714Y-138132771D01*
X132425243Y-137841725D01*
X132291289Y-137518332D01*
X132223000Y-137175019D01*
X132223000Y-136824981D01*
X132291289Y-136481668D01*
X132425243Y-136158275D01*
X132619714Y-135867229D01*
X132867229Y-135619714D01*
X133158275Y-135425243D01*
X133481668Y-135291289D01*
X133596106Y-135268526D01*
X133824979Y-135223000D01*
X134175021Y-135223000D01*
X134403894Y-135268526D01*
G37*
G36*
X140539800Y-135414683D02*
G01*
X140644578Y-135435525D01*
X140767224Y-135486327D01*
X140940672Y-135558171D01*
X140940673Y-135558172D01*
X141207152Y-135736227D01*
X141433773Y-135962848D01*
X141552746Y-136140904D01*
X141611829Y-136229328D01*
X141734475Y-136525423D01*
X141797000Y-136839753D01*
X141797000Y-137160247D01*
X141734475Y-137474577D01*
X141611829Y-137770672D01*
X141611828Y-137770673D01*
X141433773Y-138037152D01*
X141207152Y-138263773D01*
X141032777Y-138380286D01*
X140940672Y-138441829D01*
X140767224Y-138513673D01*
X140644578Y-138564475D01*
X140592887Y-138574757D01*
X140330247Y-138627000D01*
X140009753Y-138627000D01*
X139747113Y-138574757D01*
X139695422Y-138564475D01*
X139572776Y-138513673D01*
X139399328Y-138441829D01*
X139307223Y-138380286D01*
X139132848Y-138263773D01*
X138906227Y-138037152D01*
X138728172Y-137770673D01*
X138728171Y-137770672D01*
X138605525Y-137474577D01*
X138543000Y-137160247D01*
X138543000Y-136839753D01*
X138605525Y-136525423D01*
X138728171Y-136229328D01*
X138787254Y-136140904D01*
X138906227Y-135962848D01*
X139132848Y-135736227D01*
X139399327Y-135558172D01*
X139399328Y-135558171D01*
X139572776Y-135486327D01*
X139695422Y-135435525D01*
X139800200Y-135414683D01*
X140009753Y-135373000D01*
X140330247Y-135373000D01*
X140539800Y-135414683D01*
G37*
G36*
X146877000Y-138627000D02*
G01*
X143623000Y-138627000D01*
X143623000Y-135373000D01*
X146877000Y-135373000D01*
X146877000Y-138627000D01*
G37*
G36*
X169719867Y-126894655D02*
G01*
X169828734Y-126916310D01*
X170033835Y-127001266D01*
X170218421Y-127124602D01*
X170375398Y-127281579D01*
X170498734Y-127466165D01*
X170583690Y-127671266D01*
X170627000Y-127889000D01*
X170627000Y-128111000D01*
X170583690Y-128328734D01*
X170498734Y-128533835D01*
X170375398Y-128718421D01*
X170218421Y-128875398D01*
X170033835Y-128998734D01*
X169828734Y-129083690D01*
X169719867Y-129105345D01*
X169611001Y-129127000D01*
X169388999Y-129127000D01*
X169280133Y-129105345D01*
X169171266Y-129083690D01*
X168966165Y-128998734D01*
X168781579Y-128875398D01*
X168624602Y-128718421D01*
X168501266Y-128533835D01*
X168416310Y-128328734D01*
X168373000Y-128111000D01*
X168373000Y-127889000D01*
X168416310Y-127671266D01*
X168501266Y-127466165D01*
X168624602Y-127281579D01*
X168781579Y-127124602D01*
X168966165Y-127001266D01*
X169171266Y-126916310D01*
X169280133Y-126894655D01*
X169388999Y-126873000D01*
X169611001Y-126873000D01*
X169719867Y-126894655D01*
G37*
G36*
X163219867Y-126894655D02*
G01*
X163328734Y-126916310D01*
X163533835Y-127001266D01*
X163718421Y-127124602D01*
X163875398Y-127281579D01*
X163998734Y-127466165D01*
X164083690Y-127671266D01*
X164127000Y-127889000D01*
X164127000Y-128111000D01*
X164083690Y-128328734D01*
X163998734Y-128533835D01*
X163875398Y-128718421D01*
X163718421Y-128875398D01*
X163533835Y-128998734D01*
X163328734Y-129083690D01*
X163219867Y-129105345D01*
X163111001Y-129127000D01*
X162888999Y-129127000D01*
X162780133Y-129105345D01*
X162671266Y-129083690D01*
X162466165Y-128998734D01*
X162281579Y-128875398D01*
X162124602Y-128718421D01*
X162001266Y-128533835D01*
X161916310Y-128328734D01*
X161873000Y-128111000D01*
X161873000Y-127889000D01*
X161916310Y-127671266D01*
X162001266Y-127466165D01*
X162124602Y-127281579D01*
X162281579Y-127124602D01*
X162466165Y-127001266D01*
X162671266Y-126916310D01*
X162780133Y-126894655D01*
X162888999Y-126873000D01*
X163111001Y-126873000D01*
X163219867Y-126894655D01*
G37*
G36*
X143527000Y-126527000D02*
G01*
X141473000Y-126527000D01*
X141473000Y-124473000D01*
X143527000Y-124473000D01*
X143527000Y-126527000D01*
G37*
G36*
X150027000Y-126527000D02*
G01*
X147973000Y-126527000D01*
X147973000Y-124473000D01*
X150027000Y-124473000D01*
X150027000Y-126527000D01*
G37*
G36*
X146660358Y-124492733D02*
G01*
X146759565Y-124512467D01*
X146853016Y-124551176D01*
X146946468Y-124589885D01*
X147114672Y-124702275D01*
X147257725Y-124845328D01*
X147370115Y-125013532D01*
X147447533Y-125200436D01*
X147487000Y-125398848D01*
X147487000Y-125601152D01*
X147447533Y-125799564D01*
X147370115Y-125986468D01*
X147257725Y-126154672D01*
X147114672Y-126297725D01*
X146946468Y-126410115D01*
X146853016Y-126448824D01*
X146759565Y-126487533D01*
X146660358Y-126507267D01*
X146561152Y-126527000D01*
X146358848Y-126527000D01*
X146259642Y-126507267D01*
X146160435Y-126487533D01*
X146066984Y-126448824D01*
X145973532Y-126410115D01*
X145805328Y-126297725D01*
X145662275Y-126154672D01*
X145549885Y-125986468D01*
X145472467Y-125799564D01*
X145433000Y-125601152D01*
X145433000Y-125398848D01*
X145472467Y-125200436D01*
X145549885Y-125013532D01*
X145662275Y-124845328D01*
X145805328Y-124702275D01*
X145973532Y-124589885D01*
X146066984Y-124551176D01*
X146160435Y-124512467D01*
X146259642Y-124492733D01*
X146358848Y-124473000D01*
X146561152Y-124473000D01*
X146660358Y-124492733D01*
G37*
G36*
X140160358Y-124492733D02*
G01*
X140259565Y-124512467D01*
X140353016Y-124551176D01*
X140446468Y-124589885D01*
X140614672Y-124702275D01*
X140757725Y-124845328D01*
X140870115Y-125013532D01*
X140947533Y-125200436D01*
X140987000Y-125398848D01*
X140987000Y-125601152D01*
X140947533Y-125799564D01*
X140870115Y-125986468D01*
X140757725Y-126154672D01*
X140614672Y-126297725D01*
X140446468Y-126410115D01*
X140353016Y-126448824D01*
X140259565Y-126487533D01*
X140160358Y-126507267D01*
X140061152Y-126527000D01*
X139858848Y-126527000D01*
X139759642Y-126507267D01*
X139660435Y-126487533D01*
X139566984Y-126448824D01*
X139473532Y-126410115D01*
X139305328Y-126297725D01*
X139162275Y-126154672D01*
X139049885Y-125986468D01*
X138972467Y-125799564D01*
X138933000Y-125601152D01*
X138933000Y-125398848D01*
X138972467Y-125200436D01*
X139049885Y-125013532D01*
X139162275Y-124845328D01*
X139305328Y-124702275D01*
X139473532Y-124589885D01*
X139566984Y-124551176D01*
X139660435Y-124512467D01*
X139759642Y-124492733D01*
X139858848Y-124473000D01*
X140061152Y-124473000D01*
X140160358Y-124492733D01*
G37*
G36*
X169719867Y-122394655D02*
G01*
X169828734Y-122416310D01*
X170033835Y-122501266D01*
X170218421Y-122624602D01*
X170375398Y-122781579D01*
X170498734Y-122966165D01*
X170583690Y-123171266D01*
X170627000Y-123389000D01*
X170627000Y-123611000D01*
X170583690Y-123828734D01*
X170498734Y-124033835D01*
X170375398Y-124218421D01*
X170218421Y-124375398D01*
X170033835Y-124498734D01*
X169828734Y-124583690D01*
X169719867Y-124605345D01*
X169611001Y-124627000D01*
X169388999Y-124627000D01*
X169280133Y-124605345D01*
X169171266Y-124583690D01*
X168966165Y-124498734D01*
X168781579Y-124375398D01*
X168624602Y-124218421D01*
X168501266Y-124033835D01*
X168416310Y-123828734D01*
X168373000Y-123611000D01*
X168373000Y-123389000D01*
X168416310Y-123171266D01*
X168501266Y-122966165D01*
X168624602Y-122781579D01*
X168781579Y-122624602D01*
X168966165Y-122501266D01*
X169171266Y-122416310D01*
X169280133Y-122394655D01*
X169388999Y-122373000D01*
X169611001Y-122373000D01*
X169719867Y-122394655D01*
G37*
G36*
X163219867Y-122394655D02*
G01*
X163328734Y-122416310D01*
X163533835Y-122501266D01*
X163718421Y-122624602D01*
X163875398Y-122781579D01*
X163998734Y-122966165D01*
X164083690Y-123171266D01*
X164127000Y-123389000D01*
X164127000Y-123611000D01*
X164083690Y-123828734D01*
X163998734Y-124033835D01*
X163875398Y-124218421D01*
X163718421Y-124375398D01*
X163533835Y-124498734D01*
X163328734Y-124583690D01*
X163219867Y-124605345D01*
X163111001Y-124627000D01*
X162888999Y-124627000D01*
X162780133Y-124605345D01*
X162671266Y-124583690D01*
X162466165Y-124498734D01*
X162281579Y-124375398D01*
X162124602Y-124218421D01*
X162001266Y-124033835D01*
X161916310Y-123828734D01*
X161873000Y-123611000D01*
X161873000Y-123389000D01*
X161916310Y-123171266D01*
X162001266Y-122966165D01*
X162124602Y-122781579D01*
X162281579Y-122624602D01*
X162466165Y-122501266D01*
X162671266Y-122416310D01*
X162780133Y-122394655D01*
X162888999Y-122373000D01*
X163111001Y-122373000D01*
X163219867Y-122394655D01*
G37*
G36*
X165977000Y-120477000D02*
G01*
X164023000Y-120477000D01*
X164023000Y-118523000D01*
X165977000Y-118523000D01*
X165977000Y-120477000D01*
G37*
G36*
X164924979Y-103810545D02*
G01*
X165102781Y-103884193D01*
X165102783Y-103884194D01*
X165262801Y-103991115D01*
X165398885Y-104127199D01*
X165398886Y-104127201D01*
X165505807Y-104287219D01*
X165579455Y-104465021D01*
X165617000Y-104653773D01*
X165617000Y-104846227D01*
X165579455Y-105034979D01*
X165505807Y-105212781D01*
X165505806Y-105212783D01*
X165398885Y-105372801D01*
X165262801Y-105508885D01*
X165102783Y-105615806D01*
X165102782Y-105615807D01*
X165102781Y-105615807D01*
X164924979Y-105689455D01*
X164736227Y-105727000D01*
X164543773Y-105727000D01*
X164355021Y-105689455D01*
X164177219Y-105615807D01*
X164177218Y-105615807D01*
X164177217Y-105615806D01*
X164017199Y-105508885D01*
X163881115Y-105372801D01*
X163774194Y-105212783D01*
X163774193Y-105212781D01*
X163700545Y-105034979D01*
X163663000Y-104846227D01*
X163663000Y-104653773D01*
X163700545Y-104465021D01*
X163774193Y-104287219D01*
X163881114Y-104127201D01*
X163881115Y-104127199D01*
X164017199Y-103991115D01*
X164177217Y-103884194D01*
X164177219Y-103884193D01*
X164355021Y-103810545D01*
X164543773Y-103773000D01*
X164736227Y-103773000D01*
X164924979Y-103810545D01*
G37*
G36*
X151164979Y-103810545D02*
G01*
X151342781Y-103884193D01*
X151342783Y-103884194D01*
X151502801Y-103991115D01*
X151638885Y-104127199D01*
X151638886Y-104127201D01*
X151745807Y-104287219D01*
X151819455Y-104465021D01*
X151857000Y-104653773D01*
X151857000Y-104846227D01*
X151819455Y-105034979D01*
X151745807Y-105212781D01*
X151745806Y-105212783D01*
X151638885Y-105372801D01*
X151502801Y-105508885D01*
X151342783Y-105615806D01*
X151342782Y-105615807D01*
X151342781Y-105615807D01*
X151164979Y-105689455D01*
X150976227Y-105727000D01*
X150783773Y-105727000D01*
X150595021Y-105689455D01*
X150417219Y-105615807D01*
X150417218Y-105615807D01*
X150417217Y-105615806D01*
X150257199Y-105508885D01*
X150121115Y-105372801D01*
X150014194Y-105212783D01*
X150014193Y-105212781D01*
X149940545Y-105034979D01*
X149903000Y-104846227D01*
X149903000Y-104653773D01*
X149940545Y-104465021D01*
X150014193Y-104287219D01*
X150121114Y-104127201D01*
X150121115Y-104127199D01*
X150257199Y-103991115D01*
X150417217Y-103884194D01*
X150417219Y-103884193D01*
X150595021Y-103810545D01*
X150783773Y-103773000D01*
X150976227Y-103773000D01*
X151164979Y-103810545D01*
G37*
G36*
X153704979Y-103810545D02*
G01*
X153882781Y-103884193D01*
X153882783Y-103884194D01*
X154042801Y-103991115D01*
X154178885Y-104127199D01*
X154178886Y-104127201D01*
X154285807Y-104287219D01*
X154359455Y-104465021D01*
X154397000Y-104653773D01*
X154397000Y-104846227D01*
X154359455Y-105034979D01*
X154285807Y-105212781D01*
X154285806Y-105212783D01*
X154178885Y-105372801D01*
X154042801Y-105508885D01*
X153882783Y-105615806D01*
X153882782Y-105615807D01*
X153882781Y-105615807D01*
X153704979Y-105689455D01*
X153516227Y-105727000D01*
X153323773Y-105727000D01*
X153135021Y-105689455D01*
X152957219Y-105615807D01*
X152957218Y-105615807D01*
X152957217Y-105615806D01*
X152797199Y-105508885D01*
X152661115Y-105372801D01*
X152554194Y-105212783D01*
X152554193Y-105212781D01*
X152480545Y-105034979D01*
X152443000Y-104846227D01*
X152443000Y-104653773D01*
X152480545Y-104465021D01*
X152554193Y-104287219D01*
X152661114Y-104127201D01*
X152661115Y-104127199D01*
X152797199Y-103991115D01*
X152957217Y-103884194D01*
X152957219Y-103884193D01*
X153135021Y-103810545D01*
X153323773Y-103773000D01*
X153516227Y-103773000D01*
X153704979Y-103810545D01*
G37*
G36*
X156244979Y-103810545D02*
G01*
X156422781Y-103884193D01*
X156422783Y-103884194D01*
X156582801Y-103991115D01*
X156718885Y-104127199D01*
X156718886Y-104127201D01*
X156825807Y-104287219D01*
X156899455Y-104465021D01*
X156937000Y-104653773D01*
X156937000Y-104846227D01*
X156899455Y-105034979D01*
X156825807Y-105212781D01*
X156825806Y-105212783D01*
X156718885Y-105372801D01*
X156582801Y-105508885D01*
X156422783Y-105615806D01*
X156422782Y-105615807D01*
X156422781Y-105615807D01*
X156244979Y-105689455D01*
X156056227Y-105727000D01*
X155863773Y-105727000D01*
X155675021Y-105689455D01*
X155497219Y-105615807D01*
X155497218Y-105615807D01*
X155497217Y-105615806D01*
X155337199Y-105508885D01*
X155201115Y-105372801D01*
X155094194Y-105212783D01*
X155094193Y-105212781D01*
X155020545Y-105034979D01*
X154983000Y-104846227D01*
X154983000Y-104653773D01*
X155020545Y-104465021D01*
X155094193Y-104287219D01*
X155201114Y-104127201D01*
X155201115Y-104127199D01*
X155337199Y-103991115D01*
X155497217Y-103884194D01*
X155497219Y-103884193D01*
X155675021Y-103810545D01*
X155863773Y-103773000D01*
X156056227Y-103773000D01*
X156244979Y-103810545D01*
G37*
G36*
X159477000Y-105727000D02*
G01*
X157523000Y-105727000D01*
X157523000Y-103773000D01*
X159477000Y-103773000D01*
X159477000Y-105727000D01*
G37*
G36*
X163077000Y-105727000D02*
G01*
X161123000Y-105727000D01*
X161123000Y-103773000D01*
X163077000Y-103773000D01*
X163077000Y-105727000D01*
G37*
G36*
X163219867Y-94394655D02*
G01*
X163328734Y-94416310D01*
X163533835Y-94501266D01*
X163718421Y-94624602D01*
X163875398Y-94781579D01*
X163998734Y-94966165D01*
X164083690Y-95171266D01*
X164127000Y-95389000D01*
X164127000Y-95611000D01*
X164083690Y-95828734D01*
X163998734Y-96033835D01*
X163875398Y-96218421D01*
X163718421Y-96375398D01*
X163533835Y-96498734D01*
X163328734Y-96583690D01*
X163219787Y-96605361D01*
X163108975Y-96627403D01*
X163085526Y-96634516D01*
X163063915Y-96646067D01*
X163044973Y-96661612D01*
X163029428Y-96680554D01*
X163017877Y-96702165D01*
X163010764Y-96725614D01*
X163008362Y-96750000D01*
X163010764Y-96774386D01*
X163017877Y-96797835D01*
X163029428Y-96819446D01*
X163044973Y-96838388D01*
X163063915Y-96853933D01*
X163085526Y-96865484D01*
X163108975Y-96872597D01*
X163219787Y-96894639D01*
X163328734Y-96916310D01*
X163533835Y-97001266D01*
X163718421Y-97124602D01*
X163875398Y-97281579D01*
X163998734Y-97466165D01*
X164083690Y-97671266D01*
X164127000Y-97889000D01*
X164127000Y-98111000D01*
X164083690Y-98328734D01*
X163998734Y-98533835D01*
X163875398Y-98718421D01*
X163718421Y-98875398D01*
X163533835Y-98998734D01*
X163328734Y-99083690D01*
X163219867Y-99105345D01*
X163111001Y-99127000D01*
X162888999Y-99127000D01*
X162780133Y-99105345D01*
X162671266Y-99083690D01*
X162466165Y-98998734D01*
X162281579Y-98875398D01*
X162124602Y-98718421D01*
X162001266Y-98533835D01*
X161916310Y-98328734D01*
X161873000Y-98111000D01*
X161873000Y-97889000D01*
X161916310Y-97671266D01*
X162001266Y-97466165D01*
X162124602Y-97281579D01*
X162281579Y-97124602D01*
X162466165Y-97001266D01*
X162671266Y-96916310D01*
X162780213Y-96894639D01*
X162891025Y-96872597D01*
X162914474Y-96865484D01*
X162936085Y-96853933D01*
X162955027Y-96838388D01*
X162970572Y-96819446D01*
X162982123Y-96797835D01*
X162989236Y-96774386D01*
X162991638Y-96750000D01*
X162989236Y-96725614D01*
X162982123Y-96702165D01*
X162970572Y-96680554D01*
X162955027Y-96661612D01*
X162936085Y-96646067D01*
X162914474Y-96634516D01*
X162891025Y-96627403D01*
X162780213Y-96605361D01*
X162671266Y-96583690D01*
X162466165Y-96498734D01*
X162281579Y-96375398D01*
X162124602Y-96218421D01*
X162001266Y-96033835D01*
X161916310Y-95828734D01*
X161873000Y-95611000D01*
X161873000Y-95389000D01*
X161916310Y-95171266D01*
X162001266Y-94966165D01*
X162124602Y-94781579D01*
X162281579Y-94624602D01*
X162466165Y-94501266D01*
X162671266Y-94416310D01*
X162780133Y-94394655D01*
X162888999Y-94373000D01*
X163111001Y-94373000D01*
X163219867Y-94394655D01*
G37*
G36*
X140177000Y-98902000D02*
G01*
X137823000Y-98902000D01*
X137823000Y-97098000D01*
X140177000Y-97098000D01*
X140177000Y-98902000D01*
G37*
G36*
X147797000Y-98902000D02*
G01*
X145443000Y-98902000D01*
X145443000Y-97098000D01*
X147797000Y-97098000D01*
X147797000Y-98902000D01*
G37*
G36*
X152437000Y-93867000D02*
G01*
X150583000Y-93867000D01*
X150583000Y-92013000D01*
X152437000Y-92013000D01*
X152437000Y-93867000D01*
G37*
G36*
X151720698Y-89836749D02*
G01*
X151780396Y-89848624D01*
X151949099Y-89918504D01*
X152100928Y-90019952D01*
X152230048Y-90149072D01*
X152331496Y-90300901D01*
X152401376Y-90469604D01*
X152437000Y-90648699D01*
X152437000Y-90831301D01*
X152401376Y-91010396D01*
X152331496Y-91179099D01*
X152230048Y-91330928D01*
X152100928Y-91460048D01*
X151949099Y-91561496D01*
X151780396Y-91631376D01*
X151720698Y-91643251D01*
X151601303Y-91667000D01*
X151418697Y-91667000D01*
X151299302Y-91643251D01*
X151239604Y-91631376D01*
X151070901Y-91561496D01*
X150919072Y-91460048D01*
X150789952Y-91330928D01*
X150688504Y-91179099D01*
X150618624Y-91010396D01*
X150583000Y-90831301D01*
X150583000Y-90648699D01*
X150618624Y-90469604D01*
X150688504Y-90300901D01*
X150789952Y-90149072D01*
X150919072Y-90019952D01*
X151070901Y-89918504D01*
X151239604Y-89848624D01*
X151299302Y-89836749D01*
X151418697Y-89813000D01*
X151601303Y-89813000D01*
X151720698Y-89836749D01*
G37*
G36*
X147747000Y-86127000D02*
G01*
X145493000Y-86127000D01*
X145493000Y-84473000D01*
X147747000Y-84473000D01*
X147747000Y-86127000D01*
G37*
G36*
X140127000Y-84287000D02*
G01*
X137873000Y-84287000D01*
X137873000Y-82633000D01*
X140127000Y-82633000D01*
X140127000Y-84287000D01*
G37*
G36*
X149387071Y-77723995D02*
G01*
X149628569Y-77824027D01*
X149845913Y-77969251D01*
X150030749Y-78154087D01*
X150175973Y-78371431D01*
X150276005Y-78612929D01*
X150327000Y-78869301D01*
X150327000Y-79130699D01*
X150276005Y-79387071D01*
X150175973Y-79628569D01*
X150030749Y-79845913D01*
X149845913Y-80030749D01*
X149628569Y-80175973D01*
X149387071Y-80276005D01*
X149130699Y-80327000D01*
X148869301Y-80327000D01*
X148612929Y-80276005D01*
X148371431Y-80175973D01*
X148154087Y-80030749D01*
X147969251Y-79845913D01*
X147824027Y-79628569D01*
X147723995Y-79387071D01*
X147673000Y-79130699D01*
X147673000Y-78869301D01*
X147723995Y-78612929D01*
X147824027Y-78371431D01*
X147969251Y-78154087D01*
X148154087Y-77969251D01*
X148371431Y-77824027D01*
X148612929Y-77723995D01*
X148869301Y-77673000D01*
X149130699Y-77673000D01*
X149387071Y-77723995D01*
G37*
G36*
X142877000Y-80177000D02*
G01*
X140623000Y-80177000D01*
X140623000Y-77923000D01*
X142877000Y-77923000D01*
X142877000Y-80177000D01*
G37*
G36*
X163219867Y-77894655D02*
G01*
X163328734Y-77916310D01*
X163533835Y-78001266D01*
X163718421Y-78124602D01*
X163875398Y-78281579D01*
X163998734Y-78466165D01*
X164083690Y-78671266D01*
X164127000Y-78889000D01*
X164127000Y-79111000D01*
X164083690Y-79328734D01*
X163998734Y-79533835D01*
X163875398Y-79718421D01*
X163718421Y-79875398D01*
X163533835Y-79998734D01*
X163328734Y-80083690D01*
X163219867Y-80105345D01*
X163111001Y-80127000D01*
X162888999Y-80127000D01*
X162780133Y-80105345D01*
X162671266Y-80083690D01*
X162466165Y-79998734D01*
X162281579Y-79875398D01*
X162124602Y-79718421D01*
X162001266Y-79533835D01*
X161916310Y-79328734D01*
X161873000Y-79111000D01*
X161873000Y-78889000D01*
X161916310Y-78671266D01*
X162001266Y-78466165D01*
X162124602Y-78281579D01*
X162281579Y-78124602D01*
X162466165Y-78001266D01*
X162671266Y-77916310D01*
X162780133Y-77894655D01*
X162888999Y-77873000D01*
X163111001Y-77873000D01*
X163219867Y-77894655D01*
G37*
G36*
X163219867Y-72894655D02*
G01*
X163328734Y-72916310D01*
X163533835Y-73001266D01*
X163718421Y-73124602D01*
X163875398Y-73281579D01*
X163998734Y-73466165D01*
X164083690Y-73671266D01*
X164127000Y-73889000D01*
X164127000Y-74111000D01*
X164083690Y-74328734D01*
X163998734Y-74533835D01*
X163875398Y-74718421D01*
X163718421Y-74875398D01*
X163533835Y-74998734D01*
X163328734Y-75083690D01*
X163219867Y-75105345D01*
X163111001Y-75127000D01*
X162888999Y-75127000D01*
X162780133Y-75105345D01*
X162671266Y-75083690D01*
X162466165Y-74998734D01*
X162281579Y-74875398D01*
X162124602Y-74718421D01*
X162001266Y-74533835D01*
X161916310Y-74328734D01*
X161873000Y-74111000D01*
X161873000Y-73889000D01*
X161916310Y-73671266D01*
X162001266Y-73466165D01*
X162124602Y-73281579D01*
X162281579Y-73124602D01*
X162466165Y-73001266D01*
X162671266Y-72916310D01*
X162780133Y-72894655D01*
X162888999Y-72873000D01*
X163111001Y-72873000D01*
X163219867Y-72894655D01*
G37*
G36*
X142877000Y-71377000D02*
G01*
X140623000Y-71377000D01*
X140623000Y-69123000D01*
X142877000Y-69123000D01*
X142877000Y-71377000D01*
G37*
G36*
X145077354Y-67746446D02*
G01*
X145105097Y-67754862D01*
X145130665Y-67768529D01*
X145153078Y-67786922D01*
X145171471Y-67809335D01*
X145185138Y-67834903D01*
X145193554Y-67862646D01*
X145197000Y-67897640D01*
X145197000Y-68432360D01*
X145193554Y-68467354D01*
X145185138Y-68495097D01*
X145171471Y-68520665D01*
X145153077Y-68543079D01*
X145140531Y-68553375D01*
X145123204Y-68570702D01*
X145109590Y-68591077D01*
X145100213Y-68613716D01*
X145095433Y-68637749D01*
X145095433Y-68662253D01*
X145100214Y-68686286D01*
X145109591Y-68708925D01*
X145123205Y-68729299D01*
X145140531Y-68746625D01*
X145153077Y-68756921D01*
X145171471Y-68779335D01*
X145185138Y-68804903D01*
X145193554Y-68832646D01*
X145197000Y-68867640D01*
X145197000Y-69402360D01*
X145193554Y-69437354D01*
X145185138Y-69465097D01*
X145171471Y-69490665D01*
X145153078Y-69513078D01*
X145130665Y-69531471D01*
X145105097Y-69545138D01*
X145077354Y-69553554D01*
X145042360Y-69557000D01*
X144457640Y-69557000D01*
X144422646Y-69553554D01*
X144394903Y-69545138D01*
X144369335Y-69531471D01*
X144346922Y-69513078D01*
X144328529Y-69490665D01*
X144314862Y-69465097D01*
X144306446Y-69437354D01*
X144303000Y-69402360D01*
X144303000Y-68867640D01*
X144306446Y-68832646D01*
X144314862Y-68804903D01*
X144328529Y-68779335D01*
X144346923Y-68756921D01*
X144359469Y-68746625D01*
X144376796Y-68729298D01*
X144390410Y-68708923D01*
X144399787Y-68686284D01*
X144404567Y-68662251D01*
X144404567Y-68637747D01*
X144399786Y-68613714D01*
X144390409Y-68591075D01*
X144376795Y-68570701D01*
X144359469Y-68553375D01*
X144346923Y-68543079D01*
X144328529Y-68520665D01*
X144314862Y-68495097D01*
X144306446Y-68467354D01*
X144303000Y-68432360D01*
X144303000Y-67897640D01*
X144306446Y-67862646D01*
X144314862Y-67834903D01*
X144328529Y-67809335D01*
X144346922Y-67786922D01*
X144369335Y-67768529D01*
X144394903Y-67754862D01*
X144422646Y-67746446D01*
X144457640Y-67743000D01*
X145042360Y-67743000D01*
X145077354Y-67746446D01*
G37*
G36*
X157887071Y-66723995D02*
G01*
X158128569Y-66824027D01*
X158345913Y-66969251D01*
X158530749Y-67154087D01*
X158675973Y-67371431D01*
X158776005Y-67612929D01*
X158827000Y-67869301D01*
X158827000Y-68130699D01*
X158776005Y-68387071D01*
X158675973Y-68628569D01*
X158530749Y-68845913D01*
X158345913Y-69030749D01*
X158128569Y-69175973D01*
X157887071Y-69276005D01*
X157630699Y-69327000D01*
X157369301Y-69327000D01*
X157112929Y-69276005D01*
X156871431Y-69175973D01*
X156654087Y-69030749D01*
X156469251Y-68845913D01*
X156324027Y-68628569D01*
X156223995Y-68387071D01*
X156173000Y-68130699D01*
X156173000Y-67869301D01*
X156223995Y-67612929D01*
X156324027Y-67371431D01*
X156469251Y-67154087D01*
X156654087Y-66969251D01*
X156871431Y-66824027D01*
X157112929Y-66723995D01*
X157369301Y-66673000D01*
X157630699Y-66673000D01*
X157887071Y-66723995D01*
G37*
G36*
X167887071Y-66723995D02*
G01*
X168128569Y-66824027D01*
X168345913Y-66969251D01*
X168530749Y-67154087D01*
X168675973Y-67371431D01*
X168776005Y-67612929D01*
X168827000Y-67869301D01*
X168827000Y-68130699D01*
X168776005Y-68387071D01*
X168675973Y-68628569D01*
X168530749Y-68845913D01*
X168345913Y-69030749D01*
X168128569Y-69175973D01*
X167887071Y-69276005D01*
X167630699Y-69327000D01*
X167369301Y-69327000D01*
X167112929Y-69276005D01*
X166871431Y-69175973D01*
X166654087Y-69030749D01*
X166469251Y-68845913D01*
X166324027Y-68628569D01*
X166223995Y-68387071D01*
X166173000Y-68130699D01*
X166173000Y-67869301D01*
X166223995Y-67612929D01*
X166324027Y-67371431D01*
X166469251Y-67154087D01*
X166654087Y-66969251D01*
X166871431Y-66824027D01*
X167112929Y-66723995D01*
X167369301Y-66673000D01*
X167630699Y-66673000D01*
X167887071Y-66723995D01*
G37*
G36*
X149387071Y-62723995D02*
G01*
X149628569Y-62824027D01*
X149845913Y-62969251D01*
X150030749Y-63154087D01*
X150175973Y-63371431D01*
X150276005Y-63612929D01*
X150327000Y-63869301D01*
X150327000Y-64130699D01*
X150276005Y-64387071D01*
X150175973Y-64628569D01*
X150030749Y-64845913D01*
X149845913Y-65030749D01*
X149628569Y-65175973D01*
X149387071Y-65276005D01*
X149130699Y-65327000D01*
X148869301Y-65327000D01*
X148612929Y-65276005D01*
X148371431Y-65175973D01*
X148154087Y-65030749D01*
X147969251Y-64845913D01*
X147824027Y-64628569D01*
X147723995Y-64387071D01*
X147673000Y-64130699D01*
X147673000Y-63869301D01*
X147723995Y-63612929D01*
X147824027Y-63371431D01*
X147969251Y-63154087D01*
X148154087Y-62969251D01*
X148371431Y-62824027D01*
X148612929Y-62723995D01*
X148869301Y-62673000D01*
X149130699Y-62673000D01*
X149387071Y-62723995D01*
G37*
G36*
X157887071Y-62223995D02*
G01*
X158128569Y-62324027D01*
X158345913Y-62469251D01*
X158530749Y-62654087D01*
X158675973Y-62871431D01*
X158776005Y-63112929D01*
X158827000Y-63369301D01*
X158827000Y-63630699D01*
X158776005Y-63887071D01*
X158675973Y-64128569D01*
X158530749Y-64345913D01*
X158345913Y-64530749D01*
X158128569Y-64675973D01*
X157887071Y-64776005D01*
X157630699Y-64827000D01*
X157369301Y-64827000D01*
X157112929Y-64776005D01*
X156871431Y-64675973D01*
X156654087Y-64530749D01*
X156469251Y-64345913D01*
X156324027Y-64128569D01*
X156223995Y-63887071D01*
X156173000Y-63630699D01*
X156173000Y-63369301D01*
X156223995Y-63112929D01*
X156324027Y-62871431D01*
X156469251Y-62654087D01*
X156654087Y-62469251D01*
X156871431Y-62324027D01*
X157112929Y-62223995D01*
X157369301Y-62173000D01*
X157630699Y-62173000D01*
X157887071Y-62223995D01*
G37*
G36*
X167887071Y-62223995D02*
G01*
X168128569Y-62324027D01*
X168345913Y-62469251D01*
X168530749Y-62654087D01*
X168675973Y-62871431D01*
X168776005Y-63112929D01*
X168827000Y-63369301D01*
X168827000Y-63630699D01*
X168776005Y-63887071D01*
X168675973Y-64128569D01*
X168530749Y-64345913D01*
X168345913Y-64530749D01*
X168128569Y-64675973D01*
X167887071Y-64776005D01*
X167630699Y-64827000D01*
X167369301Y-64827000D01*
X167112929Y-64776005D01*
X166871431Y-64675973D01*
X166654087Y-64530749D01*
X166469251Y-64345913D01*
X166324027Y-64128569D01*
X166223995Y-63887071D01*
X166173000Y-63630699D01*
X166173000Y-63369301D01*
X166223995Y-63112929D01*
X166324027Y-62871431D01*
X166469251Y-62654087D01*
X166654087Y-62469251D01*
X166871431Y-62324027D01*
X167112929Y-62223995D01*
X167369301Y-62173000D01*
X167630699Y-62173000D01*
X167887071Y-62223995D01*
G37*
G36*
X168700358Y-57392734D02*
G01*
X168799565Y-57412467D01*
X168893016Y-57451176D01*
X168986468Y-57489885D01*
X169154672Y-57602275D01*
X169297725Y-57745328D01*
X169410115Y-57913532D01*
X169435401Y-57974578D01*
X169453525Y-58018332D01*
X169487533Y-58100436D01*
X169521396Y-58270673D01*
X169527000Y-58298849D01*
X169527000Y-58501151D01*
X169487533Y-58699565D01*
X169448824Y-58793016D01*
X169410115Y-58886468D01*
X169297725Y-59054672D01*
X169154672Y-59197725D01*
X168986468Y-59310115D01*
X168893016Y-59348824D01*
X168799565Y-59387533D01*
X168700358Y-59407266D01*
X168601152Y-59427000D01*
X168398848Y-59427000D01*
X168299642Y-59407266D01*
X168200435Y-59387533D01*
X168106984Y-59348824D01*
X168013532Y-59310115D01*
X167845328Y-59197725D01*
X167702275Y-59054672D01*
X167589885Y-58886468D01*
X167551176Y-58793016D01*
X167512467Y-58699565D01*
X167473000Y-58501151D01*
X167473000Y-58298849D01*
X167478605Y-58270673D01*
X167512467Y-58100436D01*
X167546476Y-58018332D01*
X167564599Y-57974578D01*
X167589885Y-57913532D01*
X167702275Y-57745328D01*
X167845328Y-57602275D01*
X168013532Y-57489885D01*
X168106984Y-57451176D01*
X168200435Y-57412467D01*
X168299642Y-57392734D01*
X168398848Y-57373000D01*
X168601152Y-57373000D01*
X168700358Y-57392734D01*
G37*
G36*
X134403894Y-55768526D02*
G01*
X134518332Y-55791289D01*
X134841725Y-55925243D01*
X135132771Y-56119714D01*
X135380286Y-56367229D01*
X135574757Y-56658275D01*
X135708711Y-56981668D01*
X135777000Y-57324981D01*
X135777000Y-57675019D01*
X135708711Y-58018332D01*
X135574757Y-58341725D01*
X135380286Y-58632771D01*
X135132771Y-58880286D01*
X134841725Y-59074757D01*
X134518332Y-59208711D01*
X134403894Y-59231474D01*
X134175021Y-59277000D01*
X133824979Y-59277000D01*
X133596106Y-59231474D01*
X133481668Y-59208711D01*
X133158275Y-59074757D01*
X132867229Y-58880286D01*
X132619714Y-58632771D01*
X132425243Y-58341725D01*
X132291289Y-58018332D01*
X132223000Y-57675019D01*
X132223000Y-57324981D01*
X132291289Y-56981668D01*
X132425243Y-56658275D01*
X132619714Y-56367229D01*
X132867229Y-56119714D01*
X133158275Y-55925243D01*
X133481668Y-55791289D01*
X133596106Y-55768526D01*
X133824979Y-55723000D01*
X134175021Y-55723000D01*
X134403894Y-55768526D01*
G37*
G36*
X142877000Y-59127000D02*
G01*
X139623000Y-59127000D01*
X139623000Y-55873000D01*
X142877000Y-55873000D01*
X142877000Y-59127000D01*
G37*
G36*
X146699800Y-55914683D02*
G01*
X146804578Y-55935525D01*
X146927224Y-55986327D01*
X147100672Y-56058171D01*
X147138572Y-56083495D01*
X147367152Y-56236227D01*
X147593773Y-56462848D01*
X147712746Y-56640904D01*
X147771829Y-56729328D01*
X147894475Y-57025423D01*
X147957000Y-57339753D01*
X147957000Y-57660247D01*
X147894475Y-57974577D01*
X147771829Y-58270672D01*
X147724354Y-58341723D01*
X147593773Y-58537152D01*
X147367152Y-58763773D01*
X147213288Y-58866581D01*
X147100672Y-58941829D01*
X146927224Y-59013673D01*
X146804578Y-59064475D01*
X146752887Y-59074757D01*
X146490247Y-59127000D01*
X146169753Y-59127000D01*
X145907113Y-59074757D01*
X145855422Y-59064475D01*
X145732776Y-59013673D01*
X145559328Y-58941829D01*
X145446712Y-58866581D01*
X145292848Y-58763773D01*
X145066227Y-58537152D01*
X144935646Y-58341723D01*
X144888171Y-58270672D01*
X144765525Y-57974577D01*
X144703000Y-57660247D01*
X144703000Y-57339753D01*
X144765525Y-57025423D01*
X144888171Y-56729328D01*
X144947254Y-56640904D01*
X145066227Y-56462848D01*
X145292848Y-56236227D01*
X145521428Y-56083495D01*
X145559328Y-56058171D01*
X145732776Y-55986327D01*
X145855422Y-55935525D01*
X145960200Y-55914683D01*
X146169753Y-55873000D01*
X146490247Y-55873000D01*
X146699800Y-55914683D01*
G37*
G36*
X152634763Y-56052582D02*
G01*
X152673598Y-56064362D01*
X152709392Y-56083495D01*
X152740761Y-56109239D01*
X152766505Y-56140608D01*
X152785638Y-56176402D01*
X152797418Y-56215237D01*
X152802000Y-56261762D01*
X152802000Y-58738238D01*
X152797418Y-58784763D01*
X152785638Y-58823598D01*
X152766505Y-58859392D01*
X152740761Y-58890761D01*
X152709392Y-58916505D01*
X152673598Y-58935638D01*
X152634763Y-58947418D01*
X152588238Y-58952000D01*
X151236762Y-58952000D01*
X151190237Y-58947418D01*
X151151402Y-58935638D01*
X151115608Y-58916505D01*
X151084239Y-58890761D01*
X151058495Y-58859392D01*
X151039362Y-58823598D01*
X151027582Y-58784763D01*
X151023000Y-58738238D01*
X151023000Y-56261762D01*
X151027582Y-56215237D01*
X151039362Y-56176402D01*
X151058495Y-56140608D01*
X151084239Y-56109239D01*
X151115608Y-56083495D01*
X151151402Y-56064362D01*
X151190237Y-56052582D01*
X151236762Y-56048000D01*
X152588238Y-56048000D01*
X152634763Y-56052582D01*
G37*
G36*
X157309763Y-56052582D02*
G01*
X157348598Y-56064362D01*
X157384392Y-56083495D01*
X157415761Y-56109239D01*
X157441505Y-56140608D01*
X157460638Y-56176402D01*
X157472418Y-56215237D01*
X157477000Y-56261762D01*
X157477000Y-58738238D01*
X157472418Y-58784763D01*
X157460638Y-58823598D01*
X157441505Y-58859392D01*
X157415761Y-58890761D01*
X157384392Y-58916505D01*
X157348598Y-58935638D01*
X157309763Y-58947418D01*
X157263238Y-58952000D01*
X155911762Y-58952000D01*
X155865237Y-58947418D01*
X155826402Y-58935638D01*
X155790608Y-58916505D01*
X155759239Y-58890761D01*
X155733495Y-58859392D01*
X155714362Y-58823598D01*
X155702582Y-58784763D01*
X155698000Y-58738238D01*
X155698000Y-56261762D01*
X155702582Y-56215237D01*
X155714362Y-56176402D01*
X155733495Y-56140608D01*
X155759239Y-56109239D01*
X155790608Y-56083495D01*
X155826402Y-56064362D01*
X155865237Y-56052582D01*
X155911762Y-56048000D01*
X157263238Y-56048000D01*
X157309763Y-56052582D01*
G37*
G36*
X161200358Y-54492733D02*
G01*
X161299565Y-54512467D01*
X161393016Y-54551176D01*
X161486468Y-54589885D01*
X161654672Y-54702275D01*
X161797725Y-54845328D01*
X161910115Y-55013532D01*
X161987533Y-55200436D01*
X162027000Y-55398848D01*
X162027000Y-55601152D01*
X161987533Y-55799564D01*
X161910115Y-55986468D01*
X161797725Y-56154672D01*
X161654672Y-56297725D01*
X161486468Y-56410115D01*
X161393016Y-56448824D01*
X161299565Y-56487533D01*
X161200358Y-56507266D01*
X161101152Y-56527000D01*
X160898848Y-56527000D01*
X160799642Y-56507266D01*
X160700435Y-56487533D01*
X160606984Y-56448824D01*
X160513532Y-56410115D01*
X160345328Y-56297725D01*
X160202275Y-56154672D01*
X160089885Y-55986468D01*
X160012467Y-55799564D01*
X159973000Y-55601152D01*
X159973000Y-55398848D01*
X160012467Y-55200436D01*
X160089885Y-55013532D01*
X160202275Y-54845328D01*
X160345328Y-54702275D01*
X160513532Y-54589885D01*
X160606984Y-54551176D01*
X160700435Y-54512467D01*
X160799642Y-54492733D01*
X160898848Y-54473000D01*
X161101152Y-54473000D01*
X161200358Y-54492733D01*
G37*
M02*
