G04 #@! TF.GenerationSoftware,KiCad,Pcbnew,(5.1.5)-3*
G04 #@! TF.CreationDate,2021-07-28T10:17:31-03:00*
G04 #@! TF.ProjectId,relayer_hw,72656c61-7965-4725-9f68-772e6b696361,rev?*
G04 #@! TF.SameCoordinates,Original*
G04 #@! TF.FileFunction,Copper,L1,Top*
G04 #@! TF.FilePolarity,Positive*
%FSLAX46Y46*%
G04 Gerber Fmt 4.6, Leading zero omitted, Abs format (unit mm)*
G04 Created by KiCad (PCBNEW (5.1.5)-3) date 2021-07-28 10:17:31*
%MOMM*%
%LPD*%
G04 APERTURE LIST*
%ADD10C,1.600000*%
%ADD11R,1.600000X1.600000*%
%ADD12C,0.100000*%
%ADD13R,2.000000X1.400000*%
%ADD14R,2.100000X1.550000*%
%ADD15C,3.300000*%
%ADD16C,2.400000*%
%ADD17R,1.800000X1.800000*%
%ADD18C,1.800000*%
%ADD19R,1.700000X1.700000*%
%ADD20O,1.700000X1.700000*%
%ADD21C,2.000000*%
%ADD22R,2.000000X2.000000*%
%ADD23R,3.000000X3.000000*%
%ADD24C,3.000000*%
%ADD25C,0.600000*%
%ADD26C,0.250000*%
%ADD27C,0.500000*%
%ADD28C,1.500000*%
%ADD29C,0.400000*%
%ADD30C,0.254000*%
G04 APERTURE END LIST*
D10*
X151510000Y-90740000D03*
D11*
X151510000Y-92940000D03*
G04 #@! TA.AperFunction,SMDPad,CuDef*
D12*
G36*
X152449505Y-56176204D02*
G01*
X152473773Y-56179804D01*
X152497572Y-56185765D01*
X152520671Y-56194030D01*
X152542850Y-56204520D01*
X152563893Y-56217132D01*
X152583599Y-56231747D01*
X152601777Y-56248223D01*
X152618253Y-56266401D01*
X152632868Y-56286107D01*
X152645480Y-56307150D01*
X152655970Y-56329329D01*
X152664235Y-56352428D01*
X152670196Y-56376227D01*
X152673796Y-56400495D01*
X152675000Y-56424999D01*
X152675000Y-58575001D01*
X152673796Y-58599505D01*
X152670196Y-58623773D01*
X152664235Y-58647572D01*
X152655970Y-58670671D01*
X152645480Y-58692850D01*
X152632868Y-58713893D01*
X152618253Y-58733599D01*
X152601777Y-58751777D01*
X152583599Y-58768253D01*
X152563893Y-58782868D01*
X152542850Y-58795480D01*
X152520671Y-58805970D01*
X152497572Y-58814235D01*
X152473773Y-58820196D01*
X152449505Y-58823796D01*
X152425001Y-58825000D01*
X151399999Y-58825000D01*
X151375495Y-58823796D01*
X151351227Y-58820196D01*
X151327428Y-58814235D01*
X151304329Y-58805970D01*
X151282150Y-58795480D01*
X151261107Y-58782868D01*
X151241401Y-58768253D01*
X151223223Y-58751777D01*
X151206747Y-58733599D01*
X151192132Y-58713893D01*
X151179520Y-58692850D01*
X151169030Y-58670671D01*
X151160765Y-58647572D01*
X151154804Y-58623773D01*
X151151204Y-58599505D01*
X151150000Y-58575001D01*
X151150000Y-56424999D01*
X151151204Y-56400495D01*
X151154804Y-56376227D01*
X151160765Y-56352428D01*
X151169030Y-56329329D01*
X151179520Y-56307150D01*
X151192132Y-56286107D01*
X151206747Y-56266401D01*
X151223223Y-56248223D01*
X151241401Y-56231747D01*
X151261107Y-56217132D01*
X151282150Y-56204520D01*
X151304329Y-56194030D01*
X151327428Y-56185765D01*
X151351227Y-56179804D01*
X151375495Y-56176204D01*
X151399999Y-56175000D01*
X152425001Y-56175000D01*
X152449505Y-56176204D01*
G37*
G04 #@! TD.AperFunction*
G04 #@! TA.AperFunction,SMDPad,CuDef*
G36*
X157124505Y-56176204D02*
G01*
X157148773Y-56179804D01*
X157172572Y-56185765D01*
X157195671Y-56194030D01*
X157217850Y-56204520D01*
X157238893Y-56217132D01*
X157258599Y-56231747D01*
X157276777Y-56248223D01*
X157293253Y-56266401D01*
X157307868Y-56286107D01*
X157320480Y-56307150D01*
X157330970Y-56329329D01*
X157339235Y-56352428D01*
X157345196Y-56376227D01*
X157348796Y-56400495D01*
X157350000Y-56424999D01*
X157350000Y-58575001D01*
X157348796Y-58599505D01*
X157345196Y-58623773D01*
X157339235Y-58647572D01*
X157330970Y-58670671D01*
X157320480Y-58692850D01*
X157307868Y-58713893D01*
X157293253Y-58733599D01*
X157276777Y-58751777D01*
X157258599Y-58768253D01*
X157238893Y-58782868D01*
X157217850Y-58795480D01*
X157195671Y-58805970D01*
X157172572Y-58814235D01*
X157148773Y-58820196D01*
X157124505Y-58823796D01*
X157100001Y-58825000D01*
X156074999Y-58825000D01*
X156050495Y-58823796D01*
X156026227Y-58820196D01*
X156002428Y-58814235D01*
X155979329Y-58805970D01*
X155957150Y-58795480D01*
X155936107Y-58782868D01*
X155916401Y-58768253D01*
X155898223Y-58751777D01*
X155881747Y-58733599D01*
X155867132Y-58713893D01*
X155854520Y-58692850D01*
X155844030Y-58670671D01*
X155835765Y-58647572D01*
X155829804Y-58623773D01*
X155826204Y-58599505D01*
X155825000Y-58575001D01*
X155825000Y-56424999D01*
X155826204Y-56400495D01*
X155829804Y-56376227D01*
X155835765Y-56352428D01*
X155844030Y-56329329D01*
X155854520Y-56307150D01*
X155867132Y-56286107D01*
X155881747Y-56266401D01*
X155898223Y-56248223D01*
X155916401Y-56231747D01*
X155936107Y-56217132D01*
X155957150Y-56204520D01*
X155979329Y-56194030D01*
X156002428Y-56185765D01*
X156026227Y-56179804D01*
X156050495Y-56176204D01*
X156074999Y-56175000D01*
X157100001Y-56175000D01*
X157124505Y-56176204D01*
G37*
G04 #@! TD.AperFunction*
D13*
X146620000Y-85300000D03*
X139000000Y-83460000D03*
D14*
X146620000Y-98000000D03*
X139000000Y-98000000D03*
D15*
X134000000Y-137000000D03*
X134000000Y-57500000D03*
G04 #@! TA.AperFunction,SMDPad,CuDef*
D12*
G36*
X144936958Y-68840710D02*
G01*
X144951276Y-68842834D01*
X144965317Y-68846351D01*
X144978946Y-68851228D01*
X144992031Y-68857417D01*
X145004447Y-68864858D01*
X145016073Y-68873481D01*
X145026798Y-68883202D01*
X145036519Y-68893927D01*
X145045142Y-68905553D01*
X145052583Y-68917969D01*
X145058772Y-68931054D01*
X145063649Y-68944683D01*
X145067166Y-68958724D01*
X145069290Y-68973042D01*
X145070000Y-68987500D01*
X145070000Y-69282500D01*
X145069290Y-69296958D01*
X145067166Y-69311276D01*
X145063649Y-69325317D01*
X145058772Y-69338946D01*
X145052583Y-69352031D01*
X145045142Y-69364447D01*
X145036519Y-69376073D01*
X145026798Y-69386798D01*
X145016073Y-69396519D01*
X145004447Y-69405142D01*
X144992031Y-69412583D01*
X144978946Y-69418772D01*
X144965317Y-69423649D01*
X144951276Y-69427166D01*
X144936958Y-69429290D01*
X144922500Y-69430000D01*
X144577500Y-69430000D01*
X144563042Y-69429290D01*
X144548724Y-69427166D01*
X144534683Y-69423649D01*
X144521054Y-69418772D01*
X144507969Y-69412583D01*
X144495553Y-69405142D01*
X144483927Y-69396519D01*
X144473202Y-69386798D01*
X144463481Y-69376073D01*
X144454858Y-69364447D01*
X144447417Y-69352031D01*
X144441228Y-69338946D01*
X144436351Y-69325317D01*
X144432834Y-69311276D01*
X144430710Y-69296958D01*
X144430000Y-69282500D01*
X144430000Y-68987500D01*
X144430710Y-68973042D01*
X144432834Y-68958724D01*
X144436351Y-68944683D01*
X144441228Y-68931054D01*
X144447417Y-68917969D01*
X144454858Y-68905553D01*
X144463481Y-68893927D01*
X144473202Y-68883202D01*
X144483927Y-68873481D01*
X144495553Y-68864858D01*
X144507969Y-68857417D01*
X144521054Y-68851228D01*
X144534683Y-68846351D01*
X144548724Y-68842834D01*
X144563042Y-68840710D01*
X144577500Y-68840000D01*
X144922500Y-68840000D01*
X144936958Y-68840710D01*
G37*
G04 #@! TD.AperFunction*
G04 #@! TA.AperFunction,SMDPad,CuDef*
G36*
X144936958Y-67870710D02*
G01*
X144951276Y-67872834D01*
X144965317Y-67876351D01*
X144978946Y-67881228D01*
X144992031Y-67887417D01*
X145004447Y-67894858D01*
X145016073Y-67903481D01*
X145026798Y-67913202D01*
X145036519Y-67923927D01*
X145045142Y-67935553D01*
X145052583Y-67947969D01*
X145058772Y-67961054D01*
X145063649Y-67974683D01*
X145067166Y-67988724D01*
X145069290Y-68003042D01*
X145070000Y-68017500D01*
X145070000Y-68312500D01*
X145069290Y-68326958D01*
X145067166Y-68341276D01*
X145063649Y-68355317D01*
X145058772Y-68368946D01*
X145052583Y-68382031D01*
X145045142Y-68394447D01*
X145036519Y-68406073D01*
X145026798Y-68416798D01*
X145016073Y-68426519D01*
X145004447Y-68435142D01*
X144992031Y-68442583D01*
X144978946Y-68448772D01*
X144965317Y-68453649D01*
X144951276Y-68457166D01*
X144936958Y-68459290D01*
X144922500Y-68460000D01*
X144577500Y-68460000D01*
X144563042Y-68459290D01*
X144548724Y-68457166D01*
X144534683Y-68453649D01*
X144521054Y-68448772D01*
X144507969Y-68442583D01*
X144495553Y-68435142D01*
X144483927Y-68426519D01*
X144473202Y-68416798D01*
X144463481Y-68406073D01*
X144454858Y-68394447D01*
X144447417Y-68382031D01*
X144441228Y-68368946D01*
X144436351Y-68355317D01*
X144432834Y-68341276D01*
X144430710Y-68326958D01*
X144430000Y-68312500D01*
X144430000Y-68017500D01*
X144430710Y-68003042D01*
X144432834Y-67988724D01*
X144436351Y-67974683D01*
X144441228Y-67961054D01*
X144447417Y-67947969D01*
X144454858Y-67935553D01*
X144463481Y-67923927D01*
X144473202Y-67913202D01*
X144483927Y-67903481D01*
X144495553Y-67894858D01*
X144507969Y-67887417D01*
X144521054Y-67881228D01*
X144534683Y-67876351D01*
X144548724Y-67872834D01*
X144563042Y-67870710D01*
X144577500Y-67870000D01*
X144922500Y-67870000D01*
X144936958Y-67870710D01*
G37*
G04 #@! TD.AperFunction*
D16*
X149000000Y-64000000D03*
X149000000Y-79000000D03*
D17*
X149000000Y-125500000D03*
D18*
X146460000Y-125500000D03*
X139960000Y-125500000D03*
D17*
X142500000Y-125500000D03*
D19*
X162100000Y-104750000D03*
D20*
X164640000Y-104750000D03*
D19*
X158500000Y-104750000D03*
D20*
X155960000Y-104750000D03*
X153420000Y-104750000D03*
X150880000Y-104750000D03*
D16*
X167500000Y-63500000D03*
X167500000Y-68000000D03*
X157500000Y-63500000D03*
X157500000Y-68000000D03*
D21*
X163000000Y-74000000D03*
X163000000Y-79000000D03*
X163000000Y-95500000D03*
X163000000Y-98000000D03*
D18*
X161000000Y-55500000D03*
X168500000Y-58400000D03*
D22*
X141750000Y-70250000D03*
X141750000Y-79050000D03*
D21*
X163000000Y-128000000D03*
X163000000Y-123500000D03*
X169500000Y-128000000D03*
X169500000Y-123500000D03*
D23*
X141250000Y-57500000D03*
D24*
X146330000Y-57500000D03*
D23*
X145250000Y-137000000D03*
D24*
X140170000Y-137000000D03*
D19*
X165000000Y-119500000D03*
D25*
X159000000Y-83800000D03*
X158000000Y-91000000D03*
X158200000Y-119700000D03*
X141500000Y-112000000D03*
X142500000Y-112000000D03*
X142000000Y-111250000D03*
X141000000Y-111250000D03*
X150000000Y-113050000D03*
X152950000Y-109800000D03*
X156200000Y-109670000D03*
X162515000Y-116600000D03*
X154900000Y-121700000D03*
X160500000Y-108750000D03*
X163400000Y-110400000D03*
X141700000Y-105350000D03*
X137250000Y-137000000D03*
X137500000Y-57500000D03*
X151000000Y-118750000D03*
X148000000Y-121000000D03*
X149000000Y-120250000D03*
X163000000Y-112200000D03*
X166700000Y-114400000D03*
X166750000Y-113500000D03*
X155250000Y-53500000D03*
X152000000Y-118750000D03*
X151000000Y-118000000D03*
X149000000Y-121000000D03*
X148000000Y-120250000D03*
X163750000Y-112200000D03*
X153200000Y-118000000D03*
X155500000Y-114000000D03*
X160000000Y-117000000D03*
X158500000Y-117000000D03*
X157000000Y-117000000D03*
X155500000Y-115500000D03*
X157000000Y-115500000D03*
X158500000Y-115500000D03*
X160000000Y-115500000D03*
X157000000Y-114000000D03*
X158500000Y-114000000D03*
X160000000Y-114000000D03*
X160000000Y-112500000D03*
X158500000Y-112500000D03*
X157000000Y-112500000D03*
X155500000Y-112500000D03*
X166000000Y-114900000D03*
X152000000Y-130000000D03*
X171500000Y-129250000D03*
X171500000Y-128500000D03*
X171500000Y-127750000D03*
X170750000Y-130000000D03*
X170000000Y-130000000D03*
X169250000Y-130000000D03*
X168500000Y-130000000D03*
X167750000Y-130000000D03*
X167000000Y-130000000D03*
X166250000Y-130000000D03*
X165500000Y-130000000D03*
X164750000Y-130000000D03*
X164000000Y-130000000D03*
X163250000Y-130000000D03*
X162500000Y-130000000D03*
X161750000Y-130000000D03*
X161000000Y-130000000D03*
X160250000Y-130000000D03*
X159500000Y-130000000D03*
X158750000Y-130000000D03*
X158000000Y-130000000D03*
X157250000Y-130000000D03*
X155750000Y-130000000D03*
X155000000Y-130000000D03*
X154250000Y-130000000D03*
X153500000Y-130000000D03*
X152750000Y-130000000D03*
X157500000Y-129250000D03*
X157500000Y-128500000D03*
X157500000Y-127750000D03*
X157500000Y-127000000D03*
X158250000Y-127000000D03*
X158500000Y-122500000D03*
X157750000Y-122500000D03*
X157750000Y-121750000D03*
X157750000Y-121000000D03*
X159000000Y-127000000D03*
X159250000Y-126250000D03*
X159250000Y-125500000D03*
X159250000Y-124750000D03*
X159250000Y-124000000D03*
X159250000Y-123250000D03*
X159250000Y-122500000D03*
X155500000Y-127000000D03*
X154750000Y-127000000D03*
X154000000Y-127000000D03*
X153750000Y-126250000D03*
X153750000Y-125500000D03*
X153750000Y-124750000D03*
X153750000Y-124000000D03*
X153750000Y-123250000D03*
X153750000Y-122500000D03*
X154500000Y-122500000D03*
X155250000Y-122500000D03*
X155750000Y-121750000D03*
X171500000Y-130000000D03*
X155900000Y-119100000D03*
X151250000Y-130000000D03*
X150500000Y-130000000D03*
X149750000Y-130000000D03*
X149000000Y-130000000D03*
X148250000Y-130000000D03*
X147500000Y-130000000D03*
X146750000Y-130000000D03*
X146000000Y-130000000D03*
X145250000Y-129500000D03*
X144600000Y-128800000D03*
X143750000Y-128500000D03*
X143000000Y-128500000D03*
X142250000Y-128500000D03*
X141500000Y-128500000D03*
X140750000Y-128500000D03*
X140000000Y-128500000D03*
X139250000Y-128500000D03*
X138500000Y-128250000D03*
X138000000Y-127500000D03*
X138000000Y-126750000D03*
X138000000Y-126000000D03*
X138000000Y-125250000D03*
X138000000Y-124500000D03*
X138000000Y-123000000D03*
X171500000Y-127000000D03*
X171500000Y-125500000D03*
X147000000Y-90500000D03*
X171500000Y-124000000D03*
X171500000Y-122500000D03*
X171500000Y-121000000D03*
X171500000Y-119500000D03*
X171500000Y-118000000D03*
X171500000Y-116500000D03*
X171500000Y-115000000D03*
X171500000Y-113500000D03*
X171500000Y-112000000D03*
X171500000Y-110500000D03*
X171500000Y-109000000D03*
X171500000Y-107500000D03*
X171500000Y-106000000D03*
X171500000Y-104500000D03*
X171500000Y-103000000D03*
X171500000Y-101500000D03*
X171500000Y-100000000D03*
X171500000Y-98500000D03*
X171500000Y-97000000D03*
X171500000Y-95500000D03*
X171500000Y-94000000D03*
X171500000Y-92500000D03*
X171500000Y-91000000D03*
X171500000Y-89500000D03*
X171500000Y-88000000D03*
X171500000Y-86500000D03*
X171500000Y-85000000D03*
X171500000Y-83500000D03*
X171500000Y-82000000D03*
X171500000Y-80500000D03*
X171500000Y-79000000D03*
X171500000Y-77500000D03*
X171500000Y-76000000D03*
X171500000Y-74500000D03*
X171500000Y-73000000D03*
X171500000Y-71500000D03*
X171500000Y-70000000D03*
X171500000Y-68500000D03*
X171500000Y-67000000D03*
X171500000Y-65500000D03*
X171500000Y-64000000D03*
X171500000Y-62500000D03*
X171500000Y-61000000D03*
X171500000Y-59500000D03*
X171500000Y-58000000D03*
X171500000Y-56500000D03*
X171500000Y-55000000D03*
X171500000Y-54250000D03*
X171000000Y-53500000D03*
X170250000Y-53500000D03*
X168750000Y-53500000D03*
X167250000Y-53500000D03*
X165750000Y-53500000D03*
X164250000Y-53500000D03*
X162750000Y-53500000D03*
X161250000Y-53500000D03*
X159750000Y-53500000D03*
X158250000Y-53500000D03*
X156750000Y-53500000D03*
X138000000Y-121500000D03*
X138000000Y-120000000D03*
X138000000Y-118500000D03*
X138000000Y-117000000D03*
X138000000Y-115500000D03*
X138000000Y-114000000D03*
X138000000Y-112500000D03*
X138000000Y-111000000D03*
X138000000Y-109500000D03*
X138000000Y-108000000D03*
X138000000Y-102750000D03*
X138000000Y-101250000D03*
X138000000Y-99750000D03*
X138000000Y-96250000D03*
X138000000Y-94750000D03*
X138000000Y-93250000D03*
X138000000Y-91750000D03*
X148000000Y-89500000D03*
X149000000Y-88750000D03*
X151000000Y-86750000D03*
X151000000Y-85250000D03*
X151000000Y-83750000D03*
X150250000Y-82250000D03*
X150250000Y-87750000D03*
X145250000Y-81500000D03*
X143750000Y-81750000D03*
X149500000Y-53500000D03*
X152000000Y-118000000D03*
X169500000Y-55500000D03*
X169500000Y-80500000D03*
X169500000Y-93000000D03*
X169500000Y-105500000D03*
X157000000Y-74000000D03*
X157000000Y-87000000D03*
X157000000Y-100500000D03*
X144500000Y-80500000D03*
X142000000Y-118000000D03*
X169500000Y-70000000D03*
X168000000Y-119000000D03*
X142000000Y-108000000D03*
X145000000Y-96000000D03*
X140500000Y-76500000D03*
X143750000Y-133250000D03*
X144210000Y-87710000D03*
X141750000Y-87750000D03*
X139250000Y-87750000D03*
X145460000Y-86460000D03*
X136575010Y-87700000D03*
X134275010Y-90000000D03*
X134275010Y-92474990D03*
X134275010Y-94974990D03*
X134275010Y-97474990D03*
X134275010Y-99974990D03*
X134275010Y-102474990D03*
X134275010Y-104724990D03*
X134275010Y-107224990D03*
X134275010Y-109724990D03*
X134275010Y-112224990D03*
X134275010Y-114974990D03*
X134275010Y-117724990D03*
X134275010Y-120224990D03*
X134275010Y-122724990D03*
X134275010Y-125224990D03*
X134275010Y-127724990D03*
X135375000Y-130375000D03*
X137125000Y-132125000D03*
X139500000Y-132250000D03*
X142000000Y-132250000D03*
X145250000Y-134750000D03*
D26*
X156800000Y-81600000D02*
X159000000Y-83800000D01*
X156800000Y-81600000D02*
X146850000Y-81600000D01*
X146850000Y-81600000D02*
X144750000Y-79500000D01*
X144750000Y-69135000D02*
X144750000Y-79500000D01*
X144300000Y-79050000D02*
X144750000Y-79500000D01*
X141750000Y-79050000D02*
X144300000Y-79050000D01*
D27*
X157500000Y-68000000D02*
X148000000Y-68000000D01*
X141250000Y-61250000D02*
X141250000Y-57500000D01*
X148000000Y-68000000D02*
X141250000Y-61250000D01*
D28*
X134000000Y-57500000D02*
X137500000Y-57500000D01*
X134000000Y-137000000D02*
X137250000Y-137000000D01*
D27*
X149000000Y-69000000D02*
X148000000Y-68000000D01*
X149000000Y-69000000D02*
X149000000Y-79000000D01*
D28*
X137250000Y-137000000D02*
X140170000Y-137000000D01*
X137500000Y-57500000D02*
X141250000Y-57500000D01*
D27*
X157500000Y-68000000D02*
X160000000Y-68000000D01*
X160000000Y-68000000D02*
X161000000Y-67000000D01*
X161000000Y-67000000D02*
X161000000Y-65000000D01*
X167600000Y-58400000D02*
X168500000Y-58400000D01*
X161000000Y-65000000D02*
X167600000Y-58400000D01*
D29*
X149500000Y-93000000D02*
X146620000Y-95880000D01*
X151500000Y-93000000D02*
X149500000Y-93000000D01*
X153750000Y-93000000D02*
X151500000Y-93000000D01*
X146620000Y-95880000D02*
X146620000Y-98000000D01*
X158750000Y-98000000D02*
X153750000Y-93000000D01*
X163000000Y-98000000D02*
X158750000Y-98000000D01*
D27*
X157000000Y-64000000D02*
X149000000Y-64000000D01*
X157500000Y-63500000D02*
X157000000Y-64000000D01*
X157500000Y-63500000D02*
X157500000Y-63000000D01*
X159000000Y-57500000D02*
X161000000Y-55500000D01*
X156587500Y-57500000D02*
X159000000Y-57500000D01*
X159000000Y-62000000D02*
X159000000Y-57500000D01*
X157500000Y-63500000D02*
X159000000Y-62000000D01*
X167500000Y-63500000D02*
X165000000Y-63500000D01*
X163000000Y-65500000D02*
X163000000Y-74000000D01*
X165000000Y-63500000D02*
X163000000Y-65500000D01*
X167500000Y-68000000D02*
X167500000Y-77000000D01*
X165500000Y-79000000D02*
X163000000Y-79000000D01*
X167500000Y-77000000D02*
X165500000Y-79000000D01*
D26*
X143835000Y-68165000D02*
X141750000Y-70250000D01*
X144750000Y-68165000D02*
X143835000Y-68165000D01*
D28*
X151912500Y-57500000D02*
X146330000Y-57500000D01*
X139000000Y-83460000D02*
X138735010Y-83460000D01*
X139000000Y-83460000D02*
X138960000Y-83460000D01*
X134300000Y-89975010D02*
X134300000Y-129300000D01*
X146620000Y-85300000D02*
X145460000Y-86460000D01*
X144220000Y-87700000D02*
X136575010Y-87700000D01*
X134300000Y-129300000D02*
X135375000Y-130375000D01*
X137200000Y-132200000D02*
X142700000Y-132200000D01*
X142700000Y-132200000D02*
X145250000Y-134750000D01*
X145250000Y-134750000D02*
X145250000Y-137000000D01*
X145460000Y-86460000D02*
X144220000Y-87700000D01*
X136575010Y-87700000D02*
X136575010Y-87700000D01*
X135375000Y-130375000D02*
X137125000Y-132125000D01*
X137125000Y-132125000D02*
X137200000Y-132200000D01*
X145250000Y-134750000D02*
X145250000Y-134750000D01*
X135512505Y-88762505D02*
X134300000Y-89975010D01*
X136575010Y-87700000D02*
X135512505Y-88762505D01*
D30*
G36*
X171648000Y-53645804D02*
G01*
X171648001Y-130373000D01*
X145648798Y-130373000D01*
X145205208Y-129929410D01*
X145099453Y-129800547D01*
X144585238Y-129378542D01*
X144130376Y-129135413D01*
X162044192Y-129135413D01*
X162139956Y-129399814D01*
X162429571Y-129540704D01*
X162741108Y-129622384D01*
X163062595Y-129641718D01*
X163381675Y-129597961D01*
X163686088Y-129492795D01*
X163860044Y-129399814D01*
X163955808Y-129135413D01*
X168544192Y-129135413D01*
X168639956Y-129399814D01*
X168929571Y-129540704D01*
X169241108Y-129622384D01*
X169562595Y-129641718D01*
X169881675Y-129597961D01*
X170186088Y-129492795D01*
X170360044Y-129399814D01*
X170455808Y-129135413D01*
X169500000Y-128179605D01*
X168544192Y-129135413D01*
X163955808Y-129135413D01*
X163000000Y-128179605D01*
X162044192Y-129135413D01*
X144130376Y-129135413D01*
X143998575Y-129064964D01*
X143362008Y-128871863D01*
X142865893Y-128823000D01*
X142865882Y-128823000D01*
X142700000Y-128806662D01*
X142534118Y-128823000D01*
X138598798Y-128823000D01*
X137838393Y-128062595D01*
X161358282Y-128062595D01*
X161402039Y-128381675D01*
X161507205Y-128686088D01*
X161600186Y-128860044D01*
X161864587Y-128955808D01*
X162820395Y-128000000D01*
X163179605Y-128000000D01*
X164135413Y-128955808D01*
X164399814Y-128860044D01*
X164540704Y-128570429D01*
X164622384Y-128258892D01*
X164634189Y-128062595D01*
X167858282Y-128062595D01*
X167902039Y-128381675D01*
X168007205Y-128686088D01*
X168100186Y-128860044D01*
X168364587Y-128955808D01*
X169320395Y-128000000D01*
X169679605Y-128000000D01*
X170635413Y-128955808D01*
X170899814Y-128860044D01*
X171040704Y-128570429D01*
X171122384Y-128258892D01*
X171141718Y-127937405D01*
X171097961Y-127618325D01*
X170992795Y-127313912D01*
X170899814Y-127139956D01*
X170635413Y-127044192D01*
X169679605Y-128000000D01*
X169320395Y-128000000D01*
X168364587Y-127044192D01*
X168100186Y-127139956D01*
X167959296Y-127429571D01*
X167877616Y-127741108D01*
X167858282Y-128062595D01*
X164634189Y-128062595D01*
X164641718Y-127937405D01*
X164597961Y-127618325D01*
X164492795Y-127313912D01*
X164399814Y-127139956D01*
X164135413Y-127044192D01*
X163179605Y-128000000D01*
X162820395Y-128000000D01*
X161864587Y-127044192D01*
X161600186Y-127139956D01*
X161459296Y-127429571D01*
X161377616Y-127741108D01*
X161358282Y-128062595D01*
X137838393Y-128062595D01*
X137677000Y-127901202D01*
X137677000Y-125379151D01*
X138733000Y-125379151D01*
X138733000Y-125620849D01*
X138780153Y-125857903D01*
X138872647Y-126081202D01*
X139006927Y-126282167D01*
X139177833Y-126453073D01*
X139378798Y-126587353D01*
X139602097Y-126679847D01*
X139839151Y-126727000D01*
X140080849Y-126727000D01*
X140317903Y-126679847D01*
X140541202Y-126587353D01*
X140742167Y-126453073D01*
X140913073Y-126282167D01*
X140962890Y-126207610D01*
X140961928Y-126400000D01*
X140974188Y-126524482D01*
X141010498Y-126644180D01*
X141069463Y-126754494D01*
X141148815Y-126851185D01*
X141245506Y-126930537D01*
X141355820Y-126989502D01*
X141475518Y-127025812D01*
X141600000Y-127038072D01*
X142214250Y-127035000D01*
X142373000Y-126876250D01*
X142373000Y-125627000D01*
X142627000Y-125627000D01*
X142627000Y-126876250D01*
X142785750Y-127035000D01*
X143400000Y-127038072D01*
X143524482Y-127025812D01*
X143644180Y-126989502D01*
X143754494Y-126930537D01*
X143851185Y-126851185D01*
X143930537Y-126754494D01*
X143989502Y-126644180D01*
X144025812Y-126524482D01*
X144038072Y-126400000D01*
X144035000Y-125785750D01*
X143876250Y-125627000D01*
X142627000Y-125627000D01*
X142373000Y-125627000D01*
X142353000Y-125627000D01*
X142353000Y-125379151D01*
X145233000Y-125379151D01*
X145233000Y-125620849D01*
X145280153Y-125857903D01*
X145372647Y-126081202D01*
X145506927Y-126282167D01*
X145677833Y-126453073D01*
X145878798Y-126587353D01*
X146102097Y-126679847D01*
X146339151Y-126727000D01*
X146580849Y-126727000D01*
X146817903Y-126679847D01*
X147041202Y-126587353D01*
X147242167Y-126453073D01*
X147413073Y-126282167D01*
X147462890Y-126207610D01*
X147461928Y-126400000D01*
X147474188Y-126524482D01*
X147510498Y-126644180D01*
X147569463Y-126754494D01*
X147648815Y-126851185D01*
X147745506Y-126930537D01*
X147855820Y-126989502D01*
X147975518Y-127025812D01*
X148100000Y-127038072D01*
X148714250Y-127035000D01*
X148873000Y-126876250D01*
X148873000Y-125627000D01*
X149127000Y-125627000D01*
X149127000Y-126876250D01*
X149285750Y-127035000D01*
X149900000Y-127038072D01*
X150024482Y-127025812D01*
X150144180Y-126989502D01*
X150254494Y-126930537D01*
X150334854Y-126864587D01*
X162044192Y-126864587D01*
X163000000Y-127820395D01*
X163955808Y-126864587D01*
X168544192Y-126864587D01*
X169500000Y-127820395D01*
X170455808Y-126864587D01*
X170360044Y-126600186D01*
X170070429Y-126459296D01*
X169758892Y-126377616D01*
X169437405Y-126358282D01*
X169118325Y-126402039D01*
X168813912Y-126507205D01*
X168639956Y-126600186D01*
X168544192Y-126864587D01*
X163955808Y-126864587D01*
X163860044Y-126600186D01*
X163570429Y-126459296D01*
X163258892Y-126377616D01*
X162937405Y-126358282D01*
X162618325Y-126402039D01*
X162313912Y-126507205D01*
X162139956Y-126600186D01*
X162044192Y-126864587D01*
X150334854Y-126864587D01*
X150351185Y-126851185D01*
X150430537Y-126754494D01*
X150489502Y-126644180D01*
X150525812Y-126524482D01*
X150538072Y-126400000D01*
X150535000Y-125785750D01*
X150376250Y-125627000D01*
X149127000Y-125627000D01*
X148873000Y-125627000D01*
X148853000Y-125627000D01*
X148853000Y-125373000D01*
X148873000Y-125373000D01*
X148873000Y-124123750D01*
X149127000Y-124123750D01*
X149127000Y-125373000D01*
X150376250Y-125373000D01*
X150535000Y-125214250D01*
X150538072Y-124600000D01*
X150525812Y-124475518D01*
X150489502Y-124355820D01*
X150430537Y-124245506D01*
X150351185Y-124148815D01*
X150254494Y-124069463D01*
X150144180Y-124010498D01*
X150024482Y-123974188D01*
X149900000Y-123961928D01*
X149285750Y-123965000D01*
X149127000Y-124123750D01*
X148873000Y-124123750D01*
X148714250Y-123965000D01*
X148100000Y-123961928D01*
X147975518Y-123974188D01*
X147855820Y-124010498D01*
X147745506Y-124069463D01*
X147648815Y-124148815D01*
X147569463Y-124245506D01*
X147510498Y-124355820D01*
X147474188Y-124475518D01*
X147461928Y-124600000D01*
X147462890Y-124792390D01*
X147413073Y-124717833D01*
X147242167Y-124546927D01*
X147041202Y-124412647D01*
X146817903Y-124320153D01*
X146580849Y-124273000D01*
X146339151Y-124273000D01*
X146102097Y-124320153D01*
X145878798Y-124412647D01*
X145677833Y-124546927D01*
X145506927Y-124717833D01*
X145372647Y-124918798D01*
X145280153Y-125142097D01*
X145233000Y-125379151D01*
X142353000Y-125379151D01*
X142353000Y-125373000D01*
X142373000Y-125373000D01*
X142373000Y-124123750D01*
X142627000Y-124123750D01*
X142627000Y-125373000D01*
X143876250Y-125373000D01*
X144035000Y-125214250D01*
X144038072Y-124600000D01*
X144025812Y-124475518D01*
X143989502Y-124355820D01*
X143930537Y-124245506D01*
X143851185Y-124148815D01*
X143754494Y-124069463D01*
X143644180Y-124010498D01*
X143524482Y-123974188D01*
X143400000Y-123961928D01*
X142785750Y-123965000D01*
X142627000Y-124123750D01*
X142373000Y-124123750D01*
X142214250Y-123965000D01*
X141600000Y-123961928D01*
X141475518Y-123974188D01*
X141355820Y-124010498D01*
X141245506Y-124069463D01*
X141148815Y-124148815D01*
X141069463Y-124245506D01*
X141010498Y-124355820D01*
X140974188Y-124475518D01*
X140961928Y-124600000D01*
X140962890Y-124792390D01*
X140913073Y-124717833D01*
X140742167Y-124546927D01*
X140541202Y-124412647D01*
X140317903Y-124320153D01*
X140080849Y-124273000D01*
X139839151Y-124273000D01*
X139602097Y-124320153D01*
X139378798Y-124412647D01*
X139177833Y-124546927D01*
X139006927Y-124717833D01*
X138872647Y-124918798D01*
X138780153Y-125142097D01*
X138733000Y-125379151D01*
X137677000Y-125379151D01*
X137677000Y-123369302D01*
X161673000Y-123369302D01*
X161673000Y-123630698D01*
X161723996Y-123887072D01*
X161824028Y-124128570D01*
X161969252Y-124345913D01*
X162154087Y-124530748D01*
X162371430Y-124675972D01*
X162612928Y-124776004D01*
X162869302Y-124827000D01*
X163130698Y-124827000D01*
X163387072Y-124776004D01*
X163628570Y-124675972D01*
X163845913Y-124530748D01*
X164030748Y-124345913D01*
X164175972Y-124128570D01*
X164276004Y-123887072D01*
X164327000Y-123630698D01*
X164327000Y-123369302D01*
X168173000Y-123369302D01*
X168173000Y-123630698D01*
X168223996Y-123887072D01*
X168324028Y-124128570D01*
X168469252Y-124345913D01*
X168654087Y-124530748D01*
X168871430Y-124675972D01*
X169112928Y-124776004D01*
X169369302Y-124827000D01*
X169630698Y-124827000D01*
X169887072Y-124776004D01*
X170128570Y-124675972D01*
X170345913Y-124530748D01*
X170530748Y-124345913D01*
X170675972Y-124128570D01*
X170776004Y-123887072D01*
X170827000Y-123630698D01*
X170827000Y-123369302D01*
X170776004Y-123112928D01*
X170675972Y-122871430D01*
X170530748Y-122654087D01*
X170345913Y-122469252D01*
X170128570Y-122324028D01*
X169887072Y-122223996D01*
X169630698Y-122173000D01*
X169369302Y-122173000D01*
X169112928Y-122223996D01*
X168871430Y-122324028D01*
X168654087Y-122469252D01*
X168469252Y-122654087D01*
X168324028Y-122871430D01*
X168223996Y-123112928D01*
X168173000Y-123369302D01*
X164327000Y-123369302D01*
X164276004Y-123112928D01*
X164175972Y-122871430D01*
X164030748Y-122654087D01*
X163845913Y-122469252D01*
X163628570Y-122324028D01*
X163387072Y-122223996D01*
X163130698Y-122173000D01*
X162869302Y-122173000D01*
X162612928Y-122223996D01*
X162371430Y-122324028D01*
X162154087Y-122469252D01*
X161969252Y-122654087D01*
X161824028Y-122871430D01*
X161723996Y-123112928D01*
X161673000Y-123369302D01*
X137677000Y-123369302D01*
X137677000Y-116750000D01*
X146623000Y-116750000D01*
X146623000Y-122250000D01*
X146625440Y-122274776D01*
X146632667Y-122298601D01*
X146644403Y-122320557D01*
X146660197Y-122339803D01*
X146679443Y-122355597D01*
X146701399Y-122367333D01*
X146725224Y-122374560D01*
X146750000Y-122377000D01*
X153250000Y-122377000D01*
X153274776Y-122374560D01*
X153298601Y-122367333D01*
X153320557Y-122355597D01*
X153339803Y-122339803D01*
X153355597Y-122320557D01*
X153367333Y-122298601D01*
X153374560Y-122274776D01*
X153377000Y-122250000D01*
X153377000Y-121638246D01*
X154273000Y-121638246D01*
X154273000Y-121761754D01*
X154297095Y-121882889D01*
X154344360Y-121996996D01*
X154412977Y-122099689D01*
X154500311Y-122187023D01*
X154603004Y-122255640D01*
X154717111Y-122302905D01*
X154838246Y-122327000D01*
X154961754Y-122327000D01*
X155082889Y-122302905D01*
X155196996Y-122255640D01*
X155299689Y-122187023D01*
X155387023Y-122099689D01*
X155455640Y-121996996D01*
X155502905Y-121882889D01*
X155527000Y-121761754D01*
X155527000Y-121638246D01*
X155502905Y-121517111D01*
X155455640Y-121403004D01*
X155387023Y-121300311D01*
X155299689Y-121212977D01*
X155196996Y-121144360D01*
X155082889Y-121097095D01*
X154961754Y-121073000D01*
X154838246Y-121073000D01*
X154717111Y-121097095D01*
X154603004Y-121144360D01*
X154500311Y-121212977D01*
X154412977Y-121300311D01*
X154344360Y-121403004D01*
X154297095Y-121517111D01*
X154273000Y-121638246D01*
X153377000Y-121638246D01*
X153377000Y-119638246D01*
X157573000Y-119638246D01*
X157573000Y-119761754D01*
X157597095Y-119882889D01*
X157644360Y-119996996D01*
X157712977Y-120099689D01*
X157800311Y-120187023D01*
X157903004Y-120255640D01*
X158017111Y-120302905D01*
X158138246Y-120327000D01*
X158261754Y-120327000D01*
X158382889Y-120302905D01*
X158496996Y-120255640D01*
X158599689Y-120187023D01*
X158687023Y-120099689D01*
X158755640Y-119996996D01*
X158802905Y-119882889D01*
X158827000Y-119761754D01*
X158827000Y-119638246D01*
X158802905Y-119517111D01*
X158755640Y-119403004D01*
X158687023Y-119300311D01*
X158599689Y-119212977D01*
X158496996Y-119144360D01*
X158382889Y-119097095D01*
X158261754Y-119073000D01*
X158138246Y-119073000D01*
X158017111Y-119097095D01*
X157903004Y-119144360D01*
X157800311Y-119212977D01*
X157712977Y-119300311D01*
X157644360Y-119403004D01*
X157597095Y-119517111D01*
X157573000Y-119638246D01*
X153377000Y-119638246D01*
X153377000Y-119127000D01*
X155250000Y-119127000D01*
X155274776Y-119124560D01*
X155298601Y-119117333D01*
X155320557Y-119105597D01*
X155339803Y-119089803D01*
X155355597Y-119070557D01*
X155367333Y-119048601D01*
X155374560Y-119024776D01*
X155377000Y-119000000D01*
X155377000Y-118650000D01*
X163821418Y-118650000D01*
X163821418Y-120350000D01*
X163827732Y-120414103D01*
X163846430Y-120475743D01*
X163876794Y-120532550D01*
X163917657Y-120582343D01*
X163967450Y-120623206D01*
X164024257Y-120653570D01*
X164085897Y-120672268D01*
X164150000Y-120678582D01*
X165850000Y-120678582D01*
X165914103Y-120672268D01*
X165975743Y-120653570D01*
X166032550Y-120623206D01*
X166082343Y-120582343D01*
X166123206Y-120532550D01*
X166153570Y-120475743D01*
X166172268Y-120414103D01*
X166178582Y-120350000D01*
X166178582Y-118650000D01*
X166172268Y-118585897D01*
X166153570Y-118524257D01*
X166123206Y-118467450D01*
X166082343Y-118417657D01*
X166032550Y-118376794D01*
X165975743Y-118346430D01*
X165914103Y-118327732D01*
X165850000Y-118321418D01*
X164150000Y-118321418D01*
X164085897Y-118327732D01*
X164024257Y-118346430D01*
X163967450Y-118376794D01*
X163917657Y-118417657D01*
X163876794Y-118467450D01*
X163846430Y-118524257D01*
X163827732Y-118585897D01*
X163821418Y-118650000D01*
X155377000Y-118650000D01*
X155377000Y-117000000D01*
X155374560Y-116975224D01*
X155367333Y-116951399D01*
X155355597Y-116929443D01*
X155339803Y-116910197D01*
X155320557Y-116894403D01*
X155298601Y-116882667D01*
X155274776Y-116875440D01*
X155250000Y-116873000D01*
X153627000Y-116873000D01*
X153627000Y-116750000D01*
X153624560Y-116725224D01*
X153617333Y-116701399D01*
X153605597Y-116679443D01*
X153589803Y-116660197D01*
X153570557Y-116644403D01*
X153548601Y-116632667D01*
X153524776Y-116625440D01*
X153500000Y-116623000D01*
X146750000Y-116623000D01*
X146725224Y-116625440D01*
X146701399Y-116632667D01*
X146679443Y-116644403D01*
X146660197Y-116660197D01*
X146644403Y-116679443D01*
X146632667Y-116701399D01*
X146625440Y-116725224D01*
X146623000Y-116750000D01*
X137677000Y-116750000D01*
X137677000Y-116538246D01*
X161888000Y-116538246D01*
X161888000Y-116661754D01*
X161912095Y-116782889D01*
X161959360Y-116896996D01*
X162027977Y-116999689D01*
X162115311Y-117087023D01*
X162218004Y-117155640D01*
X162332111Y-117202905D01*
X162453246Y-117227000D01*
X162576754Y-117227000D01*
X162697889Y-117202905D01*
X162811996Y-117155640D01*
X162914689Y-117087023D01*
X163002023Y-116999689D01*
X163070640Y-116896996D01*
X163117905Y-116782889D01*
X163142000Y-116661754D01*
X163142000Y-116538246D01*
X163117905Y-116417111D01*
X163070640Y-116303004D01*
X163002023Y-116200311D01*
X162914689Y-116112977D01*
X162811996Y-116044360D01*
X162697889Y-115997095D01*
X162576754Y-115973000D01*
X162453246Y-115973000D01*
X162332111Y-115997095D01*
X162218004Y-116044360D01*
X162115311Y-116112977D01*
X162027977Y-116200311D01*
X161959360Y-116303004D01*
X161912095Y-116417111D01*
X161888000Y-116538246D01*
X137677000Y-116538246D01*
X137677000Y-112988246D01*
X149373000Y-112988246D01*
X149373000Y-113111754D01*
X149397095Y-113232889D01*
X149444360Y-113346996D01*
X149512977Y-113449689D01*
X149600311Y-113537023D01*
X149703004Y-113605640D01*
X149817111Y-113652905D01*
X149938246Y-113677000D01*
X150061754Y-113677000D01*
X150182889Y-113652905D01*
X150296996Y-113605640D01*
X150399689Y-113537023D01*
X150487023Y-113449689D01*
X150555640Y-113346996D01*
X150602905Y-113232889D01*
X150612844Y-113182921D01*
X160341833Y-113182921D01*
X160343378Y-113207769D01*
X160349741Y-113231838D01*
X160360678Y-113254204D01*
X160375768Y-113274006D01*
X160394431Y-113290484D01*
X160415950Y-113303004D01*
X160439498Y-113311085D01*
X160466236Y-113314475D01*
X161605166Y-113337028D01*
X161623003Y-115750938D01*
X161625627Y-115775696D01*
X161633030Y-115799466D01*
X161644928Y-115821336D01*
X161660863Y-115840464D01*
X161680225Y-115856115D01*
X161702267Y-115867689D01*
X161726145Y-115874739D01*
X161749714Y-115877000D01*
X167299714Y-115889500D01*
X167324496Y-115887115D01*
X167348336Y-115879942D01*
X167370319Y-115868255D01*
X167389600Y-115852505D01*
X167405437Y-115833295D01*
X167417223Y-115811365D01*
X167424504Y-115787557D01*
X167427000Y-115762500D01*
X167427000Y-111037500D01*
X167424560Y-111012724D01*
X167417333Y-110988899D01*
X167405597Y-110966943D01*
X167389803Y-110947697D01*
X167370557Y-110931903D01*
X167348601Y-110920167D01*
X167324776Y-110912940D01*
X167300836Y-110910503D01*
X163799028Y-110887465D01*
X163799689Y-110887023D01*
X163887023Y-110799689D01*
X163955640Y-110696996D01*
X164002905Y-110582889D01*
X164027000Y-110461754D01*
X164027000Y-110338246D01*
X164002905Y-110217111D01*
X163955640Y-110103004D01*
X163887023Y-110000311D01*
X163799689Y-109912977D01*
X163696996Y-109844360D01*
X163582889Y-109797095D01*
X163461754Y-109773000D01*
X163338246Y-109773000D01*
X163217111Y-109797095D01*
X163103004Y-109844360D01*
X163000311Y-109912977D01*
X162912977Y-110000311D01*
X162844360Y-110103004D01*
X162797095Y-110217111D01*
X162773000Y-110338246D01*
X162773000Y-110461754D01*
X162797095Y-110582889D01*
X162844360Y-110696996D01*
X162912977Y-110799689D01*
X162995466Y-110882178D01*
X161600836Y-110873003D01*
X161576044Y-110875280D01*
X161552172Y-110882350D01*
X161530139Y-110893941D01*
X161510790Y-110909609D01*
X161494870Y-110928749D01*
X161482990Y-110950628D01*
X161475606Y-110974405D01*
X161473040Y-111003174D01*
X161494712Y-111870040D01*
X160515353Y-111848032D01*
X160490528Y-111849915D01*
X160466547Y-111856605D01*
X160444333Y-111867845D01*
X160424738Y-111883203D01*
X160408515Y-111902088D01*
X160396289Y-111923775D01*
X160388528Y-111947431D01*
X160385583Y-111970421D01*
X160341833Y-113182921D01*
X150612844Y-113182921D01*
X150627000Y-113111754D01*
X150627000Y-112988246D01*
X150602905Y-112867111D01*
X150555640Y-112753004D01*
X150487023Y-112650311D01*
X150399689Y-112562977D01*
X150296996Y-112494360D01*
X150182889Y-112447095D01*
X150061754Y-112423000D01*
X149938246Y-112423000D01*
X149817111Y-112447095D01*
X149703004Y-112494360D01*
X149600311Y-112562977D01*
X149512977Y-112650311D01*
X149444360Y-112753004D01*
X149397095Y-112867111D01*
X149373000Y-112988246D01*
X137677000Y-112988246D01*
X137677000Y-111188246D01*
X140373000Y-111188246D01*
X140373000Y-111311754D01*
X140397095Y-111432889D01*
X140444360Y-111546996D01*
X140512977Y-111649689D01*
X140600311Y-111737023D01*
X140703004Y-111805640D01*
X140817111Y-111852905D01*
X140887202Y-111866847D01*
X140873000Y-111938246D01*
X140873000Y-112061754D01*
X140897095Y-112182889D01*
X140944360Y-112296996D01*
X141012977Y-112399689D01*
X141100311Y-112487023D01*
X141203004Y-112555640D01*
X141317111Y-112602905D01*
X141438246Y-112627000D01*
X141561754Y-112627000D01*
X141682889Y-112602905D01*
X141796996Y-112555640D01*
X141899689Y-112487023D01*
X141987023Y-112399689D01*
X142000000Y-112380267D01*
X142012977Y-112399689D01*
X142100311Y-112487023D01*
X142203004Y-112555640D01*
X142317111Y-112602905D01*
X142438246Y-112627000D01*
X142561754Y-112627000D01*
X142682889Y-112602905D01*
X142796996Y-112555640D01*
X142899689Y-112487023D01*
X142987023Y-112399689D01*
X143055640Y-112296996D01*
X143102905Y-112182889D01*
X143127000Y-112061754D01*
X143127000Y-111938246D01*
X143102905Y-111817111D01*
X143055640Y-111703004D01*
X142987023Y-111600311D01*
X142899689Y-111512977D01*
X142796996Y-111444360D01*
X142682889Y-111397095D01*
X142612798Y-111383153D01*
X142627000Y-111311754D01*
X142627000Y-111188246D01*
X142602905Y-111067111D01*
X142555640Y-110953004D01*
X142487023Y-110850311D01*
X142399689Y-110762977D01*
X142296996Y-110694360D01*
X142182889Y-110647095D01*
X142061754Y-110623000D01*
X141938246Y-110623000D01*
X141817111Y-110647095D01*
X141703004Y-110694360D01*
X141600311Y-110762977D01*
X141512977Y-110850311D01*
X141500000Y-110869733D01*
X141487023Y-110850311D01*
X141399689Y-110762977D01*
X141296996Y-110694360D01*
X141182889Y-110647095D01*
X141061754Y-110623000D01*
X140938246Y-110623000D01*
X140817111Y-110647095D01*
X140703004Y-110694360D01*
X140600311Y-110762977D01*
X140512977Y-110850311D01*
X140444360Y-110953004D01*
X140397095Y-111067111D01*
X140373000Y-111188246D01*
X137677000Y-111188246D01*
X137677000Y-109738246D01*
X152323000Y-109738246D01*
X152323000Y-109861754D01*
X152347095Y-109982889D01*
X152394360Y-110096996D01*
X152462977Y-110199689D01*
X152550311Y-110287023D01*
X152653004Y-110355640D01*
X152767111Y-110402905D01*
X152888246Y-110427000D01*
X153011754Y-110427000D01*
X153132889Y-110402905D01*
X153246996Y-110355640D01*
X153349689Y-110287023D01*
X153437023Y-110199689D01*
X153505640Y-110096996D01*
X153552905Y-109982889D01*
X153577000Y-109861754D01*
X153577000Y-109738246D01*
X153552905Y-109617111D01*
X153549233Y-109608246D01*
X155573000Y-109608246D01*
X155573000Y-109731754D01*
X155597095Y-109852889D01*
X155644360Y-109966996D01*
X155712977Y-110069689D01*
X155800311Y-110157023D01*
X155903004Y-110225640D01*
X156017111Y-110272905D01*
X156138246Y-110297000D01*
X156261754Y-110297000D01*
X156382889Y-110272905D01*
X156496996Y-110225640D01*
X156599689Y-110157023D01*
X156687023Y-110069689D01*
X156755640Y-109966996D01*
X156802905Y-109852889D01*
X156827000Y-109731754D01*
X156827000Y-109608246D01*
X156802905Y-109487111D01*
X156755640Y-109373004D01*
X156687023Y-109270311D01*
X156599689Y-109182977D01*
X156496996Y-109114360D01*
X156382889Y-109067095D01*
X156261754Y-109043000D01*
X156138246Y-109043000D01*
X156017111Y-109067095D01*
X155903004Y-109114360D01*
X155800311Y-109182977D01*
X155712977Y-109270311D01*
X155644360Y-109373004D01*
X155597095Y-109487111D01*
X155573000Y-109608246D01*
X153549233Y-109608246D01*
X153505640Y-109503004D01*
X153437023Y-109400311D01*
X153349689Y-109312977D01*
X153246996Y-109244360D01*
X153132889Y-109197095D01*
X153011754Y-109173000D01*
X152888246Y-109173000D01*
X152767111Y-109197095D01*
X152653004Y-109244360D01*
X152550311Y-109312977D01*
X152462977Y-109400311D01*
X152394360Y-109503004D01*
X152347095Y-109617111D01*
X152323000Y-109738246D01*
X137677000Y-109738246D01*
X137677000Y-108688246D01*
X159873000Y-108688246D01*
X159873000Y-108811754D01*
X159897095Y-108932889D01*
X159944360Y-109046996D01*
X160012977Y-109149689D01*
X160100311Y-109237023D01*
X160203004Y-109305640D01*
X160317111Y-109352905D01*
X160438246Y-109377000D01*
X160561754Y-109377000D01*
X160682889Y-109352905D01*
X160796996Y-109305640D01*
X160899689Y-109237023D01*
X160987023Y-109149689D01*
X161055640Y-109046996D01*
X161102905Y-108932889D01*
X161127000Y-108811754D01*
X161127000Y-108688246D01*
X161102905Y-108567111D01*
X161055640Y-108453004D01*
X160987023Y-108350311D01*
X160899689Y-108262977D01*
X160796996Y-108194360D01*
X160682889Y-108147095D01*
X160561754Y-108123000D01*
X160438246Y-108123000D01*
X160317111Y-108147095D01*
X160203004Y-108194360D01*
X160100311Y-108262977D01*
X160012977Y-108350311D01*
X159944360Y-108453004D01*
X159897095Y-108567111D01*
X159873000Y-108688246D01*
X137677000Y-108688246D01*
X137677000Y-105288246D01*
X141073000Y-105288246D01*
X141073000Y-105411754D01*
X141097095Y-105532889D01*
X141144360Y-105646996D01*
X141212977Y-105749689D01*
X141300311Y-105837023D01*
X141403004Y-105905640D01*
X141517111Y-105952905D01*
X141638246Y-105977000D01*
X141761754Y-105977000D01*
X141882889Y-105952905D01*
X141996996Y-105905640D01*
X142099689Y-105837023D01*
X142187023Y-105749689D01*
X142255640Y-105646996D01*
X142302905Y-105532889D01*
X142327000Y-105411754D01*
X142327000Y-105288246D01*
X142302905Y-105167111D01*
X142255640Y-105053004D01*
X142187023Y-104950311D01*
X142099689Y-104862977D01*
X141996996Y-104794360D01*
X141882889Y-104747095D01*
X141761754Y-104723000D01*
X141638246Y-104723000D01*
X141517111Y-104747095D01*
X141403004Y-104794360D01*
X141300311Y-104862977D01*
X141212977Y-104950311D01*
X141144360Y-105053004D01*
X141097095Y-105167111D01*
X141073000Y-105288246D01*
X137677000Y-105288246D01*
X137677000Y-104634076D01*
X149703000Y-104634076D01*
X149703000Y-104865924D01*
X149748231Y-105093318D01*
X149836956Y-105307519D01*
X149965764Y-105500294D01*
X150129706Y-105664236D01*
X150322481Y-105793044D01*
X150536682Y-105881769D01*
X150764076Y-105927000D01*
X150995924Y-105927000D01*
X151223318Y-105881769D01*
X151437519Y-105793044D01*
X151630294Y-105664236D01*
X151794236Y-105500294D01*
X151923044Y-105307519D01*
X151991264Y-105142821D01*
X152075843Y-105381252D01*
X152224822Y-105631355D01*
X152419731Y-105847588D01*
X152653080Y-106021641D01*
X152915901Y-106146825D01*
X153063110Y-106191476D01*
X153293000Y-106070155D01*
X153293000Y-104877000D01*
X153273000Y-104877000D01*
X153273000Y-104623000D01*
X153293000Y-104623000D01*
X153293000Y-103429845D01*
X153547000Y-103429845D01*
X153547000Y-104623000D01*
X153567000Y-104623000D01*
X153567000Y-104877000D01*
X153547000Y-104877000D01*
X153547000Y-106070155D01*
X153776890Y-106191476D01*
X153924099Y-106146825D01*
X154186920Y-106021641D01*
X154420269Y-105847588D01*
X154615178Y-105631355D01*
X154764157Y-105381252D01*
X154848736Y-105142821D01*
X154916956Y-105307519D01*
X155045764Y-105500294D01*
X155209706Y-105664236D01*
X155402481Y-105793044D01*
X155616682Y-105881769D01*
X155844076Y-105927000D01*
X156075924Y-105927000D01*
X156303318Y-105881769D01*
X156517519Y-105793044D01*
X156710294Y-105664236D01*
X156874236Y-105500294D01*
X157003044Y-105307519D01*
X157091769Y-105093318D01*
X157137000Y-104865924D01*
X157137000Y-104634076D01*
X157091769Y-104406682D01*
X157003044Y-104192481D01*
X156874236Y-103999706D01*
X156774530Y-103900000D01*
X157321418Y-103900000D01*
X157321418Y-105600000D01*
X157327732Y-105664103D01*
X157346430Y-105725743D01*
X157376794Y-105782550D01*
X157417657Y-105832343D01*
X157467450Y-105873206D01*
X157524257Y-105903570D01*
X157585897Y-105922268D01*
X157650000Y-105928582D01*
X159350000Y-105928582D01*
X159414103Y-105922268D01*
X159475743Y-105903570D01*
X159532550Y-105873206D01*
X159582343Y-105832343D01*
X159623206Y-105782550D01*
X159653570Y-105725743D01*
X159672268Y-105664103D01*
X159678582Y-105600000D01*
X159678582Y-103900000D01*
X160921418Y-103900000D01*
X160921418Y-105600000D01*
X160927732Y-105664103D01*
X160946430Y-105725743D01*
X160976794Y-105782550D01*
X161017657Y-105832343D01*
X161067450Y-105873206D01*
X161124257Y-105903570D01*
X161185897Y-105922268D01*
X161250000Y-105928582D01*
X162950000Y-105928582D01*
X163014103Y-105922268D01*
X163075743Y-105903570D01*
X163132550Y-105873206D01*
X163182343Y-105832343D01*
X163223206Y-105782550D01*
X163253570Y-105725743D01*
X163272268Y-105664103D01*
X163278582Y-105600000D01*
X163278582Y-104634076D01*
X163463000Y-104634076D01*
X163463000Y-104865924D01*
X163508231Y-105093318D01*
X163596956Y-105307519D01*
X163725764Y-105500294D01*
X163889706Y-105664236D01*
X164082481Y-105793044D01*
X164296682Y-105881769D01*
X164524076Y-105927000D01*
X164755924Y-105927000D01*
X164983318Y-105881769D01*
X165197519Y-105793044D01*
X165390294Y-105664236D01*
X165554236Y-105500294D01*
X165683044Y-105307519D01*
X165771769Y-105093318D01*
X165817000Y-104865924D01*
X165817000Y-104634076D01*
X165771769Y-104406682D01*
X165683044Y-104192481D01*
X165554236Y-103999706D01*
X165390294Y-103835764D01*
X165197519Y-103706956D01*
X164983318Y-103618231D01*
X164755924Y-103573000D01*
X164524076Y-103573000D01*
X164296682Y-103618231D01*
X164082481Y-103706956D01*
X163889706Y-103835764D01*
X163725764Y-103999706D01*
X163596956Y-104192481D01*
X163508231Y-104406682D01*
X163463000Y-104634076D01*
X163278582Y-104634076D01*
X163278582Y-103900000D01*
X163272268Y-103835897D01*
X163253570Y-103774257D01*
X163223206Y-103717450D01*
X163182343Y-103667657D01*
X163132550Y-103626794D01*
X163075743Y-103596430D01*
X163014103Y-103577732D01*
X162950000Y-103571418D01*
X161250000Y-103571418D01*
X161185897Y-103577732D01*
X161124257Y-103596430D01*
X161067450Y-103626794D01*
X161017657Y-103667657D01*
X160976794Y-103717450D01*
X160946430Y-103774257D01*
X160927732Y-103835897D01*
X160921418Y-103900000D01*
X159678582Y-103900000D01*
X159672268Y-103835897D01*
X159653570Y-103774257D01*
X159623206Y-103717450D01*
X159582343Y-103667657D01*
X159532550Y-103626794D01*
X159475743Y-103596430D01*
X159414103Y-103577732D01*
X159350000Y-103571418D01*
X157650000Y-103571418D01*
X157585897Y-103577732D01*
X157524257Y-103596430D01*
X157467450Y-103626794D01*
X157417657Y-103667657D01*
X157376794Y-103717450D01*
X157346430Y-103774257D01*
X157327732Y-103835897D01*
X157321418Y-103900000D01*
X156774530Y-103900000D01*
X156710294Y-103835764D01*
X156517519Y-103706956D01*
X156303318Y-103618231D01*
X156075924Y-103573000D01*
X155844076Y-103573000D01*
X155616682Y-103618231D01*
X155402481Y-103706956D01*
X155209706Y-103835764D01*
X155045764Y-103999706D01*
X154916956Y-104192481D01*
X154848736Y-104357179D01*
X154764157Y-104118748D01*
X154615178Y-103868645D01*
X154420269Y-103652412D01*
X154186920Y-103478359D01*
X153924099Y-103353175D01*
X153776890Y-103308524D01*
X153547000Y-103429845D01*
X153293000Y-103429845D01*
X153063110Y-103308524D01*
X152915901Y-103353175D01*
X152653080Y-103478359D01*
X152419731Y-103652412D01*
X152224822Y-103868645D01*
X152075843Y-104118748D01*
X151991264Y-104357179D01*
X151923044Y-104192481D01*
X151794236Y-103999706D01*
X151630294Y-103835764D01*
X151437519Y-103706956D01*
X151223318Y-103618231D01*
X150995924Y-103573000D01*
X150764076Y-103573000D01*
X150536682Y-103618231D01*
X150322481Y-103706956D01*
X150129706Y-103835764D01*
X149965764Y-103999706D01*
X149836956Y-104192481D01*
X149748231Y-104406682D01*
X149703000Y-104634076D01*
X137677000Y-104634076D01*
X137677000Y-98957801D01*
X137717657Y-99007343D01*
X137767450Y-99048206D01*
X137824257Y-99078570D01*
X137885897Y-99097268D01*
X137950000Y-99103582D01*
X140050000Y-99103582D01*
X140114103Y-99097268D01*
X140175743Y-99078570D01*
X140232550Y-99048206D01*
X140282343Y-99007343D01*
X140323206Y-98957550D01*
X140353570Y-98900743D01*
X140372268Y-98839103D01*
X140378582Y-98775000D01*
X140378582Y-97225000D01*
X145241418Y-97225000D01*
X145241418Y-98775000D01*
X145247732Y-98839103D01*
X145266430Y-98900743D01*
X145296794Y-98957550D01*
X145337657Y-99007343D01*
X145387450Y-99048206D01*
X145444257Y-99078570D01*
X145505897Y-99097268D01*
X145570000Y-99103582D01*
X147670000Y-99103582D01*
X147734103Y-99097268D01*
X147795743Y-99078570D01*
X147852550Y-99048206D01*
X147902343Y-99007343D01*
X147943206Y-98957550D01*
X147973570Y-98900743D01*
X147992268Y-98839103D01*
X147998582Y-98775000D01*
X147998582Y-97225000D01*
X147992268Y-97160897D01*
X147973570Y-97099257D01*
X147943206Y-97042450D01*
X147902343Y-96992657D01*
X147852550Y-96951794D01*
X147795743Y-96921430D01*
X147734103Y-96902732D01*
X147670000Y-96896418D01*
X147147000Y-96896418D01*
X147147000Y-96098289D01*
X149718290Y-93527000D01*
X150381418Y-93527000D01*
X150381418Y-93740000D01*
X150387732Y-93804103D01*
X150406430Y-93865743D01*
X150436794Y-93922550D01*
X150477657Y-93972343D01*
X150527450Y-94013206D01*
X150584257Y-94043570D01*
X150645897Y-94062268D01*
X150710000Y-94068582D01*
X152310000Y-94068582D01*
X152374103Y-94062268D01*
X152435743Y-94043570D01*
X152492550Y-94013206D01*
X152542343Y-93972343D01*
X152583206Y-93922550D01*
X152613570Y-93865743D01*
X152632268Y-93804103D01*
X152638582Y-93740000D01*
X152638582Y-93527000D01*
X153531711Y-93527000D01*
X158359054Y-98354345D01*
X158375552Y-98374448D01*
X158455798Y-98440304D01*
X158547350Y-98489239D01*
X158646690Y-98519374D01*
X158750000Y-98529549D01*
X158775881Y-98527000D01*
X161781956Y-98527000D01*
X161824028Y-98628570D01*
X161969252Y-98845913D01*
X162154087Y-99030748D01*
X162371430Y-99175972D01*
X162612928Y-99276004D01*
X162869302Y-99327000D01*
X163130698Y-99327000D01*
X163387072Y-99276004D01*
X163628570Y-99175972D01*
X163845913Y-99030748D01*
X164030748Y-98845913D01*
X164175972Y-98628570D01*
X164276004Y-98387072D01*
X164327000Y-98130698D01*
X164327000Y-97869302D01*
X164276004Y-97612928D01*
X164175972Y-97371430D01*
X164030748Y-97154087D01*
X163845913Y-96969252D01*
X163794458Y-96934871D01*
X163860044Y-96899814D01*
X163955808Y-96635413D01*
X163000000Y-95679605D01*
X162044192Y-96635413D01*
X162139956Y-96899814D01*
X162208271Y-96933047D01*
X162154087Y-96969252D01*
X161969252Y-97154087D01*
X161824028Y-97371430D01*
X161781956Y-97473000D01*
X158968291Y-97473000D01*
X157057886Y-95562595D01*
X161358282Y-95562595D01*
X161402039Y-95881675D01*
X161507205Y-96186088D01*
X161600186Y-96360044D01*
X161864587Y-96455808D01*
X162820395Y-95500000D01*
X163179605Y-95500000D01*
X164135413Y-96455808D01*
X164399814Y-96360044D01*
X164540704Y-96070429D01*
X164622384Y-95758892D01*
X164641718Y-95437405D01*
X164597961Y-95118325D01*
X164492795Y-94813912D01*
X164399814Y-94639956D01*
X164135413Y-94544192D01*
X163179605Y-95500000D01*
X162820395Y-95500000D01*
X161864587Y-94544192D01*
X161600186Y-94639956D01*
X161459296Y-94929571D01*
X161377616Y-95241108D01*
X161358282Y-95562595D01*
X157057886Y-95562595D01*
X155859878Y-94364587D01*
X162044192Y-94364587D01*
X163000000Y-95320395D01*
X163955808Y-94364587D01*
X163860044Y-94100186D01*
X163570429Y-93959296D01*
X163258892Y-93877616D01*
X162937405Y-93858282D01*
X162618325Y-93902039D01*
X162313912Y-94007205D01*
X162139956Y-94100186D01*
X162044192Y-94364587D01*
X155859878Y-94364587D01*
X154140955Y-92645666D01*
X154124448Y-92625552D01*
X154044202Y-92559696D01*
X153952650Y-92510761D01*
X153853310Y-92480626D01*
X153775881Y-92473000D01*
X153750000Y-92470451D01*
X153724119Y-92473000D01*
X152638582Y-92473000D01*
X152638582Y-92140000D01*
X152632268Y-92075897D01*
X152613570Y-92014257D01*
X152583206Y-91957450D01*
X152542343Y-91907657D01*
X152492550Y-91866794D01*
X152435743Y-91836430D01*
X152374103Y-91817732D01*
X152310000Y-91811418D01*
X152300001Y-91811418D01*
X152323097Y-91732702D01*
X151510000Y-90919605D01*
X150696903Y-91732702D01*
X150719999Y-91811418D01*
X150710000Y-91811418D01*
X150645897Y-91817732D01*
X150584257Y-91836430D01*
X150527450Y-91866794D01*
X150477657Y-91907657D01*
X150436794Y-91957450D01*
X150406430Y-92014257D01*
X150387732Y-92075897D01*
X150381418Y-92140000D01*
X150381418Y-92473000D01*
X149525880Y-92473000D01*
X149499999Y-92470451D01*
X149400883Y-92480213D01*
X149396690Y-92480626D01*
X149297350Y-92510761D01*
X149205798Y-92559696D01*
X149125552Y-92625552D01*
X149109049Y-92645661D01*
X146265666Y-95489045D01*
X146245552Y-95505552D01*
X146179696Y-95585798D01*
X146130762Y-95677350D01*
X146130761Y-95677351D01*
X146100626Y-95776691D01*
X146090451Y-95880000D01*
X146093000Y-95905881D01*
X146093000Y-96896418D01*
X145570000Y-96896418D01*
X145505897Y-96902732D01*
X145444257Y-96921430D01*
X145387450Y-96951794D01*
X145337657Y-96992657D01*
X145296794Y-97042450D01*
X145266430Y-97099257D01*
X145247732Y-97160897D01*
X145241418Y-97225000D01*
X140378582Y-97225000D01*
X140372268Y-97160897D01*
X140353570Y-97099257D01*
X140323206Y-97042450D01*
X140282343Y-96992657D01*
X140232550Y-96951794D01*
X140175743Y-96921430D01*
X140114103Y-96902732D01*
X140050000Y-96896418D01*
X137950000Y-96896418D01*
X137885897Y-96902732D01*
X137824257Y-96921430D01*
X137767450Y-96951794D01*
X137717657Y-96992657D01*
X137677000Y-97042199D01*
X137677000Y-91373808D01*
X137875480Y-91175328D01*
X137892069Y-91186687D01*
X137896393Y-91189025D01*
X137939473Y-91211932D01*
X137968930Y-91224074D01*
X137998299Y-91236661D01*
X138002995Y-91238114D01*
X138049703Y-91252216D01*
X138080963Y-91258405D01*
X138112205Y-91265046D01*
X138117092Y-91265559D01*
X138117094Y-91265559D01*
X138164995Y-91270255D01*
X138182708Y-91272000D01*
X144688669Y-91272000D01*
X144701891Y-91273609D01*
X144723235Y-91272000D01*
X144727292Y-91272000D01*
X144740528Y-91270696D01*
X144771031Y-91268397D01*
X144774947Y-91267307D01*
X144779004Y-91266907D01*
X144808333Y-91258010D01*
X144821089Y-91254458D01*
X144824859Y-91252997D01*
X144845356Y-91246779D01*
X144857110Y-91240497D01*
X145966470Y-90810512D01*
X150069783Y-90810512D01*
X150111213Y-91090130D01*
X150206397Y-91356292D01*
X150273329Y-91481514D01*
X150517298Y-91553097D01*
X151330395Y-90740000D01*
X151689605Y-90740000D01*
X152502702Y-91553097D01*
X152746671Y-91481514D01*
X152867571Y-91226004D01*
X152936300Y-90951816D01*
X152936968Y-90938246D01*
X157373000Y-90938246D01*
X157373000Y-91061754D01*
X157397095Y-91182889D01*
X157444360Y-91296996D01*
X157512977Y-91399689D01*
X157600311Y-91487023D01*
X157703004Y-91555640D01*
X157817111Y-91602905D01*
X157938246Y-91627000D01*
X158061754Y-91627000D01*
X158182889Y-91602905D01*
X158296996Y-91555640D01*
X158399689Y-91487023D01*
X158487023Y-91399689D01*
X158555640Y-91296996D01*
X158602905Y-91182889D01*
X158627000Y-91061754D01*
X158627000Y-90938246D01*
X158602905Y-90817111D01*
X158555640Y-90703004D01*
X158487023Y-90600311D01*
X158399689Y-90512977D01*
X158296996Y-90444360D01*
X158182889Y-90397095D01*
X158061754Y-90373000D01*
X157938246Y-90373000D01*
X157817111Y-90397095D01*
X157703004Y-90444360D01*
X157600311Y-90512977D01*
X157512977Y-90600311D01*
X157444360Y-90703004D01*
X157397095Y-90817111D01*
X157373000Y-90938246D01*
X152936968Y-90938246D01*
X152950217Y-90669488D01*
X152908787Y-90389870D01*
X152813603Y-90123708D01*
X152746671Y-89998486D01*
X152502702Y-89926903D01*
X151689605Y-90740000D01*
X151330395Y-90740000D01*
X150517298Y-89926903D01*
X150273329Y-89998486D01*
X150152429Y-90253996D01*
X150083700Y-90528184D01*
X150069783Y-90810512D01*
X145966470Y-90810512D01*
X146112540Y-90753896D01*
X146130708Y-90748665D01*
X146160042Y-90733516D01*
X146189712Y-90718522D01*
X146190940Y-90717561D01*
X146192316Y-90716850D01*
X146218147Y-90696257D01*
X146244305Y-90675775D01*
X146256645Y-90661423D01*
X147197076Y-89747298D01*
X150696903Y-89747298D01*
X151510000Y-90560395D01*
X152323097Y-89747298D01*
X152251514Y-89503329D01*
X151996004Y-89382429D01*
X151721816Y-89313700D01*
X151439488Y-89299783D01*
X151159870Y-89341213D01*
X150893708Y-89436397D01*
X150768486Y-89503329D01*
X150696903Y-89747298D01*
X147197076Y-89747298D01*
X147687746Y-89270354D01*
X147721277Y-89230659D01*
X147754826Y-89169978D01*
X147755974Y-89166378D01*
X147764693Y-89145137D01*
X147775136Y-89123408D01*
X147776790Y-89118780D01*
X147795568Y-89065067D01*
X147803102Y-89034092D01*
X147811079Y-89003179D01*
X147811803Y-88998318D01*
X147819791Y-88941982D01*
X147821165Y-88910124D01*
X147822986Y-88878254D01*
X147822752Y-88873345D01*
X147822736Y-88873062D01*
X148103731Y-88592067D01*
X148134982Y-88588989D01*
X148630173Y-88438774D01*
X149086544Y-88194839D01*
X149486557Y-87866557D01*
X149814839Y-87466544D01*
X150058774Y-87010173D01*
X150208989Y-86514982D01*
X150259710Y-86000000D01*
X150259710Y-84600000D01*
X150208989Y-84085018D01*
X150058774Y-83589827D01*
X149814839Y-83133456D01*
X149486557Y-82733443D01*
X149086544Y-82405161D01*
X148630173Y-82161226D01*
X148270104Y-82052000D01*
X156612777Y-82052000D01*
X158373000Y-83812224D01*
X158373000Y-83861754D01*
X158397095Y-83982889D01*
X158444360Y-84096996D01*
X158512977Y-84199689D01*
X158600311Y-84287023D01*
X158703004Y-84355640D01*
X158817111Y-84402905D01*
X158938246Y-84427000D01*
X159061754Y-84427000D01*
X159182889Y-84402905D01*
X159296996Y-84355640D01*
X159399689Y-84287023D01*
X159487023Y-84199689D01*
X159555640Y-84096996D01*
X159602905Y-83982889D01*
X159627000Y-83861754D01*
X159627000Y-83738246D01*
X159602905Y-83617111D01*
X159555640Y-83503004D01*
X159487023Y-83400311D01*
X159399689Y-83312977D01*
X159296996Y-83244360D01*
X159182889Y-83197095D01*
X159061754Y-83173000D01*
X159012224Y-83173000D01*
X157135323Y-81296100D01*
X157121159Y-81278841D01*
X157052333Y-81222357D01*
X156973810Y-81180386D01*
X156888607Y-81154540D01*
X156822205Y-81148000D01*
X156800000Y-81145813D01*
X156777795Y-81148000D01*
X147037225Y-81148000D01*
X145202000Y-79312777D01*
X145202000Y-69666035D01*
X145259141Y-69619141D01*
X145318348Y-69546997D01*
X145362342Y-69464689D01*
X145389434Y-69375379D01*
X145398582Y-69282500D01*
X145398582Y-69004387D01*
X145424494Y-68990537D01*
X145521185Y-68911185D01*
X145600537Y-68814494D01*
X145659502Y-68704180D01*
X145695812Y-68584482D01*
X145708072Y-68460000D01*
X145705000Y-68450750D01*
X145546250Y-68292000D01*
X144877000Y-68292000D01*
X144877000Y-68312000D01*
X144623000Y-68312000D01*
X144623000Y-68292000D01*
X143953750Y-68292000D01*
X143795000Y-68450750D01*
X143791928Y-68460000D01*
X143804188Y-68584482D01*
X143840498Y-68704180D01*
X143899463Y-68814494D01*
X143978815Y-68911185D01*
X144075506Y-68990537D01*
X144101418Y-69004387D01*
X144101418Y-69282500D01*
X144110566Y-69375379D01*
X144137658Y-69464689D01*
X144181652Y-69546997D01*
X144240859Y-69619141D01*
X144298000Y-69666035D01*
X144298001Y-78596010D01*
X144277795Y-78598000D01*
X143078582Y-78598000D01*
X143078582Y-78050000D01*
X143072268Y-77985897D01*
X143053570Y-77924257D01*
X143023206Y-77867450D01*
X142982343Y-77817657D01*
X142932550Y-77776794D01*
X142875743Y-77746430D01*
X142814103Y-77727732D01*
X142750000Y-77721418D01*
X140750000Y-77721418D01*
X140685897Y-77727732D01*
X140624257Y-77746430D01*
X140567450Y-77776794D01*
X140517657Y-77817657D01*
X140476794Y-77867450D01*
X140446430Y-77924257D01*
X140427732Y-77985897D01*
X140421418Y-78050000D01*
X140421418Y-80050000D01*
X140427732Y-80114103D01*
X140442839Y-80163906D01*
X140000000Y-80120290D01*
X139544505Y-80120290D01*
X139165893Y-80083000D01*
X138569117Y-80083000D01*
X138190505Y-80120290D01*
X138000000Y-80120290D01*
X137627000Y-80157027D01*
X137627000Y-71250000D01*
X140111928Y-71250000D01*
X140124188Y-71374482D01*
X140160498Y-71494180D01*
X140219463Y-71604494D01*
X140298815Y-71701185D01*
X140395506Y-71780537D01*
X140505820Y-71839502D01*
X140625518Y-71875812D01*
X140750000Y-71888072D01*
X141464250Y-71885000D01*
X141623000Y-71726250D01*
X141623000Y-70377000D01*
X141877000Y-70377000D01*
X141877000Y-71726250D01*
X142035750Y-71885000D01*
X142750000Y-71888072D01*
X142874482Y-71875812D01*
X142994180Y-71839502D01*
X143104494Y-71780537D01*
X143201185Y-71701185D01*
X143280537Y-71604494D01*
X143339502Y-71494180D01*
X143375812Y-71374482D01*
X143388072Y-71250000D01*
X143385000Y-70535750D01*
X143226250Y-70377000D01*
X141877000Y-70377000D01*
X141623000Y-70377000D01*
X140273750Y-70377000D01*
X140115000Y-70535750D01*
X140111928Y-71250000D01*
X137627000Y-71250000D01*
X137627000Y-69250000D01*
X140111928Y-69250000D01*
X140115000Y-69964250D01*
X140273750Y-70123000D01*
X141623000Y-70123000D01*
X141623000Y-68773750D01*
X141877000Y-68773750D01*
X141877000Y-70123000D01*
X143226250Y-70123000D01*
X143385000Y-69964250D01*
X143388072Y-69250000D01*
X143375812Y-69125518D01*
X143339502Y-69005820D01*
X143280537Y-68895506D01*
X143201185Y-68798815D01*
X143104494Y-68719463D01*
X142994180Y-68660498D01*
X142874482Y-68624188D01*
X142750000Y-68611928D01*
X142035750Y-68615000D01*
X141877000Y-68773750D01*
X141623000Y-68773750D01*
X141464250Y-68615000D01*
X140750000Y-68611928D01*
X140625518Y-68624188D01*
X140505820Y-68660498D01*
X140395506Y-68719463D01*
X140298815Y-68798815D01*
X140219463Y-68895506D01*
X140160498Y-69005820D01*
X140124188Y-69125518D01*
X140111928Y-69250000D01*
X137627000Y-69250000D01*
X137627000Y-67870000D01*
X143791928Y-67870000D01*
X143795000Y-67879250D01*
X143953750Y-68038000D01*
X144623000Y-68038000D01*
X144623000Y-67393750D01*
X144877000Y-67393750D01*
X144877000Y-68038000D01*
X145546250Y-68038000D01*
X145705000Y-67879250D01*
X145708072Y-67870000D01*
X145695812Y-67745518D01*
X145659502Y-67625820D01*
X145600537Y-67515506D01*
X145521185Y-67418815D01*
X145424494Y-67339463D01*
X145314180Y-67280498D01*
X145194482Y-67244188D01*
X145070000Y-67231928D01*
X145035750Y-67235000D01*
X144877000Y-67393750D01*
X144623000Y-67393750D01*
X144464250Y-67235000D01*
X144430000Y-67231928D01*
X144305518Y-67244188D01*
X144185820Y-67280498D01*
X144075506Y-67339463D01*
X143978815Y-67418815D01*
X143899463Y-67515506D01*
X143840498Y-67625820D01*
X143804188Y-67745518D01*
X143791928Y-67870000D01*
X137627000Y-67870000D01*
X137627000Y-61627000D01*
X140134401Y-61627000D01*
X140157333Y-61702596D01*
X140266626Y-61907069D01*
X140413709Y-62086291D01*
X140458623Y-62123151D01*
X147126858Y-68791388D01*
X147163709Y-68836291D01*
X147208612Y-68873142D01*
X147208614Y-68873144D01*
X147208624Y-68873152D01*
X147823000Y-69487529D01*
X147823001Y-77228324D01*
X147644116Y-77347851D01*
X147347851Y-77644116D01*
X147115077Y-77992488D01*
X146954739Y-78379577D01*
X146873000Y-78790509D01*
X146873000Y-79209491D01*
X146954739Y-79620423D01*
X147115077Y-80007512D01*
X147347851Y-80355884D01*
X147644116Y-80652149D01*
X147992488Y-80884923D01*
X148379577Y-81045261D01*
X148790509Y-81127000D01*
X149209491Y-81127000D01*
X149620423Y-81045261D01*
X150007512Y-80884923D01*
X150355884Y-80652149D01*
X150652149Y-80355884D01*
X150884923Y-80007512D01*
X151045261Y-79620423D01*
X151127000Y-79209491D01*
X151127000Y-78790509D01*
X151045261Y-78379577D01*
X150884923Y-77992488D01*
X150652149Y-77644116D01*
X150355884Y-77347851D01*
X150177000Y-77228325D01*
X150177000Y-69177000D01*
X155728325Y-69177000D01*
X155847851Y-69355884D01*
X156144116Y-69652149D01*
X156492488Y-69884923D01*
X156879577Y-70045261D01*
X157290509Y-70127000D01*
X157709491Y-70127000D01*
X158120423Y-70045261D01*
X158507512Y-69884923D01*
X158855884Y-69652149D01*
X159152149Y-69355884D01*
X159271675Y-69177000D01*
X159942188Y-69177000D01*
X160000000Y-69182694D01*
X160057812Y-69177000D01*
X160230732Y-69159969D01*
X160452597Y-69092667D01*
X160657070Y-68983374D01*
X160836291Y-68836291D01*
X160873150Y-68791378D01*
X161791388Y-67873141D01*
X161823000Y-67847198D01*
X161823001Y-72468862D01*
X161771609Y-72503201D01*
X161503201Y-72771609D01*
X161292315Y-73087223D01*
X161147053Y-73437915D01*
X161073000Y-73810207D01*
X161073000Y-74189793D01*
X161147053Y-74562085D01*
X161292315Y-74912777D01*
X161503201Y-75228391D01*
X161771609Y-75496799D01*
X162087223Y-75707685D01*
X162437915Y-75852947D01*
X162664413Y-75898000D01*
X160982708Y-75898000D01*
X160965406Y-75899704D01*
X160962158Y-75899704D01*
X160957270Y-75900218D01*
X160936276Y-75902573D01*
X160930996Y-75903093D01*
X160930618Y-75903208D01*
X160908783Y-75905657D01*
X160877628Y-75912280D01*
X160846282Y-75918486D01*
X160841587Y-75919940D01*
X160795080Y-75934693D01*
X160765744Y-75947267D01*
X160736260Y-75959419D01*
X160731942Y-75961754D01*
X160731938Y-75961756D01*
X160731937Y-75961757D01*
X160689180Y-75985262D01*
X160662874Y-76003275D01*
X160636285Y-76020940D01*
X160632498Y-76024074D01*
X160595122Y-76055436D01*
X160572833Y-76078196D01*
X160550161Y-76100710D01*
X160547055Y-76104519D01*
X160516482Y-76142544D01*
X160499017Y-76169234D01*
X160481173Y-76195688D01*
X160478866Y-76200028D01*
X160456261Y-76243267D01*
X160444315Y-76272834D01*
X160431946Y-76302259D01*
X160430525Y-76306964D01*
X160416749Y-76353771D01*
X160410771Y-76385108D01*
X160404356Y-76416361D01*
X160403877Y-76421252D01*
X160399455Y-76469843D01*
X160399677Y-76501673D01*
X160399454Y-76533647D01*
X160399934Y-76538538D01*
X160405034Y-76587062D01*
X160411444Y-76618289D01*
X160417427Y-76649652D01*
X160418848Y-76654357D01*
X160433276Y-76700967D01*
X160445629Y-76730354D01*
X160457592Y-76759963D01*
X160459900Y-76764303D01*
X160483107Y-76807222D01*
X160500929Y-76833643D01*
X160518409Y-76860357D01*
X160521516Y-76864166D01*
X160552616Y-76901760D01*
X160575216Y-76924204D01*
X160597583Y-76947044D01*
X160601371Y-76950177D01*
X160639181Y-76981013D01*
X160665716Y-76998642D01*
X160692069Y-77016687D01*
X160696393Y-77019025D01*
X160739473Y-77041932D01*
X160768930Y-77054074D01*
X160798299Y-77066661D01*
X160802995Y-77068114D01*
X160849703Y-77082216D01*
X160880963Y-77088405D01*
X160912205Y-77095046D01*
X160917092Y-77095559D01*
X160917094Y-77095559D01*
X160964995Y-77100255D01*
X160982708Y-77102000D01*
X162664413Y-77102000D01*
X162437915Y-77147053D01*
X162087223Y-77292315D01*
X161771609Y-77503201D01*
X161503201Y-77771609D01*
X161292315Y-78087223D01*
X161147053Y-78437915D01*
X161073000Y-78810207D01*
X161073000Y-79189793D01*
X161147053Y-79562085D01*
X161292315Y-79912777D01*
X161503201Y-80228391D01*
X161771609Y-80496799D01*
X162087223Y-80707685D01*
X162437915Y-80852947D01*
X162810207Y-80927000D01*
X163189793Y-80927000D01*
X163562085Y-80852947D01*
X163912777Y-80707685D01*
X164228391Y-80496799D01*
X164496799Y-80228391D01*
X164531137Y-80177000D01*
X165442188Y-80177000D01*
X165500000Y-80182694D01*
X165557812Y-80177000D01*
X165730732Y-80159969D01*
X165952597Y-80092667D01*
X166157070Y-79983374D01*
X166336291Y-79836291D01*
X166373151Y-79791377D01*
X168291382Y-77873147D01*
X168336291Y-77836291D01*
X168483374Y-77657070D01*
X168592667Y-77452597D01*
X168659969Y-77230732D01*
X168677000Y-77057812D01*
X168677000Y-77057803D01*
X168682693Y-77000001D01*
X168677000Y-76942199D01*
X168677000Y-69771675D01*
X168855884Y-69652149D01*
X169152149Y-69355884D01*
X169384923Y-69007512D01*
X169545261Y-68620423D01*
X169627000Y-68209491D01*
X169627000Y-67790509D01*
X169545261Y-67379577D01*
X169384923Y-66992488D01*
X169152149Y-66644116D01*
X168855884Y-66347851D01*
X168507512Y-66115077D01*
X168120423Y-65954739D01*
X167709491Y-65873000D01*
X167290509Y-65873000D01*
X166879577Y-65954739D01*
X166492488Y-66115077D01*
X166144116Y-66347851D01*
X165847851Y-66644116D01*
X165615077Y-66992488D01*
X165454739Y-67379577D01*
X165373000Y-67790509D01*
X165373000Y-68209491D01*
X165454739Y-68620423D01*
X165615077Y-69007512D01*
X165847851Y-69355884D01*
X166144116Y-69652149D01*
X166323000Y-69771675D01*
X166323001Y-76512470D01*
X165012472Y-77823000D01*
X164531137Y-77823000D01*
X164496799Y-77771609D01*
X164228391Y-77503201D01*
X163912777Y-77292315D01*
X163562085Y-77147053D01*
X163335587Y-77102000D01*
X165017292Y-77102000D01*
X165034594Y-77100296D01*
X165037842Y-77100296D01*
X165042730Y-77099782D01*
X165063724Y-77097427D01*
X165069004Y-77096907D01*
X165069382Y-77096792D01*
X165091217Y-77094343D01*
X165122372Y-77087720D01*
X165153718Y-77081514D01*
X165158413Y-77080060D01*
X165204920Y-77065307D01*
X165234207Y-77052754D01*
X165263740Y-77040582D01*
X165268063Y-77038244D01*
X165310820Y-77014738D01*
X165337126Y-76996725D01*
X165363715Y-76979060D01*
X165367502Y-76975926D01*
X165404879Y-76944564D01*
X165427189Y-76921782D01*
X165449838Y-76899290D01*
X165452945Y-76895481D01*
X165483517Y-76857456D01*
X165500965Y-76830792D01*
X165518827Y-76804312D01*
X165521134Y-76799972D01*
X165543739Y-76756734D01*
X165555697Y-76727136D01*
X165568054Y-76697741D01*
X165569475Y-76693036D01*
X165583251Y-76646229D01*
X165589229Y-76614892D01*
X165595644Y-76583639D01*
X165596123Y-76578747D01*
X165600545Y-76530157D01*
X165600323Y-76498327D01*
X165600546Y-76466353D01*
X165600066Y-76461461D01*
X165594966Y-76412938D01*
X165588556Y-76381711D01*
X165582573Y-76350348D01*
X165581152Y-76345643D01*
X165566724Y-76299033D01*
X165554377Y-76269659D01*
X165542408Y-76240036D01*
X165540100Y-76235697D01*
X165516893Y-76192778D01*
X165499061Y-76166341D01*
X165481591Y-76139643D01*
X165478484Y-76135834D01*
X165447384Y-76098239D01*
X165424781Y-76075793D01*
X165402417Y-76052956D01*
X165398629Y-76049823D01*
X165360818Y-76018986D01*
X165334275Y-76001352D01*
X165307931Y-75983313D01*
X165303608Y-75980976D01*
X165260527Y-75958068D01*
X165231044Y-75945916D01*
X165201700Y-75933339D01*
X165197005Y-75931886D01*
X165150296Y-75917784D01*
X165119045Y-75911596D01*
X165087795Y-75904954D01*
X165082907Y-75904441D01*
X165035002Y-75899744D01*
X165017292Y-75898000D01*
X163335587Y-75898000D01*
X163562085Y-75852947D01*
X163912777Y-75707685D01*
X164228391Y-75496799D01*
X164496799Y-75228391D01*
X164707685Y-74912777D01*
X164852947Y-74562085D01*
X164927000Y-74189793D01*
X164927000Y-73810207D01*
X164852947Y-73437915D01*
X164707685Y-73087223D01*
X164496799Y-72771609D01*
X164228391Y-72503201D01*
X164177000Y-72468863D01*
X164177000Y-65987528D01*
X165487529Y-64677000D01*
X165728325Y-64677000D01*
X165847851Y-64855884D01*
X166144116Y-65152149D01*
X166492488Y-65384923D01*
X166879577Y-65545261D01*
X167290509Y-65627000D01*
X167709491Y-65627000D01*
X168120423Y-65545261D01*
X168507512Y-65384923D01*
X168855884Y-65152149D01*
X169152149Y-64855884D01*
X169384923Y-64507512D01*
X169545261Y-64120423D01*
X169627000Y-63709491D01*
X169627000Y-63290509D01*
X169545261Y-62879577D01*
X169384923Y-62492488D01*
X169152149Y-62144116D01*
X168855884Y-61847851D01*
X168507512Y-61615077D01*
X168120423Y-61454739D01*
X167709491Y-61373000D01*
X167290509Y-61373000D01*
X166879577Y-61454739D01*
X166492488Y-61615077D01*
X166144116Y-61847851D01*
X165847851Y-62144116D01*
X165728325Y-62323000D01*
X165341529Y-62323000D01*
X167642279Y-60022251D01*
X167967084Y-60156789D01*
X168320056Y-60227000D01*
X168679944Y-60227000D01*
X169032916Y-60156789D01*
X169365409Y-60019066D01*
X169664645Y-59819124D01*
X169919124Y-59564645D01*
X170119066Y-59265409D01*
X170256789Y-58932916D01*
X170327000Y-58579944D01*
X170327000Y-58220056D01*
X170256789Y-57867084D01*
X170119066Y-57534591D01*
X169919124Y-57235355D01*
X169664645Y-56980876D01*
X169365409Y-56780934D01*
X169032916Y-56643211D01*
X168679944Y-56573000D01*
X168320056Y-56573000D01*
X167967084Y-56643211D01*
X167634591Y-56780934D01*
X167335355Y-56980876D01*
X167080876Y-57235355D01*
X166969103Y-57402636D01*
X166942930Y-57416626D01*
X166841339Y-57500000D01*
X166763709Y-57563709D01*
X166726858Y-57608612D01*
X160208618Y-64126854D01*
X160163710Y-64163709D01*
X160048883Y-64303626D01*
X160016626Y-64342931D01*
X159907334Y-64547403D01*
X159840031Y-64769269D01*
X159817306Y-65000000D01*
X159823001Y-65057822D01*
X159823001Y-65243632D01*
X159807931Y-65233313D01*
X159803608Y-65230976D01*
X159760527Y-65208068D01*
X159731044Y-65195916D01*
X159701700Y-65183339D01*
X159697005Y-65181886D01*
X159650296Y-65167784D01*
X159619045Y-65161596D01*
X159587795Y-65154954D01*
X159582907Y-65154441D01*
X159535002Y-65149744D01*
X159517292Y-65148000D01*
X158860033Y-65148000D01*
X159152149Y-64855884D01*
X159384923Y-64507512D01*
X159545261Y-64120423D01*
X159627000Y-63709491D01*
X159627000Y-63290509D01*
X159585028Y-63079501D01*
X159791383Y-62873146D01*
X159836291Y-62836291D01*
X159983374Y-62657070D01*
X160092667Y-62452597D01*
X160159969Y-62230732D01*
X160177000Y-62057812D01*
X160177000Y-62057803D01*
X160182693Y-62000001D01*
X160177000Y-61942199D01*
X160177000Y-57987528D01*
X160837529Y-57327000D01*
X161179944Y-57327000D01*
X161532916Y-57256789D01*
X161865409Y-57119066D01*
X162164645Y-56919124D01*
X162419124Y-56664645D01*
X162619066Y-56365409D01*
X162756789Y-56032916D01*
X162827000Y-55679944D01*
X162827000Y-55320056D01*
X162756789Y-54967084D01*
X162619066Y-54634591D01*
X162419124Y-54335355D01*
X162164645Y-54080876D01*
X161865409Y-53880934D01*
X161532916Y-53743211D01*
X161179944Y-53673000D01*
X160820056Y-53673000D01*
X160467084Y-53743211D01*
X160134591Y-53880934D01*
X159835355Y-54080876D01*
X159580876Y-54335355D01*
X159380934Y-54634591D01*
X159243211Y-54967084D01*
X159173000Y-55320056D01*
X159173000Y-55662471D01*
X158512472Y-56323000D01*
X158271439Y-56323000D01*
X158258783Y-56194503D01*
X158191550Y-55972865D01*
X158082369Y-55768602D01*
X157935436Y-55589564D01*
X157756398Y-55442631D01*
X157552135Y-55333450D01*
X157330497Y-55266217D01*
X157100001Y-55243515D01*
X156074999Y-55243515D01*
X155844503Y-55266217D01*
X155622865Y-55333450D01*
X155418602Y-55442631D01*
X155239564Y-55589564D01*
X155193718Y-55645428D01*
X155094744Y-55319155D01*
X154827706Y-54819563D01*
X154468334Y-54381666D01*
X154030437Y-54022294D01*
X153530845Y-53755256D01*
X152988755Y-53590815D01*
X152425001Y-53535290D01*
X151399999Y-53535290D01*
X150836245Y-53590815D01*
X150294155Y-53755256D01*
X149794563Y-54022294D01*
X149671852Y-54123000D01*
X148627000Y-54123000D01*
X148627000Y-53352000D01*
X171354198Y-53352000D01*
X171648000Y-53645804D01*
G37*
X171648000Y-53645804D02*
X171648001Y-130373000D01*
X145648798Y-130373000D01*
X145205208Y-129929410D01*
X145099453Y-129800547D01*
X144585238Y-129378542D01*
X144130376Y-129135413D01*
X162044192Y-129135413D01*
X162139956Y-129399814D01*
X162429571Y-129540704D01*
X162741108Y-129622384D01*
X163062595Y-129641718D01*
X163381675Y-129597961D01*
X163686088Y-129492795D01*
X163860044Y-129399814D01*
X163955808Y-129135413D01*
X168544192Y-129135413D01*
X168639956Y-129399814D01*
X168929571Y-129540704D01*
X169241108Y-129622384D01*
X169562595Y-129641718D01*
X169881675Y-129597961D01*
X170186088Y-129492795D01*
X170360044Y-129399814D01*
X170455808Y-129135413D01*
X169500000Y-128179605D01*
X168544192Y-129135413D01*
X163955808Y-129135413D01*
X163000000Y-128179605D01*
X162044192Y-129135413D01*
X144130376Y-129135413D01*
X143998575Y-129064964D01*
X143362008Y-128871863D01*
X142865893Y-128823000D01*
X142865882Y-128823000D01*
X142700000Y-128806662D01*
X142534118Y-128823000D01*
X138598798Y-128823000D01*
X137838393Y-128062595D01*
X161358282Y-128062595D01*
X161402039Y-128381675D01*
X161507205Y-128686088D01*
X161600186Y-128860044D01*
X161864587Y-128955808D01*
X162820395Y-128000000D01*
X163179605Y-128000000D01*
X164135413Y-128955808D01*
X164399814Y-128860044D01*
X164540704Y-128570429D01*
X164622384Y-128258892D01*
X164634189Y-128062595D01*
X167858282Y-128062595D01*
X167902039Y-128381675D01*
X168007205Y-128686088D01*
X168100186Y-128860044D01*
X168364587Y-128955808D01*
X169320395Y-128000000D01*
X169679605Y-128000000D01*
X170635413Y-128955808D01*
X170899814Y-128860044D01*
X171040704Y-128570429D01*
X171122384Y-128258892D01*
X171141718Y-127937405D01*
X171097961Y-127618325D01*
X170992795Y-127313912D01*
X170899814Y-127139956D01*
X170635413Y-127044192D01*
X169679605Y-128000000D01*
X169320395Y-128000000D01*
X168364587Y-127044192D01*
X168100186Y-127139956D01*
X167959296Y-127429571D01*
X167877616Y-127741108D01*
X167858282Y-128062595D01*
X164634189Y-128062595D01*
X164641718Y-127937405D01*
X164597961Y-127618325D01*
X164492795Y-127313912D01*
X164399814Y-127139956D01*
X164135413Y-127044192D01*
X163179605Y-128000000D01*
X162820395Y-128000000D01*
X161864587Y-127044192D01*
X161600186Y-127139956D01*
X161459296Y-127429571D01*
X161377616Y-127741108D01*
X161358282Y-128062595D01*
X137838393Y-128062595D01*
X137677000Y-127901202D01*
X137677000Y-125379151D01*
X138733000Y-125379151D01*
X138733000Y-125620849D01*
X138780153Y-125857903D01*
X138872647Y-126081202D01*
X139006927Y-126282167D01*
X139177833Y-126453073D01*
X139378798Y-126587353D01*
X139602097Y-126679847D01*
X139839151Y-126727000D01*
X140080849Y-126727000D01*
X140317903Y-126679847D01*
X140541202Y-126587353D01*
X140742167Y-126453073D01*
X140913073Y-126282167D01*
X140962890Y-126207610D01*
X140961928Y-126400000D01*
X140974188Y-126524482D01*
X141010498Y-126644180D01*
X141069463Y-126754494D01*
X141148815Y-126851185D01*
X141245506Y-126930537D01*
X141355820Y-126989502D01*
X141475518Y-127025812D01*
X141600000Y-127038072D01*
X142214250Y-127035000D01*
X142373000Y-126876250D01*
X142373000Y-125627000D01*
X142627000Y-125627000D01*
X142627000Y-126876250D01*
X142785750Y-127035000D01*
X143400000Y-127038072D01*
X143524482Y-127025812D01*
X143644180Y-126989502D01*
X143754494Y-126930537D01*
X143851185Y-126851185D01*
X143930537Y-126754494D01*
X143989502Y-126644180D01*
X144025812Y-126524482D01*
X144038072Y-126400000D01*
X144035000Y-125785750D01*
X143876250Y-125627000D01*
X142627000Y-125627000D01*
X142373000Y-125627000D01*
X142353000Y-125627000D01*
X142353000Y-125379151D01*
X145233000Y-125379151D01*
X145233000Y-125620849D01*
X145280153Y-125857903D01*
X145372647Y-126081202D01*
X145506927Y-126282167D01*
X145677833Y-126453073D01*
X145878798Y-126587353D01*
X146102097Y-126679847D01*
X146339151Y-126727000D01*
X146580849Y-126727000D01*
X146817903Y-126679847D01*
X147041202Y-126587353D01*
X147242167Y-126453073D01*
X147413073Y-126282167D01*
X147462890Y-126207610D01*
X147461928Y-126400000D01*
X147474188Y-126524482D01*
X147510498Y-126644180D01*
X147569463Y-126754494D01*
X147648815Y-126851185D01*
X147745506Y-126930537D01*
X147855820Y-126989502D01*
X147975518Y-127025812D01*
X148100000Y-127038072D01*
X148714250Y-127035000D01*
X148873000Y-126876250D01*
X148873000Y-125627000D01*
X149127000Y-125627000D01*
X149127000Y-126876250D01*
X149285750Y-127035000D01*
X149900000Y-127038072D01*
X150024482Y-127025812D01*
X150144180Y-126989502D01*
X150254494Y-126930537D01*
X150334854Y-126864587D01*
X162044192Y-126864587D01*
X163000000Y-127820395D01*
X163955808Y-126864587D01*
X168544192Y-126864587D01*
X169500000Y-127820395D01*
X170455808Y-126864587D01*
X170360044Y-126600186D01*
X170070429Y-126459296D01*
X169758892Y-126377616D01*
X169437405Y-126358282D01*
X169118325Y-126402039D01*
X168813912Y-126507205D01*
X168639956Y-126600186D01*
X168544192Y-126864587D01*
X163955808Y-126864587D01*
X163860044Y-126600186D01*
X163570429Y-126459296D01*
X163258892Y-126377616D01*
X162937405Y-126358282D01*
X162618325Y-126402039D01*
X162313912Y-126507205D01*
X162139956Y-126600186D01*
X162044192Y-126864587D01*
X150334854Y-126864587D01*
X150351185Y-126851185D01*
X150430537Y-126754494D01*
X150489502Y-126644180D01*
X150525812Y-126524482D01*
X150538072Y-126400000D01*
X150535000Y-125785750D01*
X150376250Y-125627000D01*
X149127000Y-125627000D01*
X148873000Y-125627000D01*
X148853000Y-125627000D01*
X148853000Y-125373000D01*
X148873000Y-125373000D01*
X148873000Y-124123750D01*
X149127000Y-124123750D01*
X149127000Y-125373000D01*
X150376250Y-125373000D01*
X150535000Y-125214250D01*
X150538072Y-124600000D01*
X150525812Y-124475518D01*
X150489502Y-124355820D01*
X150430537Y-124245506D01*
X150351185Y-124148815D01*
X150254494Y-124069463D01*
X150144180Y-124010498D01*
X150024482Y-123974188D01*
X149900000Y-123961928D01*
X149285750Y-123965000D01*
X149127000Y-124123750D01*
X148873000Y-124123750D01*
X148714250Y-123965000D01*
X148100000Y-123961928D01*
X147975518Y-123974188D01*
X147855820Y-124010498D01*
X147745506Y-124069463D01*
X147648815Y-124148815D01*
X147569463Y-124245506D01*
X147510498Y-124355820D01*
X147474188Y-124475518D01*
X147461928Y-124600000D01*
X147462890Y-124792390D01*
X147413073Y-124717833D01*
X147242167Y-124546927D01*
X147041202Y-124412647D01*
X146817903Y-124320153D01*
X146580849Y-124273000D01*
X146339151Y-124273000D01*
X146102097Y-124320153D01*
X145878798Y-124412647D01*
X145677833Y-124546927D01*
X145506927Y-124717833D01*
X145372647Y-124918798D01*
X145280153Y-125142097D01*
X145233000Y-125379151D01*
X142353000Y-125379151D01*
X142353000Y-125373000D01*
X142373000Y-125373000D01*
X142373000Y-124123750D01*
X142627000Y-124123750D01*
X142627000Y-125373000D01*
X143876250Y-125373000D01*
X144035000Y-125214250D01*
X144038072Y-124600000D01*
X144025812Y-124475518D01*
X143989502Y-124355820D01*
X143930537Y-124245506D01*
X143851185Y-124148815D01*
X143754494Y-124069463D01*
X143644180Y-124010498D01*
X143524482Y-123974188D01*
X143400000Y-123961928D01*
X142785750Y-123965000D01*
X142627000Y-124123750D01*
X142373000Y-124123750D01*
X142214250Y-123965000D01*
X141600000Y-123961928D01*
X141475518Y-123974188D01*
X141355820Y-124010498D01*
X141245506Y-124069463D01*
X141148815Y-124148815D01*
X141069463Y-124245506D01*
X141010498Y-124355820D01*
X140974188Y-124475518D01*
X140961928Y-124600000D01*
X140962890Y-124792390D01*
X140913073Y-124717833D01*
X140742167Y-124546927D01*
X140541202Y-124412647D01*
X140317903Y-124320153D01*
X140080849Y-124273000D01*
X139839151Y-124273000D01*
X139602097Y-124320153D01*
X139378798Y-124412647D01*
X139177833Y-124546927D01*
X139006927Y-124717833D01*
X138872647Y-124918798D01*
X138780153Y-125142097D01*
X138733000Y-125379151D01*
X137677000Y-125379151D01*
X137677000Y-123369302D01*
X161673000Y-123369302D01*
X161673000Y-123630698D01*
X161723996Y-123887072D01*
X161824028Y-124128570D01*
X161969252Y-124345913D01*
X162154087Y-124530748D01*
X162371430Y-124675972D01*
X162612928Y-124776004D01*
X162869302Y-124827000D01*
X163130698Y-124827000D01*
X163387072Y-124776004D01*
X163628570Y-124675972D01*
X163845913Y-124530748D01*
X164030748Y-124345913D01*
X164175972Y-124128570D01*
X164276004Y-123887072D01*
X164327000Y-123630698D01*
X164327000Y-123369302D01*
X168173000Y-123369302D01*
X168173000Y-123630698D01*
X168223996Y-123887072D01*
X168324028Y-124128570D01*
X168469252Y-124345913D01*
X168654087Y-124530748D01*
X168871430Y-124675972D01*
X169112928Y-124776004D01*
X169369302Y-124827000D01*
X169630698Y-124827000D01*
X169887072Y-124776004D01*
X170128570Y-124675972D01*
X170345913Y-124530748D01*
X170530748Y-124345913D01*
X170675972Y-124128570D01*
X170776004Y-123887072D01*
X170827000Y-123630698D01*
X170827000Y-123369302D01*
X170776004Y-123112928D01*
X170675972Y-122871430D01*
X170530748Y-122654087D01*
X170345913Y-122469252D01*
X170128570Y-122324028D01*
X169887072Y-122223996D01*
X169630698Y-122173000D01*
X169369302Y-122173000D01*
X169112928Y-122223996D01*
X168871430Y-122324028D01*
X168654087Y-122469252D01*
X168469252Y-122654087D01*
X168324028Y-122871430D01*
X168223996Y-123112928D01*
X168173000Y-123369302D01*
X164327000Y-123369302D01*
X164276004Y-123112928D01*
X164175972Y-122871430D01*
X164030748Y-122654087D01*
X163845913Y-122469252D01*
X163628570Y-122324028D01*
X163387072Y-122223996D01*
X163130698Y-122173000D01*
X162869302Y-122173000D01*
X162612928Y-122223996D01*
X162371430Y-122324028D01*
X162154087Y-122469252D01*
X161969252Y-122654087D01*
X161824028Y-122871430D01*
X161723996Y-123112928D01*
X161673000Y-123369302D01*
X137677000Y-123369302D01*
X137677000Y-116750000D01*
X146623000Y-116750000D01*
X146623000Y-122250000D01*
X146625440Y-122274776D01*
X146632667Y-122298601D01*
X146644403Y-122320557D01*
X146660197Y-122339803D01*
X146679443Y-122355597D01*
X146701399Y-122367333D01*
X146725224Y-122374560D01*
X146750000Y-122377000D01*
X153250000Y-122377000D01*
X153274776Y-122374560D01*
X153298601Y-122367333D01*
X153320557Y-122355597D01*
X153339803Y-122339803D01*
X153355597Y-122320557D01*
X153367333Y-122298601D01*
X153374560Y-122274776D01*
X153377000Y-122250000D01*
X153377000Y-121638246D01*
X154273000Y-121638246D01*
X154273000Y-121761754D01*
X154297095Y-121882889D01*
X154344360Y-121996996D01*
X154412977Y-122099689D01*
X154500311Y-122187023D01*
X154603004Y-122255640D01*
X154717111Y-122302905D01*
X154838246Y-122327000D01*
X154961754Y-122327000D01*
X155082889Y-122302905D01*
X155196996Y-122255640D01*
X155299689Y-122187023D01*
X155387023Y-122099689D01*
X155455640Y-121996996D01*
X155502905Y-121882889D01*
X155527000Y-121761754D01*
X155527000Y-121638246D01*
X155502905Y-121517111D01*
X155455640Y-121403004D01*
X155387023Y-121300311D01*
X155299689Y-121212977D01*
X155196996Y-121144360D01*
X155082889Y-121097095D01*
X154961754Y-121073000D01*
X154838246Y-121073000D01*
X154717111Y-121097095D01*
X154603004Y-121144360D01*
X154500311Y-121212977D01*
X154412977Y-121300311D01*
X154344360Y-121403004D01*
X154297095Y-121517111D01*
X154273000Y-121638246D01*
X153377000Y-121638246D01*
X153377000Y-119638246D01*
X157573000Y-119638246D01*
X157573000Y-119761754D01*
X157597095Y-119882889D01*
X157644360Y-119996996D01*
X157712977Y-120099689D01*
X157800311Y-120187023D01*
X157903004Y-120255640D01*
X158017111Y-120302905D01*
X158138246Y-120327000D01*
X158261754Y-120327000D01*
X158382889Y-120302905D01*
X158496996Y-120255640D01*
X158599689Y-120187023D01*
X158687023Y-120099689D01*
X158755640Y-119996996D01*
X158802905Y-119882889D01*
X158827000Y-119761754D01*
X158827000Y-119638246D01*
X158802905Y-119517111D01*
X158755640Y-119403004D01*
X158687023Y-119300311D01*
X158599689Y-119212977D01*
X158496996Y-119144360D01*
X158382889Y-119097095D01*
X158261754Y-119073000D01*
X158138246Y-119073000D01*
X158017111Y-119097095D01*
X157903004Y-119144360D01*
X157800311Y-119212977D01*
X157712977Y-119300311D01*
X157644360Y-119403004D01*
X157597095Y-119517111D01*
X157573000Y-119638246D01*
X153377000Y-119638246D01*
X153377000Y-119127000D01*
X155250000Y-119127000D01*
X155274776Y-119124560D01*
X155298601Y-119117333D01*
X155320557Y-119105597D01*
X155339803Y-119089803D01*
X155355597Y-119070557D01*
X155367333Y-119048601D01*
X155374560Y-119024776D01*
X155377000Y-119000000D01*
X155377000Y-118650000D01*
X163821418Y-118650000D01*
X163821418Y-120350000D01*
X163827732Y-120414103D01*
X163846430Y-120475743D01*
X163876794Y-120532550D01*
X163917657Y-120582343D01*
X163967450Y-120623206D01*
X164024257Y-120653570D01*
X164085897Y-120672268D01*
X164150000Y-120678582D01*
X165850000Y-120678582D01*
X165914103Y-120672268D01*
X165975743Y-120653570D01*
X166032550Y-120623206D01*
X166082343Y-120582343D01*
X166123206Y-120532550D01*
X166153570Y-120475743D01*
X166172268Y-120414103D01*
X166178582Y-120350000D01*
X166178582Y-118650000D01*
X166172268Y-118585897D01*
X166153570Y-118524257D01*
X166123206Y-118467450D01*
X166082343Y-118417657D01*
X166032550Y-118376794D01*
X165975743Y-118346430D01*
X165914103Y-118327732D01*
X165850000Y-118321418D01*
X164150000Y-118321418D01*
X164085897Y-118327732D01*
X164024257Y-118346430D01*
X163967450Y-118376794D01*
X163917657Y-118417657D01*
X163876794Y-118467450D01*
X163846430Y-118524257D01*
X163827732Y-118585897D01*
X163821418Y-118650000D01*
X155377000Y-118650000D01*
X155377000Y-117000000D01*
X155374560Y-116975224D01*
X155367333Y-116951399D01*
X155355597Y-116929443D01*
X155339803Y-116910197D01*
X155320557Y-116894403D01*
X155298601Y-116882667D01*
X155274776Y-116875440D01*
X155250000Y-116873000D01*
X153627000Y-116873000D01*
X153627000Y-116750000D01*
X153624560Y-116725224D01*
X153617333Y-116701399D01*
X153605597Y-116679443D01*
X153589803Y-116660197D01*
X153570557Y-116644403D01*
X153548601Y-116632667D01*
X153524776Y-116625440D01*
X153500000Y-116623000D01*
X146750000Y-116623000D01*
X146725224Y-116625440D01*
X146701399Y-116632667D01*
X146679443Y-116644403D01*
X146660197Y-116660197D01*
X146644403Y-116679443D01*
X146632667Y-116701399D01*
X146625440Y-116725224D01*
X146623000Y-116750000D01*
X137677000Y-116750000D01*
X137677000Y-116538246D01*
X161888000Y-116538246D01*
X161888000Y-116661754D01*
X161912095Y-116782889D01*
X161959360Y-116896996D01*
X162027977Y-116999689D01*
X162115311Y-117087023D01*
X162218004Y-117155640D01*
X162332111Y-117202905D01*
X162453246Y-117227000D01*
X162576754Y-117227000D01*
X162697889Y-117202905D01*
X162811996Y-117155640D01*
X162914689Y-117087023D01*
X163002023Y-116999689D01*
X163070640Y-116896996D01*
X163117905Y-116782889D01*
X163142000Y-116661754D01*
X163142000Y-116538246D01*
X163117905Y-116417111D01*
X163070640Y-116303004D01*
X163002023Y-116200311D01*
X162914689Y-116112977D01*
X162811996Y-116044360D01*
X162697889Y-115997095D01*
X162576754Y-115973000D01*
X162453246Y-115973000D01*
X162332111Y-115997095D01*
X162218004Y-116044360D01*
X162115311Y-116112977D01*
X162027977Y-116200311D01*
X161959360Y-116303004D01*
X161912095Y-116417111D01*
X161888000Y-116538246D01*
X137677000Y-116538246D01*
X137677000Y-112988246D01*
X149373000Y-112988246D01*
X149373000Y-113111754D01*
X149397095Y-113232889D01*
X149444360Y-113346996D01*
X149512977Y-113449689D01*
X149600311Y-113537023D01*
X149703004Y-113605640D01*
X149817111Y-113652905D01*
X149938246Y-113677000D01*
X150061754Y-113677000D01*
X150182889Y-113652905D01*
X150296996Y-113605640D01*
X150399689Y-113537023D01*
X150487023Y-113449689D01*
X150555640Y-113346996D01*
X150602905Y-113232889D01*
X150612844Y-113182921D01*
X160341833Y-113182921D01*
X160343378Y-113207769D01*
X160349741Y-113231838D01*
X160360678Y-113254204D01*
X160375768Y-113274006D01*
X160394431Y-113290484D01*
X160415950Y-113303004D01*
X160439498Y-113311085D01*
X160466236Y-113314475D01*
X161605166Y-113337028D01*
X161623003Y-115750938D01*
X161625627Y-115775696D01*
X161633030Y-115799466D01*
X161644928Y-115821336D01*
X161660863Y-115840464D01*
X161680225Y-115856115D01*
X161702267Y-115867689D01*
X161726145Y-115874739D01*
X161749714Y-115877000D01*
X167299714Y-115889500D01*
X167324496Y-115887115D01*
X167348336Y-115879942D01*
X167370319Y-115868255D01*
X167389600Y-115852505D01*
X167405437Y-115833295D01*
X167417223Y-115811365D01*
X167424504Y-115787557D01*
X167427000Y-115762500D01*
X167427000Y-111037500D01*
X167424560Y-111012724D01*
X167417333Y-110988899D01*
X167405597Y-110966943D01*
X167389803Y-110947697D01*
X167370557Y-110931903D01*
X167348601Y-110920167D01*
X167324776Y-110912940D01*
X167300836Y-110910503D01*
X163799028Y-110887465D01*
X163799689Y-110887023D01*
X163887023Y-110799689D01*
X163955640Y-110696996D01*
X164002905Y-110582889D01*
X164027000Y-110461754D01*
X164027000Y-110338246D01*
X164002905Y-110217111D01*
X163955640Y-110103004D01*
X163887023Y-110000311D01*
X163799689Y-109912977D01*
X163696996Y-109844360D01*
X163582889Y-109797095D01*
X163461754Y-109773000D01*
X163338246Y-109773000D01*
X163217111Y-109797095D01*
X163103004Y-109844360D01*
X163000311Y-109912977D01*
X162912977Y-110000311D01*
X162844360Y-110103004D01*
X162797095Y-110217111D01*
X162773000Y-110338246D01*
X162773000Y-110461754D01*
X162797095Y-110582889D01*
X162844360Y-110696996D01*
X162912977Y-110799689D01*
X162995466Y-110882178D01*
X161600836Y-110873003D01*
X161576044Y-110875280D01*
X161552172Y-110882350D01*
X161530139Y-110893941D01*
X161510790Y-110909609D01*
X161494870Y-110928749D01*
X161482990Y-110950628D01*
X161475606Y-110974405D01*
X161473040Y-111003174D01*
X161494712Y-111870040D01*
X160515353Y-111848032D01*
X160490528Y-111849915D01*
X160466547Y-111856605D01*
X160444333Y-111867845D01*
X160424738Y-111883203D01*
X160408515Y-111902088D01*
X160396289Y-111923775D01*
X160388528Y-111947431D01*
X160385583Y-111970421D01*
X160341833Y-113182921D01*
X150612844Y-113182921D01*
X150627000Y-113111754D01*
X150627000Y-112988246D01*
X150602905Y-112867111D01*
X150555640Y-112753004D01*
X150487023Y-112650311D01*
X150399689Y-112562977D01*
X150296996Y-112494360D01*
X150182889Y-112447095D01*
X150061754Y-112423000D01*
X149938246Y-112423000D01*
X149817111Y-112447095D01*
X149703004Y-112494360D01*
X149600311Y-112562977D01*
X149512977Y-112650311D01*
X149444360Y-112753004D01*
X149397095Y-112867111D01*
X149373000Y-112988246D01*
X137677000Y-112988246D01*
X137677000Y-111188246D01*
X140373000Y-111188246D01*
X140373000Y-111311754D01*
X140397095Y-111432889D01*
X140444360Y-111546996D01*
X140512977Y-111649689D01*
X140600311Y-111737023D01*
X140703004Y-111805640D01*
X140817111Y-111852905D01*
X140887202Y-111866847D01*
X140873000Y-111938246D01*
X140873000Y-112061754D01*
X140897095Y-112182889D01*
X140944360Y-112296996D01*
X141012977Y-112399689D01*
X141100311Y-112487023D01*
X141203004Y-112555640D01*
X141317111Y-112602905D01*
X141438246Y-112627000D01*
X141561754Y-112627000D01*
X141682889Y-112602905D01*
X141796996Y-112555640D01*
X141899689Y-112487023D01*
X141987023Y-112399689D01*
X142000000Y-112380267D01*
X142012977Y-112399689D01*
X142100311Y-112487023D01*
X142203004Y-112555640D01*
X142317111Y-112602905D01*
X142438246Y-112627000D01*
X142561754Y-112627000D01*
X142682889Y-112602905D01*
X142796996Y-112555640D01*
X142899689Y-112487023D01*
X142987023Y-112399689D01*
X143055640Y-112296996D01*
X143102905Y-112182889D01*
X143127000Y-112061754D01*
X143127000Y-111938246D01*
X143102905Y-111817111D01*
X143055640Y-111703004D01*
X142987023Y-111600311D01*
X142899689Y-111512977D01*
X142796996Y-111444360D01*
X142682889Y-111397095D01*
X142612798Y-111383153D01*
X142627000Y-111311754D01*
X142627000Y-111188246D01*
X142602905Y-111067111D01*
X142555640Y-110953004D01*
X142487023Y-110850311D01*
X142399689Y-110762977D01*
X142296996Y-110694360D01*
X142182889Y-110647095D01*
X142061754Y-110623000D01*
X141938246Y-110623000D01*
X141817111Y-110647095D01*
X141703004Y-110694360D01*
X141600311Y-110762977D01*
X141512977Y-110850311D01*
X141500000Y-110869733D01*
X141487023Y-110850311D01*
X141399689Y-110762977D01*
X141296996Y-110694360D01*
X141182889Y-110647095D01*
X141061754Y-110623000D01*
X140938246Y-110623000D01*
X140817111Y-110647095D01*
X140703004Y-110694360D01*
X140600311Y-110762977D01*
X140512977Y-110850311D01*
X140444360Y-110953004D01*
X140397095Y-111067111D01*
X140373000Y-111188246D01*
X137677000Y-111188246D01*
X137677000Y-109738246D01*
X152323000Y-109738246D01*
X152323000Y-109861754D01*
X152347095Y-109982889D01*
X152394360Y-110096996D01*
X152462977Y-110199689D01*
X152550311Y-110287023D01*
X152653004Y-110355640D01*
X152767111Y-110402905D01*
X152888246Y-110427000D01*
X153011754Y-110427000D01*
X153132889Y-110402905D01*
X153246996Y-110355640D01*
X153349689Y-110287023D01*
X153437023Y-110199689D01*
X153505640Y-110096996D01*
X153552905Y-109982889D01*
X153577000Y-109861754D01*
X153577000Y-109738246D01*
X153552905Y-109617111D01*
X153549233Y-109608246D01*
X155573000Y-109608246D01*
X155573000Y-109731754D01*
X155597095Y-109852889D01*
X155644360Y-109966996D01*
X155712977Y-110069689D01*
X155800311Y-110157023D01*
X155903004Y-110225640D01*
X156017111Y-110272905D01*
X156138246Y-110297000D01*
X156261754Y-110297000D01*
X156382889Y-110272905D01*
X156496996Y-110225640D01*
X156599689Y-110157023D01*
X156687023Y-110069689D01*
X156755640Y-109966996D01*
X156802905Y-109852889D01*
X156827000Y-109731754D01*
X156827000Y-109608246D01*
X156802905Y-109487111D01*
X156755640Y-109373004D01*
X156687023Y-109270311D01*
X156599689Y-109182977D01*
X156496996Y-109114360D01*
X156382889Y-109067095D01*
X156261754Y-109043000D01*
X156138246Y-109043000D01*
X156017111Y-109067095D01*
X155903004Y-109114360D01*
X155800311Y-109182977D01*
X155712977Y-109270311D01*
X155644360Y-109373004D01*
X155597095Y-109487111D01*
X155573000Y-109608246D01*
X153549233Y-109608246D01*
X153505640Y-109503004D01*
X153437023Y-109400311D01*
X153349689Y-109312977D01*
X153246996Y-109244360D01*
X153132889Y-109197095D01*
X153011754Y-109173000D01*
X152888246Y-109173000D01*
X152767111Y-109197095D01*
X152653004Y-109244360D01*
X152550311Y-109312977D01*
X152462977Y-109400311D01*
X152394360Y-109503004D01*
X152347095Y-109617111D01*
X152323000Y-109738246D01*
X137677000Y-109738246D01*
X137677000Y-108688246D01*
X159873000Y-108688246D01*
X159873000Y-108811754D01*
X159897095Y-108932889D01*
X159944360Y-109046996D01*
X160012977Y-109149689D01*
X160100311Y-109237023D01*
X160203004Y-109305640D01*
X160317111Y-109352905D01*
X160438246Y-109377000D01*
X160561754Y-109377000D01*
X160682889Y-109352905D01*
X160796996Y-109305640D01*
X160899689Y-109237023D01*
X160987023Y-109149689D01*
X161055640Y-109046996D01*
X161102905Y-108932889D01*
X161127000Y-108811754D01*
X161127000Y-108688246D01*
X161102905Y-108567111D01*
X161055640Y-108453004D01*
X160987023Y-108350311D01*
X160899689Y-108262977D01*
X160796996Y-108194360D01*
X160682889Y-108147095D01*
X160561754Y-108123000D01*
X160438246Y-108123000D01*
X160317111Y-108147095D01*
X160203004Y-108194360D01*
X160100311Y-108262977D01*
X160012977Y-108350311D01*
X159944360Y-108453004D01*
X159897095Y-108567111D01*
X159873000Y-108688246D01*
X137677000Y-108688246D01*
X137677000Y-105288246D01*
X141073000Y-105288246D01*
X141073000Y-105411754D01*
X141097095Y-105532889D01*
X141144360Y-105646996D01*
X141212977Y-105749689D01*
X141300311Y-105837023D01*
X141403004Y-105905640D01*
X141517111Y-105952905D01*
X141638246Y-105977000D01*
X141761754Y-105977000D01*
X141882889Y-105952905D01*
X141996996Y-105905640D01*
X142099689Y-105837023D01*
X142187023Y-105749689D01*
X142255640Y-105646996D01*
X142302905Y-105532889D01*
X142327000Y-105411754D01*
X142327000Y-105288246D01*
X142302905Y-105167111D01*
X142255640Y-105053004D01*
X142187023Y-104950311D01*
X142099689Y-104862977D01*
X141996996Y-104794360D01*
X141882889Y-104747095D01*
X141761754Y-104723000D01*
X141638246Y-104723000D01*
X141517111Y-104747095D01*
X141403004Y-104794360D01*
X141300311Y-104862977D01*
X141212977Y-104950311D01*
X141144360Y-105053004D01*
X141097095Y-105167111D01*
X141073000Y-105288246D01*
X137677000Y-105288246D01*
X137677000Y-104634076D01*
X149703000Y-104634076D01*
X149703000Y-104865924D01*
X149748231Y-105093318D01*
X149836956Y-105307519D01*
X149965764Y-105500294D01*
X150129706Y-105664236D01*
X150322481Y-105793044D01*
X150536682Y-105881769D01*
X150764076Y-105927000D01*
X150995924Y-105927000D01*
X151223318Y-105881769D01*
X151437519Y-105793044D01*
X151630294Y-105664236D01*
X151794236Y-105500294D01*
X151923044Y-105307519D01*
X151991264Y-105142821D01*
X152075843Y-105381252D01*
X152224822Y-105631355D01*
X152419731Y-105847588D01*
X152653080Y-106021641D01*
X152915901Y-106146825D01*
X153063110Y-106191476D01*
X153293000Y-106070155D01*
X153293000Y-104877000D01*
X153273000Y-104877000D01*
X153273000Y-104623000D01*
X153293000Y-104623000D01*
X153293000Y-103429845D01*
X153547000Y-103429845D01*
X153547000Y-104623000D01*
X153567000Y-104623000D01*
X153567000Y-104877000D01*
X153547000Y-104877000D01*
X153547000Y-106070155D01*
X153776890Y-106191476D01*
X153924099Y-106146825D01*
X154186920Y-106021641D01*
X154420269Y-105847588D01*
X154615178Y-105631355D01*
X154764157Y-105381252D01*
X154848736Y-105142821D01*
X154916956Y-105307519D01*
X155045764Y-105500294D01*
X155209706Y-105664236D01*
X155402481Y-105793044D01*
X155616682Y-105881769D01*
X155844076Y-105927000D01*
X156075924Y-105927000D01*
X156303318Y-105881769D01*
X156517519Y-105793044D01*
X156710294Y-105664236D01*
X156874236Y-105500294D01*
X157003044Y-105307519D01*
X157091769Y-105093318D01*
X157137000Y-104865924D01*
X157137000Y-104634076D01*
X157091769Y-104406682D01*
X157003044Y-104192481D01*
X156874236Y-103999706D01*
X156774530Y-103900000D01*
X157321418Y-103900000D01*
X157321418Y-105600000D01*
X157327732Y-105664103D01*
X157346430Y-105725743D01*
X157376794Y-105782550D01*
X157417657Y-105832343D01*
X157467450Y-105873206D01*
X157524257Y-105903570D01*
X157585897Y-105922268D01*
X157650000Y-105928582D01*
X159350000Y-105928582D01*
X159414103Y-105922268D01*
X159475743Y-105903570D01*
X159532550Y-105873206D01*
X159582343Y-105832343D01*
X159623206Y-105782550D01*
X159653570Y-105725743D01*
X159672268Y-105664103D01*
X159678582Y-105600000D01*
X159678582Y-103900000D01*
X160921418Y-103900000D01*
X160921418Y-105600000D01*
X160927732Y-105664103D01*
X160946430Y-105725743D01*
X160976794Y-105782550D01*
X161017657Y-105832343D01*
X161067450Y-105873206D01*
X161124257Y-105903570D01*
X161185897Y-105922268D01*
X161250000Y-105928582D01*
X162950000Y-105928582D01*
X163014103Y-105922268D01*
X163075743Y-105903570D01*
X163132550Y-105873206D01*
X163182343Y-105832343D01*
X163223206Y-105782550D01*
X163253570Y-105725743D01*
X163272268Y-105664103D01*
X163278582Y-105600000D01*
X163278582Y-104634076D01*
X163463000Y-104634076D01*
X163463000Y-104865924D01*
X163508231Y-105093318D01*
X163596956Y-105307519D01*
X163725764Y-105500294D01*
X163889706Y-105664236D01*
X164082481Y-105793044D01*
X164296682Y-105881769D01*
X164524076Y-105927000D01*
X164755924Y-105927000D01*
X164983318Y-105881769D01*
X165197519Y-105793044D01*
X165390294Y-105664236D01*
X165554236Y-105500294D01*
X165683044Y-105307519D01*
X165771769Y-105093318D01*
X165817000Y-104865924D01*
X165817000Y-104634076D01*
X165771769Y-104406682D01*
X165683044Y-104192481D01*
X165554236Y-103999706D01*
X165390294Y-103835764D01*
X165197519Y-103706956D01*
X164983318Y-103618231D01*
X164755924Y-103573000D01*
X164524076Y-103573000D01*
X164296682Y-103618231D01*
X164082481Y-103706956D01*
X163889706Y-103835764D01*
X163725764Y-103999706D01*
X163596956Y-104192481D01*
X163508231Y-104406682D01*
X163463000Y-104634076D01*
X163278582Y-104634076D01*
X163278582Y-103900000D01*
X163272268Y-103835897D01*
X163253570Y-103774257D01*
X163223206Y-103717450D01*
X163182343Y-103667657D01*
X163132550Y-103626794D01*
X163075743Y-103596430D01*
X163014103Y-103577732D01*
X162950000Y-103571418D01*
X161250000Y-103571418D01*
X161185897Y-103577732D01*
X161124257Y-103596430D01*
X161067450Y-103626794D01*
X161017657Y-103667657D01*
X160976794Y-103717450D01*
X160946430Y-103774257D01*
X160927732Y-103835897D01*
X160921418Y-103900000D01*
X159678582Y-103900000D01*
X159672268Y-103835897D01*
X159653570Y-103774257D01*
X159623206Y-103717450D01*
X159582343Y-103667657D01*
X159532550Y-103626794D01*
X159475743Y-103596430D01*
X159414103Y-103577732D01*
X159350000Y-103571418D01*
X157650000Y-103571418D01*
X157585897Y-103577732D01*
X157524257Y-103596430D01*
X157467450Y-103626794D01*
X157417657Y-103667657D01*
X157376794Y-103717450D01*
X157346430Y-103774257D01*
X157327732Y-103835897D01*
X157321418Y-103900000D01*
X156774530Y-103900000D01*
X156710294Y-103835764D01*
X156517519Y-103706956D01*
X156303318Y-103618231D01*
X156075924Y-103573000D01*
X155844076Y-103573000D01*
X155616682Y-103618231D01*
X155402481Y-103706956D01*
X155209706Y-103835764D01*
X155045764Y-103999706D01*
X154916956Y-104192481D01*
X154848736Y-104357179D01*
X154764157Y-104118748D01*
X154615178Y-103868645D01*
X154420269Y-103652412D01*
X154186920Y-103478359D01*
X153924099Y-103353175D01*
X153776890Y-103308524D01*
X153547000Y-103429845D01*
X153293000Y-103429845D01*
X153063110Y-103308524D01*
X152915901Y-103353175D01*
X152653080Y-103478359D01*
X152419731Y-103652412D01*
X152224822Y-103868645D01*
X152075843Y-104118748D01*
X151991264Y-104357179D01*
X151923044Y-104192481D01*
X151794236Y-103999706D01*
X151630294Y-103835764D01*
X151437519Y-103706956D01*
X151223318Y-103618231D01*
X150995924Y-103573000D01*
X150764076Y-103573000D01*
X150536682Y-103618231D01*
X150322481Y-103706956D01*
X150129706Y-103835764D01*
X149965764Y-103999706D01*
X149836956Y-104192481D01*
X149748231Y-104406682D01*
X149703000Y-104634076D01*
X137677000Y-104634076D01*
X137677000Y-98957801D01*
X137717657Y-99007343D01*
X137767450Y-99048206D01*
X137824257Y-99078570D01*
X137885897Y-99097268D01*
X137950000Y-99103582D01*
X140050000Y-99103582D01*
X140114103Y-99097268D01*
X140175743Y-99078570D01*
X140232550Y-99048206D01*
X140282343Y-99007343D01*
X140323206Y-98957550D01*
X140353570Y-98900743D01*
X140372268Y-98839103D01*
X140378582Y-98775000D01*
X140378582Y-97225000D01*
X145241418Y-97225000D01*
X145241418Y-98775000D01*
X145247732Y-98839103D01*
X145266430Y-98900743D01*
X145296794Y-98957550D01*
X145337657Y-99007343D01*
X145387450Y-99048206D01*
X145444257Y-99078570D01*
X145505897Y-99097268D01*
X145570000Y-99103582D01*
X147670000Y-99103582D01*
X147734103Y-99097268D01*
X147795743Y-99078570D01*
X147852550Y-99048206D01*
X147902343Y-99007343D01*
X147943206Y-98957550D01*
X147973570Y-98900743D01*
X147992268Y-98839103D01*
X147998582Y-98775000D01*
X147998582Y-97225000D01*
X147992268Y-97160897D01*
X147973570Y-97099257D01*
X147943206Y-97042450D01*
X147902343Y-96992657D01*
X147852550Y-96951794D01*
X147795743Y-96921430D01*
X147734103Y-96902732D01*
X147670000Y-96896418D01*
X147147000Y-96896418D01*
X147147000Y-96098289D01*
X149718290Y-93527000D01*
X150381418Y-93527000D01*
X150381418Y-93740000D01*
X150387732Y-93804103D01*
X150406430Y-93865743D01*
X150436794Y-93922550D01*
X150477657Y-93972343D01*
X150527450Y-94013206D01*
X150584257Y-94043570D01*
X150645897Y-94062268D01*
X150710000Y-94068582D01*
X152310000Y-94068582D01*
X152374103Y-94062268D01*
X152435743Y-94043570D01*
X152492550Y-94013206D01*
X152542343Y-93972343D01*
X152583206Y-93922550D01*
X152613570Y-93865743D01*
X152632268Y-93804103D01*
X152638582Y-93740000D01*
X152638582Y-93527000D01*
X153531711Y-93527000D01*
X158359054Y-98354345D01*
X158375552Y-98374448D01*
X158455798Y-98440304D01*
X158547350Y-98489239D01*
X158646690Y-98519374D01*
X158750000Y-98529549D01*
X158775881Y-98527000D01*
X161781956Y-98527000D01*
X161824028Y-98628570D01*
X161969252Y-98845913D01*
X162154087Y-99030748D01*
X162371430Y-99175972D01*
X162612928Y-99276004D01*
X162869302Y-99327000D01*
X163130698Y-99327000D01*
X163387072Y-99276004D01*
X163628570Y-99175972D01*
X163845913Y-99030748D01*
X164030748Y-98845913D01*
X164175972Y-98628570D01*
X164276004Y-98387072D01*
X164327000Y-98130698D01*
X164327000Y-97869302D01*
X164276004Y-97612928D01*
X164175972Y-97371430D01*
X164030748Y-97154087D01*
X163845913Y-96969252D01*
X163794458Y-96934871D01*
X163860044Y-96899814D01*
X163955808Y-96635413D01*
X163000000Y-95679605D01*
X162044192Y-96635413D01*
X162139956Y-96899814D01*
X162208271Y-96933047D01*
X162154087Y-96969252D01*
X161969252Y-97154087D01*
X161824028Y-97371430D01*
X161781956Y-97473000D01*
X158968291Y-97473000D01*
X157057886Y-95562595D01*
X161358282Y-95562595D01*
X161402039Y-95881675D01*
X161507205Y-96186088D01*
X161600186Y-96360044D01*
X161864587Y-96455808D01*
X162820395Y-95500000D01*
X163179605Y-95500000D01*
X164135413Y-96455808D01*
X164399814Y-96360044D01*
X164540704Y-96070429D01*
X164622384Y-95758892D01*
X164641718Y-95437405D01*
X164597961Y-95118325D01*
X164492795Y-94813912D01*
X164399814Y-94639956D01*
X164135413Y-94544192D01*
X163179605Y-95500000D01*
X162820395Y-95500000D01*
X161864587Y-94544192D01*
X161600186Y-94639956D01*
X161459296Y-94929571D01*
X161377616Y-95241108D01*
X161358282Y-95562595D01*
X157057886Y-95562595D01*
X155859878Y-94364587D01*
X162044192Y-94364587D01*
X163000000Y-95320395D01*
X163955808Y-94364587D01*
X163860044Y-94100186D01*
X163570429Y-93959296D01*
X163258892Y-93877616D01*
X162937405Y-93858282D01*
X162618325Y-93902039D01*
X162313912Y-94007205D01*
X162139956Y-94100186D01*
X162044192Y-94364587D01*
X155859878Y-94364587D01*
X154140955Y-92645666D01*
X154124448Y-92625552D01*
X154044202Y-92559696D01*
X153952650Y-92510761D01*
X153853310Y-92480626D01*
X153775881Y-92473000D01*
X153750000Y-92470451D01*
X153724119Y-92473000D01*
X152638582Y-92473000D01*
X152638582Y-92140000D01*
X152632268Y-92075897D01*
X152613570Y-92014257D01*
X152583206Y-91957450D01*
X152542343Y-91907657D01*
X152492550Y-91866794D01*
X152435743Y-91836430D01*
X152374103Y-91817732D01*
X152310000Y-91811418D01*
X152300001Y-91811418D01*
X152323097Y-91732702D01*
X151510000Y-90919605D01*
X150696903Y-91732702D01*
X150719999Y-91811418D01*
X150710000Y-91811418D01*
X150645897Y-91817732D01*
X150584257Y-91836430D01*
X150527450Y-91866794D01*
X150477657Y-91907657D01*
X150436794Y-91957450D01*
X150406430Y-92014257D01*
X150387732Y-92075897D01*
X150381418Y-92140000D01*
X150381418Y-92473000D01*
X149525880Y-92473000D01*
X149499999Y-92470451D01*
X149400883Y-92480213D01*
X149396690Y-92480626D01*
X149297350Y-92510761D01*
X149205798Y-92559696D01*
X149125552Y-92625552D01*
X149109049Y-92645661D01*
X146265666Y-95489045D01*
X146245552Y-95505552D01*
X146179696Y-95585798D01*
X146130762Y-95677350D01*
X146130761Y-95677351D01*
X146100626Y-95776691D01*
X146090451Y-95880000D01*
X146093000Y-95905881D01*
X146093000Y-96896418D01*
X145570000Y-96896418D01*
X145505897Y-96902732D01*
X145444257Y-96921430D01*
X145387450Y-96951794D01*
X145337657Y-96992657D01*
X145296794Y-97042450D01*
X145266430Y-97099257D01*
X145247732Y-97160897D01*
X145241418Y-97225000D01*
X140378582Y-97225000D01*
X140372268Y-97160897D01*
X140353570Y-97099257D01*
X140323206Y-97042450D01*
X140282343Y-96992657D01*
X140232550Y-96951794D01*
X140175743Y-96921430D01*
X140114103Y-96902732D01*
X140050000Y-96896418D01*
X137950000Y-96896418D01*
X137885897Y-96902732D01*
X137824257Y-96921430D01*
X137767450Y-96951794D01*
X137717657Y-96992657D01*
X137677000Y-97042199D01*
X137677000Y-91373808D01*
X137875480Y-91175328D01*
X137892069Y-91186687D01*
X137896393Y-91189025D01*
X137939473Y-91211932D01*
X137968930Y-91224074D01*
X137998299Y-91236661D01*
X138002995Y-91238114D01*
X138049703Y-91252216D01*
X138080963Y-91258405D01*
X138112205Y-91265046D01*
X138117092Y-91265559D01*
X138117094Y-91265559D01*
X138164995Y-91270255D01*
X138182708Y-91272000D01*
X144688669Y-91272000D01*
X144701891Y-91273609D01*
X144723235Y-91272000D01*
X144727292Y-91272000D01*
X144740528Y-91270696D01*
X144771031Y-91268397D01*
X144774947Y-91267307D01*
X144779004Y-91266907D01*
X144808333Y-91258010D01*
X144821089Y-91254458D01*
X144824859Y-91252997D01*
X144845356Y-91246779D01*
X144857110Y-91240497D01*
X145966470Y-90810512D01*
X150069783Y-90810512D01*
X150111213Y-91090130D01*
X150206397Y-91356292D01*
X150273329Y-91481514D01*
X150517298Y-91553097D01*
X151330395Y-90740000D01*
X151689605Y-90740000D01*
X152502702Y-91553097D01*
X152746671Y-91481514D01*
X152867571Y-91226004D01*
X152936300Y-90951816D01*
X152936968Y-90938246D01*
X157373000Y-90938246D01*
X157373000Y-91061754D01*
X157397095Y-91182889D01*
X157444360Y-91296996D01*
X157512977Y-91399689D01*
X157600311Y-91487023D01*
X157703004Y-91555640D01*
X157817111Y-91602905D01*
X157938246Y-91627000D01*
X158061754Y-91627000D01*
X158182889Y-91602905D01*
X158296996Y-91555640D01*
X158399689Y-91487023D01*
X158487023Y-91399689D01*
X158555640Y-91296996D01*
X158602905Y-91182889D01*
X158627000Y-91061754D01*
X158627000Y-90938246D01*
X158602905Y-90817111D01*
X158555640Y-90703004D01*
X158487023Y-90600311D01*
X158399689Y-90512977D01*
X158296996Y-90444360D01*
X158182889Y-90397095D01*
X158061754Y-90373000D01*
X157938246Y-90373000D01*
X157817111Y-90397095D01*
X157703004Y-90444360D01*
X157600311Y-90512977D01*
X157512977Y-90600311D01*
X157444360Y-90703004D01*
X157397095Y-90817111D01*
X157373000Y-90938246D01*
X152936968Y-90938246D01*
X152950217Y-90669488D01*
X152908787Y-90389870D01*
X152813603Y-90123708D01*
X152746671Y-89998486D01*
X152502702Y-89926903D01*
X151689605Y-90740000D01*
X151330395Y-90740000D01*
X150517298Y-89926903D01*
X150273329Y-89998486D01*
X150152429Y-90253996D01*
X150083700Y-90528184D01*
X150069783Y-90810512D01*
X145966470Y-90810512D01*
X146112540Y-90753896D01*
X146130708Y-90748665D01*
X146160042Y-90733516D01*
X146189712Y-90718522D01*
X146190940Y-90717561D01*
X146192316Y-90716850D01*
X146218147Y-90696257D01*
X146244305Y-90675775D01*
X146256645Y-90661423D01*
X147197076Y-89747298D01*
X150696903Y-89747298D01*
X151510000Y-90560395D01*
X152323097Y-89747298D01*
X152251514Y-89503329D01*
X151996004Y-89382429D01*
X151721816Y-89313700D01*
X151439488Y-89299783D01*
X151159870Y-89341213D01*
X150893708Y-89436397D01*
X150768486Y-89503329D01*
X150696903Y-89747298D01*
X147197076Y-89747298D01*
X147687746Y-89270354D01*
X147721277Y-89230659D01*
X147754826Y-89169978D01*
X147755974Y-89166378D01*
X147764693Y-89145137D01*
X147775136Y-89123408D01*
X147776790Y-89118780D01*
X147795568Y-89065067D01*
X147803102Y-89034092D01*
X147811079Y-89003179D01*
X147811803Y-88998318D01*
X147819791Y-88941982D01*
X147821165Y-88910124D01*
X147822986Y-88878254D01*
X147822752Y-88873345D01*
X147822736Y-88873062D01*
X148103731Y-88592067D01*
X148134982Y-88588989D01*
X148630173Y-88438774D01*
X149086544Y-88194839D01*
X149486557Y-87866557D01*
X149814839Y-87466544D01*
X150058774Y-87010173D01*
X150208989Y-86514982D01*
X150259710Y-86000000D01*
X150259710Y-84600000D01*
X150208989Y-84085018D01*
X150058774Y-83589827D01*
X149814839Y-83133456D01*
X149486557Y-82733443D01*
X149086544Y-82405161D01*
X148630173Y-82161226D01*
X148270104Y-82052000D01*
X156612777Y-82052000D01*
X158373000Y-83812224D01*
X158373000Y-83861754D01*
X158397095Y-83982889D01*
X158444360Y-84096996D01*
X158512977Y-84199689D01*
X158600311Y-84287023D01*
X158703004Y-84355640D01*
X158817111Y-84402905D01*
X158938246Y-84427000D01*
X159061754Y-84427000D01*
X159182889Y-84402905D01*
X159296996Y-84355640D01*
X159399689Y-84287023D01*
X159487023Y-84199689D01*
X159555640Y-84096996D01*
X159602905Y-83982889D01*
X159627000Y-83861754D01*
X159627000Y-83738246D01*
X159602905Y-83617111D01*
X159555640Y-83503004D01*
X159487023Y-83400311D01*
X159399689Y-83312977D01*
X159296996Y-83244360D01*
X159182889Y-83197095D01*
X159061754Y-83173000D01*
X159012224Y-83173000D01*
X157135323Y-81296100D01*
X157121159Y-81278841D01*
X157052333Y-81222357D01*
X156973810Y-81180386D01*
X156888607Y-81154540D01*
X156822205Y-81148000D01*
X156800000Y-81145813D01*
X156777795Y-81148000D01*
X147037225Y-81148000D01*
X145202000Y-79312777D01*
X145202000Y-69666035D01*
X145259141Y-69619141D01*
X145318348Y-69546997D01*
X145362342Y-69464689D01*
X145389434Y-69375379D01*
X145398582Y-69282500D01*
X145398582Y-69004387D01*
X145424494Y-68990537D01*
X145521185Y-68911185D01*
X145600537Y-68814494D01*
X145659502Y-68704180D01*
X145695812Y-68584482D01*
X145708072Y-68460000D01*
X145705000Y-68450750D01*
X145546250Y-68292000D01*
X144877000Y-68292000D01*
X144877000Y-68312000D01*
X144623000Y-68312000D01*
X144623000Y-68292000D01*
X143953750Y-68292000D01*
X143795000Y-68450750D01*
X143791928Y-68460000D01*
X143804188Y-68584482D01*
X143840498Y-68704180D01*
X143899463Y-68814494D01*
X143978815Y-68911185D01*
X144075506Y-68990537D01*
X144101418Y-69004387D01*
X144101418Y-69282500D01*
X144110566Y-69375379D01*
X144137658Y-69464689D01*
X144181652Y-69546997D01*
X144240859Y-69619141D01*
X144298000Y-69666035D01*
X144298001Y-78596010D01*
X144277795Y-78598000D01*
X143078582Y-78598000D01*
X143078582Y-78050000D01*
X143072268Y-77985897D01*
X143053570Y-77924257D01*
X143023206Y-77867450D01*
X142982343Y-77817657D01*
X142932550Y-77776794D01*
X142875743Y-77746430D01*
X142814103Y-77727732D01*
X142750000Y-77721418D01*
X140750000Y-77721418D01*
X140685897Y-77727732D01*
X140624257Y-77746430D01*
X140567450Y-77776794D01*
X140517657Y-77817657D01*
X140476794Y-77867450D01*
X140446430Y-77924257D01*
X140427732Y-77985897D01*
X140421418Y-78050000D01*
X140421418Y-80050000D01*
X140427732Y-80114103D01*
X140442839Y-80163906D01*
X140000000Y-80120290D01*
X139544505Y-80120290D01*
X139165893Y-80083000D01*
X138569117Y-80083000D01*
X138190505Y-80120290D01*
X138000000Y-80120290D01*
X137627000Y-80157027D01*
X137627000Y-71250000D01*
X140111928Y-71250000D01*
X140124188Y-71374482D01*
X140160498Y-71494180D01*
X140219463Y-71604494D01*
X140298815Y-71701185D01*
X140395506Y-71780537D01*
X140505820Y-71839502D01*
X140625518Y-71875812D01*
X140750000Y-71888072D01*
X141464250Y-71885000D01*
X141623000Y-71726250D01*
X141623000Y-70377000D01*
X141877000Y-70377000D01*
X141877000Y-71726250D01*
X142035750Y-71885000D01*
X142750000Y-71888072D01*
X142874482Y-71875812D01*
X142994180Y-71839502D01*
X143104494Y-71780537D01*
X143201185Y-71701185D01*
X143280537Y-71604494D01*
X143339502Y-71494180D01*
X143375812Y-71374482D01*
X143388072Y-71250000D01*
X143385000Y-70535750D01*
X143226250Y-70377000D01*
X141877000Y-70377000D01*
X141623000Y-70377000D01*
X140273750Y-70377000D01*
X140115000Y-70535750D01*
X140111928Y-71250000D01*
X137627000Y-71250000D01*
X137627000Y-69250000D01*
X140111928Y-69250000D01*
X140115000Y-69964250D01*
X140273750Y-70123000D01*
X141623000Y-70123000D01*
X141623000Y-68773750D01*
X141877000Y-68773750D01*
X141877000Y-70123000D01*
X143226250Y-70123000D01*
X143385000Y-69964250D01*
X143388072Y-69250000D01*
X143375812Y-69125518D01*
X143339502Y-69005820D01*
X143280537Y-68895506D01*
X143201185Y-68798815D01*
X143104494Y-68719463D01*
X142994180Y-68660498D01*
X142874482Y-68624188D01*
X142750000Y-68611928D01*
X142035750Y-68615000D01*
X141877000Y-68773750D01*
X141623000Y-68773750D01*
X141464250Y-68615000D01*
X140750000Y-68611928D01*
X140625518Y-68624188D01*
X140505820Y-68660498D01*
X140395506Y-68719463D01*
X140298815Y-68798815D01*
X140219463Y-68895506D01*
X140160498Y-69005820D01*
X140124188Y-69125518D01*
X140111928Y-69250000D01*
X137627000Y-69250000D01*
X137627000Y-67870000D01*
X143791928Y-67870000D01*
X143795000Y-67879250D01*
X143953750Y-68038000D01*
X144623000Y-68038000D01*
X144623000Y-67393750D01*
X144877000Y-67393750D01*
X144877000Y-68038000D01*
X145546250Y-68038000D01*
X145705000Y-67879250D01*
X145708072Y-67870000D01*
X145695812Y-67745518D01*
X145659502Y-67625820D01*
X145600537Y-67515506D01*
X145521185Y-67418815D01*
X145424494Y-67339463D01*
X145314180Y-67280498D01*
X145194482Y-67244188D01*
X145070000Y-67231928D01*
X145035750Y-67235000D01*
X144877000Y-67393750D01*
X144623000Y-67393750D01*
X144464250Y-67235000D01*
X144430000Y-67231928D01*
X144305518Y-67244188D01*
X144185820Y-67280498D01*
X144075506Y-67339463D01*
X143978815Y-67418815D01*
X143899463Y-67515506D01*
X143840498Y-67625820D01*
X143804188Y-67745518D01*
X143791928Y-67870000D01*
X137627000Y-67870000D01*
X137627000Y-61627000D01*
X140134401Y-61627000D01*
X140157333Y-61702596D01*
X140266626Y-61907069D01*
X140413709Y-62086291D01*
X140458623Y-62123151D01*
X147126858Y-68791388D01*
X147163709Y-68836291D01*
X147208612Y-68873142D01*
X147208614Y-68873144D01*
X147208624Y-68873152D01*
X147823000Y-69487529D01*
X147823001Y-77228324D01*
X147644116Y-77347851D01*
X147347851Y-77644116D01*
X147115077Y-77992488D01*
X146954739Y-78379577D01*
X146873000Y-78790509D01*
X146873000Y-79209491D01*
X146954739Y-79620423D01*
X147115077Y-80007512D01*
X147347851Y-80355884D01*
X147644116Y-80652149D01*
X147992488Y-80884923D01*
X148379577Y-81045261D01*
X148790509Y-81127000D01*
X149209491Y-81127000D01*
X149620423Y-81045261D01*
X150007512Y-80884923D01*
X150355884Y-80652149D01*
X150652149Y-80355884D01*
X150884923Y-80007512D01*
X151045261Y-79620423D01*
X151127000Y-79209491D01*
X151127000Y-78790509D01*
X151045261Y-78379577D01*
X150884923Y-77992488D01*
X150652149Y-77644116D01*
X150355884Y-77347851D01*
X150177000Y-77228325D01*
X150177000Y-69177000D01*
X155728325Y-69177000D01*
X155847851Y-69355884D01*
X156144116Y-69652149D01*
X156492488Y-69884923D01*
X156879577Y-70045261D01*
X157290509Y-70127000D01*
X157709491Y-70127000D01*
X158120423Y-70045261D01*
X158507512Y-69884923D01*
X158855884Y-69652149D01*
X159152149Y-69355884D01*
X159271675Y-69177000D01*
X159942188Y-69177000D01*
X160000000Y-69182694D01*
X160057812Y-69177000D01*
X160230732Y-69159969D01*
X160452597Y-69092667D01*
X160657070Y-68983374D01*
X160836291Y-68836291D01*
X160873150Y-68791378D01*
X161791388Y-67873141D01*
X161823000Y-67847198D01*
X161823001Y-72468862D01*
X161771609Y-72503201D01*
X161503201Y-72771609D01*
X161292315Y-73087223D01*
X161147053Y-73437915D01*
X161073000Y-73810207D01*
X161073000Y-74189793D01*
X161147053Y-74562085D01*
X161292315Y-74912777D01*
X161503201Y-75228391D01*
X161771609Y-75496799D01*
X162087223Y-75707685D01*
X162437915Y-75852947D01*
X162664413Y-75898000D01*
X160982708Y-75898000D01*
X160965406Y-75899704D01*
X160962158Y-75899704D01*
X160957270Y-75900218D01*
X160936276Y-75902573D01*
X160930996Y-75903093D01*
X160930618Y-75903208D01*
X160908783Y-75905657D01*
X160877628Y-75912280D01*
X160846282Y-75918486D01*
X160841587Y-75919940D01*
X160795080Y-75934693D01*
X160765744Y-75947267D01*
X160736260Y-75959419D01*
X160731942Y-75961754D01*
X160731938Y-75961756D01*
X160731937Y-75961757D01*
X160689180Y-75985262D01*
X160662874Y-76003275D01*
X160636285Y-76020940D01*
X160632498Y-76024074D01*
X160595122Y-76055436D01*
X160572833Y-76078196D01*
X160550161Y-76100710D01*
X160547055Y-76104519D01*
X160516482Y-76142544D01*
X160499017Y-76169234D01*
X160481173Y-76195688D01*
X160478866Y-76200028D01*
X160456261Y-76243267D01*
X160444315Y-76272834D01*
X160431946Y-76302259D01*
X160430525Y-76306964D01*
X160416749Y-76353771D01*
X160410771Y-76385108D01*
X160404356Y-76416361D01*
X160403877Y-76421252D01*
X160399455Y-76469843D01*
X160399677Y-76501673D01*
X160399454Y-76533647D01*
X160399934Y-76538538D01*
X160405034Y-76587062D01*
X160411444Y-76618289D01*
X160417427Y-76649652D01*
X160418848Y-76654357D01*
X160433276Y-76700967D01*
X160445629Y-76730354D01*
X160457592Y-76759963D01*
X160459900Y-76764303D01*
X160483107Y-76807222D01*
X160500929Y-76833643D01*
X160518409Y-76860357D01*
X160521516Y-76864166D01*
X160552616Y-76901760D01*
X160575216Y-76924204D01*
X160597583Y-76947044D01*
X160601371Y-76950177D01*
X160639181Y-76981013D01*
X160665716Y-76998642D01*
X160692069Y-77016687D01*
X160696393Y-77019025D01*
X160739473Y-77041932D01*
X160768930Y-77054074D01*
X160798299Y-77066661D01*
X160802995Y-77068114D01*
X160849703Y-77082216D01*
X160880963Y-77088405D01*
X160912205Y-77095046D01*
X160917092Y-77095559D01*
X160917094Y-77095559D01*
X160964995Y-77100255D01*
X160982708Y-77102000D01*
X162664413Y-77102000D01*
X162437915Y-77147053D01*
X162087223Y-77292315D01*
X161771609Y-77503201D01*
X161503201Y-77771609D01*
X161292315Y-78087223D01*
X161147053Y-78437915D01*
X161073000Y-78810207D01*
X161073000Y-79189793D01*
X161147053Y-79562085D01*
X161292315Y-79912777D01*
X161503201Y-80228391D01*
X161771609Y-80496799D01*
X162087223Y-80707685D01*
X162437915Y-80852947D01*
X162810207Y-80927000D01*
X163189793Y-80927000D01*
X163562085Y-80852947D01*
X163912777Y-80707685D01*
X164228391Y-80496799D01*
X164496799Y-80228391D01*
X164531137Y-80177000D01*
X165442188Y-80177000D01*
X165500000Y-80182694D01*
X165557812Y-80177000D01*
X165730732Y-80159969D01*
X165952597Y-80092667D01*
X166157070Y-79983374D01*
X166336291Y-79836291D01*
X166373151Y-79791377D01*
X168291382Y-77873147D01*
X168336291Y-77836291D01*
X168483374Y-77657070D01*
X168592667Y-77452597D01*
X168659969Y-77230732D01*
X168677000Y-77057812D01*
X168677000Y-77057803D01*
X168682693Y-77000001D01*
X168677000Y-76942199D01*
X168677000Y-69771675D01*
X168855884Y-69652149D01*
X169152149Y-69355884D01*
X169384923Y-69007512D01*
X169545261Y-68620423D01*
X169627000Y-68209491D01*
X169627000Y-67790509D01*
X169545261Y-67379577D01*
X169384923Y-66992488D01*
X169152149Y-66644116D01*
X168855884Y-66347851D01*
X168507512Y-66115077D01*
X168120423Y-65954739D01*
X167709491Y-65873000D01*
X167290509Y-65873000D01*
X166879577Y-65954739D01*
X166492488Y-66115077D01*
X166144116Y-66347851D01*
X165847851Y-66644116D01*
X165615077Y-66992488D01*
X165454739Y-67379577D01*
X165373000Y-67790509D01*
X165373000Y-68209491D01*
X165454739Y-68620423D01*
X165615077Y-69007512D01*
X165847851Y-69355884D01*
X166144116Y-69652149D01*
X166323000Y-69771675D01*
X166323001Y-76512470D01*
X165012472Y-77823000D01*
X164531137Y-77823000D01*
X164496799Y-77771609D01*
X164228391Y-77503201D01*
X163912777Y-77292315D01*
X163562085Y-77147053D01*
X163335587Y-77102000D01*
X165017292Y-77102000D01*
X165034594Y-77100296D01*
X165037842Y-77100296D01*
X165042730Y-77099782D01*
X165063724Y-77097427D01*
X165069004Y-77096907D01*
X165069382Y-77096792D01*
X165091217Y-77094343D01*
X165122372Y-77087720D01*
X165153718Y-77081514D01*
X165158413Y-77080060D01*
X165204920Y-77065307D01*
X165234207Y-77052754D01*
X165263740Y-77040582D01*
X165268063Y-77038244D01*
X165310820Y-77014738D01*
X165337126Y-76996725D01*
X165363715Y-76979060D01*
X165367502Y-76975926D01*
X165404879Y-76944564D01*
X165427189Y-76921782D01*
X165449838Y-76899290D01*
X165452945Y-76895481D01*
X165483517Y-76857456D01*
X165500965Y-76830792D01*
X165518827Y-76804312D01*
X165521134Y-76799972D01*
X165543739Y-76756734D01*
X165555697Y-76727136D01*
X165568054Y-76697741D01*
X165569475Y-76693036D01*
X165583251Y-76646229D01*
X165589229Y-76614892D01*
X165595644Y-76583639D01*
X165596123Y-76578747D01*
X165600545Y-76530157D01*
X165600323Y-76498327D01*
X165600546Y-76466353D01*
X165600066Y-76461461D01*
X165594966Y-76412938D01*
X165588556Y-76381711D01*
X165582573Y-76350348D01*
X165581152Y-76345643D01*
X165566724Y-76299033D01*
X165554377Y-76269659D01*
X165542408Y-76240036D01*
X165540100Y-76235697D01*
X165516893Y-76192778D01*
X165499061Y-76166341D01*
X165481591Y-76139643D01*
X165478484Y-76135834D01*
X165447384Y-76098239D01*
X165424781Y-76075793D01*
X165402417Y-76052956D01*
X165398629Y-76049823D01*
X165360818Y-76018986D01*
X165334275Y-76001352D01*
X165307931Y-75983313D01*
X165303608Y-75980976D01*
X165260527Y-75958068D01*
X165231044Y-75945916D01*
X165201700Y-75933339D01*
X165197005Y-75931886D01*
X165150296Y-75917784D01*
X165119045Y-75911596D01*
X165087795Y-75904954D01*
X165082907Y-75904441D01*
X165035002Y-75899744D01*
X165017292Y-75898000D01*
X163335587Y-75898000D01*
X163562085Y-75852947D01*
X163912777Y-75707685D01*
X164228391Y-75496799D01*
X164496799Y-75228391D01*
X164707685Y-74912777D01*
X164852947Y-74562085D01*
X164927000Y-74189793D01*
X164927000Y-73810207D01*
X164852947Y-73437915D01*
X164707685Y-73087223D01*
X164496799Y-72771609D01*
X164228391Y-72503201D01*
X164177000Y-72468863D01*
X164177000Y-65987528D01*
X165487529Y-64677000D01*
X165728325Y-64677000D01*
X165847851Y-64855884D01*
X166144116Y-65152149D01*
X166492488Y-65384923D01*
X166879577Y-65545261D01*
X167290509Y-65627000D01*
X167709491Y-65627000D01*
X168120423Y-65545261D01*
X168507512Y-65384923D01*
X168855884Y-65152149D01*
X169152149Y-64855884D01*
X169384923Y-64507512D01*
X169545261Y-64120423D01*
X169627000Y-63709491D01*
X169627000Y-63290509D01*
X169545261Y-62879577D01*
X169384923Y-62492488D01*
X169152149Y-62144116D01*
X168855884Y-61847851D01*
X168507512Y-61615077D01*
X168120423Y-61454739D01*
X167709491Y-61373000D01*
X167290509Y-61373000D01*
X166879577Y-61454739D01*
X166492488Y-61615077D01*
X166144116Y-61847851D01*
X165847851Y-62144116D01*
X165728325Y-62323000D01*
X165341529Y-62323000D01*
X167642279Y-60022251D01*
X167967084Y-60156789D01*
X168320056Y-60227000D01*
X168679944Y-60227000D01*
X169032916Y-60156789D01*
X169365409Y-60019066D01*
X169664645Y-59819124D01*
X169919124Y-59564645D01*
X170119066Y-59265409D01*
X170256789Y-58932916D01*
X170327000Y-58579944D01*
X170327000Y-58220056D01*
X170256789Y-57867084D01*
X170119066Y-57534591D01*
X169919124Y-57235355D01*
X169664645Y-56980876D01*
X169365409Y-56780934D01*
X169032916Y-56643211D01*
X168679944Y-56573000D01*
X168320056Y-56573000D01*
X167967084Y-56643211D01*
X167634591Y-56780934D01*
X167335355Y-56980876D01*
X167080876Y-57235355D01*
X166969103Y-57402636D01*
X166942930Y-57416626D01*
X166841339Y-57500000D01*
X166763709Y-57563709D01*
X166726858Y-57608612D01*
X160208618Y-64126854D01*
X160163710Y-64163709D01*
X160048883Y-64303626D01*
X160016626Y-64342931D01*
X159907334Y-64547403D01*
X159840031Y-64769269D01*
X159817306Y-65000000D01*
X159823001Y-65057822D01*
X159823001Y-65243632D01*
X159807931Y-65233313D01*
X159803608Y-65230976D01*
X159760527Y-65208068D01*
X159731044Y-65195916D01*
X159701700Y-65183339D01*
X159697005Y-65181886D01*
X159650296Y-65167784D01*
X159619045Y-65161596D01*
X159587795Y-65154954D01*
X159582907Y-65154441D01*
X159535002Y-65149744D01*
X159517292Y-65148000D01*
X158860033Y-65148000D01*
X159152149Y-64855884D01*
X159384923Y-64507512D01*
X159545261Y-64120423D01*
X159627000Y-63709491D01*
X159627000Y-63290509D01*
X159585028Y-63079501D01*
X159791383Y-62873146D01*
X159836291Y-62836291D01*
X159983374Y-62657070D01*
X160092667Y-62452597D01*
X160159969Y-62230732D01*
X160177000Y-62057812D01*
X160177000Y-62057803D01*
X160182693Y-62000001D01*
X160177000Y-61942199D01*
X160177000Y-57987528D01*
X160837529Y-57327000D01*
X161179944Y-57327000D01*
X161532916Y-57256789D01*
X161865409Y-57119066D01*
X162164645Y-56919124D01*
X162419124Y-56664645D01*
X162619066Y-56365409D01*
X162756789Y-56032916D01*
X162827000Y-55679944D01*
X162827000Y-55320056D01*
X162756789Y-54967084D01*
X162619066Y-54634591D01*
X162419124Y-54335355D01*
X162164645Y-54080876D01*
X161865409Y-53880934D01*
X161532916Y-53743211D01*
X161179944Y-53673000D01*
X160820056Y-53673000D01*
X160467084Y-53743211D01*
X160134591Y-53880934D01*
X159835355Y-54080876D01*
X159580876Y-54335355D01*
X159380934Y-54634591D01*
X159243211Y-54967084D01*
X159173000Y-55320056D01*
X159173000Y-55662471D01*
X158512472Y-56323000D01*
X158271439Y-56323000D01*
X158258783Y-56194503D01*
X158191550Y-55972865D01*
X158082369Y-55768602D01*
X157935436Y-55589564D01*
X157756398Y-55442631D01*
X157552135Y-55333450D01*
X157330497Y-55266217D01*
X157100001Y-55243515D01*
X156074999Y-55243515D01*
X155844503Y-55266217D01*
X155622865Y-55333450D01*
X155418602Y-55442631D01*
X155239564Y-55589564D01*
X155193718Y-55645428D01*
X155094744Y-55319155D01*
X154827706Y-54819563D01*
X154468334Y-54381666D01*
X154030437Y-54022294D01*
X153530845Y-53755256D01*
X152988755Y-53590815D01*
X152425001Y-53535290D01*
X151399999Y-53535290D01*
X150836245Y-53590815D01*
X150294155Y-53755256D01*
X149794563Y-54022294D01*
X149671852Y-54123000D01*
X148627000Y-54123000D01*
X148627000Y-53352000D01*
X171354198Y-53352000D01*
X171648000Y-53645804D01*
G36*
X144414691Y-79803916D02*
G01*
X144428842Y-79821159D01*
X144446085Y-79835310D01*
X144446088Y-79835313D01*
X144446099Y-79835322D01*
X146514685Y-81903910D01*
X146524650Y-81916052D01*
X146075503Y-81960290D01*
X145620000Y-81960290D01*
X145105018Y-82011011D01*
X144609827Y-82161226D01*
X144153456Y-82405161D01*
X143753443Y-82733443D01*
X143425161Y-83133456D01*
X143181226Y-83589827D01*
X143031011Y-84085018D01*
X143027933Y-84116269D01*
X142821202Y-84323000D01*
X142623656Y-84323000D01*
X142639710Y-84160000D01*
X142639710Y-82760000D01*
X142588989Y-82245018D01*
X142438774Y-81749827D01*
X142194839Y-81293456D01*
X141866557Y-80893443D01*
X141466544Y-80565161D01*
X141117479Y-80378582D01*
X142750000Y-80378582D01*
X142814103Y-80372268D01*
X142875743Y-80353570D01*
X142932550Y-80323206D01*
X142982343Y-80282343D01*
X143023206Y-80232550D01*
X143053570Y-80175743D01*
X143072268Y-80114103D01*
X143078582Y-80050000D01*
X143078582Y-79502000D01*
X144112776Y-79502000D01*
X144414691Y-79803916D01*
G37*
X144414691Y-79803916D02*
X144428842Y-79821159D01*
X144446085Y-79835310D01*
X144446088Y-79835313D01*
X144446099Y-79835322D01*
X146514685Y-81903910D01*
X146524650Y-81916052D01*
X146075503Y-81960290D01*
X145620000Y-81960290D01*
X145105018Y-82011011D01*
X144609827Y-82161226D01*
X144153456Y-82405161D01*
X143753443Y-82733443D01*
X143425161Y-83133456D01*
X143181226Y-83589827D01*
X143031011Y-84085018D01*
X143027933Y-84116269D01*
X142821202Y-84323000D01*
X142623656Y-84323000D01*
X142639710Y-84160000D01*
X142639710Y-82760000D01*
X142588989Y-82245018D01*
X142438774Y-81749827D01*
X142194839Y-81293456D01*
X141866557Y-80893443D01*
X141466544Y-80565161D01*
X141117479Y-80378582D01*
X142750000Y-80378582D01*
X142814103Y-80372268D01*
X142875743Y-80353570D01*
X142932550Y-80323206D01*
X142982343Y-80282343D01*
X143023206Y-80232550D01*
X143053570Y-80175743D01*
X143072268Y-80114103D01*
X143078582Y-80050000D01*
X143078582Y-79502000D01*
X144112776Y-79502000D01*
X144414691Y-79803916D01*
M02*
