G04 #@! TF.GenerationSoftware,KiCad,Pcbnew,(5.1.5)-3*
G04 #@! TF.CreationDate,2021-07-22T12:57:42-03:00*
G04 #@! TF.ProjectId,relayer_hw,72656c61-7965-4725-9f68-772e6b696361,rev?*
G04 #@! TF.SameCoordinates,Original*
G04 #@! TF.FileFunction,Legend,Top*
G04 #@! TF.FilePolarity,Positive*
%FSLAX46Y46*%
G04 Gerber Fmt 4.6, Leading zero omitted, Abs format (unit mm)*
G04 Created by KiCad (PCBNEW (5.1.5)-3) date 2021-07-22 12:57:42*
%MOMM*%
%LPD*%
G04 APERTURE LIST*
%ADD10C,0.153000*%
%ADD11C,0.250000*%
%ADD12C,0.120000*%
%ADD13C,0.010000*%
%ADD14C,0.150000*%
G04 APERTURE END LIST*
D10*
X139964285Y-132657142D02*
X139964285Y-131757142D01*
X140535714Y-132657142D01*
X140535714Y-131757142D01*
X145642857Y-132185714D02*
X145309523Y-132185714D01*
X145309523Y-132657142D02*
X145309523Y-131757142D01*
X145785714Y-131757142D01*
X137742857Y-74202380D02*
X138171428Y-73869047D01*
X137742857Y-73630952D02*
X138642857Y-73630952D01*
X138642857Y-74011904D01*
X138600000Y-74107142D01*
X138557142Y-74154761D01*
X138471428Y-74202380D01*
X138342857Y-74202380D01*
X138257142Y-74154761D01*
X138214285Y-74107142D01*
X138171428Y-74011904D01*
X138171428Y-73630952D01*
X137785714Y-74583333D02*
X137742857Y-74726190D01*
X137742857Y-74964285D01*
X137785714Y-75059523D01*
X137828571Y-75107142D01*
X137914285Y-75154761D01*
X138000000Y-75154761D01*
X138085714Y-75107142D01*
X138128571Y-75059523D01*
X138171428Y-74964285D01*
X138214285Y-74773809D01*
X138257142Y-74678571D01*
X138300000Y-74630952D01*
X138385714Y-74583333D01*
X138471428Y-74583333D01*
X138557142Y-74630952D01*
X138600000Y-74678571D01*
X138642857Y-74773809D01*
X138642857Y-75011904D01*
X138600000Y-75154761D01*
X138642857Y-75440476D02*
X138642857Y-76011904D01*
X137742857Y-75726190D02*
X138642857Y-75726190D01*
X158823809Y-111781904D02*
X158861904Y-111639047D01*
X158861904Y-111400952D01*
X158823809Y-111305714D01*
X158785714Y-111258095D01*
X158709523Y-111210476D01*
X158633333Y-111210476D01*
X158557142Y-111258095D01*
X158519047Y-111305714D01*
X158480952Y-111400952D01*
X158442857Y-111591428D01*
X158404761Y-111686666D01*
X158366666Y-111734285D01*
X158290476Y-111781904D01*
X158214285Y-111781904D01*
X158138095Y-111734285D01*
X158100000Y-111686666D01*
X158061904Y-111591428D01*
X158061904Y-111353333D01*
X158100000Y-111210476D01*
X158061904Y-110877142D02*
X158861904Y-110639047D01*
X158290476Y-110448571D01*
X158861904Y-110258095D01*
X158061904Y-110020000D01*
X158861904Y-109639047D02*
X158061904Y-109639047D01*
X158061904Y-109400952D01*
X158100000Y-109258095D01*
X158176190Y-109162857D01*
X158252380Y-109115238D01*
X158404761Y-109067619D01*
X158519047Y-109067619D01*
X158671428Y-109115238D01*
X158747619Y-109162857D01*
X158823809Y-109258095D01*
X158861904Y-109400952D01*
X158861904Y-109639047D01*
X158785714Y-108067619D02*
X158823809Y-108115238D01*
X158861904Y-108258095D01*
X158861904Y-108353333D01*
X158823809Y-108496190D01*
X158747619Y-108591428D01*
X158671428Y-108639047D01*
X158519047Y-108686666D01*
X158404761Y-108686666D01*
X158252380Y-108639047D01*
X158176190Y-108591428D01*
X158100000Y-108496190D01*
X158061904Y-108353333D01*
X158061904Y-108258095D01*
X158100000Y-108115238D01*
X158138095Y-108067619D01*
X158861904Y-107162857D02*
X158861904Y-107639047D01*
X158061904Y-107639047D01*
X158861904Y-106829523D02*
X158061904Y-106829523D01*
X158861904Y-106258095D02*
X158404761Y-106686666D01*
X158061904Y-106258095D02*
X158519047Y-106829523D01*
X151323809Y-110619047D02*
X151361904Y-110476190D01*
X151361904Y-110238095D01*
X151323809Y-110142857D01*
X151285714Y-110095238D01*
X151209523Y-110047619D01*
X151133333Y-110047619D01*
X151057142Y-110095238D01*
X151019047Y-110142857D01*
X150980952Y-110238095D01*
X150942857Y-110428571D01*
X150904761Y-110523809D01*
X150866666Y-110571428D01*
X150790476Y-110619047D01*
X150714285Y-110619047D01*
X150638095Y-110571428D01*
X150600000Y-110523809D01*
X150561904Y-110428571D01*
X150561904Y-110190476D01*
X150600000Y-110047619D01*
X150561904Y-109714285D02*
X151361904Y-109476190D01*
X150790476Y-109285714D01*
X151361904Y-109095238D01*
X150561904Y-108857142D01*
X151361904Y-108476190D02*
X150561904Y-108476190D01*
X150561904Y-108238095D01*
X150600000Y-108095238D01*
X150676190Y-108000000D01*
X150752380Y-107952380D01*
X150904761Y-107904761D01*
X151019047Y-107904761D01*
X151171428Y-107952380D01*
X151247619Y-108000000D01*
X151323809Y-108095238D01*
X151361904Y-108238095D01*
X151361904Y-108476190D01*
X151361904Y-107476190D02*
X150561904Y-107476190D01*
X150561904Y-106809523D02*
X150561904Y-106619047D01*
X150600000Y-106523809D01*
X150676190Y-106428571D01*
X150828571Y-106380952D01*
X151095238Y-106380952D01*
X151247619Y-106428571D01*
X151323809Y-106523809D01*
X151361904Y-106619047D01*
X151361904Y-106809523D01*
X151323809Y-106904761D01*
X151247619Y-107000000D01*
X151095238Y-107047619D01*
X150828571Y-107047619D01*
X150676190Y-107000000D01*
X150600000Y-106904761D01*
X150561904Y-106809523D01*
X153050000Y-108361904D02*
X153007142Y-108457142D01*
X153007142Y-108600000D01*
X153050000Y-108742857D01*
X153135714Y-108838095D01*
X153221428Y-108885714D01*
X153392857Y-108933333D01*
X153521428Y-108933333D01*
X153692857Y-108885714D01*
X153778571Y-108838095D01*
X153864285Y-108742857D01*
X153907142Y-108600000D01*
X153907142Y-108504761D01*
X153864285Y-108361904D01*
X153821428Y-108314285D01*
X153521428Y-108314285D01*
X153521428Y-108504761D01*
X153907142Y-107885714D02*
X153007142Y-107885714D01*
X153907142Y-107314285D01*
X153007142Y-107314285D01*
X153907142Y-106838095D02*
X153007142Y-106838095D01*
X153007142Y-106600000D01*
X153050000Y-106457142D01*
X153135714Y-106361904D01*
X153221428Y-106314285D01*
X153392857Y-106266666D01*
X153521428Y-106266666D01*
X153692857Y-106314285D01*
X153778571Y-106361904D01*
X153864285Y-106457142D01*
X153907142Y-106600000D01*
X153907142Y-106838095D01*
X155507142Y-108690476D02*
X155507142Y-108071428D01*
X155850000Y-108404761D01*
X155850000Y-108261904D01*
X155892857Y-108166666D01*
X155935714Y-108119047D01*
X156021428Y-108071428D01*
X156235714Y-108071428D01*
X156321428Y-108119047D01*
X156364285Y-108166666D01*
X156407142Y-108261904D01*
X156407142Y-108547619D01*
X156364285Y-108642857D01*
X156321428Y-108690476D01*
X155807142Y-107738095D02*
X156407142Y-107500000D01*
X155807142Y-107261904D01*
X155507142Y-106976190D02*
X155507142Y-106357142D01*
X155850000Y-106690476D01*
X155850000Y-106547619D01*
X155892857Y-106452380D01*
X155935714Y-106404761D01*
X156021428Y-106357142D01*
X156235714Y-106357142D01*
X156321428Y-106404761D01*
X156364285Y-106452380D01*
X156407142Y-106547619D01*
X156407142Y-106833333D01*
X156364285Y-106928571D01*
X156321428Y-106976190D01*
D11*
X132905714Y-61945714D02*
X133762857Y-61345714D01*
X132905714Y-60917142D02*
X134705714Y-60917142D01*
X134705714Y-61602857D01*
X134620000Y-61774285D01*
X134534285Y-61860000D01*
X134362857Y-61945714D01*
X134105714Y-61945714D01*
X133934285Y-61860000D01*
X133848571Y-61774285D01*
X133762857Y-61602857D01*
X133762857Y-60917142D01*
X132991428Y-63402857D02*
X132905714Y-63231428D01*
X132905714Y-62888571D01*
X132991428Y-62717142D01*
X133162857Y-62631428D01*
X133848571Y-62631428D01*
X134020000Y-62717142D01*
X134105714Y-62888571D01*
X134105714Y-63231428D01*
X134020000Y-63402857D01*
X133848571Y-63488571D01*
X133677142Y-63488571D01*
X133505714Y-62631428D01*
X132905714Y-64517142D02*
X132991428Y-64345714D01*
X133162857Y-64260000D01*
X134705714Y-64260000D01*
X132905714Y-65974285D02*
X133848571Y-65974285D01*
X134020000Y-65888571D01*
X134105714Y-65717142D01*
X134105714Y-65374285D01*
X134020000Y-65202857D01*
X132991428Y-65974285D02*
X132905714Y-65802857D01*
X132905714Y-65374285D01*
X132991428Y-65202857D01*
X133162857Y-65117142D01*
X133334285Y-65117142D01*
X133505714Y-65202857D01*
X133591428Y-65374285D01*
X133591428Y-65802857D01*
X133677142Y-65974285D01*
X134105714Y-66660000D02*
X132905714Y-67088571D01*
X134105714Y-67517142D02*
X132905714Y-67088571D01*
X132477142Y-66917142D01*
X132391428Y-66831428D01*
X132305714Y-66660000D01*
X132991428Y-68888571D02*
X132905714Y-68717142D01*
X132905714Y-68374285D01*
X132991428Y-68202857D01*
X133162857Y-68117142D01*
X133848571Y-68117142D01*
X134020000Y-68202857D01*
X134105714Y-68374285D01*
X134105714Y-68717142D01*
X134020000Y-68888571D01*
X133848571Y-68974285D01*
X133677142Y-68974285D01*
X133505714Y-68117142D01*
X132905714Y-69745714D02*
X134105714Y-69745714D01*
X133762857Y-69745714D02*
X133934285Y-69831428D01*
X134020000Y-69917142D01*
X134105714Y-70088571D01*
X134105714Y-70260000D01*
D12*
X155550000Y-56140000D02*
X152950000Y-56140000D01*
X155550000Y-58860000D02*
X152950000Y-58860000D01*
D13*
G36*
X143442224Y-65299878D02*
G01*
X143441645Y-65405612D01*
X143440078Y-65482132D01*
X143437028Y-65534372D01*
X143432004Y-65567263D01*
X143424511Y-65585737D01*
X143414056Y-65594727D01*
X143400147Y-65599163D01*
X143398346Y-65599594D01*
X143365855Y-65606333D01*
X143301748Y-65618808D01*
X143212849Y-65635719D01*
X143105981Y-65655771D01*
X142987967Y-65677664D01*
X142983822Y-65678429D01*
X142868169Y-65700359D01*
X142765986Y-65720877D01*
X142683402Y-65738659D01*
X142626544Y-65752381D01*
X142601542Y-65760718D01*
X142601099Y-65761116D01*
X142588890Y-65785677D01*
X142568544Y-65836315D01*
X142544455Y-65902095D01*
X142544326Y-65902461D01*
X142513182Y-65985317D01*
X142473509Y-66083000D01*
X142433619Y-66175077D01*
X142431647Y-66179434D01*
X142363580Y-66329407D01*
X142590361Y-66661498D01*
X142659496Y-66763374D01*
X142721303Y-66855657D01*
X142772267Y-66933003D01*
X142808873Y-66990064D01*
X142827606Y-67021495D01*
X142828996Y-67024479D01*
X142822810Y-67047321D01*
X142792965Y-67089982D01*
X142738053Y-67154128D01*
X142656666Y-67241421D01*
X142570078Y-67330535D01*
X142484753Y-67416441D01*
X142406892Y-67493327D01*
X142341303Y-67556564D01*
X142292795Y-67601523D01*
X142266175Y-67623576D01*
X142264805Y-67624396D01*
X142246537Y-67626834D01*
X142216705Y-67617650D01*
X142171279Y-67594574D01*
X142106230Y-67555337D01*
X142017530Y-67497670D01*
X141903343Y-67420795D01*
X141802838Y-67352570D01*
X141712697Y-67291582D01*
X141638151Y-67241356D01*
X141584435Y-67205416D01*
X141556782Y-67187287D01*
X141554905Y-67186146D01*
X141528410Y-67188359D01*
X141476914Y-67205138D01*
X141410149Y-67233142D01*
X141388828Y-67243122D01*
X141293841Y-67286672D01*
X141186063Y-67333134D01*
X141092808Y-67370877D01*
X141023594Y-67398073D01*
X140970994Y-67419675D01*
X140943503Y-67432158D01*
X140941384Y-67433709D01*
X140937876Y-67456668D01*
X140928262Y-67510786D01*
X140913911Y-67588868D01*
X140896193Y-67683719D01*
X140876475Y-67788143D01*
X140856126Y-67894944D01*
X140836514Y-67996926D01*
X140819009Y-68086894D01*
X140804978Y-68157653D01*
X140795791Y-68202006D01*
X140793193Y-68212885D01*
X140786782Y-68224122D01*
X140772303Y-68232605D01*
X140744867Y-68238714D01*
X140699589Y-68242832D01*
X140631580Y-68245341D01*
X140535953Y-68246621D01*
X140407820Y-68247054D01*
X140355299Y-68247077D01*
X139928155Y-68247077D01*
X139907909Y-68144500D01*
X139896930Y-68087431D01*
X139880905Y-68002269D01*
X139861767Y-67899372D01*
X139841449Y-67789096D01*
X139835868Y-67758615D01*
X139816083Y-67656855D01*
X139796627Y-67568205D01*
X139779303Y-67500108D01*
X139765912Y-67460004D01*
X139761921Y-67453323D01*
X139733658Y-67436919D01*
X139678891Y-67413399D01*
X139608412Y-67387316D01*
X139593231Y-67382142D01*
X139499104Y-67347956D01*
X139392899Y-67305523D01*
X139297527Y-67263997D01*
X139297084Y-67263792D01*
X139147475Y-67194640D01*
X138478383Y-67649512D01*
X138185884Y-67357500D01*
X138098830Y-67269180D01*
X138022091Y-67188625D01*
X137959763Y-67120360D01*
X137915944Y-67068908D01*
X137894730Y-67038794D01*
X137893384Y-67034474D01*
X137903984Y-67009111D01*
X137933453Y-66957358D01*
X137978295Y-66884868D01*
X138035016Y-66797294D01*
X138098538Y-66702612D01*
X138163332Y-66606516D01*
X138219713Y-66520837D01*
X138264212Y-66451016D01*
X138293361Y-66402494D01*
X138303692Y-66380782D01*
X138294950Y-66354293D01*
X138271913Y-66304062D01*
X138239369Y-66240451D01*
X138235751Y-66233708D01*
X138192790Y-66148046D01*
X138171721Y-66089306D01*
X138171497Y-66052772D01*
X138191072Y-66033731D01*
X138191346Y-66033620D01*
X138214528Y-66024102D01*
X138269559Y-66001403D01*
X138352178Y-65967282D01*
X138458128Y-65923500D01*
X138583148Y-65871816D01*
X138722980Y-65813992D01*
X138858363Y-65757991D01*
X139007766Y-65696447D01*
X139146168Y-65639939D01*
X139269327Y-65590161D01*
X139372998Y-65548806D01*
X139452941Y-65517568D01*
X139504912Y-65498141D01*
X139524308Y-65492154D01*
X139546557Y-65507168D01*
X139582018Y-65546439D01*
X139621113Y-65598807D01*
X139744755Y-65747941D01*
X139886478Y-65864511D01*
X140043296Y-65947118D01*
X140212225Y-65994366D01*
X140390278Y-66004857D01*
X140472461Y-65997231D01*
X140642969Y-65955682D01*
X140793541Y-65884123D01*
X140922691Y-65786995D01*
X141028936Y-65668734D01*
X141110790Y-65533780D01*
X141166768Y-65386571D01*
X141195385Y-65231544D01*
X141195156Y-65073139D01*
X141164595Y-64915794D01*
X141102218Y-64763946D01*
X141006540Y-64622035D01*
X140952428Y-64562803D01*
X140813480Y-64449203D01*
X140661639Y-64370106D01*
X140501333Y-64324986D01*
X140336988Y-64313316D01*
X140173029Y-64334569D01*
X140013882Y-64388220D01*
X139863975Y-64473740D01*
X139727733Y-64590605D01*
X139621113Y-64721193D01*
X139580358Y-64775588D01*
X139545282Y-64814014D01*
X139524274Y-64827846D01*
X139501365Y-64820603D01*
X139446635Y-64800005D01*
X139364328Y-64767746D01*
X139258685Y-64725521D01*
X139133950Y-64675023D01*
X138994364Y-64617948D01*
X138858330Y-64561854D01*
X138708799Y-64499967D01*
X138570233Y-64442644D01*
X138446893Y-64391644D01*
X138343036Y-64348727D01*
X138262920Y-64315653D01*
X138210805Y-64294181D01*
X138191346Y-64286225D01*
X138171577Y-64267429D01*
X138171635Y-64231074D01*
X138192559Y-64172479D01*
X138235387Y-64086968D01*
X138235751Y-64086292D01*
X138268988Y-64021907D01*
X138293198Y-63969861D01*
X138303596Y-63940512D01*
X138303692Y-63939217D01*
X138293145Y-63917124D01*
X138263816Y-63868348D01*
X138219173Y-63798331D01*
X138162686Y-63712514D01*
X138098538Y-63617388D01*
X138033589Y-63520540D01*
X137977104Y-63433253D01*
X137932579Y-63361181D01*
X137903510Y-63309977D01*
X137893384Y-63285526D01*
X137906693Y-63263010D01*
X137943888Y-63217742D01*
X138000872Y-63154244D01*
X138073551Y-63077039D01*
X138157829Y-62990651D01*
X138185984Y-62962399D01*
X138478584Y-62670287D01*
X138804896Y-62892631D01*
X138905103Y-62960202D01*
X138995037Y-63019507D01*
X139069490Y-63067217D01*
X139123249Y-63100007D01*
X139151106Y-63114548D01*
X139153088Y-63114974D01*
X139179345Y-63107308D01*
X139232163Y-63086689D01*
X139302690Y-63056685D01*
X139349907Y-63035625D01*
X139440306Y-62996248D01*
X139531634Y-62959165D01*
X139608800Y-62930415D01*
X139632308Y-62922605D01*
X139695084Y-62900417D01*
X139743589Y-62878727D01*
X139761921Y-62866813D01*
X139773141Y-62840523D01*
X139789046Y-62783142D01*
X139807833Y-62702118D01*
X139827701Y-62604895D01*
X139835868Y-62561385D01*
X139856171Y-62450896D01*
X139875830Y-62344916D01*
X139892912Y-62253801D01*
X139905482Y-62187908D01*
X139907909Y-62175500D01*
X139928155Y-62072923D01*
X140355299Y-62072923D01*
X140495754Y-62073153D01*
X140602021Y-62074099D01*
X140678987Y-62076141D01*
X140731540Y-62079662D01*
X140764567Y-62085043D01*
X140782955Y-62092666D01*
X140791592Y-62102912D01*
X140793193Y-62107115D01*
X140798873Y-62132470D01*
X140810205Y-62188484D01*
X140825821Y-62267964D01*
X140844353Y-62363712D01*
X140864431Y-62468533D01*
X140884688Y-62575232D01*
X140903754Y-62676613D01*
X140920261Y-62765479D01*
X140932841Y-62834637D01*
X140940125Y-62876889D01*
X140941384Y-62886290D01*
X140958237Y-62894807D01*
X141003130Y-62913660D01*
X141067570Y-62939324D01*
X141092808Y-62949123D01*
X141190314Y-62988648D01*
X141298041Y-63035192D01*
X141388828Y-63076877D01*
X141458247Y-63107550D01*
X141515290Y-63127956D01*
X141550223Y-63134768D01*
X141554905Y-63133682D01*
X141577009Y-63119285D01*
X141626169Y-63086412D01*
X141697152Y-63038590D01*
X141784722Y-62979348D01*
X141883643Y-62912215D01*
X141903170Y-62898941D01*
X142018860Y-62821046D01*
X142106956Y-62763787D01*
X142171514Y-62724881D01*
X142216589Y-62702044D01*
X142246237Y-62692994D01*
X142264515Y-62695448D01*
X142264631Y-62695511D01*
X142288639Y-62714827D01*
X142335053Y-62757551D01*
X142399063Y-62819051D01*
X142475855Y-62894698D01*
X142560618Y-62979861D01*
X142570078Y-62989465D01*
X142674011Y-63096790D01*
X142750325Y-63179615D01*
X142800429Y-63239605D01*
X142825730Y-63278423D01*
X142828996Y-63295520D01*
X142814750Y-63320473D01*
X142781844Y-63372255D01*
X142733792Y-63445520D01*
X142674110Y-63534920D01*
X142606312Y-63635111D01*
X142590361Y-63658501D01*
X142363580Y-63990593D01*
X142431647Y-64140565D01*
X142471315Y-64231770D01*
X142511209Y-64329669D01*
X142543017Y-64413831D01*
X142544326Y-64417538D01*
X142568424Y-64483369D01*
X142588800Y-64534116D01*
X142601064Y-64558842D01*
X142601099Y-64558884D01*
X142623266Y-64566729D01*
X142677783Y-64580066D01*
X142758520Y-64597570D01*
X142859350Y-64617917D01*
X142974144Y-64639782D01*
X142983822Y-64641571D01*
X143102096Y-64663504D01*
X143209458Y-64683640D01*
X143299083Y-64700680D01*
X143364149Y-64713328D01*
X143397832Y-64720284D01*
X143398346Y-64720406D01*
X143412675Y-64724639D01*
X143423493Y-64732871D01*
X143431294Y-64750033D01*
X143436571Y-64781058D01*
X143439818Y-64830878D01*
X143441528Y-64904424D01*
X143442193Y-65006629D01*
X143442307Y-65142425D01*
X143442308Y-65160000D01*
X143442224Y-65299878D01*
G37*
X143442224Y-65299878D02*
X143441645Y-65405612D01*
X143440078Y-65482132D01*
X143437028Y-65534372D01*
X143432004Y-65567263D01*
X143424511Y-65585737D01*
X143414056Y-65594727D01*
X143400147Y-65599163D01*
X143398346Y-65599594D01*
X143365855Y-65606333D01*
X143301748Y-65618808D01*
X143212849Y-65635719D01*
X143105981Y-65655771D01*
X142987967Y-65677664D01*
X142983822Y-65678429D01*
X142868169Y-65700359D01*
X142765986Y-65720877D01*
X142683402Y-65738659D01*
X142626544Y-65752381D01*
X142601542Y-65760718D01*
X142601099Y-65761116D01*
X142588890Y-65785677D01*
X142568544Y-65836315D01*
X142544455Y-65902095D01*
X142544326Y-65902461D01*
X142513182Y-65985317D01*
X142473509Y-66083000D01*
X142433619Y-66175077D01*
X142431647Y-66179434D01*
X142363580Y-66329407D01*
X142590361Y-66661498D01*
X142659496Y-66763374D01*
X142721303Y-66855657D01*
X142772267Y-66933003D01*
X142808873Y-66990064D01*
X142827606Y-67021495D01*
X142828996Y-67024479D01*
X142822810Y-67047321D01*
X142792965Y-67089982D01*
X142738053Y-67154128D01*
X142656666Y-67241421D01*
X142570078Y-67330535D01*
X142484753Y-67416441D01*
X142406892Y-67493327D01*
X142341303Y-67556564D01*
X142292795Y-67601523D01*
X142266175Y-67623576D01*
X142264805Y-67624396D01*
X142246537Y-67626834D01*
X142216705Y-67617650D01*
X142171279Y-67594574D01*
X142106230Y-67555337D01*
X142017530Y-67497670D01*
X141903343Y-67420795D01*
X141802838Y-67352570D01*
X141712697Y-67291582D01*
X141638151Y-67241356D01*
X141584435Y-67205416D01*
X141556782Y-67187287D01*
X141554905Y-67186146D01*
X141528410Y-67188359D01*
X141476914Y-67205138D01*
X141410149Y-67233142D01*
X141388828Y-67243122D01*
X141293841Y-67286672D01*
X141186063Y-67333134D01*
X141092808Y-67370877D01*
X141023594Y-67398073D01*
X140970994Y-67419675D01*
X140943503Y-67432158D01*
X140941384Y-67433709D01*
X140937876Y-67456668D01*
X140928262Y-67510786D01*
X140913911Y-67588868D01*
X140896193Y-67683719D01*
X140876475Y-67788143D01*
X140856126Y-67894944D01*
X140836514Y-67996926D01*
X140819009Y-68086894D01*
X140804978Y-68157653D01*
X140795791Y-68202006D01*
X140793193Y-68212885D01*
X140786782Y-68224122D01*
X140772303Y-68232605D01*
X140744867Y-68238714D01*
X140699589Y-68242832D01*
X140631580Y-68245341D01*
X140535953Y-68246621D01*
X140407820Y-68247054D01*
X140355299Y-68247077D01*
X139928155Y-68247077D01*
X139907909Y-68144500D01*
X139896930Y-68087431D01*
X139880905Y-68002269D01*
X139861767Y-67899372D01*
X139841449Y-67789096D01*
X139835868Y-67758615D01*
X139816083Y-67656855D01*
X139796627Y-67568205D01*
X139779303Y-67500108D01*
X139765912Y-67460004D01*
X139761921Y-67453323D01*
X139733658Y-67436919D01*
X139678891Y-67413399D01*
X139608412Y-67387316D01*
X139593231Y-67382142D01*
X139499104Y-67347956D01*
X139392899Y-67305523D01*
X139297527Y-67263997D01*
X139297084Y-67263792D01*
X139147475Y-67194640D01*
X138478383Y-67649512D01*
X138185884Y-67357500D01*
X138098830Y-67269180D01*
X138022091Y-67188625D01*
X137959763Y-67120360D01*
X137915944Y-67068908D01*
X137894730Y-67038794D01*
X137893384Y-67034474D01*
X137903984Y-67009111D01*
X137933453Y-66957358D01*
X137978295Y-66884868D01*
X138035016Y-66797294D01*
X138098538Y-66702612D01*
X138163332Y-66606516D01*
X138219713Y-66520837D01*
X138264212Y-66451016D01*
X138293361Y-66402494D01*
X138303692Y-66380782D01*
X138294950Y-66354293D01*
X138271913Y-66304062D01*
X138239369Y-66240451D01*
X138235751Y-66233708D01*
X138192790Y-66148046D01*
X138171721Y-66089306D01*
X138171497Y-66052772D01*
X138191072Y-66033731D01*
X138191346Y-66033620D01*
X138214528Y-66024102D01*
X138269559Y-66001403D01*
X138352178Y-65967282D01*
X138458128Y-65923500D01*
X138583148Y-65871816D01*
X138722980Y-65813992D01*
X138858363Y-65757991D01*
X139007766Y-65696447D01*
X139146168Y-65639939D01*
X139269327Y-65590161D01*
X139372998Y-65548806D01*
X139452941Y-65517568D01*
X139504912Y-65498141D01*
X139524308Y-65492154D01*
X139546557Y-65507168D01*
X139582018Y-65546439D01*
X139621113Y-65598807D01*
X139744755Y-65747941D01*
X139886478Y-65864511D01*
X140043296Y-65947118D01*
X140212225Y-65994366D01*
X140390278Y-66004857D01*
X140472461Y-65997231D01*
X140642969Y-65955682D01*
X140793541Y-65884123D01*
X140922691Y-65786995D01*
X141028936Y-65668734D01*
X141110790Y-65533780D01*
X141166768Y-65386571D01*
X141195385Y-65231544D01*
X141195156Y-65073139D01*
X141164595Y-64915794D01*
X141102218Y-64763946D01*
X141006540Y-64622035D01*
X140952428Y-64562803D01*
X140813480Y-64449203D01*
X140661639Y-64370106D01*
X140501333Y-64324986D01*
X140336988Y-64313316D01*
X140173029Y-64334569D01*
X140013882Y-64388220D01*
X139863975Y-64473740D01*
X139727733Y-64590605D01*
X139621113Y-64721193D01*
X139580358Y-64775588D01*
X139545282Y-64814014D01*
X139524274Y-64827846D01*
X139501365Y-64820603D01*
X139446635Y-64800005D01*
X139364328Y-64767746D01*
X139258685Y-64725521D01*
X139133950Y-64675023D01*
X138994364Y-64617948D01*
X138858330Y-64561854D01*
X138708799Y-64499967D01*
X138570233Y-64442644D01*
X138446893Y-64391644D01*
X138343036Y-64348727D01*
X138262920Y-64315653D01*
X138210805Y-64294181D01*
X138191346Y-64286225D01*
X138171577Y-64267429D01*
X138171635Y-64231074D01*
X138192559Y-64172479D01*
X138235387Y-64086968D01*
X138235751Y-64086292D01*
X138268988Y-64021907D01*
X138293198Y-63969861D01*
X138303596Y-63940512D01*
X138303692Y-63939217D01*
X138293145Y-63917124D01*
X138263816Y-63868348D01*
X138219173Y-63798331D01*
X138162686Y-63712514D01*
X138098538Y-63617388D01*
X138033589Y-63520540D01*
X137977104Y-63433253D01*
X137932579Y-63361181D01*
X137903510Y-63309977D01*
X137893384Y-63285526D01*
X137906693Y-63263010D01*
X137943888Y-63217742D01*
X138000872Y-63154244D01*
X138073551Y-63077039D01*
X138157829Y-62990651D01*
X138185984Y-62962399D01*
X138478584Y-62670287D01*
X138804896Y-62892631D01*
X138905103Y-62960202D01*
X138995037Y-63019507D01*
X139069490Y-63067217D01*
X139123249Y-63100007D01*
X139151106Y-63114548D01*
X139153088Y-63114974D01*
X139179345Y-63107308D01*
X139232163Y-63086689D01*
X139302690Y-63056685D01*
X139349907Y-63035625D01*
X139440306Y-62996248D01*
X139531634Y-62959165D01*
X139608800Y-62930415D01*
X139632308Y-62922605D01*
X139695084Y-62900417D01*
X139743589Y-62878727D01*
X139761921Y-62866813D01*
X139773141Y-62840523D01*
X139789046Y-62783142D01*
X139807833Y-62702118D01*
X139827701Y-62604895D01*
X139835868Y-62561385D01*
X139856171Y-62450896D01*
X139875830Y-62344916D01*
X139892912Y-62253801D01*
X139905482Y-62187908D01*
X139907909Y-62175500D01*
X139928155Y-62072923D01*
X140355299Y-62072923D01*
X140495754Y-62073153D01*
X140602021Y-62074099D01*
X140678987Y-62076141D01*
X140731540Y-62079662D01*
X140764567Y-62085043D01*
X140782955Y-62092666D01*
X140791592Y-62102912D01*
X140793193Y-62107115D01*
X140798873Y-62132470D01*
X140810205Y-62188484D01*
X140825821Y-62267964D01*
X140844353Y-62363712D01*
X140864431Y-62468533D01*
X140884688Y-62575232D01*
X140903754Y-62676613D01*
X140920261Y-62765479D01*
X140932841Y-62834637D01*
X140940125Y-62876889D01*
X140941384Y-62886290D01*
X140958237Y-62894807D01*
X141003130Y-62913660D01*
X141067570Y-62939324D01*
X141092808Y-62949123D01*
X141190314Y-62988648D01*
X141298041Y-63035192D01*
X141388828Y-63076877D01*
X141458247Y-63107550D01*
X141515290Y-63127956D01*
X141550223Y-63134768D01*
X141554905Y-63133682D01*
X141577009Y-63119285D01*
X141626169Y-63086412D01*
X141697152Y-63038590D01*
X141784722Y-62979348D01*
X141883643Y-62912215D01*
X141903170Y-62898941D01*
X142018860Y-62821046D01*
X142106956Y-62763787D01*
X142171514Y-62724881D01*
X142216589Y-62702044D01*
X142246237Y-62692994D01*
X142264515Y-62695448D01*
X142264631Y-62695511D01*
X142288639Y-62714827D01*
X142335053Y-62757551D01*
X142399063Y-62819051D01*
X142475855Y-62894698D01*
X142560618Y-62979861D01*
X142570078Y-62989465D01*
X142674011Y-63096790D01*
X142750325Y-63179615D01*
X142800429Y-63239605D01*
X142825730Y-63278423D01*
X142828996Y-63295520D01*
X142814750Y-63320473D01*
X142781844Y-63372255D01*
X142733792Y-63445520D01*
X142674110Y-63534920D01*
X142606312Y-63635111D01*
X142590361Y-63658501D01*
X142363580Y-63990593D01*
X142431647Y-64140565D01*
X142471315Y-64231770D01*
X142511209Y-64329669D01*
X142543017Y-64413831D01*
X142544326Y-64417538D01*
X142568424Y-64483369D01*
X142588800Y-64534116D01*
X142601064Y-64558842D01*
X142601099Y-64558884D01*
X142623266Y-64566729D01*
X142677783Y-64580066D01*
X142758520Y-64597570D01*
X142859350Y-64617917D01*
X142974144Y-64639782D01*
X142983822Y-64641571D01*
X143102096Y-64663504D01*
X143209458Y-64683640D01*
X143299083Y-64700680D01*
X143364149Y-64713328D01*
X143397832Y-64720284D01*
X143398346Y-64720406D01*
X143412675Y-64724639D01*
X143423493Y-64732871D01*
X143431294Y-64750033D01*
X143436571Y-64781058D01*
X143439818Y-64830878D01*
X143441528Y-64904424D01*
X143442193Y-65006629D01*
X143442307Y-65142425D01*
X143442308Y-65160000D01*
X143442224Y-65299878D01*
G36*
X137082162Y-69405224D02*
G01*
X137031639Y-69482528D01*
X136986410Y-69519814D01*
X136904337Y-69549353D01*
X136839393Y-69551699D01*
X136752555Y-69546385D01*
X136664897Y-69346115D01*
X136620113Y-69248739D01*
X136584087Y-69185113D01*
X136552883Y-69152029D01*
X136522564Y-69146280D01*
X136489195Y-69164658D01*
X136467077Y-69184923D01*
X136431607Y-69243889D01*
X136429121Y-69308024D01*
X136456765Y-69366926D01*
X136511680Y-69410197D01*
X136531072Y-69417936D01*
X136591636Y-69455006D01*
X136617448Y-69497654D01*
X136639529Y-69556154D01*
X136555816Y-69556154D01*
X136498850Y-69550982D01*
X136450811Y-69530723D01*
X136395654Y-69488262D01*
X136388486Y-69481951D01*
X136339415Y-69434720D01*
X136313080Y-69394121D01*
X136300965Y-69343328D01*
X136296997Y-69301220D01*
X136296009Y-69225902D01*
X136308534Y-69172286D01*
X136327131Y-69138838D01*
X136368025Y-69086268D01*
X136412252Y-69049879D01*
X136467874Y-69026850D01*
X136542953Y-69014359D01*
X136645551Y-69009587D01*
X136697624Y-69009206D01*
X136760052Y-69010501D01*
X136760052Y-69128471D01*
X136726562Y-69129839D01*
X136721077Y-69133249D01*
X136728528Y-69155753D01*
X136748247Y-69204182D01*
X136776282Y-69268908D01*
X136782308Y-69282443D01*
X136823904Y-69364244D01*
X136860462Y-69409312D01*
X136894704Y-69419217D01*
X136929352Y-69395526D01*
X136944661Y-69375960D01*
X136975279Y-69305360D01*
X136970220Y-69239280D01*
X136932849Y-69183959D01*
X136866527Y-69145636D01*
X136813884Y-69133349D01*
X136760052Y-69128471D01*
X136760052Y-69010501D01*
X136819280Y-69011730D01*
X136909290Y-69021032D01*
X136974833Y-69039460D01*
X137023088Y-69069360D01*
X137061233Y-69113080D01*
X137073560Y-69132141D01*
X137105664Y-69218726D01*
X137107684Y-69313522D01*
X137082162Y-69405224D01*
G37*
X137082162Y-69405224D02*
X137031639Y-69482528D01*
X136986410Y-69519814D01*
X136904337Y-69549353D01*
X136839393Y-69551699D01*
X136752555Y-69546385D01*
X136664897Y-69346115D01*
X136620113Y-69248739D01*
X136584087Y-69185113D01*
X136552883Y-69152029D01*
X136522564Y-69146280D01*
X136489195Y-69164658D01*
X136467077Y-69184923D01*
X136431607Y-69243889D01*
X136429121Y-69308024D01*
X136456765Y-69366926D01*
X136511680Y-69410197D01*
X136531072Y-69417936D01*
X136591636Y-69455006D01*
X136617448Y-69497654D01*
X136639529Y-69556154D01*
X136555816Y-69556154D01*
X136498850Y-69550982D01*
X136450811Y-69530723D01*
X136395654Y-69488262D01*
X136388486Y-69481951D01*
X136339415Y-69434720D01*
X136313080Y-69394121D01*
X136300965Y-69343328D01*
X136296997Y-69301220D01*
X136296009Y-69225902D01*
X136308534Y-69172286D01*
X136327131Y-69138838D01*
X136368025Y-69086268D01*
X136412252Y-69049879D01*
X136467874Y-69026850D01*
X136542953Y-69014359D01*
X136645551Y-69009587D01*
X136697624Y-69009206D01*
X136760052Y-69010501D01*
X136760052Y-69128471D01*
X136726562Y-69129839D01*
X136721077Y-69133249D01*
X136728528Y-69155753D01*
X136748247Y-69204182D01*
X136776282Y-69268908D01*
X136782308Y-69282443D01*
X136823904Y-69364244D01*
X136860462Y-69409312D01*
X136894704Y-69419217D01*
X136929352Y-69395526D01*
X136944661Y-69375960D01*
X136975279Y-69305360D01*
X136970220Y-69239280D01*
X136932849Y-69183959D01*
X136866527Y-69145636D01*
X136813884Y-69133349D01*
X136760052Y-69128471D01*
X136760052Y-69010501D01*
X136819280Y-69011730D01*
X136909290Y-69021032D01*
X136974833Y-69039460D01*
X137023088Y-69069360D01*
X137061233Y-69113080D01*
X137073560Y-69132141D01*
X137105664Y-69218726D01*
X137107684Y-69313522D01*
X137082162Y-69405224D01*
G36*
X137093218Y-68730807D02*
G01*
X137083012Y-68754161D01*
X137038866Y-68809902D01*
X136975033Y-68857569D01*
X136906913Y-68887048D01*
X136873330Y-68891846D01*
X136826444Y-68875760D01*
X136801635Y-68840475D01*
X136786613Y-68802644D01*
X136783845Y-68785321D01*
X136803934Y-68776886D01*
X136847649Y-68760230D01*
X136867402Y-68752923D01*
X136935729Y-68711948D01*
X136969809Y-68652622D01*
X136968761Y-68576552D01*
X136967419Y-68570918D01*
X136948164Y-68530305D01*
X136910625Y-68500448D01*
X136850191Y-68480055D01*
X136762249Y-68467836D01*
X136642187Y-68462500D01*
X136578302Y-68462000D01*
X136477597Y-68461752D01*
X136408946Y-68460126D01*
X136365327Y-68455801D01*
X136339718Y-68447454D01*
X136325097Y-68433765D01*
X136314442Y-68413411D01*
X136313905Y-68412234D01*
X136297333Y-68373038D01*
X136291231Y-68353619D01*
X136309681Y-68350635D01*
X136360677Y-68348081D01*
X136437692Y-68346140D01*
X136534195Y-68344997D01*
X136604816Y-68344769D01*
X136741475Y-68345932D01*
X136845149Y-68350479D01*
X136921892Y-68359999D01*
X136977754Y-68376081D01*
X137018788Y-68400313D01*
X137051046Y-68434286D01*
X137073560Y-68467833D01*
X137103524Y-68548499D01*
X137110282Y-68642381D01*
X137093218Y-68730807D01*
G37*
X137093218Y-68730807D02*
X137083012Y-68754161D01*
X137038866Y-68809902D01*
X136975033Y-68857569D01*
X136906913Y-68887048D01*
X136873330Y-68891846D01*
X136826444Y-68875760D01*
X136801635Y-68840475D01*
X136786613Y-68802644D01*
X136783845Y-68785321D01*
X136803934Y-68776886D01*
X136847649Y-68760230D01*
X136867402Y-68752923D01*
X136935729Y-68711948D01*
X136969809Y-68652622D01*
X136968761Y-68576552D01*
X136967419Y-68570918D01*
X136948164Y-68530305D01*
X136910625Y-68500448D01*
X136850191Y-68480055D01*
X136762249Y-68467836D01*
X136642187Y-68462500D01*
X136578302Y-68462000D01*
X136477597Y-68461752D01*
X136408946Y-68460126D01*
X136365327Y-68455801D01*
X136339718Y-68447454D01*
X136325097Y-68433765D01*
X136314442Y-68413411D01*
X136313905Y-68412234D01*
X136297333Y-68373038D01*
X136291231Y-68353619D01*
X136309681Y-68350635D01*
X136360677Y-68348081D01*
X136437692Y-68346140D01*
X136534195Y-68344997D01*
X136604816Y-68344769D01*
X136741475Y-68345932D01*
X136845149Y-68350479D01*
X136921892Y-68359999D01*
X136977754Y-68376081D01*
X137018788Y-68400313D01*
X137051046Y-68434286D01*
X137073560Y-68467833D01*
X137103524Y-68548499D01*
X137110282Y-68642381D01*
X137093218Y-68730807D01*
G36*
X137096472Y-68047333D02*
G01*
X137070883Y-68103590D01*
X137039876Y-68147747D01*
X137005205Y-68180101D01*
X136960480Y-68202438D01*
X136899308Y-68216546D01*
X136815299Y-68224211D01*
X136702060Y-68227220D01*
X136627491Y-68227538D01*
X136336580Y-68227538D01*
X136313905Y-68177773D01*
X136297333Y-68138576D01*
X136291231Y-68119157D01*
X136309390Y-68115442D01*
X136358352Y-68112495D01*
X136429847Y-68110691D01*
X136486615Y-68110308D01*
X136568629Y-68108661D01*
X136633691Y-68104222D01*
X136673533Y-68097740D01*
X136682000Y-68092590D01*
X136673354Y-68057977D01*
X136651177Y-68003640D01*
X136621114Y-67940722D01*
X136588808Y-67880368D01*
X136559902Y-67833721D01*
X136540039Y-67811926D01*
X136539825Y-67811839D01*
X136503065Y-67813714D01*
X136467974Y-67830525D01*
X136439472Y-67860039D01*
X136429939Y-67903116D01*
X136431050Y-67939932D01*
X136431867Y-67992074D01*
X136419651Y-68019444D01*
X136387376Y-68035882D01*
X136381290Y-68037955D01*
X136335261Y-68045081D01*
X136307313Y-68026024D01*
X136293993Y-67976353D01*
X136291530Y-67922697D01*
X136309790Y-67826142D01*
X136335869Y-67776159D01*
X136397132Y-67714429D01*
X136472330Y-67681690D01*
X136551789Y-67678753D01*
X136625833Y-67706424D01*
X136672231Y-67748047D01*
X136698207Y-67789604D01*
X136731093Y-67854922D01*
X136764443Y-67931038D01*
X136769539Y-67943726D01*
X136806435Y-68027333D01*
X136838954Y-68075530D01*
X136871282Y-68091030D01*
X136907606Y-68076550D01*
X136936000Y-68051692D01*
X136970961Y-67992939D01*
X136973583Y-67928293D01*
X136946642Y-67869008D01*
X136892912Y-67826339D01*
X136879050Y-67820739D01*
X136828064Y-67788133D01*
X136790213Y-67740530D01*
X136759150Y-67680461D01*
X136847232Y-67680461D01*
X136901049Y-67683997D01*
X136943466Y-67699156D01*
X136988721Y-67732768D01*
X137023580Y-67765035D01*
X137072938Y-67815209D01*
X137099453Y-67854193D01*
X137110089Y-67896064D01*
X137111846Y-67943460D01*
X137096472Y-68047333D01*
G37*
X137096472Y-68047333D02*
X137070883Y-68103590D01*
X137039876Y-68147747D01*
X137005205Y-68180101D01*
X136960480Y-68202438D01*
X136899308Y-68216546D01*
X136815299Y-68224211D01*
X136702060Y-68227220D01*
X136627491Y-68227538D01*
X136336580Y-68227538D01*
X136313905Y-68177773D01*
X136297333Y-68138576D01*
X136291231Y-68119157D01*
X136309390Y-68115442D01*
X136358352Y-68112495D01*
X136429847Y-68110691D01*
X136486615Y-68110308D01*
X136568629Y-68108661D01*
X136633691Y-68104222D01*
X136673533Y-68097740D01*
X136682000Y-68092590D01*
X136673354Y-68057977D01*
X136651177Y-68003640D01*
X136621114Y-67940722D01*
X136588808Y-67880368D01*
X136559902Y-67833721D01*
X136540039Y-67811926D01*
X136539825Y-67811839D01*
X136503065Y-67813714D01*
X136467974Y-67830525D01*
X136439472Y-67860039D01*
X136429939Y-67903116D01*
X136431050Y-67939932D01*
X136431867Y-67992074D01*
X136419651Y-68019444D01*
X136387376Y-68035882D01*
X136381290Y-68037955D01*
X136335261Y-68045081D01*
X136307313Y-68026024D01*
X136293993Y-67976353D01*
X136291530Y-67922697D01*
X136309790Y-67826142D01*
X136335869Y-67776159D01*
X136397132Y-67714429D01*
X136472330Y-67681690D01*
X136551789Y-67678753D01*
X136625833Y-67706424D01*
X136672231Y-67748047D01*
X136698207Y-67789604D01*
X136731093Y-67854922D01*
X136764443Y-67931038D01*
X136769539Y-67943726D01*
X136806435Y-68027333D01*
X136838954Y-68075530D01*
X136871282Y-68091030D01*
X136907606Y-68076550D01*
X136936000Y-68051692D01*
X136970961Y-67992939D01*
X136973583Y-67928293D01*
X136946642Y-67869008D01*
X136892912Y-67826339D01*
X136879050Y-67820739D01*
X136828064Y-67788133D01*
X136790213Y-67740530D01*
X136759150Y-67680461D01*
X136847232Y-67680461D01*
X136901049Y-67683997D01*
X136943466Y-67699156D01*
X136988721Y-67732768D01*
X137023580Y-67765035D01*
X137072938Y-67815209D01*
X137099453Y-67854193D01*
X137110089Y-67896064D01*
X137111846Y-67943460D01*
X137096472Y-68047333D01*
G36*
X137093338Y-67555929D02*
G01*
X137041932Y-67558911D01*
X136963808Y-67561247D01*
X136865143Y-67562749D01*
X136761657Y-67563231D01*
X136411467Y-67563231D01*
X136349637Y-67501401D01*
X136311538Y-67458793D01*
X136296105Y-67421390D01*
X136297082Y-67370270D01*
X136299567Y-67349978D01*
X136306800Y-67286554D01*
X136310945Y-67234095D01*
X136311328Y-67221308D01*
X136308824Y-67178199D01*
X136302538Y-67116544D01*
X136299567Y-67092638D01*
X136294972Y-67033922D01*
X136304954Y-66994464D01*
X136335772Y-66955338D01*
X136349637Y-66941215D01*
X136411467Y-66879385D01*
X137066497Y-66879385D01*
X137089171Y-66929150D01*
X137105966Y-66972002D01*
X137111846Y-66997073D01*
X137093264Y-67003501D01*
X137041345Y-67009509D01*
X136961828Y-67014697D01*
X136860454Y-67018664D01*
X136774808Y-67020577D01*
X136437769Y-67025923D01*
X136431175Y-67072560D01*
X136435786Y-67114976D01*
X136450713Y-67135760D01*
X136478623Y-67141570D01*
X136538075Y-67146530D01*
X136621534Y-67150246D01*
X136721468Y-67152324D01*
X136772896Y-67152624D01*
X137068946Y-67152923D01*
X137090396Y-67214454D01*
X137104980Y-67258004D01*
X137111781Y-67281694D01*
X137111846Y-67282377D01*
X137093358Y-67284754D01*
X137042094Y-67287366D01*
X136964351Y-67289995D01*
X136866426Y-67292421D01*
X136774808Y-67294115D01*
X136437769Y-67299461D01*
X136437769Y-67416692D01*
X136745254Y-67422072D01*
X137052739Y-67427451D01*
X137082293Y-67484601D01*
X137102587Y-67526797D01*
X137111796Y-67551770D01*
X137111846Y-67552491D01*
X137093338Y-67555929D01*
G37*
X137093338Y-67555929D02*
X137041932Y-67558911D01*
X136963808Y-67561247D01*
X136865143Y-67562749D01*
X136761657Y-67563231D01*
X136411467Y-67563231D01*
X136349637Y-67501401D01*
X136311538Y-67458793D01*
X136296105Y-67421390D01*
X136297082Y-67370270D01*
X136299567Y-67349978D01*
X136306800Y-67286554D01*
X136310945Y-67234095D01*
X136311328Y-67221308D01*
X136308824Y-67178199D01*
X136302538Y-67116544D01*
X136299567Y-67092638D01*
X136294972Y-67033922D01*
X136304954Y-66994464D01*
X136335772Y-66955338D01*
X136349637Y-66941215D01*
X136411467Y-66879385D01*
X137066497Y-66879385D01*
X137089171Y-66929150D01*
X137105966Y-66972002D01*
X137111846Y-66997073D01*
X137093264Y-67003501D01*
X137041345Y-67009509D01*
X136961828Y-67014697D01*
X136860454Y-67018664D01*
X136774808Y-67020577D01*
X136437769Y-67025923D01*
X136431175Y-67072560D01*
X136435786Y-67114976D01*
X136450713Y-67135760D01*
X136478623Y-67141570D01*
X136538075Y-67146530D01*
X136621534Y-67150246D01*
X136721468Y-67152324D01*
X136772896Y-67152624D01*
X137068946Y-67152923D01*
X137090396Y-67214454D01*
X137104980Y-67258004D01*
X137111781Y-67281694D01*
X137111846Y-67282377D01*
X137093358Y-67284754D01*
X137042094Y-67287366D01*
X136964351Y-67289995D01*
X136866426Y-67292421D01*
X136774808Y-67294115D01*
X136437769Y-67299461D01*
X136437769Y-67416692D01*
X136745254Y-67422072D01*
X137052739Y-67427451D01*
X137082293Y-67484601D01*
X137102587Y-67526797D01*
X137111796Y-67551770D01*
X137111846Y-67552491D01*
X137093338Y-67555929D01*
G36*
X136949711Y-66762081D02*
G01*
X136803680Y-66761833D01*
X136691345Y-66760872D01*
X136607322Y-66758794D01*
X136546231Y-66755193D01*
X136502691Y-66749665D01*
X136471321Y-66741804D01*
X136446738Y-66731207D01*
X136432706Y-66723182D01*
X136356612Y-66656728D01*
X136308916Y-66572470D01*
X136291801Y-66479249D01*
X136307454Y-66385900D01*
X136335582Y-66330312D01*
X136384240Y-66271957D01*
X136443667Y-66232186D01*
X136521493Y-66208190D01*
X136625348Y-66197161D01*
X136701538Y-66195599D01*
X136707014Y-66195809D01*
X136707014Y-66332308D01*
X136619645Y-66333141D01*
X136561808Y-66336961D01*
X136523971Y-66345746D01*
X136496602Y-66361474D01*
X136475958Y-66380266D01*
X136436110Y-66443375D01*
X136432705Y-66511137D01*
X136465975Y-66575179D01*
X136470483Y-66580164D01*
X136493933Y-66601439D01*
X136521834Y-66614779D01*
X136563359Y-66622001D01*
X136627684Y-66624923D01*
X136698800Y-66625385D01*
X136788142Y-66624383D01*
X136847742Y-66620238D01*
X136886911Y-66611236D01*
X136914960Y-66595667D01*
X136929856Y-66582902D01*
X136967425Y-66523600D01*
X136971943Y-66455301D01*
X136943247Y-66390110D01*
X136932594Y-66377528D01*
X136908937Y-66356111D01*
X136880749Y-66342744D01*
X136838755Y-66335566D01*
X136773681Y-66332719D01*
X136707014Y-66332308D01*
X136707014Y-66195809D01*
X136824235Y-66200322D01*
X136916423Y-66216362D01*
X136985731Y-66246528D01*
X137039789Y-66293629D01*
X137067495Y-66330312D01*
X137097428Y-66396990D01*
X137111322Y-66474272D01*
X137107603Y-66546110D01*
X137092600Y-66586308D01*
X137088330Y-66602082D01*
X137104250Y-66612550D01*
X137146911Y-66619856D01*
X137211894Y-66625385D01*
X137284268Y-66631437D01*
X137327813Y-66639844D01*
X137352713Y-66655141D01*
X137369155Y-66681864D01*
X137376436Y-66698654D01*
X137403037Y-66762154D01*
X136949711Y-66762081D01*
G37*
X136949711Y-66762081D02*
X136803680Y-66761833D01*
X136691345Y-66760872D01*
X136607322Y-66758794D01*
X136546231Y-66755193D01*
X136502691Y-66749665D01*
X136471321Y-66741804D01*
X136446738Y-66731207D01*
X136432706Y-66723182D01*
X136356612Y-66656728D01*
X136308916Y-66572470D01*
X136291801Y-66479249D01*
X136307454Y-66385900D01*
X136335582Y-66330312D01*
X136384240Y-66271957D01*
X136443667Y-66232186D01*
X136521493Y-66208190D01*
X136625348Y-66197161D01*
X136701538Y-66195599D01*
X136707014Y-66195809D01*
X136707014Y-66332308D01*
X136619645Y-66333141D01*
X136561808Y-66336961D01*
X136523971Y-66345746D01*
X136496602Y-66361474D01*
X136475958Y-66380266D01*
X136436110Y-66443375D01*
X136432705Y-66511137D01*
X136465975Y-66575179D01*
X136470483Y-66580164D01*
X136493933Y-66601439D01*
X136521834Y-66614779D01*
X136563359Y-66622001D01*
X136627684Y-66624923D01*
X136698800Y-66625385D01*
X136788142Y-66624383D01*
X136847742Y-66620238D01*
X136886911Y-66611236D01*
X136914960Y-66595667D01*
X136929856Y-66582902D01*
X136967425Y-66523600D01*
X136971943Y-66455301D01*
X136943247Y-66390110D01*
X136932594Y-66377528D01*
X136908937Y-66356111D01*
X136880749Y-66342744D01*
X136838755Y-66335566D01*
X136773681Y-66332719D01*
X136707014Y-66332308D01*
X136707014Y-66195809D01*
X136824235Y-66200322D01*
X136916423Y-66216362D01*
X136985731Y-66246528D01*
X137039789Y-66293629D01*
X137067495Y-66330312D01*
X137097428Y-66396990D01*
X137111322Y-66474272D01*
X137107603Y-66546110D01*
X137092600Y-66586308D01*
X137088330Y-66602082D01*
X137104250Y-66612550D01*
X137146911Y-66619856D01*
X137211894Y-66625385D01*
X137284268Y-66631437D01*
X137327813Y-66639844D01*
X137352713Y-66655141D01*
X137369155Y-66681864D01*
X137376436Y-66698654D01*
X137403037Y-66762154D01*
X136949711Y-66762081D01*
G36*
X137105330Y-65873362D02*
G01*
X137072579Y-65962117D01*
X137014650Y-66034022D01*
X136973872Y-66062144D01*
X136899046Y-66092802D01*
X136844942Y-66092165D01*
X136808554Y-66059987D01*
X136802367Y-66048081D01*
X136783075Y-65996675D01*
X136788018Y-65970422D01*
X136820413Y-65961530D01*
X136838308Y-65961077D01*
X136904141Y-65944797D01*
X136950193Y-65902365D01*
X136972436Y-65843388D01*
X136966839Y-65777475D01*
X136937771Y-65723895D01*
X136921190Y-65705798D01*
X136901075Y-65692971D01*
X136870668Y-65684306D01*
X136823212Y-65678696D01*
X136751950Y-65675035D01*
X136650125Y-65672215D01*
X136617885Y-65671484D01*
X136507590Y-65668820D01*
X136429964Y-65665792D01*
X136378604Y-65661250D01*
X136347110Y-65654046D01*
X136329080Y-65643033D01*
X136318112Y-65627060D01*
X136313267Y-65616834D01*
X136296699Y-65573406D01*
X136291231Y-65547842D01*
X136309493Y-65539395D01*
X136364704Y-65534239D01*
X136457501Y-65532346D01*
X136588522Y-65533689D01*
X136608731Y-65534107D01*
X136728267Y-65537058D01*
X136815551Y-65540548D01*
X136877409Y-65545514D01*
X136920664Y-65552893D01*
X136952140Y-65563624D01*
X136978661Y-65578645D01*
X136990025Y-65586502D01*
X137040308Y-65631553D01*
X137079419Y-65681940D01*
X137082833Y-65688108D01*
X137109788Y-65778458D01*
X137105330Y-65873362D01*
G37*
X137105330Y-65873362D02*
X137072579Y-65962117D01*
X137014650Y-66034022D01*
X136973872Y-66062144D01*
X136899046Y-66092802D01*
X136844942Y-66092165D01*
X136808554Y-66059987D01*
X136802367Y-66048081D01*
X136783075Y-65996675D01*
X136788018Y-65970422D01*
X136820413Y-65961530D01*
X136838308Y-65961077D01*
X136904141Y-65944797D01*
X136950193Y-65902365D01*
X136972436Y-65843388D01*
X136966839Y-65777475D01*
X136937771Y-65723895D01*
X136921190Y-65705798D01*
X136901075Y-65692971D01*
X136870668Y-65684306D01*
X136823212Y-65678696D01*
X136751950Y-65675035D01*
X136650125Y-65672215D01*
X136617885Y-65671484D01*
X136507590Y-65668820D01*
X136429964Y-65665792D01*
X136378604Y-65661250D01*
X136347110Y-65654046D01*
X136329080Y-65643033D01*
X136318112Y-65627060D01*
X136313267Y-65616834D01*
X136296699Y-65573406D01*
X136291231Y-65547842D01*
X136309493Y-65539395D01*
X136364704Y-65534239D01*
X136457501Y-65532346D01*
X136588522Y-65533689D01*
X136608731Y-65534107D01*
X136728267Y-65537058D01*
X136815551Y-65540548D01*
X136877409Y-65545514D01*
X136920664Y-65552893D01*
X136952140Y-65563624D01*
X136978661Y-65578645D01*
X136990025Y-65586502D01*
X137040308Y-65631553D01*
X137079419Y-65681940D01*
X137082833Y-65688108D01*
X137109788Y-65778458D01*
X137105330Y-65873362D01*
G36*
X137103697Y-65213501D02*
G01*
X137075267Y-65290060D01*
X137074721Y-65290936D01*
X137039873Y-65338285D01*
X136999148Y-65373241D01*
X136946075Y-65397825D01*
X136874186Y-65414062D01*
X136777008Y-65423975D01*
X136648072Y-65429586D01*
X136629702Y-65430077D01*
X136352713Y-65437141D01*
X136321972Y-65377695D01*
X136301198Y-65334681D01*
X136291354Y-65308710D01*
X136291231Y-65307509D01*
X136309394Y-65303014D01*
X136358388Y-65299444D01*
X136429969Y-65297248D01*
X136487932Y-65296769D01*
X136581830Y-65296758D01*
X136640797Y-65292466D01*
X136668921Y-65277503D01*
X136670294Y-65245482D01*
X136649002Y-65190014D01*
X136609864Y-65106269D01*
X136577357Y-65044689D01*
X136549155Y-65013017D01*
X136518418Y-65003706D01*
X136516896Y-65003692D01*
X136463946Y-65019057D01*
X136435340Y-65064547D01*
X136431197Y-65134166D01*
X136431916Y-65184313D01*
X136417473Y-65210754D01*
X136382782Y-65227243D01*
X136338584Y-65236733D01*
X136313507Y-65223057D01*
X136309918Y-65217907D01*
X136295504Y-65169425D01*
X136293463Y-65101531D01*
X136303017Y-65031612D01*
X136320478Y-64982068D01*
X136378636Y-64913570D01*
X136459592Y-64874634D01*
X136522840Y-64866923D01*
X136579889Y-64872807D01*
X136626458Y-64894101D01*
X136667819Y-64936265D01*
X136709245Y-65004759D01*
X136756007Y-65105044D01*
X136758650Y-65111154D01*
X136800383Y-65201490D01*
X136834609Y-65257235D01*
X136865365Y-65281129D01*
X136896689Y-65275913D01*
X136932617Y-65244328D01*
X136940884Y-65234883D01*
X136972942Y-65171617D01*
X136971593Y-65106064D01*
X136940162Y-65048972D01*
X136881976Y-65011093D01*
X136870554Y-65007574D01*
X136815163Y-64973300D01*
X136788482Y-64929809D01*
X136762040Y-64866923D01*
X136830452Y-64866923D01*
X136929890Y-64886052D01*
X137021098Y-64942831D01*
X137051611Y-64972378D01*
X137090772Y-65039542D01*
X137108500Y-65124956D01*
X137103697Y-65213501D01*
G37*
X137103697Y-65213501D02*
X137075267Y-65290060D01*
X137074721Y-65290936D01*
X137039873Y-65338285D01*
X136999148Y-65373241D01*
X136946075Y-65397825D01*
X136874186Y-65414062D01*
X136777008Y-65423975D01*
X136648072Y-65429586D01*
X136629702Y-65430077D01*
X136352713Y-65437141D01*
X136321972Y-65377695D01*
X136301198Y-65334681D01*
X136291354Y-65308710D01*
X136291231Y-65307509D01*
X136309394Y-65303014D01*
X136358388Y-65299444D01*
X136429969Y-65297248D01*
X136487932Y-65296769D01*
X136581830Y-65296758D01*
X136640797Y-65292466D01*
X136668921Y-65277503D01*
X136670294Y-65245482D01*
X136649002Y-65190014D01*
X136609864Y-65106269D01*
X136577357Y-65044689D01*
X136549155Y-65013017D01*
X136518418Y-65003706D01*
X136516896Y-65003692D01*
X136463946Y-65019057D01*
X136435340Y-65064547D01*
X136431197Y-65134166D01*
X136431916Y-65184313D01*
X136417473Y-65210754D01*
X136382782Y-65227243D01*
X136338584Y-65236733D01*
X136313507Y-65223057D01*
X136309918Y-65217907D01*
X136295504Y-65169425D01*
X136293463Y-65101531D01*
X136303017Y-65031612D01*
X136320478Y-64982068D01*
X136378636Y-64913570D01*
X136459592Y-64874634D01*
X136522840Y-64866923D01*
X136579889Y-64872807D01*
X136626458Y-64894101D01*
X136667819Y-64936265D01*
X136709245Y-65004759D01*
X136756007Y-65105044D01*
X136758650Y-65111154D01*
X136800383Y-65201490D01*
X136834609Y-65257235D01*
X136865365Y-65281129D01*
X136896689Y-65275913D01*
X136932617Y-65244328D01*
X136940884Y-65234883D01*
X136972942Y-65171617D01*
X136971593Y-65106064D01*
X136940162Y-65048972D01*
X136881976Y-65011093D01*
X136870554Y-65007574D01*
X136815163Y-64973300D01*
X136788482Y-64929809D01*
X136762040Y-64866923D01*
X136830452Y-64866923D01*
X136929890Y-64886052D01*
X137021098Y-64942831D01*
X137051611Y-64972378D01*
X137090772Y-65039542D01*
X137108500Y-65124956D01*
X137103697Y-65213501D01*
G36*
X137237880Y-64319846D02*
G01*
X137158020Y-64325572D01*
X137110961Y-64332149D01*
X137090434Y-64341262D01*
X137090171Y-64354598D01*
X137092622Y-64358923D01*
X137110364Y-64416444D01*
X137109328Y-64491268D01*
X137091090Y-64567339D01*
X137067495Y-64614918D01*
X137029802Y-64663702D01*
X136987145Y-64699364D01*
X136932943Y-64723845D01*
X136860616Y-64739087D01*
X136763581Y-64747030D01*
X136635258Y-64749616D01*
X136610642Y-64749662D01*
X136334130Y-64749692D01*
X136312680Y-64688161D01*
X136298088Y-64644459D01*
X136291294Y-64620482D01*
X136291231Y-64619777D01*
X136309655Y-64617415D01*
X136360474Y-64615406D01*
X136437007Y-64613901D01*
X136532570Y-64613053D01*
X136590671Y-64612923D01*
X136705229Y-64612651D01*
X136787333Y-64611252D01*
X136843607Y-64607849D01*
X136880674Y-64601567D01*
X136905156Y-64591529D01*
X136923675Y-64576861D01*
X136932594Y-64567702D01*
X136968534Y-64504789D01*
X136971225Y-64436136D01*
X136940830Y-64373848D01*
X136929856Y-64362329D01*
X136909221Y-64345433D01*
X136884744Y-64333714D01*
X136849353Y-64326233D01*
X136795974Y-64322054D01*
X136717534Y-64320237D01*
X136609383Y-64319846D01*
X136334130Y-64319846D01*
X136312680Y-64258315D01*
X136298088Y-64214613D01*
X136291294Y-64190636D01*
X136291231Y-64189930D01*
X136309931Y-64188126D01*
X136362678Y-64186500D01*
X136444443Y-64185117D01*
X136550195Y-64184042D01*
X136674906Y-64183340D01*
X136813545Y-64183077D01*
X137348194Y-64183077D01*
X137401764Y-64310077D01*
X137237880Y-64319846D01*
G37*
X137237880Y-64319846D02*
X137158020Y-64325572D01*
X137110961Y-64332149D01*
X137090434Y-64341262D01*
X137090171Y-64354598D01*
X137092622Y-64358923D01*
X137110364Y-64416444D01*
X137109328Y-64491268D01*
X137091090Y-64567339D01*
X137067495Y-64614918D01*
X137029802Y-64663702D01*
X136987145Y-64699364D01*
X136932943Y-64723845D01*
X136860616Y-64739087D01*
X136763581Y-64747030D01*
X136635258Y-64749616D01*
X136610642Y-64749662D01*
X136334130Y-64749692D01*
X136312680Y-64688161D01*
X136298088Y-64644459D01*
X136291294Y-64620482D01*
X136291231Y-64619777D01*
X136309655Y-64617415D01*
X136360474Y-64615406D01*
X136437007Y-64613901D01*
X136532570Y-64613053D01*
X136590671Y-64612923D01*
X136705229Y-64612651D01*
X136787333Y-64611252D01*
X136843607Y-64607849D01*
X136880674Y-64601567D01*
X136905156Y-64591529D01*
X136923675Y-64576861D01*
X136932594Y-64567702D01*
X136968534Y-64504789D01*
X136971225Y-64436136D01*
X136940830Y-64373848D01*
X136929856Y-64362329D01*
X136909221Y-64345433D01*
X136884744Y-64333714D01*
X136849353Y-64326233D01*
X136795974Y-64322054D01*
X136717534Y-64320237D01*
X136609383Y-64319846D01*
X136334130Y-64319846D01*
X136312680Y-64258315D01*
X136298088Y-64214613D01*
X136291294Y-64190636D01*
X136291231Y-64189930D01*
X136309931Y-64188126D01*
X136362678Y-64186500D01*
X136444443Y-64185117D01*
X136550195Y-64184042D01*
X136674906Y-64183340D01*
X136813545Y-64183077D01*
X137348194Y-64183077D01*
X137401764Y-64310077D01*
X137237880Y-64319846D01*
G36*
X137130255Y-62694254D02*
G01*
X137078433Y-62771286D01*
X137003588Y-62830816D01*
X136908346Y-62866378D01*
X136838244Y-62873571D01*
X136808991Y-62872754D01*
X136786593Y-62865914D01*
X136766526Y-62847112D01*
X136744267Y-62810408D01*
X136715291Y-62749862D01*
X136675073Y-62659534D01*
X136674871Y-62659077D01*
X136636790Y-62575933D01*
X136602975Y-62507753D01*
X136577067Y-62461505D01*
X136562705Y-62444158D01*
X136562589Y-62444154D01*
X136531315Y-62459443D01*
X136496843Y-62495196D01*
X136472010Y-62536242D01*
X136467077Y-62557037D01*
X136484138Y-62613770D01*
X136526867Y-62662627D01*
X136573845Y-62686465D01*
X136608478Y-62709397D01*
X136647919Y-62754318D01*
X136681991Y-62807123D01*
X136700520Y-62853710D01*
X136701538Y-62863452D01*
X136684785Y-62874418D01*
X136641961Y-62875079D01*
X136584219Y-62867020D01*
X136522711Y-62851827D01*
X136468591Y-62831086D01*
X136466490Y-62830038D01*
X136379340Y-62767621D01*
X136320061Y-62686726D01*
X136290966Y-62594856D01*
X136294366Y-62499513D01*
X136332572Y-62408198D01*
X136335259Y-62404138D01*
X136400358Y-62332306D01*
X136485295Y-62285073D01*
X136596979Y-62258934D01*
X136628357Y-62255426D01*
X136776464Y-62249213D01*
X136845532Y-62256661D01*
X136845532Y-62444154D01*
X136802448Y-62446590D01*
X136789874Y-62459914D01*
X136799281Y-62493132D01*
X136821517Y-62545494D01*
X136849390Y-62604024D01*
X136850128Y-62605479D01*
X136876223Y-62655089D01*
X136893637Y-62675000D01*
X136911893Y-62670090D01*
X136935880Y-62649416D01*
X136970594Y-62596819D01*
X136973144Y-62540177D01*
X136947881Y-62489369D01*
X136899153Y-62454276D01*
X136845532Y-62444154D01*
X136845532Y-62256661D01*
X136894964Y-62261992D01*
X136988945Y-62294778D01*
X137054785Y-62340421D01*
X137121319Y-62422802D01*
X137154324Y-62513546D01*
X137156427Y-62606185D01*
X137130255Y-62694254D01*
G37*
X137130255Y-62694254D02*
X137078433Y-62771286D01*
X137003588Y-62830816D01*
X136908346Y-62866378D01*
X136838244Y-62873571D01*
X136808991Y-62872754D01*
X136786593Y-62865914D01*
X136766526Y-62847112D01*
X136744267Y-62810408D01*
X136715291Y-62749862D01*
X136675073Y-62659534D01*
X136674871Y-62659077D01*
X136636790Y-62575933D01*
X136602975Y-62507753D01*
X136577067Y-62461505D01*
X136562705Y-62444158D01*
X136562589Y-62444154D01*
X136531315Y-62459443D01*
X136496843Y-62495196D01*
X136472010Y-62536242D01*
X136467077Y-62557037D01*
X136484138Y-62613770D01*
X136526867Y-62662627D01*
X136573845Y-62686465D01*
X136608478Y-62709397D01*
X136647919Y-62754318D01*
X136681991Y-62807123D01*
X136700520Y-62853710D01*
X136701538Y-62863452D01*
X136684785Y-62874418D01*
X136641961Y-62875079D01*
X136584219Y-62867020D01*
X136522711Y-62851827D01*
X136468591Y-62831086D01*
X136466490Y-62830038D01*
X136379340Y-62767621D01*
X136320061Y-62686726D01*
X136290966Y-62594856D01*
X136294366Y-62499513D01*
X136332572Y-62408198D01*
X136335259Y-62404138D01*
X136400358Y-62332306D01*
X136485295Y-62285073D01*
X136596979Y-62258934D01*
X136628357Y-62255426D01*
X136776464Y-62249213D01*
X136845532Y-62256661D01*
X136845532Y-62444154D01*
X136802448Y-62446590D01*
X136789874Y-62459914D01*
X136799281Y-62493132D01*
X136821517Y-62545494D01*
X136849390Y-62604024D01*
X136850128Y-62605479D01*
X136876223Y-62655089D01*
X136893637Y-62675000D01*
X136911893Y-62670090D01*
X136935880Y-62649416D01*
X136970594Y-62596819D01*
X136973144Y-62540177D01*
X136947881Y-62489369D01*
X136899153Y-62454276D01*
X136845532Y-62444154D01*
X136845532Y-62256661D01*
X136894964Y-62261992D01*
X136988945Y-62294778D01*
X137054785Y-62340421D01*
X137121319Y-62422802D01*
X137154324Y-62513546D01*
X137156427Y-62606185D01*
X137130255Y-62694254D01*
G36*
X137142744Y-61176886D02*
G01*
X137094591Y-61268464D01*
X137017095Y-61336049D01*
X136967273Y-61360057D01*
X136892467Y-61378738D01*
X136797948Y-61388301D01*
X136694790Y-61389208D01*
X136594065Y-61381921D01*
X136506847Y-61366903D01*
X136444209Y-61344615D01*
X136433421Y-61337765D01*
X136352895Y-61256632D01*
X136304664Y-61160266D01*
X136290550Y-61055701D01*
X136312371Y-60949968D01*
X136325453Y-60920543D01*
X136365769Y-60863241D01*
X136419225Y-60812950D01*
X136426005Y-60808197D01*
X136458679Y-60788878D01*
X136493606Y-60776108D01*
X136539586Y-60768564D01*
X136605416Y-60764924D01*
X136699895Y-60763865D01*
X136721077Y-60763846D01*
X136727818Y-60763894D01*
X136727818Y-60959231D01*
X136638651Y-60960368D01*
X136579480Y-60964841D01*
X136541259Y-60974246D01*
X136514947Y-60990176D01*
X136506154Y-60998308D01*
X136472739Y-61045058D01*
X136474263Y-61090447D01*
X136503248Y-61136340D01*
X136534191Y-61163712D01*
X136579357Y-61179923D01*
X136650580Y-61189026D01*
X136658886Y-61189651D01*
X136787963Y-61191204D01*
X136883828Y-61174965D01*
X136945893Y-61141152D01*
X136973568Y-61089984D01*
X136975077Y-61071720D01*
X136967487Y-61023760D01*
X136941192Y-60990953D01*
X136890905Y-60970895D01*
X136811336Y-60961178D01*
X136727818Y-60959231D01*
X136727818Y-60763894D01*
X136821751Y-60764574D01*
X136892094Y-60767629D01*
X136940837Y-60774322D01*
X136976712Y-60785960D01*
X137008452Y-60803853D01*
X137014352Y-60807808D01*
X137093896Y-60874267D01*
X137140071Y-60946685D01*
X137158401Y-61034849D01*
X137159297Y-61064787D01*
X137142744Y-61176886D01*
G37*
X137142744Y-61176886D02*
X137094591Y-61268464D01*
X137017095Y-61336049D01*
X136967273Y-61360057D01*
X136892467Y-61378738D01*
X136797948Y-61388301D01*
X136694790Y-61389208D01*
X136594065Y-61381921D01*
X136506847Y-61366903D01*
X136444209Y-61344615D01*
X136433421Y-61337765D01*
X136352895Y-61256632D01*
X136304664Y-61160266D01*
X136290550Y-61055701D01*
X136312371Y-60949968D01*
X136325453Y-60920543D01*
X136365769Y-60863241D01*
X136419225Y-60812950D01*
X136426005Y-60808197D01*
X136458679Y-60788878D01*
X136493606Y-60776108D01*
X136539586Y-60768564D01*
X136605416Y-60764924D01*
X136699895Y-60763865D01*
X136721077Y-60763846D01*
X136727818Y-60763894D01*
X136727818Y-60959231D01*
X136638651Y-60960368D01*
X136579480Y-60964841D01*
X136541259Y-60974246D01*
X136514947Y-60990176D01*
X136506154Y-60998308D01*
X136472739Y-61045058D01*
X136474263Y-61090447D01*
X136503248Y-61136340D01*
X136534191Y-61163712D01*
X136579357Y-61179923D01*
X136650580Y-61189026D01*
X136658886Y-61189651D01*
X136787963Y-61191204D01*
X136883828Y-61174965D01*
X136945893Y-61141152D01*
X136973568Y-61089984D01*
X136975077Y-61071720D01*
X136967487Y-61023760D01*
X136941192Y-60990953D01*
X136890905Y-60970895D01*
X136811336Y-60961178D01*
X136727818Y-60959231D01*
X136727818Y-60763894D01*
X136821751Y-60764574D01*
X136892094Y-60767629D01*
X136940837Y-60774322D01*
X136976712Y-60785960D01*
X137008452Y-60803853D01*
X137014352Y-60807808D01*
X137093896Y-60874267D01*
X137140071Y-60946685D01*
X137158401Y-61034849D01*
X137159297Y-61064787D01*
X137142744Y-61176886D01*
G36*
X137134911Y-63431664D02*
G01*
X137098642Y-63494367D01*
X137062642Y-63537961D01*
X137024925Y-63569845D01*
X136978801Y-63591810D01*
X136917579Y-63605649D01*
X136834569Y-63613153D01*
X136723081Y-63616117D01*
X136642938Y-63616461D01*
X136347935Y-63616461D01*
X136273485Y-63450385D01*
X136596598Y-63440615D01*
X136717271Y-63436579D01*
X136804859Y-63432344D01*
X136865350Y-63427097D01*
X136904732Y-63420025D01*
X136928993Y-63410311D01*
X136944120Y-63397144D01*
X136947394Y-63392919D01*
X136972966Y-63328909D01*
X136962847Y-63264208D01*
X136936000Y-63225692D01*
X136916976Y-63210025D01*
X136892012Y-63199180D01*
X136854166Y-63192288D01*
X136796498Y-63188479D01*
X136712065Y-63186883D01*
X136624072Y-63186615D01*
X136513677Y-63186563D01*
X136435537Y-63184672D01*
X136382835Y-63178345D01*
X136348758Y-63164983D01*
X136326489Y-63141985D01*
X136309213Y-63106754D01*
X136291262Y-63059697D01*
X136271722Y-63008303D01*
X136618515Y-63014421D01*
X136743532Y-63016884D01*
X136835918Y-63019767D01*
X136902119Y-63023898D01*
X136948580Y-63030107D01*
X136981744Y-63039226D01*
X137008056Y-63052083D01*
X137031271Y-63067584D01*
X137105431Y-63142371D01*
X137148316Y-63233628D01*
X137158588Y-63332883D01*
X137134911Y-63431664D01*
G37*
X137134911Y-63431664D02*
X137098642Y-63494367D01*
X137062642Y-63537961D01*
X137024925Y-63569845D01*
X136978801Y-63591810D01*
X136917579Y-63605649D01*
X136834569Y-63613153D01*
X136723081Y-63616117D01*
X136642938Y-63616461D01*
X136347935Y-63616461D01*
X136273485Y-63450385D01*
X136596598Y-63440615D01*
X136717271Y-63436579D01*
X136804859Y-63432344D01*
X136865350Y-63427097D01*
X136904732Y-63420025D01*
X136928993Y-63410311D01*
X136944120Y-63397144D01*
X136947394Y-63392919D01*
X136972966Y-63328909D01*
X136962847Y-63264208D01*
X136936000Y-63225692D01*
X136916976Y-63210025D01*
X136892012Y-63199180D01*
X136854166Y-63192288D01*
X136796498Y-63188479D01*
X136712065Y-63186883D01*
X136624072Y-63186615D01*
X136513677Y-63186563D01*
X136435537Y-63184672D01*
X136382835Y-63178345D01*
X136348758Y-63164983D01*
X136326489Y-63141985D01*
X136309213Y-63106754D01*
X136291262Y-63059697D01*
X136271722Y-63008303D01*
X136618515Y-63014421D01*
X136743532Y-63016884D01*
X136835918Y-63019767D01*
X136902119Y-63023898D01*
X136948580Y-63030107D01*
X136981744Y-63039226D01*
X137008056Y-63052083D01*
X137031271Y-63067584D01*
X137105431Y-63142371D01*
X137148316Y-63233628D01*
X137158588Y-63332883D01*
X137134911Y-63431664D01*
G36*
X137145495Y-61928886D02*
G01*
X137108273Y-62003539D01*
X137039739Y-62069431D01*
X137014352Y-62087577D01*
X136981134Y-62107345D01*
X136945055Y-62120172D01*
X136896902Y-62127510D01*
X136827464Y-62130813D01*
X136735794Y-62131538D01*
X136610170Y-62128263D01*
X136515846Y-62116877D01*
X136445477Y-62095041D01*
X136391714Y-62060419D01*
X136347212Y-62010670D01*
X136344577Y-62007014D01*
X136317623Y-61957985D01*
X136304288Y-61898945D01*
X136301000Y-61823859D01*
X136301000Y-61701795D01*
X136182503Y-61701744D01*
X136116508Y-61700608D01*
X136077798Y-61693686D01*
X136054581Y-61675598D01*
X136035067Y-61640962D01*
X136031080Y-61632645D01*
X136012397Y-61593720D01*
X136000597Y-61563583D01*
X135999578Y-61541174D01*
X136013239Y-61525433D01*
X136045478Y-61515302D01*
X136100196Y-61509723D01*
X136181289Y-61507635D01*
X136292656Y-61507981D01*
X136438198Y-61509700D01*
X136481731Y-61510237D01*
X136631795Y-61512172D01*
X136729958Y-61513904D01*
X136729958Y-61701692D01*
X136646636Y-61702748D01*
X136592120Y-61707438D01*
X136556163Y-61718051D01*
X136528518Y-61736872D01*
X136515035Y-61749650D01*
X136475583Y-61801890D01*
X136472372Y-61848142D01*
X136504951Y-61895867D01*
X136506154Y-61897077D01*
X136531332Y-61916494D01*
X136565553Y-61928307D01*
X136618252Y-61934265D01*
X136698869Y-61936120D01*
X136716729Y-61936154D01*
X136827825Y-61931670D01*
X136904839Y-61917074D01*
X136951853Y-61890650D01*
X136972950Y-61850683D01*
X136975077Y-61827584D01*
X136965100Y-61772762D01*
X136932248Y-61735158D01*
X136872143Y-61712523D01*
X136780402Y-61702606D01*
X136729958Y-61701692D01*
X136729958Y-61513904D01*
X136747940Y-61514222D01*
X136835321Y-61516873D01*
X136899095Y-61520606D01*
X136944418Y-61525907D01*
X136976445Y-61533258D01*
X137000332Y-61543143D01*
X137021236Y-61556046D01*
X137029102Y-61561579D01*
X137103405Y-61634969D01*
X137145533Y-61727760D01*
X137157278Y-61835096D01*
X137145495Y-61928886D01*
G37*
X137145495Y-61928886D02*
X137108273Y-62003539D01*
X137039739Y-62069431D01*
X137014352Y-62087577D01*
X136981134Y-62107345D01*
X136945055Y-62120172D01*
X136896902Y-62127510D01*
X136827464Y-62130813D01*
X136735794Y-62131538D01*
X136610170Y-62128263D01*
X136515846Y-62116877D01*
X136445477Y-62095041D01*
X136391714Y-62060419D01*
X136347212Y-62010670D01*
X136344577Y-62007014D01*
X136317623Y-61957985D01*
X136304288Y-61898945D01*
X136301000Y-61823859D01*
X136301000Y-61701795D01*
X136182503Y-61701744D01*
X136116508Y-61700608D01*
X136077798Y-61693686D01*
X136054581Y-61675598D01*
X136035067Y-61640962D01*
X136031080Y-61632645D01*
X136012397Y-61593720D01*
X136000597Y-61563583D01*
X135999578Y-61541174D01*
X136013239Y-61525433D01*
X136045478Y-61515302D01*
X136100196Y-61509723D01*
X136181289Y-61507635D01*
X136292656Y-61507981D01*
X136438198Y-61509700D01*
X136481731Y-61510237D01*
X136631795Y-61512172D01*
X136729958Y-61513904D01*
X136729958Y-61701692D01*
X136646636Y-61702748D01*
X136592120Y-61707438D01*
X136556163Y-61718051D01*
X136528518Y-61736872D01*
X136515035Y-61749650D01*
X136475583Y-61801890D01*
X136472372Y-61848142D01*
X136504951Y-61895867D01*
X136506154Y-61897077D01*
X136531332Y-61916494D01*
X136565553Y-61928307D01*
X136618252Y-61934265D01*
X136698869Y-61936120D01*
X136716729Y-61936154D01*
X136827825Y-61931670D01*
X136904839Y-61917074D01*
X136951853Y-61890650D01*
X136972950Y-61850683D01*
X136975077Y-61827584D01*
X136965100Y-61772762D01*
X136932248Y-61735158D01*
X136872143Y-61712523D01*
X136780402Y-61702606D01*
X136729958Y-61701692D01*
X136729958Y-61513904D01*
X136747940Y-61514222D01*
X136835321Y-61516873D01*
X136899095Y-61520606D01*
X136944418Y-61525907D01*
X136976445Y-61533258D01*
X137000332Y-61543143D01*
X137021236Y-61556046D01*
X137029102Y-61561579D01*
X137103405Y-61634969D01*
X137145533Y-61727760D01*
X137157278Y-61835096D01*
X137145495Y-61928886D01*
D12*
X147890000Y-99270000D02*
X137730000Y-99270000D01*
X147890000Y-81490000D02*
X147890000Y-99270000D01*
X137730000Y-81490000D02*
X147890000Y-81490000D01*
X137730000Y-99270000D02*
X137730000Y-81490000D01*
X152120000Y-62380000D02*
X152120000Y-80620000D01*
X145880000Y-62380000D02*
X145880000Y-80620000D01*
X152120000Y-62380000D02*
X145880000Y-62380000D01*
X152120000Y-80620000D02*
X145880000Y-80620000D01*
X150290000Y-127045000D02*
X150290000Y-123955000D01*
X150230000Y-125500000D02*
G75*
G03X150230000Y-125500000I-2500000J0D01*
G01*
X144740000Y-125499538D02*
G75*
G03X150290000Y-127044830I2990000J-462D01*
G01*
X144740000Y-125500462D02*
G75*
G02X150290000Y-123955170I2990000J462D01*
G01*
X138240000Y-125500462D02*
G75*
G02X143790000Y-123955170I2990000J462D01*
G01*
X138240000Y-125499538D02*
G75*
G03X143790000Y-127044830I2990000J-462D01*
G01*
X143730000Y-125500000D02*
G75*
G03X143730000Y-125500000I-2500000J0D01*
G01*
X143790000Y-127045000D02*
X143790000Y-123955000D01*
X165970000Y-106080000D02*
X165970000Y-103420000D01*
X163370000Y-106080000D02*
X165970000Y-106080000D01*
X163370000Y-103420000D02*
X165970000Y-103420000D01*
X163370000Y-106080000D02*
X163370000Y-103420000D01*
X162100000Y-106080000D02*
X160770000Y-106080000D01*
X160770000Y-106080000D02*
X160770000Y-104750000D01*
X149550000Y-103420000D02*
X149550000Y-106080000D01*
X157230000Y-103420000D02*
X149550000Y-103420000D01*
X157230000Y-106080000D02*
X149550000Y-106080000D01*
X157230000Y-103420000D02*
X157230000Y-106080000D01*
X158500000Y-103420000D02*
X159830000Y-103420000D01*
X159830000Y-103420000D02*
X159830000Y-104750000D01*
X159200000Y-61500000D02*
X155300000Y-61500000D01*
X155300000Y-61500000D02*
X155300000Y-65400000D01*
X169900000Y-65200000D02*
X169900000Y-61500000D01*
X169900000Y-61500000D02*
X165900000Y-61500000D01*
X166000000Y-70000000D02*
X169900000Y-70000000D01*
X169900000Y-70000000D02*
X169900000Y-66400000D01*
X155300000Y-70000000D02*
X159300000Y-70000000D01*
X155300000Y-66500000D02*
X155300000Y-70000000D01*
X171000000Y-71000000D02*
X155000000Y-71000000D01*
X155000000Y-71000000D02*
X155000000Y-101000000D01*
X155000000Y-101000000D02*
X171000000Y-101000000D01*
X171000000Y-101000000D02*
X171000000Y-71000000D01*
D14*
X158750000Y-60000000D02*
X170750000Y-60000000D01*
X158750000Y-53900000D02*
X170750000Y-53900000D01*
X170750000Y-53900000D02*
X170750000Y-60000000D01*
X158750000Y-53900000D02*
X158750000Y-60000000D01*
D12*
X140350000Y-77950000D02*
X138950000Y-77950000D01*
X138950000Y-77950000D02*
X138950000Y-71450000D01*
X138950000Y-71350000D02*
X140350000Y-71350000D01*
X138950000Y-71350000D02*
X138950000Y-71450000D01*
X143150000Y-77950000D02*
X144550000Y-77950000D01*
X144550000Y-71350000D02*
X144550000Y-71450000D01*
X144550000Y-77950000D02*
X144550000Y-71450000D01*
X144550000Y-71350000D02*
X143150000Y-71350000D01*
X164000000Y-129000000D02*
X168500000Y-129000000D01*
X162750000Y-125000000D02*
X162750000Y-126500000D01*
X168500000Y-122500000D02*
X164000000Y-122500000D01*
X169750000Y-126500000D02*
X169750000Y-125000000D01*
X148870000Y-60040000D02*
X138710000Y-60040000D01*
X148870000Y-61310000D02*
X148870000Y-53690000D01*
X148870000Y-53690000D02*
X138710000Y-53690000D01*
X138710000Y-53690000D02*
X138710000Y-61310000D01*
X138710000Y-61310000D02*
X148870000Y-61310000D01*
X137630000Y-134460000D02*
X147790000Y-134460000D01*
X137630000Y-133190000D02*
X137630000Y-140810000D01*
X137630000Y-140810000D02*
X147790000Y-140810000D01*
X147790000Y-140810000D02*
X147790000Y-133190000D01*
X147790000Y-133190000D02*
X137630000Y-133190000D01*
X166330000Y-118170000D02*
X163670000Y-118170000D01*
X166330000Y-118230000D02*
X166330000Y-118170000D01*
X163670000Y-118230000D02*
X163670000Y-118170000D01*
X166330000Y-118230000D02*
X163670000Y-118230000D01*
X166330000Y-119500000D02*
X166330000Y-120830000D01*
X166330000Y-120830000D02*
X165000000Y-120830000D01*
X149009000Y-91200000D02*
X150470000Y-91200000D01*
X149162000Y-90759000D02*
X150470000Y-90759000D01*
X149112000Y-90879000D02*
X150470000Y-90879000D01*
X149019000Y-91160000D02*
X150470000Y-91160000D01*
X152550000Y-90959000D02*
X153938000Y-90959000D01*
X152550000Y-91160000D02*
X154001000Y-91160000D01*
X149030000Y-91119000D02*
X150470000Y-91119000D01*
X149042000Y-91079000D02*
X150470000Y-91079000D01*
X152550000Y-91079000D02*
X153978000Y-91079000D01*
X152550000Y-90439000D02*
X153685000Y-90439000D01*
X149310000Y-90479000D02*
X150470000Y-90479000D01*
X152550000Y-90599000D02*
X153778000Y-90599000D01*
X152550000Y-91119000D02*
X153990000Y-91119000D01*
X149242000Y-90599000D02*
X150470000Y-90599000D01*
X152550000Y-91200000D02*
X154011000Y-91200000D01*
X152550000Y-91240000D02*
X154021000Y-91240000D01*
X152550000Y-90799000D02*
X153875000Y-90799000D01*
X152550000Y-90839000D02*
X153892000Y-90839000D01*
X149445000Y-90279000D02*
X150470000Y-90279000D01*
X152550000Y-90559000D02*
X153757000Y-90559000D01*
X152550000Y-90999000D02*
X153952000Y-90999000D01*
X149096000Y-90919000D02*
X150470000Y-90919000D01*
X149263000Y-90559000D02*
X150470000Y-90559000D01*
X149200000Y-90679000D02*
X150470000Y-90679000D01*
X149128000Y-90839000D02*
X150470000Y-90839000D01*
X149068000Y-90999000D02*
X150470000Y-90999000D01*
X152550000Y-91280000D02*
X154030000Y-91280000D01*
X149475000Y-90239000D02*
X150470000Y-90239000D01*
X152550000Y-90279000D02*
X153575000Y-90279000D01*
X152550000Y-90919000D02*
X153924000Y-90919000D01*
X149145000Y-90799000D02*
X150470000Y-90799000D01*
X149361000Y-90399000D02*
X150470000Y-90399000D01*
X148999000Y-91240000D02*
X150470000Y-91240000D01*
X152550000Y-90719000D02*
X153839000Y-90719000D01*
X152550000Y-90479000D02*
X153710000Y-90479000D01*
X149335000Y-90439000D02*
X150470000Y-90439000D01*
X152550000Y-90319000D02*
X153605000Y-90319000D01*
X149388000Y-90359000D02*
X150470000Y-90359000D01*
X152550000Y-90519000D02*
X153734000Y-90519000D01*
X149415000Y-90319000D02*
X150470000Y-90319000D01*
X149181000Y-90719000D02*
X150470000Y-90719000D01*
X152550000Y-90639000D02*
X153800000Y-90639000D01*
X149055000Y-91039000D02*
X150470000Y-91039000D01*
X149220000Y-90639000D02*
X150470000Y-90639000D01*
X152550000Y-90879000D02*
X153908000Y-90879000D01*
X152550000Y-91039000D02*
X153965000Y-91039000D01*
X152550000Y-90359000D02*
X153632000Y-90359000D01*
X152550000Y-90399000D02*
X153659000Y-90399000D01*
X149082000Y-90959000D02*
X150470000Y-90959000D01*
X149286000Y-90519000D02*
X150470000Y-90519000D01*
X152550000Y-90679000D02*
X153820000Y-90679000D01*
X152550000Y-90759000D02*
X153858000Y-90759000D01*
X152550000Y-91760000D02*
X154089000Y-91760000D01*
X152550000Y-91640000D02*
X154083000Y-91640000D01*
X148990000Y-91280000D02*
X150470000Y-91280000D01*
X148982000Y-91320000D02*
X150470000Y-91320000D01*
X148945000Y-91560000D02*
X150470000Y-91560000D01*
X152550000Y-91360000D02*
X154046000Y-91360000D01*
X148974000Y-91360000D02*
X150470000Y-91360000D01*
X152550000Y-91400000D02*
X154053000Y-91400000D01*
X148967000Y-91400000D02*
X150470000Y-91400000D01*
X148937000Y-91640000D02*
X150470000Y-91640000D01*
X148931000Y-91760000D02*
X150470000Y-91760000D01*
X148930000Y-91840000D02*
X150470000Y-91840000D01*
X152550000Y-91440000D02*
X154060000Y-91440000D01*
X148960000Y-91440000D02*
X150470000Y-91440000D01*
X152550000Y-91520000D02*
X154071000Y-91520000D01*
X148941000Y-91600000D02*
X150470000Y-91600000D01*
X152550000Y-91800000D02*
X154090000Y-91800000D01*
X148930000Y-91800000D02*
X150470000Y-91800000D01*
X148949000Y-91520000D02*
X150470000Y-91520000D01*
X152550000Y-91680000D02*
X154086000Y-91680000D01*
X154130000Y-91840000D02*
G75*
G03X154130000Y-91840000I-2620000J0D01*
G01*
X148934000Y-91680000D02*
X150470000Y-91680000D01*
X152550000Y-91480000D02*
X154066000Y-91480000D01*
X152550000Y-91320000D02*
X154038000Y-91320000D01*
X152550000Y-91720000D02*
X154088000Y-91720000D01*
X148932000Y-91720000D02*
X150470000Y-91720000D01*
X148954000Y-91480000D02*
X150470000Y-91480000D01*
X152550000Y-91560000D02*
X154075000Y-91560000D01*
X152550000Y-91840000D02*
X154090000Y-91840000D01*
X152550000Y-91600000D02*
X154079000Y-91600000D01*
X150035000Y-94644775D02*
X150035000Y-94144775D01*
X149785000Y-94394775D02*
X150285000Y-94394775D01*
X152550000Y-90199000D02*
X153514000Y-90199000D01*
X150705000Y-89359000D02*
X152315000Y-89359000D01*
X150595000Y-89399000D02*
X152425000Y-89399000D01*
X150412000Y-89479000D02*
X152608000Y-89479000D01*
X152550000Y-89919000D02*
X153253000Y-89919000D01*
X150259000Y-89559000D02*
X152761000Y-89559000D01*
X149905000Y-89799000D02*
X153115000Y-89799000D01*
X152550000Y-90079000D02*
X153411000Y-90079000D01*
X149857000Y-89839000D02*
X150470000Y-89839000D01*
X149811000Y-89879000D02*
X150470000Y-89879000D01*
X152550000Y-89959000D02*
X153295000Y-89959000D01*
X149956000Y-89759000D02*
X153064000Y-89759000D01*
X149767000Y-89919000D02*
X150470000Y-89919000D01*
X152550000Y-90119000D02*
X153447000Y-90119000D01*
X149573000Y-90119000D02*
X150470000Y-90119000D01*
X149506000Y-90199000D02*
X150470000Y-90199000D01*
X152550000Y-90159000D02*
X153481000Y-90159000D01*
X150191000Y-89599000D02*
X152829000Y-89599000D01*
X149725000Y-89959000D02*
X150470000Y-89959000D01*
X152550000Y-90039000D02*
X153374000Y-90039000D01*
X152550000Y-89879000D02*
X153209000Y-89879000D01*
X152550000Y-89999000D02*
X153336000Y-89999000D01*
X149684000Y-89999000D02*
X150470000Y-89999000D01*
X149646000Y-90039000D02*
X150470000Y-90039000D01*
X149609000Y-90079000D02*
X150470000Y-90079000D01*
X149539000Y-90159000D02*
X150470000Y-90159000D01*
X150499000Y-89439000D02*
X152521000Y-89439000D01*
X150332000Y-89519000D02*
X152688000Y-89519000D01*
X150010000Y-89719000D02*
X153010000Y-89719000D01*
X150127000Y-89639000D02*
X152893000Y-89639000D01*
X150067000Y-89679000D02*
X152953000Y-89679000D01*
X151226000Y-89239000D02*
X151794000Y-89239000D01*
X150992000Y-89279000D02*
X152028000Y-89279000D01*
X150833000Y-89319000D02*
X152187000Y-89319000D01*
X152550000Y-89839000D02*
X153163000Y-89839000D01*
X152550000Y-90239000D02*
X153545000Y-90239000D01*
D14*
X153916666Y-55178571D02*
X153583333Y-55178571D01*
X153583333Y-55702380D02*
X153583333Y-54702380D01*
X154059523Y-54702380D01*
X154964285Y-55702380D02*
X154392857Y-55702380D01*
X154678571Y-55702380D02*
X154678571Y-54702380D01*
X154583333Y-54845238D01*
X154488095Y-54940476D01*
X154392857Y-54988095D01*
X142020000Y-82902380D02*
X141686666Y-82426190D01*
X141448571Y-82902380D02*
X141448571Y-81902380D01*
X141829523Y-81902380D01*
X141924761Y-81950000D01*
X141972380Y-81997619D01*
X142020000Y-82092857D01*
X142020000Y-82235714D01*
X141972380Y-82330952D01*
X141924761Y-82378571D01*
X141829523Y-82426190D01*
X141448571Y-82426190D01*
X142924761Y-82902380D02*
X142448571Y-82902380D01*
X142448571Y-81902380D01*
X143448571Y-82426190D02*
X143448571Y-82902380D01*
X143115238Y-81902380D02*
X143448571Y-82426190D01*
X143781904Y-81902380D01*
X144639047Y-82902380D02*
X144067619Y-82902380D01*
X144353333Y-82902380D02*
X144353333Y-81902380D01*
X144258095Y-82045238D01*
X144162857Y-82140476D01*
X144067619Y-82188095D01*
X133166666Y-54452380D02*
X133166666Y-55166666D01*
X133119047Y-55309523D01*
X133023809Y-55404761D01*
X132880952Y-55452380D01*
X132785714Y-55452380D01*
X133642857Y-55452380D02*
X133642857Y-54452380D01*
X134023809Y-54452380D01*
X134119047Y-54500000D01*
X134166666Y-54547619D01*
X134214285Y-54642857D01*
X134214285Y-54785714D01*
X134166666Y-54880952D01*
X134119047Y-54928571D01*
X134023809Y-54976190D01*
X133642857Y-54976190D01*
X135166666Y-55452380D02*
X134595238Y-55452380D01*
X134880952Y-55452380D02*
X134880952Y-54452380D01*
X134785714Y-54595238D01*
X134690476Y-54690476D01*
X134595238Y-54738095D01*
X149357142Y-71666666D02*
X149404761Y-71714285D01*
X149452380Y-71857142D01*
X149452380Y-71952380D01*
X149404761Y-72095238D01*
X149309523Y-72190476D01*
X149214285Y-72238095D01*
X149023809Y-72285714D01*
X148880952Y-72285714D01*
X148690476Y-72238095D01*
X148595238Y-72190476D01*
X148500000Y-72095238D01*
X148452380Y-71952380D01*
X148452380Y-71857142D01*
X148500000Y-71714285D01*
X148547619Y-71666666D01*
X148452380Y-71333333D02*
X148452380Y-70666666D01*
X149452380Y-71095238D01*
X151962380Y-126288095D02*
X150962380Y-126288095D01*
X150962380Y-126050000D01*
X151010000Y-125907142D01*
X151105238Y-125811904D01*
X151200476Y-125764285D01*
X151390952Y-125716666D01*
X151533809Y-125716666D01*
X151724285Y-125764285D01*
X151819523Y-125811904D01*
X151914761Y-125907142D01*
X151962380Y-126050000D01*
X151962380Y-126288095D01*
X151057619Y-125335714D02*
X151010000Y-125288095D01*
X150962380Y-125192857D01*
X150962380Y-124954761D01*
X151010000Y-124859523D01*
X151057619Y-124811904D01*
X151152857Y-124764285D01*
X151248095Y-124764285D01*
X151390952Y-124811904D01*
X151962380Y-125383333D01*
X151962380Y-124764285D01*
X140461904Y-122252380D02*
X140461904Y-121252380D01*
X140700000Y-121252380D01*
X140842857Y-121300000D01*
X140938095Y-121395238D01*
X140985714Y-121490476D01*
X141033333Y-121680952D01*
X141033333Y-121823809D01*
X140985714Y-122014285D01*
X140938095Y-122109523D01*
X140842857Y-122204761D01*
X140700000Y-122252380D01*
X140461904Y-122252380D01*
X141366666Y-121252380D02*
X141985714Y-121252380D01*
X141652380Y-121633333D01*
X141795238Y-121633333D01*
X141890476Y-121680952D01*
X141938095Y-121728571D01*
X141985714Y-121823809D01*
X141985714Y-122061904D01*
X141938095Y-122157142D01*
X141890476Y-122204761D01*
X141795238Y-122252380D01*
X141509523Y-122252380D01*
X141414285Y-122204761D01*
X141366666Y-122157142D01*
X161366666Y-102728571D02*
X161509523Y-102776190D01*
X161557142Y-102823809D01*
X161604761Y-102919047D01*
X161604761Y-103061904D01*
X161557142Y-103157142D01*
X161509523Y-103204761D01*
X161414285Y-103252380D01*
X161033333Y-103252380D01*
X161033333Y-102252380D01*
X161366666Y-102252380D01*
X161461904Y-102300000D01*
X161509523Y-102347619D01*
X161557142Y-102442857D01*
X161557142Y-102538095D01*
X161509523Y-102633333D01*
X161461904Y-102680952D01*
X161366666Y-102728571D01*
X161033333Y-102728571D01*
X162223809Y-102252380D02*
X162414285Y-102252380D01*
X162509523Y-102300000D01*
X162604761Y-102395238D01*
X162652380Y-102585714D01*
X162652380Y-102919047D01*
X162604761Y-103109523D01*
X162509523Y-103204761D01*
X162414285Y-103252380D01*
X162223809Y-103252380D01*
X162128571Y-103204761D01*
X162033333Y-103109523D01*
X161985714Y-102919047D01*
X161985714Y-102585714D01*
X162033333Y-102395238D01*
X162128571Y-102300000D01*
X162223809Y-102252380D01*
X163271428Y-102252380D02*
X163461904Y-102252380D01*
X163557142Y-102300000D01*
X163652380Y-102395238D01*
X163700000Y-102585714D01*
X163700000Y-102919047D01*
X163652380Y-103109523D01*
X163557142Y-103204761D01*
X163461904Y-103252380D01*
X163271428Y-103252380D01*
X163176190Y-103204761D01*
X163080952Y-103109523D01*
X163033333Y-102919047D01*
X163033333Y-102585714D01*
X163080952Y-102395238D01*
X163176190Y-102300000D01*
X163271428Y-102252380D01*
X163985714Y-102252380D02*
X164557142Y-102252380D01*
X164271428Y-103252380D02*
X164271428Y-102252380D01*
X165080952Y-102252380D02*
X165176190Y-102252380D01*
X165271428Y-102300000D01*
X165319047Y-102347619D01*
X165366666Y-102442857D01*
X165414285Y-102633333D01*
X165414285Y-102871428D01*
X165366666Y-103061904D01*
X165319047Y-103157142D01*
X165271428Y-103204761D01*
X165176190Y-103252380D01*
X165080952Y-103252380D01*
X164985714Y-103204761D01*
X164938095Y-103157142D01*
X164890476Y-103061904D01*
X164842857Y-102871428D01*
X164842857Y-102633333D01*
X164890476Y-102442857D01*
X164938095Y-102347619D01*
X164985714Y-102300000D01*
X165080952Y-102252380D01*
X149833333Y-103154761D02*
X149976190Y-103202380D01*
X150214285Y-103202380D01*
X150309523Y-103154761D01*
X150357142Y-103107142D01*
X150404761Y-103011904D01*
X150404761Y-102916666D01*
X150357142Y-102821428D01*
X150309523Y-102773809D01*
X150214285Y-102726190D01*
X150023809Y-102678571D01*
X149928571Y-102630952D01*
X149880952Y-102583333D01*
X149833333Y-102488095D01*
X149833333Y-102392857D01*
X149880952Y-102297619D01*
X149928571Y-102250000D01*
X150023809Y-102202380D01*
X150261904Y-102202380D01*
X150404761Y-102250000D01*
X150690476Y-102202380D02*
X151261904Y-102202380D01*
X150976190Y-103202380D02*
X150976190Y-102202380D01*
X152071428Y-103202380D02*
X151595238Y-103202380D01*
X151595238Y-102202380D01*
X152404761Y-103202380D02*
X152404761Y-102535714D01*
X152404761Y-102202380D02*
X152357142Y-102250000D01*
X152404761Y-102297619D01*
X152452380Y-102250000D01*
X152404761Y-102202380D01*
X152404761Y-102297619D01*
X152880952Y-102535714D02*
X152880952Y-103202380D01*
X152880952Y-102630952D02*
X152928571Y-102583333D01*
X153023809Y-102535714D01*
X153166666Y-102535714D01*
X153261904Y-102583333D01*
X153309523Y-102678571D01*
X153309523Y-103202380D01*
X153785714Y-103202380D02*
X153785714Y-102202380D01*
X153880952Y-102821428D02*
X154166666Y-103202380D01*
X154166666Y-102535714D02*
X153785714Y-102916666D01*
X162833333Y-69452380D02*
X162357142Y-69452380D01*
X162357142Y-68452380D01*
X163690476Y-69452380D02*
X163119047Y-69452380D01*
X163404761Y-69452380D02*
X163404761Y-68452380D01*
X163309523Y-68595238D01*
X163214285Y-68690476D01*
X163119047Y-68738095D01*
X163452380Y-87214285D02*
X162452380Y-87214285D01*
X162452380Y-86833333D01*
X162500000Y-86738095D01*
X162547619Y-86690476D01*
X162642857Y-86642857D01*
X162785714Y-86642857D01*
X162880952Y-86690476D01*
X162928571Y-86738095D01*
X162976190Y-86833333D01*
X162976190Y-87214285D01*
X163404761Y-86261904D02*
X163452380Y-86119047D01*
X163452380Y-85880952D01*
X163404761Y-85785714D01*
X163357142Y-85738095D01*
X163261904Y-85690476D01*
X163166666Y-85690476D01*
X163071428Y-85738095D01*
X163023809Y-85785714D01*
X162976190Y-85880952D01*
X162928571Y-86071428D01*
X162880952Y-86166666D01*
X162833333Y-86214285D01*
X162738095Y-86261904D01*
X162642857Y-86261904D01*
X162547619Y-86214285D01*
X162500000Y-86166666D01*
X162452380Y-86071428D01*
X162452380Y-85833333D01*
X162500000Y-85690476D01*
X163452380Y-84738095D02*
X163452380Y-85309523D01*
X163452380Y-85023809D02*
X162452380Y-85023809D01*
X162595238Y-85119047D01*
X162690476Y-85214285D01*
X162738095Y-85309523D01*
X164154761Y-57452380D02*
X163821428Y-56976190D01*
X163583333Y-57452380D02*
X163583333Y-56452380D01*
X163964285Y-56452380D01*
X164059523Y-56500000D01*
X164107142Y-56547619D01*
X164154761Y-56642857D01*
X164154761Y-56785714D01*
X164107142Y-56880952D01*
X164059523Y-56928571D01*
X163964285Y-56976190D01*
X163583333Y-56976190D01*
X164440476Y-56452380D02*
X164773809Y-57452380D01*
X165107142Y-56452380D01*
X165964285Y-57452380D02*
X165392857Y-57452380D01*
X165678571Y-57452380D02*
X165678571Y-56452380D01*
X165583333Y-56595238D01*
X165488095Y-56690476D01*
X165392857Y-56738095D01*
X140416666Y-75054761D02*
X140559523Y-75102380D01*
X140797619Y-75102380D01*
X140892857Y-75054761D01*
X140940476Y-75007142D01*
X140988095Y-74911904D01*
X140988095Y-74816666D01*
X140940476Y-74721428D01*
X140892857Y-74673809D01*
X140797619Y-74626190D01*
X140607142Y-74578571D01*
X140511904Y-74530952D01*
X140464285Y-74483333D01*
X140416666Y-74388095D01*
X140416666Y-74292857D01*
X140464285Y-74197619D01*
X140511904Y-74150000D01*
X140607142Y-74102380D01*
X140845238Y-74102380D01*
X140988095Y-74150000D01*
X141321428Y-74102380D02*
X141559523Y-75102380D01*
X141750000Y-74388095D01*
X141940476Y-75102380D01*
X142178571Y-74102380D01*
X143083333Y-75102380D02*
X142511904Y-75102380D01*
X142797619Y-75102380D02*
X142797619Y-74102380D01*
X142702380Y-74245238D01*
X142607142Y-74340476D01*
X142511904Y-74388095D01*
X164916666Y-125904761D02*
X165059523Y-125952380D01*
X165297619Y-125952380D01*
X165392857Y-125904761D01*
X165440476Y-125857142D01*
X165488095Y-125761904D01*
X165488095Y-125666666D01*
X165440476Y-125571428D01*
X165392857Y-125523809D01*
X165297619Y-125476190D01*
X165107142Y-125428571D01*
X165011904Y-125380952D01*
X164964285Y-125333333D01*
X164916666Y-125238095D01*
X164916666Y-125142857D01*
X164964285Y-125047619D01*
X165011904Y-125000000D01*
X165107142Y-124952380D01*
X165345238Y-124952380D01*
X165488095Y-125000000D01*
X165821428Y-124952380D02*
X166059523Y-125952380D01*
X166250000Y-125238095D01*
X166440476Y-125952380D01*
X166678571Y-124952380D01*
X167011904Y-125047619D02*
X167059523Y-125000000D01*
X167154761Y-124952380D01*
X167392857Y-124952380D01*
X167488095Y-125000000D01*
X167535714Y-125047619D01*
X167583333Y-125142857D01*
X167583333Y-125238095D01*
X167535714Y-125380952D01*
X166964285Y-125952380D01*
X167583333Y-125952380D01*
X149416666Y-58952380D02*
X149416666Y-59666666D01*
X149369047Y-59809523D01*
X149273809Y-59904761D01*
X149130952Y-59952380D01*
X149035714Y-59952380D01*
X150321428Y-59285714D02*
X150321428Y-59952380D01*
X150083333Y-58904761D02*
X149845238Y-59619047D01*
X150464285Y-59619047D01*
X136166666Y-139702380D02*
X136166666Y-140416666D01*
X136119047Y-140559523D01*
X136023809Y-140654761D01*
X135880952Y-140702380D01*
X135785714Y-140702380D01*
X136595238Y-139797619D02*
X136642857Y-139750000D01*
X136738095Y-139702380D01*
X136976190Y-139702380D01*
X137071428Y-139750000D01*
X137119047Y-139797619D01*
X137166666Y-139892857D01*
X137166666Y-139988095D01*
X137119047Y-140130952D01*
X136547619Y-140702380D01*
X137166666Y-140702380D01*
X166942380Y-121291904D02*
X166942380Y-120720476D01*
X167942380Y-121006190D02*
X166942380Y-121006190D01*
X167942380Y-120387142D02*
X166942380Y-120387142D01*
X166942380Y-120006190D01*
X166990000Y-119910952D01*
X167037619Y-119863333D01*
X167132857Y-119815714D01*
X167275714Y-119815714D01*
X167370952Y-119863333D01*
X167418571Y-119910952D01*
X167466190Y-120006190D01*
X167466190Y-120387142D01*
X167942380Y-118863333D02*
X167942380Y-119434761D01*
X167942380Y-119149047D02*
X166942380Y-119149047D01*
X167085238Y-119244285D01*
X167180476Y-119339523D01*
X167228095Y-119434761D01*
X150737142Y-88617142D02*
X150689523Y-88664761D01*
X150546666Y-88712380D01*
X150451428Y-88712380D01*
X150308571Y-88664761D01*
X150213333Y-88569523D01*
X150165714Y-88474285D01*
X150118095Y-88283809D01*
X150118095Y-88140952D01*
X150165714Y-87950476D01*
X150213333Y-87855238D01*
X150308571Y-87760000D01*
X150451428Y-87712380D01*
X150546666Y-87712380D01*
X150689523Y-87760000D01*
X150737142Y-87807619D01*
X151689523Y-88712380D02*
X151118095Y-88712380D01*
X151403809Y-88712380D02*
X151403809Y-87712380D01*
X151308571Y-87855238D01*
X151213333Y-87950476D01*
X151118095Y-87998095D01*
X152594285Y-87712380D02*
X152118095Y-87712380D01*
X152070476Y-88188571D01*
X152118095Y-88140952D01*
X152213333Y-88093333D01*
X152451428Y-88093333D01*
X152546666Y-88140952D01*
X152594285Y-88188571D01*
X152641904Y-88283809D01*
X152641904Y-88521904D01*
X152594285Y-88617142D01*
X152546666Y-88664761D01*
X152451428Y-88712380D01*
X152213333Y-88712380D01*
X152118095Y-88664761D01*
X152070476Y-88617142D01*
M02*
