G04 #@! TF.GenerationSoftware,KiCad,Pcbnew,(5.1.5)-3*
G04 #@! TF.CreationDate,2021-07-24T16:01:18-03:00*
G04 #@! TF.ProjectId,relayer_hw,72656c61-7965-4725-9f68-772e6b696361,rev?*
G04 #@! TF.SameCoordinates,Original*
G04 #@! TF.FileFunction,Profile,NP*
%FSLAX46Y46*%
G04 Gerber Fmt 4.6, Leading zero omitted, Abs format (unit mm)*
G04 Created by KiCad (PCBNEW (5.1.5)-3) date 2021-07-24 16:01:18*
%MOMM*%
%LPD*%
G04 APERTURE LIST*
%ADD10C,0.050000*%
G04 APERTURE END LIST*
D10*
X145750000Y-89950000D02*
X146946762Y-88705071D01*
X144700000Y-90400000D02*
X145750000Y-89950000D01*
X138200000Y-90420000D02*
X144700000Y-90400000D01*
X146946762Y-88705071D02*
G75*
G02X147430000Y-89030000I233238J-174929D01*
G01*
X138200000Y-90920000D02*
G75*
G02X138200000Y-90420000I0J250000D01*
G01*
X144710000Y-90920000D02*
X138200000Y-90920000D01*
X146000000Y-90420000D02*
X144710000Y-90920000D01*
X147430000Y-89030000D02*
X146000000Y-90420000D01*
X155500000Y-66000000D02*
G75*
G02X155500000Y-65500000I0J250000D01*
G01*
X155500000Y-65500000D02*
X159500000Y-65500000D01*
X159500000Y-65500000D02*
G75*
G02X159500000Y-66000000I0J-250000D01*
G01*
X155500000Y-66000000D02*
X159500000Y-66000000D01*
X161000000Y-76750000D02*
G75*
G02X161000000Y-76250000I0J250000D01*
G01*
X161000000Y-76250000D02*
X165000000Y-76250000D01*
X161000000Y-76750000D02*
X165000000Y-76750000D01*
X165000000Y-76250000D02*
G75*
G02X165000000Y-76750000I0J-250000D01*
G01*
X151100000Y-60500000D02*
G75*
G02X151100000Y-61000000I0J-250000D01*
G01*
X148416762Y-60500000D02*
X151100000Y-60500000D01*
X148650000Y-61000000D02*
X151100000Y-61000000D01*
X145833238Y-63824929D02*
X148650000Y-61000000D01*
X148416762Y-60500000D02*
X145350000Y-63500000D01*
X145833238Y-63824929D02*
G75*
G02X145350000Y-63500000I-233238J174929D01*
G01*
X144250000Y-59050000D02*
G75*
G02X143750000Y-59050000I-250000J0D01*
G01*
X143750000Y-54550000D02*
X141750000Y-54550000D01*
X143750000Y-54550000D02*
G75*
G02X144250000Y-55050000I0J-500000D01*
G01*
X143250000Y-55050000D02*
G75*
G02X143750000Y-55550000I0J-500000D01*
G01*
X141750000Y-55050000D02*
G75*
G02X141750000Y-54550000I0J250000D01*
G01*
X143250000Y-55050000D02*
X141750000Y-55050000D01*
X144250000Y-59050000D02*
X144250000Y-55050000D01*
X143750000Y-59050000D02*
X143750000Y-55550000D01*
X145000000Y-139250000D02*
G75*
G02X145000000Y-139750000I0J-250000D01*
G01*
X143500000Y-139250000D02*
X145000000Y-139250000D01*
X143000000Y-139750000D02*
X145000000Y-139750000D01*
X143500000Y-139250000D02*
G75*
G02X143000000Y-138750000I0J500000D01*
G01*
X143000000Y-139750000D02*
G75*
G02X142500000Y-139250000I0J500000D01*
G01*
X142500000Y-135250000D02*
X142500000Y-139250000D01*
X143000000Y-135250000D02*
X143000000Y-138750000D01*
X142500000Y-135250000D02*
G75*
G02X143000000Y-135250000I250000J0D01*
G01*
X131000000Y-141000000D02*
X131000000Y-132500000D01*
X131500000Y-141500000D02*
X131000000Y-141000000D01*
X171500000Y-141500000D02*
X131500000Y-141500000D01*
X172000000Y-141000000D02*
X171500000Y-141500000D01*
X172000000Y-135500000D02*
X172000000Y-141000000D01*
X131500000Y-53000000D02*
X132500000Y-53000000D01*
X172000000Y-135500000D02*
X172000000Y-133000000D01*
X131000000Y-53500000D02*
X131500000Y-53000000D01*
X171500000Y-53000000D02*
X172000000Y-53500000D01*
X131000000Y-132500000D02*
X131000000Y-53500000D01*
X172000000Y-53500000D02*
X172000000Y-133000000D01*
X132500000Y-53000000D02*
X171500000Y-53000000D01*
M02*
