G04 #@! TF.GenerationSoftware,KiCad,Pcbnew,(5.1.5)-3*
G04 #@! TF.CreationDate,2021-07-24T16:01:17-03:00*
G04 #@! TF.ProjectId,relayer_hw,72656c61-7965-4725-9f68-772e6b696361,rev?*
G04 #@! TF.SameCoordinates,Original*
G04 #@! TF.FileFunction,Copper,L2,Inr*
G04 #@! TF.FilePolarity,Positive*
%FSLAX46Y46*%
G04 Gerber Fmt 4.6, Leading zero omitted, Abs format (unit mm)*
G04 Created by KiCad (PCBNEW (5.1.5)-3) date 2021-07-24 16:01:17*
%MOMM*%
%LPD*%
G04 APERTURE LIST*
%ADD10C,1.600000*%
%ADD11R,1.600000X1.600000*%
%ADD12R,2.000000X1.400000*%
%ADD13R,2.100000X1.550000*%
%ADD14C,3.300000*%
%ADD15C,2.400000*%
%ADD16R,1.800000X1.800000*%
%ADD17C,1.800000*%
%ADD18R,1.700000X1.700000*%
%ADD19O,1.700000X1.700000*%
%ADD20C,2.000000*%
%ADD21R,3.000000X3.000000*%
%ADD22C,3.000000*%
%ADD23C,0.600000*%
%ADD24C,0.254000*%
G04 APERTURE END LIST*
D10*
X151510000Y-90740000D03*
D11*
X151510000Y-92940000D03*
D12*
X146620000Y-85300000D03*
X139000000Y-83460000D03*
D13*
X146620000Y-98000000D03*
X139000000Y-98000000D03*
D14*
X134000000Y-137000000D03*
X134000000Y-57500000D03*
D15*
X149000000Y-64000000D03*
X149000000Y-79000000D03*
D16*
X149000000Y-125500000D03*
D17*
X146460000Y-125500000D03*
X139960000Y-125500000D03*
D16*
X142500000Y-125500000D03*
D18*
X162100000Y-104750000D03*
D19*
X164640000Y-104750000D03*
D18*
X158500000Y-104750000D03*
D19*
X155960000Y-104750000D03*
X153420000Y-104750000D03*
X150880000Y-104750000D03*
D15*
X167500000Y-63500000D03*
X167500000Y-68000000D03*
X157500000Y-63500000D03*
X157500000Y-68000000D03*
D20*
X163000000Y-74000000D03*
X163000000Y-79000000D03*
X163000000Y-95500000D03*
X163000000Y-98000000D03*
D17*
X161000000Y-55500000D03*
X168500000Y-58400000D03*
D20*
X163000000Y-128000000D03*
X163000000Y-123500000D03*
X169500000Y-128000000D03*
X169500000Y-123500000D03*
D21*
X141250000Y-57500000D03*
D22*
X146330000Y-57500000D03*
D21*
X145250000Y-137000000D03*
D22*
X140170000Y-137000000D03*
D18*
X165000000Y-119500000D03*
D23*
X159000000Y-83800000D03*
X158000000Y-91000000D03*
X158200000Y-119700000D03*
X141500000Y-112000000D03*
X142500000Y-112000000D03*
X142000000Y-111250000D03*
X141000000Y-111250000D03*
X150000000Y-113050000D03*
X152950000Y-109800000D03*
X156200000Y-109670000D03*
X162515000Y-116600000D03*
X154900000Y-121700000D03*
X160500000Y-108750000D03*
X163400000Y-110400000D03*
X141700000Y-105350000D03*
X137250000Y-137000000D03*
X137500000Y-57500000D03*
X151000000Y-118750000D03*
X148000000Y-121000000D03*
X149000000Y-120250000D03*
X163000000Y-112200000D03*
X166700000Y-114400000D03*
X166750000Y-113500000D03*
X155250000Y-53500000D03*
X152000000Y-118750000D03*
X151000000Y-118000000D03*
X149000000Y-121000000D03*
X148000000Y-120250000D03*
X163750000Y-112200000D03*
X153200000Y-118000000D03*
X155500000Y-114000000D03*
X160000000Y-117000000D03*
X158500000Y-117000000D03*
X157000000Y-117000000D03*
X155500000Y-115500000D03*
X157000000Y-115500000D03*
X158500000Y-115500000D03*
X160000000Y-115500000D03*
X157000000Y-114000000D03*
X158500000Y-114000000D03*
X160000000Y-114000000D03*
X160000000Y-112500000D03*
X158500000Y-112500000D03*
X157000000Y-112500000D03*
X155500000Y-112500000D03*
X166000000Y-114900000D03*
X152000000Y-130000000D03*
X171500000Y-129250000D03*
X171500000Y-128500000D03*
X171500000Y-127750000D03*
X170750000Y-130000000D03*
X170000000Y-130000000D03*
X169250000Y-130000000D03*
X168500000Y-130000000D03*
X167750000Y-130000000D03*
X167000000Y-130000000D03*
X166250000Y-130000000D03*
X165500000Y-130000000D03*
X164750000Y-130000000D03*
X164000000Y-130000000D03*
X163250000Y-130000000D03*
X162500000Y-130000000D03*
X161750000Y-130000000D03*
X161000000Y-130000000D03*
X160250000Y-130000000D03*
X159500000Y-130000000D03*
X158750000Y-130000000D03*
X158000000Y-130000000D03*
X157250000Y-130000000D03*
X155750000Y-130000000D03*
X155000000Y-130000000D03*
X154250000Y-130000000D03*
X153500000Y-130000000D03*
X152750000Y-130000000D03*
X157500000Y-129250000D03*
X157500000Y-128500000D03*
X157500000Y-127750000D03*
X157500000Y-127000000D03*
X158250000Y-127000000D03*
X158500000Y-122500000D03*
X157750000Y-122500000D03*
X157750000Y-121750000D03*
X157750000Y-121000000D03*
X159000000Y-127000000D03*
X159250000Y-126250000D03*
X159250000Y-125500000D03*
X159250000Y-124750000D03*
X159250000Y-124000000D03*
X159250000Y-123250000D03*
X159250000Y-122500000D03*
X155500000Y-127000000D03*
X154750000Y-127000000D03*
X154000000Y-127000000D03*
X153750000Y-126250000D03*
X153750000Y-125500000D03*
X153750000Y-124750000D03*
X153750000Y-124000000D03*
X153750000Y-123250000D03*
X153750000Y-122500000D03*
X154500000Y-122500000D03*
X155250000Y-122500000D03*
X155750000Y-121750000D03*
X171500000Y-130000000D03*
X155900000Y-119100000D03*
X151250000Y-130000000D03*
X150500000Y-130000000D03*
X149750000Y-130000000D03*
X149000000Y-130000000D03*
X148250000Y-130000000D03*
X147500000Y-130000000D03*
X146750000Y-130000000D03*
X146000000Y-130000000D03*
X145250000Y-129500000D03*
X144600000Y-128800000D03*
X143750000Y-128500000D03*
X143000000Y-128500000D03*
X142250000Y-128500000D03*
X141500000Y-128500000D03*
X140750000Y-128500000D03*
X140000000Y-128500000D03*
X139250000Y-128500000D03*
X138500000Y-128250000D03*
X138000000Y-127500000D03*
X138000000Y-126750000D03*
X138000000Y-126000000D03*
X138000000Y-125250000D03*
X138000000Y-124500000D03*
X138000000Y-123000000D03*
X171500000Y-127000000D03*
X171500000Y-125500000D03*
X147000000Y-90500000D03*
X171500000Y-124000000D03*
X171500000Y-122500000D03*
X171500000Y-121000000D03*
X171500000Y-119500000D03*
X171500000Y-118000000D03*
X171500000Y-116500000D03*
X171500000Y-115000000D03*
X171500000Y-113500000D03*
X171500000Y-112000000D03*
X171500000Y-110500000D03*
X171500000Y-109000000D03*
X171500000Y-107500000D03*
X171500000Y-106000000D03*
X171500000Y-104500000D03*
X171500000Y-103000000D03*
X171500000Y-101500000D03*
X171500000Y-100000000D03*
X171500000Y-98500000D03*
X171500000Y-97000000D03*
X171500000Y-95500000D03*
X171500000Y-94000000D03*
X171500000Y-92500000D03*
X171500000Y-91000000D03*
X171500000Y-89500000D03*
X171500000Y-88000000D03*
X171500000Y-86500000D03*
X171500000Y-85000000D03*
X171500000Y-83500000D03*
X171500000Y-82000000D03*
X171500000Y-80500000D03*
X171500000Y-79000000D03*
X171500000Y-77500000D03*
X171500000Y-76000000D03*
X171500000Y-74500000D03*
X171500000Y-73000000D03*
X171500000Y-71500000D03*
X171500000Y-70000000D03*
X171500000Y-68500000D03*
X171500000Y-67000000D03*
X171500000Y-65500000D03*
X171500000Y-64000000D03*
X171500000Y-62500000D03*
X171500000Y-61000000D03*
X171500000Y-59500000D03*
X171500000Y-58000000D03*
X171500000Y-56500000D03*
X171500000Y-55000000D03*
X171500000Y-54250000D03*
X171000000Y-53500000D03*
X170250000Y-53500000D03*
X168750000Y-53500000D03*
X167250000Y-53500000D03*
X165750000Y-53500000D03*
X164250000Y-53500000D03*
X162750000Y-53500000D03*
X161250000Y-53500000D03*
X159750000Y-53500000D03*
X158250000Y-53500000D03*
X156750000Y-53500000D03*
X138000000Y-121500000D03*
X138000000Y-120000000D03*
X138000000Y-118500000D03*
X138000000Y-117000000D03*
X138000000Y-115500000D03*
X138000000Y-114000000D03*
X138000000Y-112500000D03*
X138000000Y-111000000D03*
X138000000Y-109500000D03*
X138000000Y-108000000D03*
X138000000Y-102750000D03*
X138000000Y-101250000D03*
X138000000Y-99750000D03*
X138000000Y-96250000D03*
X138000000Y-94750000D03*
X138000000Y-93250000D03*
X138000000Y-91750000D03*
X148000000Y-89500000D03*
X149000000Y-88750000D03*
X151000000Y-86750000D03*
X151000000Y-85250000D03*
X151000000Y-83750000D03*
X150250000Y-82250000D03*
X150250000Y-87750000D03*
X145250000Y-81500000D03*
X143750000Y-81750000D03*
X149500000Y-53500000D03*
X152000000Y-118000000D03*
X169500000Y-55500000D03*
X169500000Y-80500000D03*
X169500000Y-93000000D03*
X169500000Y-105500000D03*
X157000000Y-74000000D03*
X157000000Y-87000000D03*
X157000000Y-100500000D03*
X144500000Y-80500000D03*
X142000000Y-118000000D03*
X169500000Y-70000000D03*
X168000000Y-119000000D03*
X142000000Y-108000000D03*
X145000000Y-96000000D03*
X140500000Y-76500000D03*
X143750000Y-133250000D03*
X144210000Y-87710000D03*
X141750000Y-87750000D03*
X139250000Y-87750000D03*
X145460000Y-86460000D03*
X136575010Y-87700000D03*
X134275010Y-90000000D03*
X134275010Y-92474990D03*
X134275010Y-94974990D03*
X134275010Y-97474990D03*
X134275010Y-99974990D03*
X134275010Y-102474990D03*
X134275010Y-104724990D03*
X134275010Y-107224990D03*
X134275010Y-109724990D03*
X134275010Y-112224990D03*
X134275010Y-114974990D03*
X134275010Y-117724990D03*
X134275010Y-120224990D03*
X134275010Y-122724990D03*
X134275010Y-125224990D03*
X134275010Y-127724990D03*
X135375000Y-130375000D03*
X137125000Y-132125000D03*
X139500000Y-132250000D03*
X142000000Y-132250000D03*
X145250000Y-134750000D03*
D24*
G36*
X159580876Y-54335355D02*
G01*
X159380934Y-54634591D01*
X159243211Y-54967084D01*
X159173000Y-55320056D01*
X159173000Y-55679944D01*
X159243211Y-56032916D01*
X159380934Y-56365409D01*
X159580876Y-56664645D01*
X159835355Y-56919124D01*
X160134591Y-57119066D01*
X160467084Y-57256789D01*
X160820056Y-57327000D01*
X161179944Y-57327000D01*
X161532916Y-57256789D01*
X161865409Y-57119066D01*
X162164645Y-56919124D01*
X162419124Y-56664645D01*
X162619066Y-56365409D01*
X162756789Y-56032916D01*
X162827000Y-55679944D01*
X162827000Y-55438246D01*
X168873000Y-55438246D01*
X168873000Y-55561754D01*
X168897095Y-55682889D01*
X168944360Y-55796996D01*
X169012977Y-55899689D01*
X169100311Y-55987023D01*
X169203004Y-56055640D01*
X169317111Y-56102905D01*
X169438246Y-56127000D01*
X169561754Y-56127000D01*
X169682889Y-56102905D01*
X169796996Y-56055640D01*
X169899689Y-55987023D01*
X169987023Y-55899689D01*
X170055640Y-55796996D01*
X170102905Y-55682889D01*
X170127000Y-55561754D01*
X170127000Y-55438246D01*
X170102905Y-55317111D01*
X170055640Y-55203004D01*
X169987023Y-55100311D01*
X169899689Y-55012977D01*
X169796996Y-54944360D01*
X169682889Y-54897095D01*
X169561754Y-54873000D01*
X169438246Y-54873000D01*
X169317111Y-54897095D01*
X169203004Y-54944360D01*
X169100311Y-55012977D01*
X169012977Y-55100311D01*
X168944360Y-55203004D01*
X168897095Y-55317111D01*
X168873000Y-55438246D01*
X162827000Y-55438246D01*
X162827000Y-55320056D01*
X162756789Y-54967084D01*
X162619066Y-54634591D01*
X162419124Y-54335355D01*
X162210769Y-54127000D01*
X170873000Y-54127000D01*
X170873000Y-115623855D01*
X167427000Y-115647139D01*
X167427000Y-111025000D01*
X167424560Y-111000224D01*
X167417333Y-110976399D01*
X167405597Y-110954443D01*
X167389803Y-110935197D01*
X167370557Y-110919403D01*
X167348601Y-110907667D01*
X167324776Y-110900440D01*
X167300557Y-110898001D01*
X161600557Y-110873001D01*
X161575770Y-110875333D01*
X161551914Y-110882455D01*
X161529906Y-110894095D01*
X161510592Y-110909804D01*
X161494714Y-110928980D01*
X161482882Y-110950885D01*
X161475550Y-110974677D01*
X161473040Y-111003174D01*
X161494712Y-111870040D01*
X160515353Y-111848032D01*
X160490528Y-111849915D01*
X160466547Y-111856605D01*
X160444333Y-111867845D01*
X160424738Y-111883203D01*
X160408515Y-111902088D01*
X160396289Y-111923775D01*
X160388528Y-111947431D01*
X160385583Y-111970421D01*
X160384416Y-112002772D01*
X160296996Y-111944360D01*
X160182889Y-111897095D01*
X160061754Y-111873000D01*
X159938246Y-111873000D01*
X159817111Y-111897095D01*
X159703004Y-111944360D01*
X159600311Y-112012977D01*
X159512977Y-112100311D01*
X159444360Y-112203004D01*
X159397095Y-112317111D01*
X159373000Y-112438246D01*
X159373000Y-112561754D01*
X159397095Y-112682889D01*
X159444360Y-112796996D01*
X159512977Y-112899689D01*
X159600311Y-112987023D01*
X159703004Y-113055640D01*
X159817111Y-113102905D01*
X159938246Y-113127000D01*
X160061754Y-113127000D01*
X160182889Y-113102905D01*
X160296996Y-113055640D01*
X160347647Y-113021796D01*
X160341833Y-113182921D01*
X160343378Y-113207769D01*
X160349741Y-113231838D01*
X160360678Y-113254204D01*
X160375768Y-113274006D01*
X160394431Y-113290484D01*
X160415950Y-113303004D01*
X160439498Y-113311085D01*
X160466236Y-113314475D01*
X161605166Y-113337028D01*
X161623003Y-115750938D01*
X161625627Y-115775696D01*
X161633030Y-115799466D01*
X161644928Y-115821336D01*
X161660863Y-115840464D01*
X161680225Y-115856115D01*
X161702267Y-115867689D01*
X161726145Y-115874739D01*
X161750000Y-115877000D01*
X170873000Y-115877000D01*
X170873000Y-129373000D01*
X158114818Y-129373000D01*
X158127000Y-129311754D01*
X158127000Y-129188246D01*
X158102905Y-129067111D01*
X158055640Y-128953004D01*
X158003520Y-128875000D01*
X158055640Y-128796996D01*
X158102905Y-128682889D01*
X158127000Y-128561754D01*
X158127000Y-128438246D01*
X158102905Y-128317111D01*
X158055640Y-128203004D01*
X158003520Y-128125000D01*
X158055640Y-128046996D01*
X158102905Y-127932889D01*
X158115553Y-127869302D01*
X161673000Y-127869302D01*
X161673000Y-128130698D01*
X161723996Y-128387072D01*
X161824028Y-128628570D01*
X161969252Y-128845913D01*
X162154087Y-129030748D01*
X162371430Y-129175972D01*
X162612928Y-129276004D01*
X162869302Y-129327000D01*
X163130698Y-129327000D01*
X163387072Y-129276004D01*
X163628570Y-129175972D01*
X163845913Y-129030748D01*
X164030748Y-128845913D01*
X164175972Y-128628570D01*
X164276004Y-128387072D01*
X164327000Y-128130698D01*
X164327000Y-127869302D01*
X168173000Y-127869302D01*
X168173000Y-128130698D01*
X168223996Y-128387072D01*
X168324028Y-128628570D01*
X168469252Y-128845913D01*
X168654087Y-129030748D01*
X168871430Y-129175972D01*
X169112928Y-129276004D01*
X169369302Y-129327000D01*
X169630698Y-129327000D01*
X169887072Y-129276004D01*
X170128570Y-129175972D01*
X170345913Y-129030748D01*
X170530748Y-128845913D01*
X170675972Y-128628570D01*
X170776004Y-128387072D01*
X170827000Y-128130698D01*
X170827000Y-127869302D01*
X170776004Y-127612928D01*
X170675972Y-127371430D01*
X170530748Y-127154087D01*
X170345913Y-126969252D01*
X170128570Y-126824028D01*
X169887072Y-126723996D01*
X169630698Y-126673000D01*
X169369302Y-126673000D01*
X169112928Y-126723996D01*
X168871430Y-126824028D01*
X168654087Y-126969252D01*
X168469252Y-127154087D01*
X168324028Y-127371430D01*
X168223996Y-127612928D01*
X168173000Y-127869302D01*
X164327000Y-127869302D01*
X164276004Y-127612928D01*
X164175972Y-127371430D01*
X164030748Y-127154087D01*
X163845913Y-126969252D01*
X163628570Y-126824028D01*
X163387072Y-126723996D01*
X163130698Y-126673000D01*
X162869302Y-126673000D01*
X162612928Y-126723996D01*
X162371430Y-126824028D01*
X162154087Y-126969252D01*
X161969252Y-127154087D01*
X161824028Y-127371430D01*
X161723996Y-127612928D01*
X161673000Y-127869302D01*
X158115553Y-127869302D01*
X158127000Y-127811754D01*
X158127000Y-127688246D01*
X158111793Y-127611793D01*
X158188246Y-127627000D01*
X158311754Y-127627000D01*
X158432889Y-127602905D01*
X158546996Y-127555640D01*
X158625000Y-127503520D01*
X158703004Y-127555640D01*
X158817111Y-127602905D01*
X158938246Y-127627000D01*
X159061754Y-127627000D01*
X159182889Y-127602905D01*
X159296996Y-127555640D01*
X159399689Y-127487023D01*
X159487023Y-127399689D01*
X159555640Y-127296996D01*
X159602905Y-127182889D01*
X159627000Y-127061754D01*
X159627000Y-126938246D01*
X159602905Y-126817111D01*
X159587064Y-126778868D01*
X159649689Y-126737023D01*
X159737023Y-126649689D01*
X159805640Y-126546996D01*
X159852905Y-126432889D01*
X159877000Y-126311754D01*
X159877000Y-126188246D01*
X159852905Y-126067111D01*
X159805640Y-125953004D01*
X159753520Y-125875000D01*
X159805640Y-125796996D01*
X159852905Y-125682889D01*
X159877000Y-125561754D01*
X159877000Y-125438246D01*
X159852905Y-125317111D01*
X159805640Y-125203004D01*
X159753520Y-125125000D01*
X159805640Y-125046996D01*
X159852905Y-124932889D01*
X159877000Y-124811754D01*
X159877000Y-124688246D01*
X159852905Y-124567111D01*
X159805640Y-124453004D01*
X159753520Y-124375000D01*
X159805640Y-124296996D01*
X159852905Y-124182889D01*
X159877000Y-124061754D01*
X159877000Y-123938246D01*
X159852905Y-123817111D01*
X159805640Y-123703004D01*
X159753520Y-123625000D01*
X159805640Y-123546996D01*
X159852905Y-123432889D01*
X159865553Y-123369302D01*
X161673000Y-123369302D01*
X161673000Y-123630698D01*
X161723996Y-123887072D01*
X161824028Y-124128570D01*
X161969252Y-124345913D01*
X162154087Y-124530748D01*
X162371430Y-124675972D01*
X162612928Y-124776004D01*
X162869302Y-124827000D01*
X163130698Y-124827000D01*
X163387072Y-124776004D01*
X163628570Y-124675972D01*
X163845913Y-124530748D01*
X164030748Y-124345913D01*
X164175972Y-124128570D01*
X164276004Y-123887072D01*
X164327000Y-123630698D01*
X164327000Y-123369302D01*
X168173000Y-123369302D01*
X168173000Y-123630698D01*
X168223996Y-123887072D01*
X168324028Y-124128570D01*
X168469252Y-124345913D01*
X168654087Y-124530748D01*
X168871430Y-124675972D01*
X169112928Y-124776004D01*
X169369302Y-124827000D01*
X169630698Y-124827000D01*
X169887072Y-124776004D01*
X170128570Y-124675972D01*
X170345913Y-124530748D01*
X170530748Y-124345913D01*
X170675972Y-124128570D01*
X170776004Y-123887072D01*
X170827000Y-123630698D01*
X170827000Y-123369302D01*
X170776004Y-123112928D01*
X170675972Y-122871430D01*
X170530748Y-122654087D01*
X170345913Y-122469252D01*
X170128570Y-122324028D01*
X169887072Y-122223996D01*
X169630698Y-122173000D01*
X169369302Y-122173000D01*
X169112928Y-122223996D01*
X168871430Y-122324028D01*
X168654087Y-122469252D01*
X168469252Y-122654087D01*
X168324028Y-122871430D01*
X168223996Y-123112928D01*
X168173000Y-123369302D01*
X164327000Y-123369302D01*
X164276004Y-123112928D01*
X164175972Y-122871430D01*
X164030748Y-122654087D01*
X163845913Y-122469252D01*
X163628570Y-122324028D01*
X163387072Y-122223996D01*
X163130698Y-122173000D01*
X162869302Y-122173000D01*
X162612928Y-122223996D01*
X162371430Y-122324028D01*
X162154087Y-122469252D01*
X161969252Y-122654087D01*
X161824028Y-122871430D01*
X161723996Y-123112928D01*
X161673000Y-123369302D01*
X159865553Y-123369302D01*
X159877000Y-123311754D01*
X159877000Y-123188246D01*
X159852905Y-123067111D01*
X159805640Y-122953004D01*
X159753520Y-122875000D01*
X159805640Y-122796996D01*
X159852905Y-122682889D01*
X159877000Y-122561754D01*
X159877000Y-122438246D01*
X159852905Y-122317111D01*
X159805640Y-122203004D01*
X159737023Y-122100311D01*
X159649689Y-122012977D01*
X159546996Y-121944360D01*
X159432889Y-121897095D01*
X159311754Y-121873000D01*
X159188246Y-121873000D01*
X159067111Y-121897095D01*
X158953004Y-121944360D01*
X158875000Y-121996480D01*
X158796996Y-121944360D01*
X158682889Y-121897095D01*
X158561754Y-121873000D01*
X158438246Y-121873000D01*
X158361793Y-121888207D01*
X158377000Y-121811754D01*
X158377000Y-121688246D01*
X158352905Y-121567111D01*
X158305640Y-121453004D01*
X158253520Y-121375000D01*
X158305640Y-121296996D01*
X158352905Y-121182889D01*
X158377000Y-121061754D01*
X158377000Y-120938246D01*
X158352905Y-120817111D01*
X158305640Y-120703004D01*
X158237023Y-120600311D01*
X158149689Y-120512977D01*
X158046996Y-120444360D01*
X157932889Y-120397095D01*
X157811754Y-120373000D01*
X157688246Y-120373000D01*
X157567111Y-120397095D01*
X157453004Y-120444360D01*
X157350311Y-120512977D01*
X157262977Y-120600311D01*
X157194360Y-120703004D01*
X157147095Y-120817111D01*
X157123000Y-120938246D01*
X157123000Y-121061754D01*
X157147095Y-121182889D01*
X157194360Y-121296996D01*
X157246480Y-121375000D01*
X157194360Y-121453004D01*
X157147095Y-121567111D01*
X157123000Y-121688246D01*
X157123000Y-121811754D01*
X157147095Y-121932889D01*
X157194360Y-122046996D01*
X157246480Y-122125000D01*
X157194360Y-122203004D01*
X157147095Y-122317111D01*
X157123000Y-122438246D01*
X157123000Y-122561754D01*
X157147095Y-122682889D01*
X157194360Y-122796996D01*
X157262977Y-122899689D01*
X157350311Y-122987023D01*
X157453004Y-123055640D01*
X157567111Y-123102905D01*
X157688246Y-123127000D01*
X157811754Y-123127000D01*
X157932889Y-123102905D01*
X158046996Y-123055640D01*
X158125000Y-123003520D01*
X158203004Y-123055640D01*
X158317111Y-123102905D01*
X158438246Y-123127000D01*
X158561754Y-123127000D01*
X158638207Y-123111793D01*
X158623000Y-123188246D01*
X158623000Y-123311754D01*
X158647095Y-123432889D01*
X158694360Y-123546996D01*
X158746480Y-123625000D01*
X158694360Y-123703004D01*
X158647095Y-123817111D01*
X158623000Y-123938246D01*
X158623000Y-124061754D01*
X158647095Y-124182889D01*
X158694360Y-124296996D01*
X158746480Y-124375000D01*
X158694360Y-124453004D01*
X158647095Y-124567111D01*
X158623000Y-124688246D01*
X158623000Y-124811754D01*
X158647095Y-124932889D01*
X158694360Y-125046996D01*
X158746480Y-125125000D01*
X158694360Y-125203004D01*
X158647095Y-125317111D01*
X158623000Y-125438246D01*
X158623000Y-125561754D01*
X158647095Y-125682889D01*
X158694360Y-125796996D01*
X158746480Y-125875000D01*
X158694360Y-125953004D01*
X158647095Y-126067111D01*
X158623000Y-126188246D01*
X158623000Y-126311754D01*
X158647095Y-126432889D01*
X158662936Y-126471132D01*
X158625000Y-126496480D01*
X158546996Y-126444360D01*
X158432889Y-126397095D01*
X158311754Y-126373000D01*
X158188246Y-126373000D01*
X158067111Y-126397095D01*
X157953004Y-126444360D01*
X157875000Y-126496480D01*
X157796996Y-126444360D01*
X157682889Y-126397095D01*
X157561754Y-126373000D01*
X157438246Y-126373000D01*
X157317111Y-126397095D01*
X157203004Y-126444360D01*
X157100311Y-126512977D01*
X157012977Y-126600311D01*
X156944360Y-126703004D01*
X156897095Y-126817111D01*
X156873000Y-126938246D01*
X156873000Y-127061754D01*
X156897095Y-127182889D01*
X156944360Y-127296996D01*
X156996480Y-127375000D01*
X156944360Y-127453004D01*
X156897095Y-127567111D01*
X156873000Y-127688246D01*
X156873000Y-127811754D01*
X156897095Y-127932889D01*
X156944360Y-128046996D01*
X156996480Y-128125000D01*
X156944360Y-128203004D01*
X156897095Y-128317111D01*
X156873000Y-128438246D01*
X156873000Y-128561754D01*
X156897095Y-128682889D01*
X156944360Y-128796996D01*
X156996480Y-128875000D01*
X156944360Y-128953004D01*
X156897095Y-129067111D01*
X156873000Y-129188246D01*
X156873000Y-129311754D01*
X156885182Y-129373000D01*
X145864022Y-129373000D01*
X145852905Y-129317111D01*
X145805640Y-129203004D01*
X145737023Y-129100311D01*
X145649689Y-129012977D01*
X145546996Y-128944360D01*
X145432889Y-128897095D01*
X145311754Y-128873000D01*
X145224763Y-128873000D01*
X145227000Y-128861754D01*
X145227000Y-128738246D01*
X145202905Y-128617111D01*
X145155640Y-128503004D01*
X145087023Y-128400311D01*
X144999689Y-128312977D01*
X144922296Y-128261265D01*
X144875272Y-127979121D01*
X144868792Y-127955083D01*
X144857746Y-127932771D01*
X144842560Y-127913043D01*
X144823817Y-127896656D01*
X144802237Y-127884241D01*
X144778650Y-127876274D01*
X144750000Y-127873000D01*
X139002183Y-127873000D01*
X138987023Y-127850311D01*
X138899689Y-127762977D01*
X138796996Y-127694360D01*
X138682889Y-127647095D01*
X138627000Y-127635978D01*
X138627000Y-125379151D01*
X138733000Y-125379151D01*
X138733000Y-125620849D01*
X138780153Y-125857903D01*
X138872647Y-126081202D01*
X139006927Y-126282167D01*
X139177833Y-126453073D01*
X139378798Y-126587353D01*
X139602097Y-126679847D01*
X139839151Y-126727000D01*
X140080849Y-126727000D01*
X140317903Y-126679847D01*
X140541202Y-126587353D01*
X140742167Y-126453073D01*
X140913073Y-126282167D01*
X141047353Y-126081202D01*
X141139847Y-125857903D01*
X141187000Y-125620849D01*
X141187000Y-125379151D01*
X141139847Y-125142097D01*
X141047353Y-124918798D01*
X140913073Y-124717833D01*
X140795240Y-124600000D01*
X141271418Y-124600000D01*
X141271418Y-126400000D01*
X141277732Y-126464103D01*
X141296430Y-126525743D01*
X141326794Y-126582550D01*
X141367657Y-126632343D01*
X141417450Y-126673206D01*
X141474257Y-126703570D01*
X141535897Y-126722268D01*
X141600000Y-126728582D01*
X143400000Y-126728582D01*
X143464103Y-126722268D01*
X143525743Y-126703570D01*
X143582550Y-126673206D01*
X143632343Y-126632343D01*
X143673206Y-126582550D01*
X143703570Y-126525743D01*
X143722268Y-126464103D01*
X143728582Y-126400000D01*
X143728582Y-125379151D01*
X145233000Y-125379151D01*
X145233000Y-125620849D01*
X145280153Y-125857903D01*
X145372647Y-126081202D01*
X145506927Y-126282167D01*
X145677833Y-126453073D01*
X145878798Y-126587353D01*
X146102097Y-126679847D01*
X146339151Y-126727000D01*
X146580849Y-126727000D01*
X146817903Y-126679847D01*
X147041202Y-126587353D01*
X147242167Y-126453073D01*
X147413073Y-126282167D01*
X147547353Y-126081202D01*
X147639847Y-125857903D01*
X147687000Y-125620849D01*
X147687000Y-125379151D01*
X147639847Y-125142097D01*
X147547353Y-124918798D01*
X147413073Y-124717833D01*
X147295240Y-124600000D01*
X147771418Y-124600000D01*
X147771418Y-126400000D01*
X147777732Y-126464103D01*
X147796430Y-126525743D01*
X147826794Y-126582550D01*
X147867657Y-126632343D01*
X147917450Y-126673206D01*
X147974257Y-126703570D01*
X148035897Y-126722268D01*
X148100000Y-126728582D01*
X149900000Y-126728582D01*
X149964103Y-126722268D01*
X150025743Y-126703570D01*
X150082550Y-126673206D01*
X150132343Y-126632343D01*
X150173206Y-126582550D01*
X150203570Y-126525743D01*
X150222268Y-126464103D01*
X150228582Y-126400000D01*
X150228582Y-124600000D01*
X150222268Y-124535897D01*
X150203570Y-124474257D01*
X150173206Y-124417450D01*
X150132343Y-124367657D01*
X150082550Y-124326794D01*
X150025743Y-124296430D01*
X149964103Y-124277732D01*
X149900000Y-124271418D01*
X148100000Y-124271418D01*
X148035897Y-124277732D01*
X147974257Y-124296430D01*
X147917450Y-124326794D01*
X147867657Y-124367657D01*
X147826794Y-124417450D01*
X147796430Y-124474257D01*
X147777732Y-124535897D01*
X147771418Y-124600000D01*
X147295240Y-124600000D01*
X147242167Y-124546927D01*
X147041202Y-124412647D01*
X146817903Y-124320153D01*
X146580849Y-124273000D01*
X146339151Y-124273000D01*
X146102097Y-124320153D01*
X145878798Y-124412647D01*
X145677833Y-124546927D01*
X145506927Y-124717833D01*
X145372647Y-124918798D01*
X145280153Y-125142097D01*
X145233000Y-125379151D01*
X143728582Y-125379151D01*
X143728582Y-124600000D01*
X143722268Y-124535897D01*
X143703570Y-124474257D01*
X143673206Y-124417450D01*
X143632343Y-124367657D01*
X143582550Y-124326794D01*
X143525743Y-124296430D01*
X143464103Y-124277732D01*
X143400000Y-124271418D01*
X141600000Y-124271418D01*
X141535897Y-124277732D01*
X141474257Y-124296430D01*
X141417450Y-124326794D01*
X141367657Y-124367657D01*
X141326794Y-124417450D01*
X141296430Y-124474257D01*
X141277732Y-124535897D01*
X141271418Y-124600000D01*
X140795240Y-124600000D01*
X140742167Y-124546927D01*
X140541202Y-124412647D01*
X140317903Y-124320153D01*
X140080849Y-124273000D01*
X139839151Y-124273000D01*
X139602097Y-124320153D01*
X139378798Y-124412647D01*
X139177833Y-124546927D01*
X139006927Y-124717833D01*
X138872647Y-124918798D01*
X138780153Y-125142097D01*
X138733000Y-125379151D01*
X138627000Y-125379151D01*
X138627000Y-117938246D01*
X141373000Y-117938246D01*
X141373000Y-118061754D01*
X141397095Y-118182889D01*
X141444360Y-118296996D01*
X141512977Y-118399689D01*
X141600311Y-118487023D01*
X141703004Y-118555640D01*
X141817111Y-118602905D01*
X141938246Y-118627000D01*
X142061754Y-118627000D01*
X142182889Y-118602905D01*
X142296996Y-118555640D01*
X142399689Y-118487023D01*
X142487023Y-118399689D01*
X142555640Y-118296996D01*
X142602905Y-118182889D01*
X142627000Y-118061754D01*
X142627000Y-117938246D01*
X142602905Y-117817111D01*
X142555640Y-117703004D01*
X142487023Y-117600311D01*
X142399689Y-117512977D01*
X142296996Y-117444360D01*
X142182889Y-117397095D01*
X142061754Y-117373000D01*
X141938246Y-117373000D01*
X141817111Y-117397095D01*
X141703004Y-117444360D01*
X141600311Y-117512977D01*
X141512977Y-117600311D01*
X141444360Y-117703004D01*
X141397095Y-117817111D01*
X141373000Y-117938246D01*
X138627000Y-117938246D01*
X138627000Y-116750000D01*
X146623000Y-116750000D01*
X146623000Y-122250000D01*
X146625440Y-122274776D01*
X146632667Y-122298601D01*
X146644403Y-122320557D01*
X146660197Y-122339803D01*
X146679443Y-122355597D01*
X146701399Y-122367333D01*
X146725224Y-122374560D01*
X146750000Y-122377000D01*
X153135182Y-122377000D01*
X153123000Y-122438246D01*
X153123000Y-122561754D01*
X153147095Y-122682889D01*
X153194360Y-122796996D01*
X153246480Y-122875000D01*
X153194360Y-122953004D01*
X153147095Y-123067111D01*
X153123000Y-123188246D01*
X153123000Y-123311754D01*
X153147095Y-123432889D01*
X153194360Y-123546996D01*
X153246480Y-123625000D01*
X153194360Y-123703004D01*
X153147095Y-123817111D01*
X153123000Y-123938246D01*
X153123000Y-124061754D01*
X153147095Y-124182889D01*
X153194360Y-124296996D01*
X153246480Y-124375000D01*
X153194360Y-124453004D01*
X153147095Y-124567111D01*
X153123000Y-124688246D01*
X153123000Y-124811754D01*
X153147095Y-124932889D01*
X153194360Y-125046996D01*
X153246480Y-125125000D01*
X153194360Y-125203004D01*
X153147095Y-125317111D01*
X153123000Y-125438246D01*
X153123000Y-125561754D01*
X153147095Y-125682889D01*
X153194360Y-125796996D01*
X153246480Y-125875000D01*
X153194360Y-125953004D01*
X153147095Y-126067111D01*
X153123000Y-126188246D01*
X153123000Y-126311754D01*
X153147095Y-126432889D01*
X153194360Y-126546996D01*
X153262977Y-126649689D01*
X153350311Y-126737023D01*
X153412936Y-126778868D01*
X153397095Y-126817111D01*
X153373000Y-126938246D01*
X153373000Y-127061754D01*
X153397095Y-127182889D01*
X153444360Y-127296996D01*
X153512977Y-127399689D01*
X153600311Y-127487023D01*
X153703004Y-127555640D01*
X153817111Y-127602905D01*
X153938246Y-127627000D01*
X154061754Y-127627000D01*
X154182889Y-127602905D01*
X154296996Y-127555640D01*
X154375000Y-127503520D01*
X154453004Y-127555640D01*
X154567111Y-127602905D01*
X154688246Y-127627000D01*
X154811754Y-127627000D01*
X154932889Y-127602905D01*
X155046996Y-127555640D01*
X155125000Y-127503520D01*
X155203004Y-127555640D01*
X155317111Y-127602905D01*
X155438246Y-127627000D01*
X155561754Y-127627000D01*
X155682889Y-127602905D01*
X155796996Y-127555640D01*
X155899689Y-127487023D01*
X155987023Y-127399689D01*
X156055640Y-127296996D01*
X156102905Y-127182889D01*
X156127000Y-127061754D01*
X156127000Y-126938246D01*
X156102905Y-126817111D01*
X156055640Y-126703004D01*
X155987023Y-126600311D01*
X155899689Y-126512977D01*
X155796996Y-126444360D01*
X155682889Y-126397095D01*
X155561754Y-126373000D01*
X155438246Y-126373000D01*
X155317111Y-126397095D01*
X155203004Y-126444360D01*
X155125000Y-126496480D01*
X155046996Y-126444360D01*
X154932889Y-126397095D01*
X154811754Y-126373000D01*
X154688246Y-126373000D01*
X154567111Y-126397095D01*
X154453004Y-126444360D01*
X154375000Y-126496480D01*
X154337064Y-126471132D01*
X154352905Y-126432889D01*
X154377000Y-126311754D01*
X154377000Y-126188246D01*
X154352905Y-126067111D01*
X154305640Y-125953004D01*
X154253520Y-125875000D01*
X154305640Y-125796996D01*
X154352905Y-125682889D01*
X154377000Y-125561754D01*
X154377000Y-125438246D01*
X154352905Y-125317111D01*
X154305640Y-125203004D01*
X154253520Y-125125000D01*
X154305640Y-125046996D01*
X154352905Y-124932889D01*
X154377000Y-124811754D01*
X154377000Y-124688246D01*
X154352905Y-124567111D01*
X154305640Y-124453004D01*
X154253520Y-124375000D01*
X154305640Y-124296996D01*
X154352905Y-124182889D01*
X154377000Y-124061754D01*
X154377000Y-123938246D01*
X154352905Y-123817111D01*
X154305640Y-123703004D01*
X154253520Y-123625000D01*
X154305640Y-123546996D01*
X154352905Y-123432889D01*
X154377000Y-123311754D01*
X154377000Y-123188246D01*
X154361793Y-123111793D01*
X154438246Y-123127000D01*
X154561754Y-123127000D01*
X154682889Y-123102905D01*
X154796996Y-123055640D01*
X154875000Y-123003520D01*
X154953004Y-123055640D01*
X155067111Y-123102905D01*
X155188246Y-123127000D01*
X155311754Y-123127000D01*
X155432889Y-123102905D01*
X155546996Y-123055640D01*
X155649689Y-122987023D01*
X155737023Y-122899689D01*
X155805640Y-122796996D01*
X155852905Y-122682889D01*
X155877000Y-122561754D01*
X155877000Y-122438246D01*
X155862798Y-122366847D01*
X155932889Y-122352905D01*
X156046996Y-122305640D01*
X156149689Y-122237023D01*
X156237023Y-122149689D01*
X156305640Y-122046996D01*
X156352905Y-121932889D01*
X156377000Y-121811754D01*
X156377000Y-121688246D01*
X156352905Y-121567111D01*
X156305640Y-121453004D01*
X156237023Y-121350311D01*
X156149689Y-121262977D01*
X156046996Y-121194360D01*
X155932889Y-121147095D01*
X155811754Y-121123000D01*
X155688246Y-121123000D01*
X155567111Y-121147095D01*
X155453004Y-121194360D01*
X155350311Y-121262977D01*
X155262977Y-121350311D01*
X155194360Y-121453004D01*
X155147095Y-121567111D01*
X155123000Y-121688246D01*
X155123000Y-121811754D01*
X155137202Y-121883153D01*
X155067111Y-121897095D01*
X154953004Y-121944360D01*
X154875000Y-121996480D01*
X154796996Y-121944360D01*
X154682889Y-121897095D01*
X154561754Y-121873000D01*
X154438246Y-121873000D01*
X154317111Y-121897095D01*
X154203004Y-121944360D01*
X154125000Y-121996480D01*
X154046996Y-121944360D01*
X153932889Y-121897095D01*
X153811754Y-121873000D01*
X153688246Y-121873000D01*
X153567111Y-121897095D01*
X153453004Y-121944360D01*
X153377000Y-121995144D01*
X153377000Y-119127000D01*
X155250000Y-119127000D01*
X155273000Y-119124735D01*
X155273000Y-119161754D01*
X155297095Y-119282889D01*
X155344360Y-119396996D01*
X155412977Y-119499689D01*
X155500311Y-119587023D01*
X155603004Y-119655640D01*
X155717111Y-119702905D01*
X155838246Y-119727000D01*
X155961754Y-119727000D01*
X156082889Y-119702905D01*
X156196996Y-119655640D01*
X156299689Y-119587023D01*
X156387023Y-119499689D01*
X156455640Y-119396996D01*
X156502905Y-119282889D01*
X156527000Y-119161754D01*
X156527000Y-119038246D01*
X156502905Y-118917111D01*
X156455640Y-118803004D01*
X156387023Y-118700311D01*
X156336712Y-118650000D01*
X163821418Y-118650000D01*
X163821418Y-120350000D01*
X163827732Y-120414103D01*
X163846430Y-120475743D01*
X163876794Y-120532550D01*
X163917657Y-120582343D01*
X163967450Y-120623206D01*
X164024257Y-120653570D01*
X164085897Y-120672268D01*
X164150000Y-120678582D01*
X165850000Y-120678582D01*
X165914103Y-120672268D01*
X165975743Y-120653570D01*
X166032550Y-120623206D01*
X166082343Y-120582343D01*
X166123206Y-120532550D01*
X166153570Y-120475743D01*
X166172268Y-120414103D01*
X166178582Y-120350000D01*
X166178582Y-118938246D01*
X167373000Y-118938246D01*
X167373000Y-119061754D01*
X167397095Y-119182889D01*
X167444360Y-119296996D01*
X167512977Y-119399689D01*
X167600311Y-119487023D01*
X167703004Y-119555640D01*
X167817111Y-119602905D01*
X167938246Y-119627000D01*
X168061754Y-119627000D01*
X168182889Y-119602905D01*
X168296996Y-119555640D01*
X168399689Y-119487023D01*
X168487023Y-119399689D01*
X168555640Y-119296996D01*
X168602905Y-119182889D01*
X168627000Y-119061754D01*
X168627000Y-118938246D01*
X168602905Y-118817111D01*
X168555640Y-118703004D01*
X168487023Y-118600311D01*
X168399689Y-118512977D01*
X168296996Y-118444360D01*
X168182889Y-118397095D01*
X168061754Y-118373000D01*
X167938246Y-118373000D01*
X167817111Y-118397095D01*
X167703004Y-118444360D01*
X167600311Y-118512977D01*
X167512977Y-118600311D01*
X167444360Y-118703004D01*
X167397095Y-118817111D01*
X167373000Y-118938246D01*
X166178582Y-118938246D01*
X166178582Y-118650000D01*
X166172268Y-118585897D01*
X166153570Y-118524257D01*
X166123206Y-118467450D01*
X166082343Y-118417657D01*
X166032550Y-118376794D01*
X165975743Y-118346430D01*
X165914103Y-118327732D01*
X165850000Y-118321418D01*
X164150000Y-118321418D01*
X164085897Y-118327732D01*
X164024257Y-118346430D01*
X163967450Y-118376794D01*
X163917657Y-118417657D01*
X163876794Y-118467450D01*
X163846430Y-118524257D01*
X163827732Y-118585897D01*
X163821418Y-118650000D01*
X156336712Y-118650000D01*
X156299689Y-118612977D01*
X156196996Y-118544360D01*
X156082889Y-118497095D01*
X155961754Y-118473000D01*
X155838246Y-118473000D01*
X155717111Y-118497095D01*
X155603004Y-118544360D01*
X155500311Y-118612977D01*
X155412977Y-118700311D01*
X155377000Y-118754155D01*
X155377000Y-117000000D01*
X155374560Y-116975224D01*
X155367333Y-116951399D01*
X155360303Y-116938246D01*
X156373000Y-116938246D01*
X156373000Y-117061754D01*
X156397095Y-117182889D01*
X156444360Y-117296996D01*
X156512977Y-117399689D01*
X156600311Y-117487023D01*
X156703004Y-117555640D01*
X156817111Y-117602905D01*
X156938246Y-117627000D01*
X157061754Y-117627000D01*
X157182889Y-117602905D01*
X157296996Y-117555640D01*
X157399689Y-117487023D01*
X157487023Y-117399689D01*
X157555640Y-117296996D01*
X157602905Y-117182889D01*
X157627000Y-117061754D01*
X157627000Y-116938246D01*
X157873000Y-116938246D01*
X157873000Y-117061754D01*
X157897095Y-117182889D01*
X157944360Y-117296996D01*
X158012977Y-117399689D01*
X158100311Y-117487023D01*
X158203004Y-117555640D01*
X158317111Y-117602905D01*
X158438246Y-117627000D01*
X158561754Y-117627000D01*
X158682889Y-117602905D01*
X158796996Y-117555640D01*
X158899689Y-117487023D01*
X158987023Y-117399689D01*
X159055640Y-117296996D01*
X159102905Y-117182889D01*
X159127000Y-117061754D01*
X159127000Y-116938246D01*
X159373000Y-116938246D01*
X159373000Y-117061754D01*
X159397095Y-117182889D01*
X159444360Y-117296996D01*
X159512977Y-117399689D01*
X159600311Y-117487023D01*
X159703004Y-117555640D01*
X159817111Y-117602905D01*
X159938246Y-117627000D01*
X160061754Y-117627000D01*
X160182889Y-117602905D01*
X160296996Y-117555640D01*
X160399689Y-117487023D01*
X160487023Y-117399689D01*
X160555640Y-117296996D01*
X160602905Y-117182889D01*
X160627000Y-117061754D01*
X160627000Y-116938246D01*
X160602905Y-116817111D01*
X160555640Y-116703004D01*
X160487023Y-116600311D01*
X160399689Y-116512977D01*
X160296996Y-116444360D01*
X160182889Y-116397095D01*
X160061754Y-116373000D01*
X159938246Y-116373000D01*
X159817111Y-116397095D01*
X159703004Y-116444360D01*
X159600311Y-116512977D01*
X159512977Y-116600311D01*
X159444360Y-116703004D01*
X159397095Y-116817111D01*
X159373000Y-116938246D01*
X159127000Y-116938246D01*
X159102905Y-116817111D01*
X159055640Y-116703004D01*
X158987023Y-116600311D01*
X158899689Y-116512977D01*
X158796996Y-116444360D01*
X158682889Y-116397095D01*
X158561754Y-116373000D01*
X158438246Y-116373000D01*
X158317111Y-116397095D01*
X158203004Y-116444360D01*
X158100311Y-116512977D01*
X158012977Y-116600311D01*
X157944360Y-116703004D01*
X157897095Y-116817111D01*
X157873000Y-116938246D01*
X157627000Y-116938246D01*
X157602905Y-116817111D01*
X157555640Y-116703004D01*
X157487023Y-116600311D01*
X157399689Y-116512977D01*
X157296996Y-116444360D01*
X157182889Y-116397095D01*
X157061754Y-116373000D01*
X156938246Y-116373000D01*
X156817111Y-116397095D01*
X156703004Y-116444360D01*
X156600311Y-116512977D01*
X156512977Y-116600311D01*
X156444360Y-116703004D01*
X156397095Y-116817111D01*
X156373000Y-116938246D01*
X155360303Y-116938246D01*
X155355597Y-116929443D01*
X155339803Y-116910197D01*
X155320557Y-116894403D01*
X155298601Y-116882667D01*
X155274776Y-116875440D01*
X155250000Y-116873000D01*
X153627000Y-116873000D01*
X153627000Y-116750000D01*
X153624560Y-116725224D01*
X153617333Y-116701399D01*
X153605597Y-116679443D01*
X153589803Y-116660197D01*
X153570557Y-116644403D01*
X153548601Y-116632667D01*
X153524776Y-116625440D01*
X153500000Y-116623000D01*
X146750000Y-116623000D01*
X146725224Y-116625440D01*
X146701399Y-116632667D01*
X146679443Y-116644403D01*
X146660197Y-116660197D01*
X146644403Y-116679443D01*
X146632667Y-116701399D01*
X146625440Y-116725224D01*
X146623000Y-116750000D01*
X138627000Y-116750000D01*
X138627000Y-115438246D01*
X154873000Y-115438246D01*
X154873000Y-115561754D01*
X154897095Y-115682889D01*
X154944360Y-115796996D01*
X155012977Y-115899689D01*
X155100311Y-115987023D01*
X155203004Y-116055640D01*
X155317111Y-116102905D01*
X155438246Y-116127000D01*
X155561754Y-116127000D01*
X155682889Y-116102905D01*
X155796996Y-116055640D01*
X155899689Y-115987023D01*
X155987023Y-115899689D01*
X156055640Y-115796996D01*
X156102905Y-115682889D01*
X156127000Y-115561754D01*
X156127000Y-115438246D01*
X156373000Y-115438246D01*
X156373000Y-115561754D01*
X156397095Y-115682889D01*
X156444360Y-115796996D01*
X156512977Y-115899689D01*
X156600311Y-115987023D01*
X156703004Y-116055640D01*
X156817111Y-116102905D01*
X156938246Y-116127000D01*
X157061754Y-116127000D01*
X157182889Y-116102905D01*
X157296996Y-116055640D01*
X157399689Y-115987023D01*
X157487023Y-115899689D01*
X157555640Y-115796996D01*
X157602905Y-115682889D01*
X157627000Y-115561754D01*
X157627000Y-115438246D01*
X157873000Y-115438246D01*
X157873000Y-115561754D01*
X157897095Y-115682889D01*
X157944360Y-115796996D01*
X158012977Y-115899689D01*
X158100311Y-115987023D01*
X158203004Y-116055640D01*
X158317111Y-116102905D01*
X158438246Y-116127000D01*
X158561754Y-116127000D01*
X158682889Y-116102905D01*
X158796996Y-116055640D01*
X158899689Y-115987023D01*
X158987023Y-115899689D01*
X159055640Y-115796996D01*
X159102905Y-115682889D01*
X159127000Y-115561754D01*
X159127000Y-115438246D01*
X159373000Y-115438246D01*
X159373000Y-115561754D01*
X159397095Y-115682889D01*
X159444360Y-115796996D01*
X159512977Y-115899689D01*
X159600311Y-115987023D01*
X159703004Y-116055640D01*
X159817111Y-116102905D01*
X159938246Y-116127000D01*
X160061754Y-116127000D01*
X160182889Y-116102905D01*
X160296996Y-116055640D01*
X160399689Y-115987023D01*
X160487023Y-115899689D01*
X160555640Y-115796996D01*
X160602905Y-115682889D01*
X160627000Y-115561754D01*
X160627000Y-115438246D01*
X160602905Y-115317111D01*
X160555640Y-115203004D01*
X160487023Y-115100311D01*
X160399689Y-115012977D01*
X160296996Y-114944360D01*
X160182889Y-114897095D01*
X160061754Y-114873000D01*
X159938246Y-114873000D01*
X159817111Y-114897095D01*
X159703004Y-114944360D01*
X159600311Y-115012977D01*
X159512977Y-115100311D01*
X159444360Y-115203004D01*
X159397095Y-115317111D01*
X159373000Y-115438246D01*
X159127000Y-115438246D01*
X159102905Y-115317111D01*
X159055640Y-115203004D01*
X158987023Y-115100311D01*
X158899689Y-115012977D01*
X158796996Y-114944360D01*
X158682889Y-114897095D01*
X158561754Y-114873000D01*
X158438246Y-114873000D01*
X158317111Y-114897095D01*
X158203004Y-114944360D01*
X158100311Y-115012977D01*
X158012977Y-115100311D01*
X157944360Y-115203004D01*
X157897095Y-115317111D01*
X157873000Y-115438246D01*
X157627000Y-115438246D01*
X157602905Y-115317111D01*
X157555640Y-115203004D01*
X157487023Y-115100311D01*
X157399689Y-115012977D01*
X157296996Y-114944360D01*
X157182889Y-114897095D01*
X157061754Y-114873000D01*
X156938246Y-114873000D01*
X156817111Y-114897095D01*
X156703004Y-114944360D01*
X156600311Y-115012977D01*
X156512977Y-115100311D01*
X156444360Y-115203004D01*
X156397095Y-115317111D01*
X156373000Y-115438246D01*
X156127000Y-115438246D01*
X156102905Y-115317111D01*
X156055640Y-115203004D01*
X155987023Y-115100311D01*
X155899689Y-115012977D01*
X155796996Y-114944360D01*
X155682889Y-114897095D01*
X155561754Y-114873000D01*
X155438246Y-114873000D01*
X155317111Y-114897095D01*
X155203004Y-114944360D01*
X155100311Y-115012977D01*
X155012977Y-115100311D01*
X154944360Y-115203004D01*
X154897095Y-115317111D01*
X154873000Y-115438246D01*
X138627000Y-115438246D01*
X138627000Y-113938246D01*
X154873000Y-113938246D01*
X154873000Y-114061754D01*
X154897095Y-114182889D01*
X154944360Y-114296996D01*
X155012977Y-114399689D01*
X155100311Y-114487023D01*
X155203004Y-114555640D01*
X155317111Y-114602905D01*
X155438246Y-114627000D01*
X155561754Y-114627000D01*
X155682889Y-114602905D01*
X155796996Y-114555640D01*
X155899689Y-114487023D01*
X155987023Y-114399689D01*
X156055640Y-114296996D01*
X156102905Y-114182889D01*
X156127000Y-114061754D01*
X156127000Y-113938246D01*
X156373000Y-113938246D01*
X156373000Y-114061754D01*
X156397095Y-114182889D01*
X156444360Y-114296996D01*
X156512977Y-114399689D01*
X156600311Y-114487023D01*
X156703004Y-114555640D01*
X156817111Y-114602905D01*
X156938246Y-114627000D01*
X157061754Y-114627000D01*
X157182889Y-114602905D01*
X157296996Y-114555640D01*
X157399689Y-114487023D01*
X157487023Y-114399689D01*
X157555640Y-114296996D01*
X157602905Y-114182889D01*
X157627000Y-114061754D01*
X157627000Y-113938246D01*
X157873000Y-113938246D01*
X157873000Y-114061754D01*
X157897095Y-114182889D01*
X157944360Y-114296996D01*
X158012977Y-114399689D01*
X158100311Y-114487023D01*
X158203004Y-114555640D01*
X158317111Y-114602905D01*
X158438246Y-114627000D01*
X158561754Y-114627000D01*
X158682889Y-114602905D01*
X158796996Y-114555640D01*
X158899689Y-114487023D01*
X158987023Y-114399689D01*
X159055640Y-114296996D01*
X159102905Y-114182889D01*
X159127000Y-114061754D01*
X159127000Y-113938246D01*
X159373000Y-113938246D01*
X159373000Y-114061754D01*
X159397095Y-114182889D01*
X159444360Y-114296996D01*
X159512977Y-114399689D01*
X159600311Y-114487023D01*
X159703004Y-114555640D01*
X159817111Y-114602905D01*
X159938246Y-114627000D01*
X160061754Y-114627000D01*
X160182889Y-114602905D01*
X160296996Y-114555640D01*
X160399689Y-114487023D01*
X160487023Y-114399689D01*
X160555640Y-114296996D01*
X160602905Y-114182889D01*
X160627000Y-114061754D01*
X160627000Y-113938246D01*
X160602905Y-113817111D01*
X160555640Y-113703004D01*
X160487023Y-113600311D01*
X160399689Y-113512977D01*
X160296996Y-113444360D01*
X160182889Y-113397095D01*
X160061754Y-113373000D01*
X159938246Y-113373000D01*
X159817111Y-113397095D01*
X159703004Y-113444360D01*
X159600311Y-113512977D01*
X159512977Y-113600311D01*
X159444360Y-113703004D01*
X159397095Y-113817111D01*
X159373000Y-113938246D01*
X159127000Y-113938246D01*
X159102905Y-113817111D01*
X159055640Y-113703004D01*
X158987023Y-113600311D01*
X158899689Y-113512977D01*
X158796996Y-113444360D01*
X158682889Y-113397095D01*
X158561754Y-113373000D01*
X158438246Y-113373000D01*
X158317111Y-113397095D01*
X158203004Y-113444360D01*
X158100311Y-113512977D01*
X158012977Y-113600311D01*
X157944360Y-113703004D01*
X157897095Y-113817111D01*
X157873000Y-113938246D01*
X157627000Y-113938246D01*
X157602905Y-113817111D01*
X157555640Y-113703004D01*
X157487023Y-113600311D01*
X157399689Y-113512977D01*
X157296996Y-113444360D01*
X157182889Y-113397095D01*
X157061754Y-113373000D01*
X156938246Y-113373000D01*
X156817111Y-113397095D01*
X156703004Y-113444360D01*
X156600311Y-113512977D01*
X156512977Y-113600311D01*
X156444360Y-113703004D01*
X156397095Y-113817111D01*
X156373000Y-113938246D01*
X156127000Y-113938246D01*
X156102905Y-113817111D01*
X156055640Y-113703004D01*
X155987023Y-113600311D01*
X155899689Y-113512977D01*
X155796996Y-113444360D01*
X155682889Y-113397095D01*
X155561754Y-113373000D01*
X155438246Y-113373000D01*
X155317111Y-113397095D01*
X155203004Y-113444360D01*
X155100311Y-113512977D01*
X155012977Y-113600311D01*
X154944360Y-113703004D01*
X154897095Y-113817111D01*
X154873000Y-113938246D01*
X138627000Y-113938246D01*
X138627000Y-112438246D01*
X154873000Y-112438246D01*
X154873000Y-112561754D01*
X154897095Y-112682889D01*
X154944360Y-112796996D01*
X155012977Y-112899689D01*
X155100311Y-112987023D01*
X155203004Y-113055640D01*
X155317111Y-113102905D01*
X155438246Y-113127000D01*
X155561754Y-113127000D01*
X155682889Y-113102905D01*
X155796996Y-113055640D01*
X155899689Y-112987023D01*
X155987023Y-112899689D01*
X156055640Y-112796996D01*
X156102905Y-112682889D01*
X156127000Y-112561754D01*
X156127000Y-112438246D01*
X156373000Y-112438246D01*
X156373000Y-112561754D01*
X156397095Y-112682889D01*
X156444360Y-112796996D01*
X156512977Y-112899689D01*
X156600311Y-112987023D01*
X156703004Y-113055640D01*
X156817111Y-113102905D01*
X156938246Y-113127000D01*
X157061754Y-113127000D01*
X157182889Y-113102905D01*
X157296996Y-113055640D01*
X157399689Y-112987023D01*
X157487023Y-112899689D01*
X157555640Y-112796996D01*
X157602905Y-112682889D01*
X157627000Y-112561754D01*
X157627000Y-112438246D01*
X157873000Y-112438246D01*
X157873000Y-112561754D01*
X157897095Y-112682889D01*
X157944360Y-112796996D01*
X158012977Y-112899689D01*
X158100311Y-112987023D01*
X158203004Y-113055640D01*
X158317111Y-113102905D01*
X158438246Y-113127000D01*
X158561754Y-113127000D01*
X158682889Y-113102905D01*
X158796996Y-113055640D01*
X158899689Y-112987023D01*
X158987023Y-112899689D01*
X159055640Y-112796996D01*
X159102905Y-112682889D01*
X159127000Y-112561754D01*
X159127000Y-112438246D01*
X159102905Y-112317111D01*
X159055640Y-112203004D01*
X158987023Y-112100311D01*
X158899689Y-112012977D01*
X158796996Y-111944360D01*
X158682889Y-111897095D01*
X158561754Y-111873000D01*
X158438246Y-111873000D01*
X158317111Y-111897095D01*
X158203004Y-111944360D01*
X158100311Y-112012977D01*
X158012977Y-112100311D01*
X157944360Y-112203004D01*
X157897095Y-112317111D01*
X157873000Y-112438246D01*
X157627000Y-112438246D01*
X157602905Y-112317111D01*
X157555640Y-112203004D01*
X157487023Y-112100311D01*
X157399689Y-112012977D01*
X157296996Y-111944360D01*
X157182889Y-111897095D01*
X157061754Y-111873000D01*
X156938246Y-111873000D01*
X156817111Y-111897095D01*
X156703004Y-111944360D01*
X156600311Y-112012977D01*
X156512977Y-112100311D01*
X156444360Y-112203004D01*
X156397095Y-112317111D01*
X156373000Y-112438246D01*
X156127000Y-112438246D01*
X156102905Y-112317111D01*
X156055640Y-112203004D01*
X155987023Y-112100311D01*
X155899689Y-112012977D01*
X155796996Y-111944360D01*
X155682889Y-111897095D01*
X155561754Y-111873000D01*
X155438246Y-111873000D01*
X155317111Y-111897095D01*
X155203004Y-111944360D01*
X155100311Y-112012977D01*
X155012977Y-112100311D01*
X154944360Y-112203004D01*
X154897095Y-112317111D01*
X154873000Y-112438246D01*
X138627000Y-112438246D01*
X138627000Y-107938246D01*
X141373000Y-107938246D01*
X141373000Y-108061754D01*
X141397095Y-108182889D01*
X141444360Y-108296996D01*
X141512977Y-108399689D01*
X141600311Y-108487023D01*
X141703004Y-108555640D01*
X141817111Y-108602905D01*
X141938246Y-108627000D01*
X142061754Y-108627000D01*
X142182889Y-108602905D01*
X142296996Y-108555640D01*
X142399689Y-108487023D01*
X142487023Y-108399689D01*
X142555640Y-108296996D01*
X142602905Y-108182889D01*
X142627000Y-108061754D01*
X142627000Y-107938246D01*
X142602905Y-107817111D01*
X142555640Y-107703004D01*
X142487023Y-107600311D01*
X142399689Y-107512977D01*
X142296996Y-107444360D01*
X142182889Y-107397095D01*
X142061754Y-107373000D01*
X141938246Y-107373000D01*
X141817111Y-107397095D01*
X141703004Y-107444360D01*
X141600311Y-107512977D01*
X141512977Y-107600311D01*
X141444360Y-107703004D01*
X141397095Y-107817111D01*
X141373000Y-107938246D01*
X138627000Y-107938246D01*
X138627000Y-104634076D01*
X149703000Y-104634076D01*
X149703000Y-104865924D01*
X149748231Y-105093318D01*
X149836956Y-105307519D01*
X149965764Y-105500294D01*
X150129706Y-105664236D01*
X150322481Y-105793044D01*
X150536682Y-105881769D01*
X150764076Y-105927000D01*
X150995924Y-105927000D01*
X151223318Y-105881769D01*
X151437519Y-105793044D01*
X151630294Y-105664236D01*
X151794236Y-105500294D01*
X151923044Y-105307519D01*
X152011769Y-105093318D01*
X152057000Y-104865924D01*
X152057000Y-104634076D01*
X152243000Y-104634076D01*
X152243000Y-104865924D01*
X152288231Y-105093318D01*
X152376956Y-105307519D01*
X152505764Y-105500294D01*
X152669706Y-105664236D01*
X152862481Y-105793044D01*
X153076682Y-105881769D01*
X153304076Y-105927000D01*
X153535924Y-105927000D01*
X153763318Y-105881769D01*
X153977519Y-105793044D01*
X154170294Y-105664236D01*
X154334236Y-105500294D01*
X154463044Y-105307519D01*
X154531264Y-105142821D01*
X154615843Y-105381252D01*
X154764822Y-105631355D01*
X154959731Y-105847588D01*
X155193080Y-106021641D01*
X155455901Y-106146825D01*
X155603110Y-106191476D01*
X155833000Y-106070155D01*
X155833000Y-104877000D01*
X155813000Y-104877000D01*
X155813000Y-104623000D01*
X155833000Y-104623000D01*
X155833000Y-103429845D01*
X156087000Y-103429845D01*
X156087000Y-104623000D01*
X156107000Y-104623000D01*
X156107000Y-104877000D01*
X156087000Y-104877000D01*
X156087000Y-106070155D01*
X156316890Y-106191476D01*
X156464099Y-106146825D01*
X156726920Y-106021641D01*
X156960269Y-105847588D01*
X157155178Y-105631355D01*
X157304157Y-105381252D01*
X157321418Y-105332592D01*
X157321418Y-105600000D01*
X157327732Y-105664103D01*
X157346430Y-105725743D01*
X157376794Y-105782550D01*
X157417657Y-105832343D01*
X157467450Y-105873206D01*
X157524257Y-105903570D01*
X157585897Y-105922268D01*
X157650000Y-105928582D01*
X159350000Y-105928582D01*
X159414103Y-105922268D01*
X159475743Y-105903570D01*
X159532550Y-105873206D01*
X159582343Y-105832343D01*
X159623206Y-105782550D01*
X159653570Y-105725743D01*
X159672268Y-105664103D01*
X159678582Y-105600000D01*
X160611928Y-105600000D01*
X160624188Y-105724482D01*
X160660498Y-105844180D01*
X160719463Y-105954494D01*
X160798815Y-106051185D01*
X160895506Y-106130537D01*
X161005820Y-106189502D01*
X161125518Y-106225812D01*
X161250000Y-106238072D01*
X161814250Y-106235000D01*
X161973000Y-106076250D01*
X161973000Y-104877000D01*
X160773750Y-104877000D01*
X160615000Y-105035750D01*
X160611928Y-105600000D01*
X159678582Y-105600000D01*
X159678582Y-103900000D01*
X160611928Y-103900000D01*
X160615000Y-104464250D01*
X160773750Y-104623000D01*
X161973000Y-104623000D01*
X161973000Y-103423750D01*
X162227000Y-103423750D01*
X162227000Y-104623000D01*
X162247000Y-104623000D01*
X162247000Y-104877000D01*
X162227000Y-104877000D01*
X162227000Y-106076250D01*
X162385750Y-106235000D01*
X162950000Y-106238072D01*
X163074482Y-106225812D01*
X163194180Y-106189502D01*
X163304494Y-106130537D01*
X163401185Y-106051185D01*
X163480537Y-105954494D01*
X163539502Y-105844180D01*
X163575812Y-105724482D01*
X163588072Y-105600000D01*
X163586340Y-105281890D01*
X163596956Y-105307519D01*
X163725764Y-105500294D01*
X163889706Y-105664236D01*
X164082481Y-105793044D01*
X164296682Y-105881769D01*
X164524076Y-105927000D01*
X164755924Y-105927000D01*
X164983318Y-105881769D01*
X165197519Y-105793044D01*
X165390294Y-105664236D01*
X165554236Y-105500294D01*
X165595695Y-105438246D01*
X168873000Y-105438246D01*
X168873000Y-105561754D01*
X168897095Y-105682889D01*
X168944360Y-105796996D01*
X169012977Y-105899689D01*
X169100311Y-105987023D01*
X169203004Y-106055640D01*
X169317111Y-106102905D01*
X169438246Y-106127000D01*
X169561754Y-106127000D01*
X169682889Y-106102905D01*
X169796996Y-106055640D01*
X169899689Y-105987023D01*
X169987023Y-105899689D01*
X170055640Y-105796996D01*
X170102905Y-105682889D01*
X170127000Y-105561754D01*
X170127000Y-105438246D01*
X170102905Y-105317111D01*
X170055640Y-105203004D01*
X169987023Y-105100311D01*
X169899689Y-105012977D01*
X169796996Y-104944360D01*
X169682889Y-104897095D01*
X169561754Y-104873000D01*
X169438246Y-104873000D01*
X169317111Y-104897095D01*
X169203004Y-104944360D01*
X169100311Y-105012977D01*
X169012977Y-105100311D01*
X168944360Y-105203004D01*
X168897095Y-105317111D01*
X168873000Y-105438246D01*
X165595695Y-105438246D01*
X165683044Y-105307519D01*
X165771769Y-105093318D01*
X165817000Y-104865924D01*
X165817000Y-104634076D01*
X165771769Y-104406682D01*
X165683044Y-104192481D01*
X165554236Y-103999706D01*
X165390294Y-103835764D01*
X165197519Y-103706956D01*
X164983318Y-103618231D01*
X164755924Y-103573000D01*
X164524076Y-103573000D01*
X164296682Y-103618231D01*
X164082481Y-103706956D01*
X163889706Y-103835764D01*
X163725764Y-103999706D01*
X163596956Y-104192481D01*
X163586340Y-104218110D01*
X163588072Y-103900000D01*
X163575812Y-103775518D01*
X163539502Y-103655820D01*
X163480537Y-103545506D01*
X163401185Y-103448815D01*
X163304494Y-103369463D01*
X163194180Y-103310498D01*
X163074482Y-103274188D01*
X162950000Y-103261928D01*
X162385750Y-103265000D01*
X162227000Y-103423750D01*
X161973000Y-103423750D01*
X161814250Y-103265000D01*
X161250000Y-103261928D01*
X161125518Y-103274188D01*
X161005820Y-103310498D01*
X160895506Y-103369463D01*
X160798815Y-103448815D01*
X160719463Y-103545506D01*
X160660498Y-103655820D01*
X160624188Y-103775518D01*
X160611928Y-103900000D01*
X159678582Y-103900000D01*
X159672268Y-103835897D01*
X159653570Y-103774257D01*
X159623206Y-103717450D01*
X159582343Y-103667657D01*
X159532550Y-103626794D01*
X159475743Y-103596430D01*
X159414103Y-103577732D01*
X159350000Y-103571418D01*
X157650000Y-103571418D01*
X157585897Y-103577732D01*
X157524257Y-103596430D01*
X157467450Y-103626794D01*
X157417657Y-103667657D01*
X157376794Y-103717450D01*
X157346430Y-103774257D01*
X157327732Y-103835897D01*
X157321418Y-103900000D01*
X157321418Y-104167408D01*
X157304157Y-104118748D01*
X157155178Y-103868645D01*
X156960269Y-103652412D01*
X156726920Y-103478359D01*
X156464099Y-103353175D01*
X156316890Y-103308524D01*
X156087000Y-103429845D01*
X155833000Y-103429845D01*
X155603110Y-103308524D01*
X155455901Y-103353175D01*
X155193080Y-103478359D01*
X154959731Y-103652412D01*
X154764822Y-103868645D01*
X154615843Y-104118748D01*
X154531264Y-104357179D01*
X154463044Y-104192481D01*
X154334236Y-103999706D01*
X154170294Y-103835764D01*
X153977519Y-103706956D01*
X153763318Y-103618231D01*
X153535924Y-103573000D01*
X153304076Y-103573000D01*
X153076682Y-103618231D01*
X152862481Y-103706956D01*
X152669706Y-103835764D01*
X152505764Y-103999706D01*
X152376956Y-104192481D01*
X152288231Y-104406682D01*
X152243000Y-104634076D01*
X152057000Y-104634076D01*
X152011769Y-104406682D01*
X151923044Y-104192481D01*
X151794236Y-103999706D01*
X151630294Y-103835764D01*
X151437519Y-103706956D01*
X151223318Y-103618231D01*
X150995924Y-103573000D01*
X150764076Y-103573000D01*
X150536682Y-103618231D01*
X150322481Y-103706956D01*
X150129706Y-103835764D01*
X149965764Y-103999706D01*
X149836956Y-104192481D01*
X149748231Y-104406682D01*
X149703000Y-104634076D01*
X138627000Y-104634076D01*
X138627000Y-100438246D01*
X156373000Y-100438246D01*
X156373000Y-100561754D01*
X156397095Y-100682889D01*
X156444360Y-100796996D01*
X156512977Y-100899689D01*
X156600311Y-100987023D01*
X156703004Y-101055640D01*
X156817111Y-101102905D01*
X156938246Y-101127000D01*
X157061754Y-101127000D01*
X157182889Y-101102905D01*
X157296996Y-101055640D01*
X157399689Y-100987023D01*
X157487023Y-100899689D01*
X157555640Y-100796996D01*
X157602905Y-100682889D01*
X157627000Y-100561754D01*
X157627000Y-100438246D01*
X157602905Y-100317111D01*
X157555640Y-100203004D01*
X157487023Y-100100311D01*
X157399689Y-100012977D01*
X157296996Y-99944360D01*
X157182889Y-99897095D01*
X157061754Y-99873000D01*
X156938246Y-99873000D01*
X156817111Y-99897095D01*
X156703004Y-99944360D01*
X156600311Y-100012977D01*
X156512977Y-100100311D01*
X156444360Y-100203004D01*
X156397095Y-100317111D01*
X156373000Y-100438246D01*
X138627000Y-100438246D01*
X138627000Y-99103582D01*
X140050000Y-99103582D01*
X140114103Y-99097268D01*
X140175743Y-99078570D01*
X140232550Y-99048206D01*
X140282343Y-99007343D01*
X140323206Y-98957550D01*
X140353570Y-98900743D01*
X140372268Y-98839103D01*
X140378582Y-98775000D01*
X140378582Y-97225000D01*
X145241418Y-97225000D01*
X145241418Y-98775000D01*
X145247732Y-98839103D01*
X145266430Y-98900743D01*
X145296794Y-98957550D01*
X145337657Y-99007343D01*
X145387450Y-99048206D01*
X145444257Y-99078570D01*
X145505897Y-99097268D01*
X145570000Y-99103582D01*
X147670000Y-99103582D01*
X147734103Y-99097268D01*
X147795743Y-99078570D01*
X147852550Y-99048206D01*
X147902343Y-99007343D01*
X147943206Y-98957550D01*
X147973570Y-98900743D01*
X147992268Y-98839103D01*
X147998582Y-98775000D01*
X147998582Y-97225000D01*
X147992268Y-97160897D01*
X147973570Y-97099257D01*
X147943206Y-97042450D01*
X147902343Y-96992657D01*
X147852550Y-96951794D01*
X147795743Y-96921430D01*
X147734103Y-96902732D01*
X147670000Y-96896418D01*
X145570000Y-96896418D01*
X145505897Y-96902732D01*
X145444257Y-96921430D01*
X145387450Y-96951794D01*
X145337657Y-96992657D01*
X145296794Y-97042450D01*
X145266430Y-97099257D01*
X145247732Y-97160897D01*
X145241418Y-97225000D01*
X140378582Y-97225000D01*
X140372268Y-97160897D01*
X140353570Y-97099257D01*
X140323206Y-97042450D01*
X140282343Y-96992657D01*
X140232550Y-96951794D01*
X140175743Y-96921430D01*
X140114103Y-96902732D01*
X140050000Y-96896418D01*
X138627000Y-96896418D01*
X138627000Y-95938246D01*
X144373000Y-95938246D01*
X144373000Y-96061754D01*
X144397095Y-96182889D01*
X144444360Y-96296996D01*
X144512977Y-96399689D01*
X144600311Y-96487023D01*
X144703004Y-96555640D01*
X144817111Y-96602905D01*
X144938246Y-96627000D01*
X145061754Y-96627000D01*
X145182889Y-96602905D01*
X145296996Y-96555640D01*
X145399689Y-96487023D01*
X145487023Y-96399689D01*
X145555640Y-96296996D01*
X145602905Y-96182889D01*
X145627000Y-96061754D01*
X145627000Y-95938246D01*
X145602905Y-95817111D01*
X145555640Y-95703004D01*
X145487023Y-95600311D01*
X145399689Y-95512977D01*
X145296996Y-95444360D01*
X145182889Y-95397095D01*
X145061754Y-95373000D01*
X144938246Y-95373000D01*
X144817111Y-95397095D01*
X144703004Y-95444360D01*
X144600311Y-95512977D01*
X144512977Y-95600311D01*
X144444360Y-95703004D01*
X144397095Y-95817111D01*
X144373000Y-95938246D01*
X138627000Y-95938246D01*
X138627000Y-95369302D01*
X161673000Y-95369302D01*
X161673000Y-95630698D01*
X161723996Y-95887072D01*
X161824028Y-96128570D01*
X161969252Y-96345913D01*
X162154087Y-96530748D01*
X162371430Y-96675972D01*
X162550149Y-96750000D01*
X162371430Y-96824028D01*
X162154087Y-96969252D01*
X161969252Y-97154087D01*
X161824028Y-97371430D01*
X161723996Y-97612928D01*
X161673000Y-97869302D01*
X161673000Y-98130698D01*
X161723996Y-98387072D01*
X161824028Y-98628570D01*
X161969252Y-98845913D01*
X162154087Y-99030748D01*
X162371430Y-99175972D01*
X162612928Y-99276004D01*
X162869302Y-99327000D01*
X163130698Y-99327000D01*
X163387072Y-99276004D01*
X163628570Y-99175972D01*
X163845913Y-99030748D01*
X164030748Y-98845913D01*
X164175972Y-98628570D01*
X164276004Y-98387072D01*
X164327000Y-98130698D01*
X164327000Y-97869302D01*
X164276004Y-97612928D01*
X164175972Y-97371430D01*
X164030748Y-97154087D01*
X163845913Y-96969252D01*
X163628570Y-96824028D01*
X163449851Y-96750000D01*
X163628570Y-96675972D01*
X163845913Y-96530748D01*
X164030748Y-96345913D01*
X164175972Y-96128570D01*
X164276004Y-95887072D01*
X164327000Y-95630698D01*
X164327000Y-95369302D01*
X164276004Y-95112928D01*
X164175972Y-94871430D01*
X164030748Y-94654087D01*
X163845913Y-94469252D01*
X163628570Y-94324028D01*
X163387072Y-94223996D01*
X163130698Y-94173000D01*
X162869302Y-94173000D01*
X162612928Y-94223996D01*
X162371430Y-94324028D01*
X162154087Y-94469252D01*
X161969252Y-94654087D01*
X161824028Y-94871430D01*
X161723996Y-95112928D01*
X161673000Y-95369302D01*
X138627000Y-95369302D01*
X138627000Y-92140000D01*
X150381418Y-92140000D01*
X150381418Y-93740000D01*
X150387732Y-93804103D01*
X150406430Y-93865743D01*
X150436794Y-93922550D01*
X150477657Y-93972343D01*
X150527450Y-94013206D01*
X150584257Y-94043570D01*
X150645897Y-94062268D01*
X150710000Y-94068582D01*
X152310000Y-94068582D01*
X152374103Y-94062268D01*
X152435743Y-94043570D01*
X152492550Y-94013206D01*
X152542343Y-93972343D01*
X152583206Y-93922550D01*
X152613570Y-93865743D01*
X152632268Y-93804103D01*
X152638582Y-93740000D01*
X152638582Y-92938246D01*
X168873000Y-92938246D01*
X168873000Y-93061754D01*
X168897095Y-93182889D01*
X168944360Y-93296996D01*
X169012977Y-93399689D01*
X169100311Y-93487023D01*
X169203004Y-93555640D01*
X169317111Y-93602905D01*
X169438246Y-93627000D01*
X169561754Y-93627000D01*
X169682889Y-93602905D01*
X169796996Y-93555640D01*
X169899689Y-93487023D01*
X169987023Y-93399689D01*
X170055640Y-93296996D01*
X170102905Y-93182889D01*
X170127000Y-93061754D01*
X170127000Y-92938246D01*
X170102905Y-92817111D01*
X170055640Y-92703004D01*
X169987023Y-92600311D01*
X169899689Y-92512977D01*
X169796996Y-92444360D01*
X169682889Y-92397095D01*
X169561754Y-92373000D01*
X169438246Y-92373000D01*
X169317111Y-92397095D01*
X169203004Y-92444360D01*
X169100311Y-92512977D01*
X169012977Y-92600311D01*
X168944360Y-92703004D01*
X168897095Y-92817111D01*
X168873000Y-92938246D01*
X152638582Y-92938246D01*
X152638582Y-92140000D01*
X152632268Y-92075897D01*
X152613570Y-92014257D01*
X152583206Y-91957450D01*
X152542343Y-91907657D01*
X152492550Y-91866794D01*
X152435743Y-91836430D01*
X152374103Y-91817732D01*
X152310000Y-91811418D01*
X151868361Y-91811418D01*
X152043835Y-91738734D01*
X152228421Y-91615398D01*
X152385398Y-91458421D01*
X152508734Y-91273835D01*
X152593690Y-91068734D01*
X152637000Y-90851000D01*
X152637000Y-90629000D01*
X152593690Y-90411266D01*
X152508734Y-90206165D01*
X152385398Y-90021579D01*
X152228421Y-89864602D01*
X152043835Y-89741266D01*
X151838734Y-89656310D01*
X151621000Y-89613000D01*
X151399000Y-89613000D01*
X151181266Y-89656310D01*
X150976165Y-89741266D01*
X150791579Y-89864602D01*
X150634602Y-90021579D01*
X150511266Y-90206165D01*
X150426310Y-90411266D01*
X150383000Y-90629000D01*
X150383000Y-90851000D01*
X150426310Y-91068734D01*
X150511266Y-91273835D01*
X150634602Y-91458421D01*
X150791579Y-91615398D01*
X150976165Y-91738734D01*
X151151639Y-91811418D01*
X150710000Y-91811418D01*
X150645897Y-91817732D01*
X150584257Y-91836430D01*
X150527450Y-91866794D01*
X150477657Y-91907657D01*
X150436794Y-91957450D01*
X150406430Y-92014257D01*
X150387732Y-92075897D01*
X150381418Y-92140000D01*
X138627000Y-92140000D01*
X138627000Y-91272000D01*
X144688669Y-91272000D01*
X144701891Y-91273609D01*
X144723235Y-91272000D01*
X144727292Y-91272000D01*
X144740528Y-91270696D01*
X144771031Y-91268397D01*
X144774947Y-91267307D01*
X144779004Y-91266907D01*
X144808333Y-91258010D01*
X144821089Y-91254458D01*
X144824859Y-91252997D01*
X144845356Y-91246779D01*
X144857110Y-91240497D01*
X146112540Y-90753896D01*
X146130708Y-90748665D01*
X146160042Y-90733516D01*
X146189712Y-90718522D01*
X146190940Y-90717561D01*
X146192316Y-90716850D01*
X146218147Y-90696257D01*
X146244305Y-90675775D01*
X146256645Y-90661423D01*
X146373000Y-90548323D01*
X146373000Y-90561754D01*
X146397095Y-90682889D01*
X146444360Y-90796996D01*
X146512977Y-90899689D01*
X146600311Y-90987023D01*
X146703004Y-91055640D01*
X146817111Y-91102905D01*
X146938246Y-91127000D01*
X147061754Y-91127000D01*
X147182889Y-91102905D01*
X147296996Y-91055640D01*
X147399689Y-90987023D01*
X147487023Y-90899689D01*
X147555640Y-90796996D01*
X147602905Y-90682889D01*
X147627000Y-90561754D01*
X147627000Y-90438246D01*
X147602905Y-90317111D01*
X147555640Y-90203004D01*
X147487023Y-90100311D01*
X147399689Y-90012977D01*
X147296996Y-89944360D01*
X147182889Y-89897095D01*
X147066737Y-89873991D01*
X147375424Y-89573940D01*
X147397095Y-89682889D01*
X147444360Y-89796996D01*
X147512977Y-89899689D01*
X147600311Y-89987023D01*
X147703004Y-90055640D01*
X147817111Y-90102905D01*
X147938246Y-90127000D01*
X148061754Y-90127000D01*
X148182889Y-90102905D01*
X148296996Y-90055640D01*
X148399689Y-89987023D01*
X148487023Y-89899689D01*
X148555640Y-89796996D01*
X148602905Y-89682889D01*
X148627000Y-89561754D01*
X148627000Y-89438246D01*
X148602905Y-89317111D01*
X148555640Y-89203004D01*
X148534191Y-89170903D01*
X148600311Y-89237023D01*
X148703004Y-89305640D01*
X148817111Y-89352905D01*
X148938246Y-89377000D01*
X149061754Y-89377000D01*
X149182889Y-89352905D01*
X149296996Y-89305640D01*
X149399689Y-89237023D01*
X149487023Y-89149689D01*
X149555640Y-89046996D01*
X149602905Y-88932889D01*
X149627000Y-88811754D01*
X149627000Y-88688246D01*
X149602905Y-88567111D01*
X149555640Y-88453004D01*
X149487023Y-88350311D01*
X149399689Y-88262977D01*
X149296996Y-88194360D01*
X149182889Y-88147095D01*
X149152167Y-88140984D01*
X149486557Y-87866557D01*
X149623000Y-87700301D01*
X149623000Y-87811754D01*
X149647095Y-87932889D01*
X149694360Y-88046996D01*
X149762977Y-88149689D01*
X149850311Y-88237023D01*
X149953004Y-88305640D01*
X150067111Y-88352905D01*
X150188246Y-88377000D01*
X150311754Y-88377000D01*
X150432889Y-88352905D01*
X150546996Y-88305640D01*
X150649689Y-88237023D01*
X150737023Y-88149689D01*
X150805640Y-88046996D01*
X150852905Y-87932889D01*
X150877000Y-87811754D01*
X150877000Y-87688246D01*
X150852905Y-87567111D01*
X150805640Y-87453004D01*
X150737023Y-87350311D01*
X150670903Y-87284191D01*
X150703004Y-87305640D01*
X150817111Y-87352905D01*
X150938246Y-87377000D01*
X151061754Y-87377000D01*
X151182889Y-87352905D01*
X151296996Y-87305640D01*
X151399689Y-87237023D01*
X151487023Y-87149689D01*
X151555640Y-87046996D01*
X151600686Y-86938246D01*
X156373000Y-86938246D01*
X156373000Y-87061754D01*
X156397095Y-87182889D01*
X156444360Y-87296996D01*
X156512977Y-87399689D01*
X156600311Y-87487023D01*
X156703004Y-87555640D01*
X156817111Y-87602905D01*
X156938246Y-87627000D01*
X157061754Y-87627000D01*
X157182889Y-87602905D01*
X157296996Y-87555640D01*
X157399689Y-87487023D01*
X157487023Y-87399689D01*
X157555640Y-87296996D01*
X157602905Y-87182889D01*
X157627000Y-87061754D01*
X157627000Y-86938246D01*
X157602905Y-86817111D01*
X157555640Y-86703004D01*
X157487023Y-86600311D01*
X157399689Y-86512977D01*
X157296996Y-86444360D01*
X157182889Y-86397095D01*
X157061754Y-86373000D01*
X156938246Y-86373000D01*
X156817111Y-86397095D01*
X156703004Y-86444360D01*
X156600311Y-86512977D01*
X156512977Y-86600311D01*
X156444360Y-86703004D01*
X156397095Y-86817111D01*
X156373000Y-86938246D01*
X151600686Y-86938246D01*
X151602905Y-86932889D01*
X151627000Y-86811754D01*
X151627000Y-86688246D01*
X151602905Y-86567111D01*
X151555640Y-86453004D01*
X151487023Y-86350311D01*
X151399689Y-86262977D01*
X151296996Y-86194360D01*
X151182889Y-86147095D01*
X151061754Y-86123000D01*
X150938246Y-86123000D01*
X150817111Y-86147095D01*
X150703004Y-86194360D01*
X150600311Y-86262977D01*
X150512977Y-86350311D01*
X150444360Y-86453004D01*
X150397095Y-86567111D01*
X150373000Y-86688246D01*
X150373000Y-86811754D01*
X150397095Y-86932889D01*
X150444360Y-87046996D01*
X150512977Y-87149689D01*
X150579097Y-87215809D01*
X150546996Y-87194360D01*
X150432889Y-87147095D01*
X150311754Y-87123000D01*
X150188246Y-87123000D01*
X150067111Y-87147095D01*
X149962406Y-87190466D01*
X150058774Y-87010173D01*
X150208989Y-86514982D01*
X150259710Y-86000000D01*
X150259710Y-85188246D01*
X150373000Y-85188246D01*
X150373000Y-85311754D01*
X150397095Y-85432889D01*
X150444360Y-85546996D01*
X150512977Y-85649689D01*
X150600311Y-85737023D01*
X150703004Y-85805640D01*
X150817111Y-85852905D01*
X150938246Y-85877000D01*
X151061754Y-85877000D01*
X151182889Y-85852905D01*
X151296996Y-85805640D01*
X151399689Y-85737023D01*
X151487023Y-85649689D01*
X151555640Y-85546996D01*
X151602905Y-85432889D01*
X151627000Y-85311754D01*
X151627000Y-85188246D01*
X151602905Y-85067111D01*
X151555640Y-84953004D01*
X151487023Y-84850311D01*
X151399689Y-84762977D01*
X151296996Y-84694360D01*
X151182889Y-84647095D01*
X151061754Y-84623000D01*
X150938246Y-84623000D01*
X150817111Y-84647095D01*
X150703004Y-84694360D01*
X150600311Y-84762977D01*
X150512977Y-84850311D01*
X150444360Y-84953004D01*
X150397095Y-85067111D01*
X150373000Y-85188246D01*
X150259710Y-85188246D01*
X150259710Y-84600000D01*
X150208989Y-84085018D01*
X150088630Y-83688246D01*
X150373000Y-83688246D01*
X150373000Y-83811754D01*
X150397095Y-83932889D01*
X150444360Y-84046996D01*
X150512977Y-84149689D01*
X150600311Y-84237023D01*
X150703004Y-84305640D01*
X150817111Y-84352905D01*
X150938246Y-84377000D01*
X151061754Y-84377000D01*
X151182889Y-84352905D01*
X151296996Y-84305640D01*
X151399689Y-84237023D01*
X151487023Y-84149689D01*
X151555640Y-84046996D01*
X151602905Y-83932889D01*
X151627000Y-83811754D01*
X151627000Y-83738246D01*
X158373000Y-83738246D01*
X158373000Y-83861754D01*
X158397095Y-83982889D01*
X158444360Y-84096996D01*
X158512977Y-84199689D01*
X158600311Y-84287023D01*
X158703004Y-84355640D01*
X158817111Y-84402905D01*
X158938246Y-84427000D01*
X159061754Y-84427000D01*
X159182889Y-84402905D01*
X159296996Y-84355640D01*
X159399689Y-84287023D01*
X159487023Y-84199689D01*
X159555640Y-84096996D01*
X159602905Y-83982889D01*
X159627000Y-83861754D01*
X159627000Y-83738246D01*
X159602905Y-83617111D01*
X159555640Y-83503004D01*
X159487023Y-83400311D01*
X159399689Y-83312977D01*
X159296996Y-83244360D01*
X159182889Y-83197095D01*
X159061754Y-83173000D01*
X158938246Y-83173000D01*
X158817111Y-83197095D01*
X158703004Y-83244360D01*
X158600311Y-83312977D01*
X158512977Y-83400311D01*
X158444360Y-83503004D01*
X158397095Y-83617111D01*
X158373000Y-83738246D01*
X151627000Y-83738246D01*
X151627000Y-83688246D01*
X151602905Y-83567111D01*
X151555640Y-83453004D01*
X151487023Y-83350311D01*
X151399689Y-83262977D01*
X151296996Y-83194360D01*
X151182889Y-83147095D01*
X151061754Y-83123000D01*
X150938246Y-83123000D01*
X150817111Y-83147095D01*
X150703004Y-83194360D01*
X150600311Y-83262977D01*
X150512977Y-83350311D01*
X150444360Y-83453004D01*
X150397095Y-83567111D01*
X150373000Y-83688246D01*
X150088630Y-83688246D01*
X150058774Y-83589827D01*
X149814839Y-83133456D01*
X149486557Y-82733443D01*
X149086544Y-82405161D01*
X148680724Y-82188246D01*
X149623000Y-82188246D01*
X149623000Y-82311754D01*
X149647095Y-82432889D01*
X149694360Y-82546996D01*
X149762977Y-82649689D01*
X149850311Y-82737023D01*
X149953004Y-82805640D01*
X150067111Y-82852905D01*
X150188246Y-82877000D01*
X150311754Y-82877000D01*
X150432889Y-82852905D01*
X150546996Y-82805640D01*
X150649689Y-82737023D01*
X150737023Y-82649689D01*
X150805640Y-82546996D01*
X150852905Y-82432889D01*
X150877000Y-82311754D01*
X150877000Y-82188246D01*
X150852905Y-82067111D01*
X150805640Y-81953004D01*
X150737023Y-81850311D01*
X150649689Y-81762977D01*
X150546996Y-81694360D01*
X150432889Y-81647095D01*
X150311754Y-81623000D01*
X150188246Y-81623000D01*
X150067111Y-81647095D01*
X149953004Y-81694360D01*
X149850311Y-81762977D01*
X149762977Y-81850311D01*
X149694360Y-81953004D01*
X149647095Y-82067111D01*
X149623000Y-82188246D01*
X148680724Y-82188246D01*
X148630173Y-82161226D01*
X148134982Y-82011011D01*
X147620000Y-81960290D01*
X145676422Y-81960290D01*
X145737023Y-81899689D01*
X145805640Y-81796996D01*
X145852905Y-81682889D01*
X145877000Y-81561754D01*
X145877000Y-81438246D01*
X145852905Y-81317111D01*
X145805640Y-81203004D01*
X145737023Y-81100311D01*
X145649689Y-81012977D01*
X145546996Y-80944360D01*
X145432889Y-80897095D01*
X145311754Y-80873000D01*
X145188246Y-80873000D01*
X145067111Y-80897095D01*
X144953004Y-80944360D01*
X144920903Y-80965809D01*
X144987023Y-80899689D01*
X145055640Y-80796996D01*
X145102905Y-80682889D01*
X145127000Y-80561754D01*
X145127000Y-80438246D01*
X145102905Y-80317111D01*
X145055640Y-80203004D01*
X144987023Y-80100311D01*
X144899689Y-80012977D01*
X144796996Y-79944360D01*
X144682889Y-79897095D01*
X144561754Y-79873000D01*
X144438246Y-79873000D01*
X144317111Y-79897095D01*
X144203004Y-79944360D01*
X144100311Y-80012977D01*
X144012977Y-80100311D01*
X143944360Y-80203004D01*
X143897095Y-80317111D01*
X143873000Y-80438246D01*
X143873000Y-80561754D01*
X143897095Y-80682889D01*
X143944360Y-80796996D01*
X144012977Y-80899689D01*
X144100311Y-80987023D01*
X144203004Y-81055640D01*
X144317111Y-81102905D01*
X144438246Y-81127000D01*
X144561754Y-81127000D01*
X144682889Y-81102905D01*
X144796996Y-81055640D01*
X144829097Y-81034191D01*
X144762977Y-81100311D01*
X144694360Y-81203004D01*
X144647095Y-81317111D01*
X144623000Y-81438246D01*
X144623000Y-81561754D01*
X144647095Y-81682889D01*
X144694360Y-81796996D01*
X144762977Y-81899689D01*
X144850311Y-81987023D01*
X144953004Y-82055640D01*
X144955072Y-82056497D01*
X144609827Y-82161226D01*
X144153456Y-82405161D01*
X143753443Y-82733443D01*
X143425161Y-83133456D01*
X143181226Y-83589827D01*
X143031011Y-84085018D01*
X142980290Y-84600000D01*
X142980290Y-84902686D01*
X142881509Y-85050523D01*
X142603775Y-84935482D01*
X142515305Y-84917884D01*
X142588989Y-84674982D01*
X142639710Y-84160000D01*
X142639710Y-82760000D01*
X142588989Y-82245018D01*
X142438774Y-81749827D01*
X142405859Y-81688246D01*
X143123000Y-81688246D01*
X143123000Y-81811754D01*
X143147095Y-81932889D01*
X143194360Y-82046996D01*
X143262977Y-82149689D01*
X143350311Y-82237023D01*
X143453004Y-82305640D01*
X143567111Y-82352905D01*
X143688246Y-82377000D01*
X143811754Y-82377000D01*
X143932889Y-82352905D01*
X144046996Y-82305640D01*
X144149689Y-82237023D01*
X144237023Y-82149689D01*
X144305640Y-82046996D01*
X144352905Y-81932889D01*
X144377000Y-81811754D01*
X144377000Y-81688246D01*
X144352905Y-81567111D01*
X144305640Y-81453004D01*
X144237023Y-81350311D01*
X144149689Y-81262977D01*
X144046996Y-81194360D01*
X143932889Y-81147095D01*
X143811754Y-81123000D01*
X143688246Y-81123000D01*
X143567111Y-81147095D01*
X143453004Y-81194360D01*
X143350311Y-81262977D01*
X143262977Y-81350311D01*
X143194360Y-81453004D01*
X143147095Y-81567111D01*
X143123000Y-81688246D01*
X142405859Y-81688246D01*
X142194839Y-81293456D01*
X141866557Y-80893443D01*
X141466544Y-80565161D01*
X141010173Y-80321226D01*
X140514982Y-80171011D01*
X140000000Y-80120290D01*
X138627000Y-80120290D01*
X138627000Y-78790509D01*
X146873000Y-78790509D01*
X146873000Y-79209491D01*
X146954739Y-79620423D01*
X147115077Y-80007512D01*
X147347851Y-80355884D01*
X147644116Y-80652149D01*
X147992488Y-80884923D01*
X148379577Y-81045261D01*
X148790509Y-81127000D01*
X149209491Y-81127000D01*
X149620423Y-81045261D01*
X150007512Y-80884923D01*
X150355884Y-80652149D01*
X150652149Y-80355884D01*
X150884923Y-80007512D01*
X151045261Y-79620423D01*
X151127000Y-79209491D01*
X151127000Y-78790509D01*
X151045261Y-78379577D01*
X150884923Y-77992488D01*
X150652149Y-77644116D01*
X150355884Y-77347851D01*
X150007512Y-77115077D01*
X149620423Y-76954739D01*
X149209491Y-76873000D01*
X148790509Y-76873000D01*
X148379577Y-76954739D01*
X147992488Y-77115077D01*
X147644116Y-77347851D01*
X147347851Y-77644116D01*
X147115077Y-77992488D01*
X146954739Y-78379577D01*
X146873000Y-78790509D01*
X138627000Y-78790509D01*
X138627000Y-76438246D01*
X139873000Y-76438246D01*
X139873000Y-76561754D01*
X139897095Y-76682889D01*
X139944360Y-76796996D01*
X140012977Y-76899689D01*
X140100311Y-76987023D01*
X140203004Y-77055640D01*
X140317111Y-77102905D01*
X140438246Y-77127000D01*
X140561754Y-77127000D01*
X140682889Y-77102905D01*
X140796996Y-77055640D01*
X140899689Y-76987023D01*
X140987023Y-76899689D01*
X141055640Y-76796996D01*
X141102905Y-76682889D01*
X141127000Y-76561754D01*
X141127000Y-76533647D01*
X160399454Y-76533647D01*
X160399934Y-76538538D01*
X160405034Y-76587062D01*
X160411444Y-76618289D01*
X160417427Y-76649652D01*
X160418848Y-76654357D01*
X160433276Y-76700967D01*
X160445629Y-76730354D01*
X160457592Y-76759963D01*
X160459900Y-76764303D01*
X160483107Y-76807222D01*
X160500929Y-76833643D01*
X160518409Y-76860357D01*
X160521516Y-76864166D01*
X160552616Y-76901760D01*
X160575216Y-76924204D01*
X160597583Y-76947044D01*
X160601371Y-76950177D01*
X160639181Y-76981013D01*
X160665716Y-76998642D01*
X160692069Y-77016687D01*
X160696393Y-77019025D01*
X160739473Y-77041932D01*
X160768930Y-77054074D01*
X160798299Y-77066661D01*
X160802995Y-77068114D01*
X160849703Y-77082216D01*
X160880963Y-77088405D01*
X160912205Y-77095046D01*
X160917092Y-77095559D01*
X160917094Y-77095559D01*
X160964995Y-77100255D01*
X160982708Y-77102000D01*
X162664413Y-77102000D01*
X162437915Y-77147053D01*
X162087223Y-77292315D01*
X161771609Y-77503201D01*
X161503201Y-77771609D01*
X161292315Y-78087223D01*
X161147053Y-78437915D01*
X161073000Y-78810207D01*
X161073000Y-79189793D01*
X161147053Y-79562085D01*
X161292315Y-79912777D01*
X161503201Y-80228391D01*
X161771609Y-80496799D01*
X162087223Y-80707685D01*
X162437915Y-80852947D01*
X162810207Y-80927000D01*
X163189793Y-80927000D01*
X163562085Y-80852947D01*
X163912777Y-80707685D01*
X164228391Y-80496799D01*
X164286944Y-80438246D01*
X168873000Y-80438246D01*
X168873000Y-80561754D01*
X168897095Y-80682889D01*
X168944360Y-80796996D01*
X169012977Y-80899689D01*
X169100311Y-80987023D01*
X169203004Y-81055640D01*
X169317111Y-81102905D01*
X169438246Y-81127000D01*
X169561754Y-81127000D01*
X169682889Y-81102905D01*
X169796996Y-81055640D01*
X169899689Y-80987023D01*
X169987023Y-80899689D01*
X170055640Y-80796996D01*
X170102905Y-80682889D01*
X170127000Y-80561754D01*
X170127000Y-80438246D01*
X170102905Y-80317111D01*
X170055640Y-80203004D01*
X169987023Y-80100311D01*
X169899689Y-80012977D01*
X169796996Y-79944360D01*
X169682889Y-79897095D01*
X169561754Y-79873000D01*
X169438246Y-79873000D01*
X169317111Y-79897095D01*
X169203004Y-79944360D01*
X169100311Y-80012977D01*
X169012977Y-80100311D01*
X168944360Y-80203004D01*
X168897095Y-80317111D01*
X168873000Y-80438246D01*
X164286944Y-80438246D01*
X164496799Y-80228391D01*
X164707685Y-79912777D01*
X164852947Y-79562085D01*
X164927000Y-79189793D01*
X164927000Y-78810207D01*
X164852947Y-78437915D01*
X164707685Y-78087223D01*
X164496799Y-77771609D01*
X164228391Y-77503201D01*
X163912777Y-77292315D01*
X163562085Y-77147053D01*
X163335587Y-77102000D01*
X165017292Y-77102000D01*
X165034594Y-77100296D01*
X165037842Y-77100296D01*
X165042730Y-77099782D01*
X165063724Y-77097427D01*
X165069004Y-77096907D01*
X165069382Y-77096792D01*
X165091217Y-77094343D01*
X165122372Y-77087720D01*
X165153718Y-77081514D01*
X165158413Y-77080060D01*
X165204920Y-77065307D01*
X165234207Y-77052754D01*
X165263740Y-77040582D01*
X165268063Y-77038244D01*
X165310820Y-77014738D01*
X165337126Y-76996725D01*
X165363715Y-76979060D01*
X165367502Y-76975926D01*
X165404879Y-76944564D01*
X165427189Y-76921782D01*
X165449838Y-76899290D01*
X165452945Y-76895481D01*
X165483517Y-76857456D01*
X165500965Y-76830792D01*
X165518827Y-76804312D01*
X165521134Y-76799972D01*
X165543739Y-76756734D01*
X165555697Y-76727136D01*
X165568054Y-76697741D01*
X165569475Y-76693036D01*
X165583251Y-76646229D01*
X165589229Y-76614892D01*
X165595644Y-76583639D01*
X165596123Y-76578747D01*
X165600545Y-76530157D01*
X165600323Y-76498327D01*
X165600546Y-76466353D01*
X165600066Y-76461461D01*
X165594966Y-76412938D01*
X165588556Y-76381711D01*
X165582573Y-76350348D01*
X165581152Y-76345643D01*
X165566724Y-76299033D01*
X165554377Y-76269659D01*
X165542408Y-76240036D01*
X165540100Y-76235697D01*
X165516893Y-76192778D01*
X165499061Y-76166341D01*
X165481591Y-76139643D01*
X165478484Y-76135834D01*
X165447384Y-76098239D01*
X165424781Y-76075793D01*
X165402417Y-76052956D01*
X165398629Y-76049823D01*
X165360818Y-76018986D01*
X165334275Y-76001352D01*
X165307931Y-75983313D01*
X165303608Y-75980976D01*
X165260527Y-75958068D01*
X165231044Y-75945916D01*
X165201700Y-75933339D01*
X165197005Y-75931886D01*
X165150296Y-75917784D01*
X165119045Y-75911596D01*
X165087795Y-75904954D01*
X165082907Y-75904441D01*
X165035002Y-75899744D01*
X165017292Y-75898000D01*
X163335587Y-75898000D01*
X163562085Y-75852947D01*
X163912777Y-75707685D01*
X164228391Y-75496799D01*
X164496799Y-75228391D01*
X164707685Y-74912777D01*
X164852947Y-74562085D01*
X164927000Y-74189793D01*
X164927000Y-73810207D01*
X164852947Y-73437915D01*
X164707685Y-73087223D01*
X164496799Y-72771609D01*
X164228391Y-72503201D01*
X163912777Y-72292315D01*
X163562085Y-72147053D01*
X163189793Y-72073000D01*
X162810207Y-72073000D01*
X162437915Y-72147053D01*
X162087223Y-72292315D01*
X161771609Y-72503201D01*
X161503201Y-72771609D01*
X161292315Y-73087223D01*
X161147053Y-73437915D01*
X161073000Y-73810207D01*
X161073000Y-74189793D01*
X161147053Y-74562085D01*
X161292315Y-74912777D01*
X161503201Y-75228391D01*
X161771609Y-75496799D01*
X162087223Y-75707685D01*
X162437915Y-75852947D01*
X162664413Y-75898000D01*
X160982708Y-75898000D01*
X160965406Y-75899704D01*
X160962158Y-75899704D01*
X160957270Y-75900218D01*
X160936276Y-75902573D01*
X160930996Y-75903093D01*
X160930618Y-75903208D01*
X160908783Y-75905657D01*
X160877628Y-75912280D01*
X160846282Y-75918486D01*
X160841587Y-75919940D01*
X160795080Y-75934693D01*
X160765744Y-75947267D01*
X160736260Y-75959419D01*
X160731942Y-75961754D01*
X160731938Y-75961756D01*
X160731937Y-75961757D01*
X160689180Y-75985262D01*
X160662874Y-76003275D01*
X160636285Y-76020940D01*
X160632498Y-76024074D01*
X160595122Y-76055436D01*
X160572833Y-76078196D01*
X160550161Y-76100710D01*
X160547055Y-76104519D01*
X160516482Y-76142544D01*
X160499017Y-76169234D01*
X160481173Y-76195688D01*
X160478866Y-76200028D01*
X160456261Y-76243267D01*
X160444315Y-76272834D01*
X160431946Y-76302259D01*
X160430525Y-76306964D01*
X160416749Y-76353771D01*
X160410771Y-76385108D01*
X160404356Y-76416361D01*
X160403877Y-76421252D01*
X160399455Y-76469843D01*
X160399677Y-76501673D01*
X160399454Y-76533647D01*
X141127000Y-76533647D01*
X141127000Y-76438246D01*
X141102905Y-76317111D01*
X141055640Y-76203004D01*
X140987023Y-76100311D01*
X140899689Y-76012977D01*
X140796996Y-75944360D01*
X140682889Y-75897095D01*
X140561754Y-75873000D01*
X140438246Y-75873000D01*
X140317111Y-75897095D01*
X140203004Y-75944360D01*
X140100311Y-76012977D01*
X140012977Y-76100311D01*
X139944360Y-76203004D01*
X139897095Y-76317111D01*
X139873000Y-76438246D01*
X138627000Y-76438246D01*
X138627000Y-73938246D01*
X156373000Y-73938246D01*
X156373000Y-74061754D01*
X156397095Y-74182889D01*
X156444360Y-74296996D01*
X156512977Y-74399689D01*
X156600311Y-74487023D01*
X156703004Y-74555640D01*
X156817111Y-74602905D01*
X156938246Y-74627000D01*
X157061754Y-74627000D01*
X157182889Y-74602905D01*
X157296996Y-74555640D01*
X157399689Y-74487023D01*
X157487023Y-74399689D01*
X157555640Y-74296996D01*
X157602905Y-74182889D01*
X157627000Y-74061754D01*
X157627000Y-73938246D01*
X157602905Y-73817111D01*
X157555640Y-73703004D01*
X157487023Y-73600311D01*
X157399689Y-73512977D01*
X157296996Y-73444360D01*
X157182889Y-73397095D01*
X157061754Y-73373000D01*
X156938246Y-73373000D01*
X156817111Y-73397095D01*
X156703004Y-73444360D01*
X156600311Y-73512977D01*
X156512977Y-73600311D01*
X156444360Y-73703004D01*
X156397095Y-73817111D01*
X156373000Y-73938246D01*
X138627000Y-73938246D01*
X138627000Y-63651746D01*
X144957014Y-63651746D01*
X144957248Y-63656656D01*
X144960355Y-63713472D01*
X144965196Y-63745000D01*
X144969598Y-63776602D01*
X144970781Y-63781369D01*
X144970782Y-63781374D01*
X144970784Y-63781379D01*
X144984865Y-63836502D01*
X144995724Y-63866452D01*
X145006195Y-63896638D01*
X145008283Y-63901088D01*
X145032806Y-63952432D01*
X145049279Y-63979706D01*
X145065410Y-64007279D01*
X145068322Y-64011238D01*
X145102351Y-64056841D01*
X145123827Y-64080417D01*
X145144985Y-64104308D01*
X145148611Y-64107626D01*
X145190850Y-64145752D01*
X145216470Y-64164689D01*
X145241894Y-64184036D01*
X145246095Y-64186587D01*
X145294934Y-64215782D01*
X145323749Y-64229384D01*
X145352446Y-64243424D01*
X145357063Y-64245110D01*
X145410643Y-64264262D01*
X145441558Y-64272010D01*
X145472419Y-64280204D01*
X145477275Y-64280962D01*
X145533555Y-64289343D01*
X145565381Y-64290938D01*
X145597256Y-64292983D01*
X145602167Y-64292783D01*
X145659003Y-64290073D01*
X145690582Y-64285449D01*
X145722199Y-64281270D01*
X145726977Y-64280120D01*
X145782204Y-64266422D01*
X145812233Y-64255770D01*
X145842487Y-64245512D01*
X145846951Y-64243456D01*
X145898465Y-64219291D01*
X145925868Y-64203001D01*
X145953537Y-64187071D01*
X145957517Y-64184187D01*
X146003357Y-64150477D01*
X146027077Y-64129172D01*
X146051121Y-64108175D01*
X146054465Y-64104572D01*
X146087820Y-64068133D01*
X147082901Y-63070168D01*
X146954739Y-63379577D01*
X146873000Y-63790509D01*
X146873000Y-64209491D01*
X146954739Y-64620423D01*
X147115077Y-65007512D01*
X147347851Y-65355884D01*
X147644116Y-65652149D01*
X147992488Y-65884923D01*
X148379577Y-66045261D01*
X148790509Y-66127000D01*
X149209491Y-66127000D01*
X149620423Y-66045261D01*
X150007512Y-65884923D01*
X150159082Y-65783647D01*
X154899454Y-65783647D01*
X154899934Y-65788538D01*
X154905034Y-65837062D01*
X154911444Y-65868289D01*
X154917427Y-65899652D01*
X154918848Y-65904357D01*
X154933276Y-65950967D01*
X154945629Y-65980354D01*
X154957592Y-66009963D01*
X154959900Y-66014303D01*
X154983107Y-66057222D01*
X155000929Y-66083643D01*
X155018409Y-66110357D01*
X155021516Y-66114166D01*
X155052616Y-66151760D01*
X155075216Y-66174204D01*
X155097583Y-66197044D01*
X155101371Y-66200177D01*
X155139181Y-66231013D01*
X155165716Y-66248642D01*
X155192069Y-66266687D01*
X155196393Y-66269025D01*
X155239473Y-66291932D01*
X155268930Y-66304074D01*
X155298299Y-66316661D01*
X155302995Y-66318114D01*
X155349703Y-66332216D01*
X155380963Y-66338405D01*
X155412205Y-66345046D01*
X155417092Y-66345559D01*
X155417094Y-66345559D01*
X155464995Y-66350255D01*
X155482708Y-66352000D01*
X156139967Y-66352000D01*
X155847851Y-66644116D01*
X155615077Y-66992488D01*
X155454739Y-67379577D01*
X155373000Y-67790509D01*
X155373000Y-68209491D01*
X155454739Y-68620423D01*
X155615077Y-69007512D01*
X155847851Y-69355884D01*
X156144116Y-69652149D01*
X156492488Y-69884923D01*
X156879577Y-70045261D01*
X157290509Y-70127000D01*
X157709491Y-70127000D01*
X158120423Y-70045261D01*
X158507512Y-69884923D01*
X158855884Y-69652149D01*
X159152149Y-69355884D01*
X159384923Y-69007512D01*
X159545261Y-68620423D01*
X159627000Y-68209491D01*
X159627000Y-67790509D01*
X165373000Y-67790509D01*
X165373000Y-68209491D01*
X165454739Y-68620423D01*
X165615077Y-69007512D01*
X165847851Y-69355884D01*
X166144116Y-69652149D01*
X166492488Y-69884923D01*
X166879577Y-70045261D01*
X167290509Y-70127000D01*
X167709491Y-70127000D01*
X168120423Y-70045261D01*
X168378779Y-69938246D01*
X168873000Y-69938246D01*
X168873000Y-70061754D01*
X168897095Y-70182889D01*
X168944360Y-70296996D01*
X169012977Y-70399689D01*
X169100311Y-70487023D01*
X169203004Y-70555640D01*
X169317111Y-70602905D01*
X169438246Y-70627000D01*
X169561754Y-70627000D01*
X169682889Y-70602905D01*
X169796996Y-70555640D01*
X169899689Y-70487023D01*
X169987023Y-70399689D01*
X170055640Y-70296996D01*
X170102905Y-70182889D01*
X170127000Y-70061754D01*
X170127000Y-69938246D01*
X170102905Y-69817111D01*
X170055640Y-69703004D01*
X169987023Y-69600311D01*
X169899689Y-69512977D01*
X169796996Y-69444360D01*
X169682889Y-69397095D01*
X169561754Y-69373000D01*
X169438246Y-69373000D01*
X169317111Y-69397095D01*
X169203004Y-69444360D01*
X169100311Y-69512977D01*
X169012977Y-69600311D01*
X168944360Y-69703004D01*
X168897095Y-69817111D01*
X168873000Y-69938246D01*
X168378779Y-69938246D01*
X168507512Y-69884923D01*
X168855884Y-69652149D01*
X169152149Y-69355884D01*
X169384923Y-69007512D01*
X169545261Y-68620423D01*
X169627000Y-68209491D01*
X169627000Y-67790509D01*
X169545261Y-67379577D01*
X169384923Y-66992488D01*
X169152149Y-66644116D01*
X168855884Y-66347851D01*
X168507512Y-66115077D01*
X168120423Y-65954739D01*
X167709491Y-65873000D01*
X167290509Y-65873000D01*
X166879577Y-65954739D01*
X166492488Y-66115077D01*
X166144116Y-66347851D01*
X165847851Y-66644116D01*
X165615077Y-66992488D01*
X165454739Y-67379577D01*
X165373000Y-67790509D01*
X159627000Y-67790509D01*
X159545261Y-67379577D01*
X159384923Y-66992488D01*
X159152149Y-66644116D01*
X158860033Y-66352000D01*
X159517292Y-66352000D01*
X159534594Y-66350296D01*
X159537842Y-66350296D01*
X159542730Y-66349782D01*
X159563724Y-66347427D01*
X159569004Y-66346907D01*
X159569382Y-66346792D01*
X159591217Y-66344343D01*
X159622372Y-66337720D01*
X159653718Y-66331514D01*
X159658413Y-66330060D01*
X159704920Y-66315307D01*
X159734207Y-66302754D01*
X159763740Y-66290582D01*
X159768063Y-66288244D01*
X159810820Y-66264738D01*
X159837126Y-66246725D01*
X159863715Y-66229060D01*
X159867502Y-66225926D01*
X159904879Y-66194564D01*
X159927189Y-66171782D01*
X159949838Y-66149290D01*
X159952945Y-66145481D01*
X159983517Y-66107456D01*
X160000965Y-66080792D01*
X160018827Y-66054312D01*
X160021134Y-66049972D01*
X160043739Y-66006734D01*
X160055697Y-65977136D01*
X160068054Y-65947741D01*
X160069475Y-65943036D01*
X160083251Y-65896229D01*
X160089229Y-65864892D01*
X160095644Y-65833639D01*
X160096123Y-65828747D01*
X160100545Y-65780157D01*
X160100323Y-65748327D01*
X160100546Y-65716353D01*
X160100066Y-65711461D01*
X160094966Y-65662938D01*
X160088556Y-65631711D01*
X160082573Y-65600348D01*
X160081152Y-65595643D01*
X160066724Y-65549033D01*
X160054377Y-65519659D01*
X160042408Y-65490036D01*
X160040100Y-65485697D01*
X160016893Y-65442778D01*
X159999061Y-65416341D01*
X159981591Y-65389643D01*
X159978484Y-65385834D01*
X159947384Y-65348239D01*
X159924781Y-65325793D01*
X159902417Y-65302956D01*
X159898629Y-65299823D01*
X159860818Y-65268986D01*
X159834275Y-65251352D01*
X159807931Y-65233313D01*
X159803608Y-65230976D01*
X159760527Y-65208068D01*
X159731044Y-65195916D01*
X159701700Y-65183339D01*
X159697005Y-65181886D01*
X159650296Y-65167784D01*
X159619045Y-65161596D01*
X159587795Y-65154954D01*
X159582907Y-65154441D01*
X159535002Y-65149744D01*
X159517292Y-65148000D01*
X158860033Y-65148000D01*
X159152149Y-64855884D01*
X159384923Y-64507512D01*
X159545261Y-64120423D01*
X159627000Y-63709491D01*
X159627000Y-63290509D01*
X165373000Y-63290509D01*
X165373000Y-63709491D01*
X165454739Y-64120423D01*
X165615077Y-64507512D01*
X165847851Y-64855884D01*
X166144116Y-65152149D01*
X166492488Y-65384923D01*
X166879577Y-65545261D01*
X167290509Y-65627000D01*
X167709491Y-65627000D01*
X168120423Y-65545261D01*
X168507512Y-65384923D01*
X168855884Y-65152149D01*
X169152149Y-64855884D01*
X169384923Y-64507512D01*
X169545261Y-64120423D01*
X169627000Y-63709491D01*
X169627000Y-63290509D01*
X169545261Y-62879577D01*
X169384923Y-62492488D01*
X169152149Y-62144116D01*
X168855884Y-61847851D01*
X168507512Y-61615077D01*
X168120423Y-61454739D01*
X167709491Y-61373000D01*
X167290509Y-61373000D01*
X166879577Y-61454739D01*
X166492488Y-61615077D01*
X166144116Y-61847851D01*
X165847851Y-62144116D01*
X165615077Y-62492488D01*
X165454739Y-62879577D01*
X165373000Y-63290509D01*
X159627000Y-63290509D01*
X159545261Y-62879577D01*
X159384923Y-62492488D01*
X159152149Y-62144116D01*
X158855884Y-61847851D01*
X158507512Y-61615077D01*
X158120423Y-61454739D01*
X157709491Y-61373000D01*
X157290509Y-61373000D01*
X156879577Y-61454739D01*
X156492488Y-61615077D01*
X156144116Y-61847851D01*
X155847851Y-62144116D01*
X155615077Y-62492488D01*
X155454739Y-62879577D01*
X155373000Y-63290509D01*
X155373000Y-63709491D01*
X155454739Y-64120423D01*
X155615077Y-64507512D01*
X155847851Y-64855884D01*
X156139967Y-65148000D01*
X155482708Y-65148000D01*
X155465406Y-65149704D01*
X155462158Y-65149704D01*
X155457270Y-65150218D01*
X155436276Y-65152573D01*
X155430996Y-65153093D01*
X155430618Y-65153208D01*
X155408783Y-65155657D01*
X155377628Y-65162280D01*
X155346282Y-65168486D01*
X155341587Y-65169940D01*
X155295080Y-65184693D01*
X155265744Y-65197267D01*
X155236260Y-65209419D01*
X155231942Y-65211754D01*
X155231938Y-65211756D01*
X155231937Y-65211757D01*
X155189180Y-65235262D01*
X155162874Y-65253275D01*
X155136285Y-65270940D01*
X155132498Y-65274074D01*
X155095122Y-65305436D01*
X155072833Y-65328196D01*
X155050161Y-65350710D01*
X155047055Y-65354519D01*
X155016482Y-65392544D01*
X154999017Y-65419234D01*
X154981173Y-65445688D01*
X154978866Y-65450028D01*
X154956261Y-65493267D01*
X154944315Y-65522834D01*
X154931946Y-65552259D01*
X154930525Y-65556964D01*
X154916749Y-65603771D01*
X154910771Y-65635108D01*
X154904356Y-65666361D01*
X154903877Y-65671252D01*
X154899455Y-65719843D01*
X154899677Y-65751673D01*
X154899454Y-65783647D01*
X150159082Y-65783647D01*
X150355884Y-65652149D01*
X150652149Y-65355884D01*
X150884923Y-65007512D01*
X151045261Y-64620423D01*
X151127000Y-64209491D01*
X151127000Y-63790509D01*
X151045261Y-63379577D01*
X150884923Y-62992488D01*
X150652149Y-62644116D01*
X150355884Y-62347851D01*
X150007512Y-62115077D01*
X149620423Y-61954739D01*
X149209491Y-61873000D01*
X148790509Y-61873000D01*
X148379577Y-61954739D01*
X148065306Y-62084915D01*
X148796102Y-61352000D01*
X151117292Y-61352000D01*
X151134594Y-61350296D01*
X151137842Y-61350296D01*
X151142730Y-61349782D01*
X151163724Y-61347427D01*
X151169004Y-61346907D01*
X151169382Y-61346792D01*
X151191217Y-61344343D01*
X151222372Y-61337720D01*
X151253718Y-61331514D01*
X151258413Y-61330060D01*
X151304920Y-61315307D01*
X151334207Y-61302754D01*
X151363740Y-61290582D01*
X151368063Y-61288244D01*
X151410820Y-61264738D01*
X151437126Y-61246725D01*
X151463715Y-61229060D01*
X151467502Y-61225926D01*
X151504879Y-61194564D01*
X151527189Y-61171782D01*
X151549838Y-61149290D01*
X151552945Y-61145481D01*
X151583517Y-61107456D01*
X151600965Y-61080792D01*
X151618827Y-61054312D01*
X151621134Y-61049972D01*
X151643739Y-61006734D01*
X151655697Y-60977136D01*
X151668054Y-60947741D01*
X151669475Y-60943036D01*
X151683251Y-60896229D01*
X151689229Y-60864892D01*
X151695644Y-60833639D01*
X151696123Y-60828747D01*
X151700545Y-60780157D01*
X151700323Y-60748327D01*
X151700546Y-60716353D01*
X151700066Y-60711461D01*
X151694966Y-60662938D01*
X151688556Y-60631711D01*
X151682573Y-60600348D01*
X151681152Y-60595643D01*
X151666724Y-60549033D01*
X151654377Y-60519659D01*
X151642408Y-60490036D01*
X151640100Y-60485697D01*
X151616893Y-60442778D01*
X151599061Y-60416341D01*
X151581591Y-60389643D01*
X151578484Y-60385834D01*
X151547384Y-60348239D01*
X151524781Y-60325793D01*
X151502417Y-60302956D01*
X151498629Y-60299823D01*
X151460818Y-60268986D01*
X151434275Y-60251352D01*
X151407931Y-60233313D01*
X151403608Y-60230976D01*
X151360527Y-60208068D01*
X151331044Y-60195916D01*
X151301700Y-60183339D01*
X151297005Y-60181886D01*
X151250296Y-60167784D01*
X151219045Y-60161596D01*
X151187795Y-60154954D01*
X151182907Y-60154441D01*
X151135002Y-60149744D01*
X151117292Y-60148000D01*
X148435989Y-60148000D01*
X148420653Y-60146319D01*
X148401419Y-60148000D01*
X148399470Y-60148000D01*
X148384105Y-60149513D01*
X148351579Y-60152356D01*
X148349709Y-60152901D01*
X148347758Y-60153093D01*
X148316372Y-60162614D01*
X148285009Y-60171752D01*
X148283277Y-60172653D01*
X148281406Y-60173221D01*
X148252535Y-60188653D01*
X148223502Y-60203763D01*
X148221978Y-60204986D01*
X148220255Y-60205907D01*
X148194955Y-60226670D01*
X148182975Y-60236283D01*
X148181588Y-60237640D01*
X148166656Y-60249894D01*
X148156865Y-60261825D01*
X145091492Y-63260467D01*
X145080029Y-63274125D01*
X145080024Y-63274130D01*
X145080020Y-63274136D01*
X145058087Y-63300269D01*
X145041300Y-63330862D01*
X145041294Y-63330870D01*
X145041233Y-63330983D01*
X145024731Y-63361056D01*
X145023576Y-63364719D01*
X145015306Y-63384866D01*
X145004864Y-63406592D01*
X145003210Y-63411220D01*
X144984432Y-63464932D01*
X144976892Y-63495933D01*
X144968921Y-63526821D01*
X144968197Y-63531683D01*
X144960209Y-63588018D01*
X144958835Y-63619875D01*
X144957014Y-63651746D01*
X138627000Y-63651746D01*
X138627000Y-57985486D01*
X138679847Y-57857903D01*
X138727000Y-57620849D01*
X138727000Y-57379151D01*
X138679847Y-57142097D01*
X138627000Y-57014514D01*
X138627000Y-56000000D01*
X138818515Y-56000000D01*
X138818515Y-59000000D01*
X138836413Y-59181724D01*
X138889420Y-59356464D01*
X138975499Y-59517505D01*
X139091341Y-59658659D01*
X139232495Y-59774501D01*
X139393536Y-59860580D01*
X139568276Y-59913587D01*
X139750000Y-59931485D01*
X142750000Y-59931485D01*
X142931724Y-59913587D01*
X143106464Y-59860580D01*
X143267505Y-59774501D01*
X143408659Y-59658659D01*
X143524501Y-59517505D01*
X143557103Y-59456511D01*
X143578218Y-59477189D01*
X143600710Y-59499838D01*
X143604519Y-59502945D01*
X143642544Y-59533517D01*
X143669208Y-59550965D01*
X143695688Y-59568827D01*
X143700028Y-59571134D01*
X143743266Y-59593739D01*
X143772864Y-59605697D01*
X143802259Y-59618054D01*
X143806964Y-59619475D01*
X143853771Y-59633251D01*
X143885108Y-59639229D01*
X143916361Y-59645644D01*
X143921251Y-59646123D01*
X143921253Y-59646123D01*
X143969843Y-59650545D01*
X144001673Y-59650323D01*
X144033647Y-59650546D01*
X144038538Y-59650066D01*
X144087062Y-59644966D01*
X144118289Y-59638556D01*
X144149652Y-59632573D01*
X144154357Y-59631152D01*
X144200967Y-59616724D01*
X144230354Y-59604371D01*
X144259963Y-59592408D01*
X144264303Y-59590100D01*
X144307222Y-59566893D01*
X144333643Y-59549071D01*
X144360357Y-59531591D01*
X144364166Y-59528484D01*
X144401760Y-59497384D01*
X144424204Y-59474784D01*
X144447044Y-59452417D01*
X144450177Y-59448629D01*
X144481013Y-59410819D01*
X144498642Y-59384284D01*
X144516687Y-59357931D01*
X144519025Y-59353607D01*
X144541932Y-59310527D01*
X144554074Y-59281070D01*
X144566661Y-59251701D01*
X144568114Y-59247005D01*
X144582216Y-59200297D01*
X144588405Y-59169037D01*
X144595046Y-59137795D01*
X144595559Y-59132906D01*
X144600320Y-59084347D01*
X144602000Y-59067292D01*
X144602000Y-58921454D01*
X144910370Y-59229824D01*
X145275120Y-59473542D01*
X145680408Y-59641418D01*
X146110660Y-59727000D01*
X146549340Y-59727000D01*
X146979592Y-59641418D01*
X147384880Y-59473542D01*
X147749630Y-59229824D01*
X148059824Y-58919630D01*
X148303542Y-58554880D01*
X148442230Y-58220056D01*
X166673000Y-58220056D01*
X166673000Y-58579944D01*
X166743211Y-58932916D01*
X166880934Y-59265409D01*
X167080876Y-59564645D01*
X167335355Y-59819124D01*
X167634591Y-60019066D01*
X167967084Y-60156789D01*
X168320056Y-60227000D01*
X168679944Y-60227000D01*
X169032916Y-60156789D01*
X169365409Y-60019066D01*
X169664645Y-59819124D01*
X169919124Y-59564645D01*
X170119066Y-59265409D01*
X170256789Y-58932916D01*
X170327000Y-58579944D01*
X170327000Y-58220056D01*
X170256789Y-57867084D01*
X170119066Y-57534591D01*
X169919124Y-57235355D01*
X169664645Y-56980876D01*
X169365409Y-56780934D01*
X169032916Y-56643211D01*
X168679944Y-56573000D01*
X168320056Y-56573000D01*
X167967084Y-56643211D01*
X167634591Y-56780934D01*
X167335355Y-56980876D01*
X167080876Y-57235355D01*
X166880934Y-57534591D01*
X166743211Y-57867084D01*
X166673000Y-58220056D01*
X148442230Y-58220056D01*
X148471418Y-58149592D01*
X148557000Y-57719340D01*
X148557000Y-57280660D01*
X148471418Y-56850408D01*
X148303542Y-56445120D01*
X148059824Y-56080370D01*
X147749630Y-55770176D01*
X147384880Y-55526458D01*
X146979592Y-55358582D01*
X146549340Y-55273000D01*
X146110660Y-55273000D01*
X145680408Y-55358582D01*
X145275120Y-55526458D01*
X144910370Y-55770176D01*
X144602000Y-56078546D01*
X144602000Y-55032708D01*
X144600519Y-55017667D01*
X144600540Y-55014608D01*
X144600060Y-55009716D01*
X144589860Y-54912668D01*
X144583446Y-54881422D01*
X144577467Y-54850077D01*
X144576046Y-54845372D01*
X144547190Y-54752153D01*
X144534838Y-54722770D01*
X144522875Y-54693160D01*
X144520567Y-54688820D01*
X144474154Y-54602983D01*
X144456329Y-54576556D01*
X144438846Y-54549839D01*
X144435739Y-54546030D01*
X144373537Y-54470841D01*
X144350926Y-54448387D01*
X144328581Y-54425569D01*
X144324793Y-54422436D01*
X144249173Y-54360760D01*
X144222594Y-54343101D01*
X144196272Y-54325078D01*
X144191948Y-54322740D01*
X144105787Y-54276929D01*
X144076319Y-54264783D01*
X144046971Y-54252204D01*
X144042276Y-54250751D01*
X143948858Y-54222546D01*
X143917591Y-54216355D01*
X143886353Y-54209715D01*
X143881471Y-54209203D01*
X143881468Y-54209202D01*
X143881465Y-54209202D01*
X143784784Y-54199723D01*
X143767292Y-54198000D01*
X141732708Y-54198000D01*
X141715406Y-54199704D01*
X141712158Y-54199704D01*
X141707270Y-54200218D01*
X141686276Y-54202573D01*
X141680996Y-54203093D01*
X141680618Y-54203208D01*
X141658783Y-54205657D01*
X141627628Y-54212280D01*
X141596282Y-54218486D01*
X141591587Y-54219940D01*
X141545080Y-54234693D01*
X141515744Y-54247267D01*
X141486260Y-54259419D01*
X141481942Y-54261754D01*
X141481938Y-54261756D01*
X141481937Y-54261757D01*
X141439180Y-54285262D01*
X141412874Y-54303275D01*
X141386285Y-54320940D01*
X141382498Y-54324074D01*
X141345122Y-54355436D01*
X141322833Y-54378196D01*
X141300161Y-54400710D01*
X141297055Y-54404519D01*
X141266482Y-54442544D01*
X141249017Y-54469234D01*
X141231173Y-54495688D01*
X141228866Y-54500028D01*
X141206261Y-54543267D01*
X141194315Y-54572834D01*
X141181946Y-54602259D01*
X141180525Y-54606964D01*
X141166749Y-54653771D01*
X141160771Y-54685108D01*
X141154356Y-54716361D01*
X141153877Y-54721252D01*
X141149455Y-54769843D01*
X141149677Y-54801673D01*
X141149454Y-54833647D01*
X141149934Y-54838538D01*
X141155034Y-54887062D01*
X141161444Y-54918289D01*
X141167427Y-54949652D01*
X141168848Y-54954357D01*
X141183276Y-55000967D01*
X141195629Y-55030354D01*
X141207592Y-55059963D01*
X141209900Y-55064303D01*
X141212177Y-55068515D01*
X139750000Y-55068515D01*
X139568276Y-55086413D01*
X139393536Y-55139420D01*
X139232495Y-55225499D01*
X139091341Y-55341341D01*
X138975499Y-55482495D01*
X138889420Y-55643536D01*
X138836413Y-55818276D01*
X138818515Y-56000000D01*
X138627000Y-56000000D01*
X138627000Y-54127000D01*
X159789231Y-54127000D01*
X159580876Y-54335355D01*
G37*
X159580876Y-54335355D02*
X159380934Y-54634591D01*
X159243211Y-54967084D01*
X159173000Y-55320056D01*
X159173000Y-55679944D01*
X159243211Y-56032916D01*
X159380934Y-56365409D01*
X159580876Y-56664645D01*
X159835355Y-56919124D01*
X160134591Y-57119066D01*
X160467084Y-57256789D01*
X160820056Y-57327000D01*
X161179944Y-57327000D01*
X161532916Y-57256789D01*
X161865409Y-57119066D01*
X162164645Y-56919124D01*
X162419124Y-56664645D01*
X162619066Y-56365409D01*
X162756789Y-56032916D01*
X162827000Y-55679944D01*
X162827000Y-55438246D01*
X168873000Y-55438246D01*
X168873000Y-55561754D01*
X168897095Y-55682889D01*
X168944360Y-55796996D01*
X169012977Y-55899689D01*
X169100311Y-55987023D01*
X169203004Y-56055640D01*
X169317111Y-56102905D01*
X169438246Y-56127000D01*
X169561754Y-56127000D01*
X169682889Y-56102905D01*
X169796996Y-56055640D01*
X169899689Y-55987023D01*
X169987023Y-55899689D01*
X170055640Y-55796996D01*
X170102905Y-55682889D01*
X170127000Y-55561754D01*
X170127000Y-55438246D01*
X170102905Y-55317111D01*
X170055640Y-55203004D01*
X169987023Y-55100311D01*
X169899689Y-55012977D01*
X169796996Y-54944360D01*
X169682889Y-54897095D01*
X169561754Y-54873000D01*
X169438246Y-54873000D01*
X169317111Y-54897095D01*
X169203004Y-54944360D01*
X169100311Y-55012977D01*
X169012977Y-55100311D01*
X168944360Y-55203004D01*
X168897095Y-55317111D01*
X168873000Y-55438246D01*
X162827000Y-55438246D01*
X162827000Y-55320056D01*
X162756789Y-54967084D01*
X162619066Y-54634591D01*
X162419124Y-54335355D01*
X162210769Y-54127000D01*
X170873000Y-54127000D01*
X170873000Y-115623855D01*
X167427000Y-115647139D01*
X167427000Y-111025000D01*
X167424560Y-111000224D01*
X167417333Y-110976399D01*
X167405597Y-110954443D01*
X167389803Y-110935197D01*
X167370557Y-110919403D01*
X167348601Y-110907667D01*
X167324776Y-110900440D01*
X167300557Y-110898001D01*
X161600557Y-110873001D01*
X161575770Y-110875333D01*
X161551914Y-110882455D01*
X161529906Y-110894095D01*
X161510592Y-110909804D01*
X161494714Y-110928980D01*
X161482882Y-110950885D01*
X161475550Y-110974677D01*
X161473040Y-111003174D01*
X161494712Y-111870040D01*
X160515353Y-111848032D01*
X160490528Y-111849915D01*
X160466547Y-111856605D01*
X160444333Y-111867845D01*
X160424738Y-111883203D01*
X160408515Y-111902088D01*
X160396289Y-111923775D01*
X160388528Y-111947431D01*
X160385583Y-111970421D01*
X160384416Y-112002772D01*
X160296996Y-111944360D01*
X160182889Y-111897095D01*
X160061754Y-111873000D01*
X159938246Y-111873000D01*
X159817111Y-111897095D01*
X159703004Y-111944360D01*
X159600311Y-112012977D01*
X159512977Y-112100311D01*
X159444360Y-112203004D01*
X159397095Y-112317111D01*
X159373000Y-112438246D01*
X159373000Y-112561754D01*
X159397095Y-112682889D01*
X159444360Y-112796996D01*
X159512977Y-112899689D01*
X159600311Y-112987023D01*
X159703004Y-113055640D01*
X159817111Y-113102905D01*
X159938246Y-113127000D01*
X160061754Y-113127000D01*
X160182889Y-113102905D01*
X160296996Y-113055640D01*
X160347647Y-113021796D01*
X160341833Y-113182921D01*
X160343378Y-113207769D01*
X160349741Y-113231838D01*
X160360678Y-113254204D01*
X160375768Y-113274006D01*
X160394431Y-113290484D01*
X160415950Y-113303004D01*
X160439498Y-113311085D01*
X160466236Y-113314475D01*
X161605166Y-113337028D01*
X161623003Y-115750938D01*
X161625627Y-115775696D01*
X161633030Y-115799466D01*
X161644928Y-115821336D01*
X161660863Y-115840464D01*
X161680225Y-115856115D01*
X161702267Y-115867689D01*
X161726145Y-115874739D01*
X161750000Y-115877000D01*
X170873000Y-115877000D01*
X170873000Y-129373000D01*
X158114818Y-129373000D01*
X158127000Y-129311754D01*
X158127000Y-129188246D01*
X158102905Y-129067111D01*
X158055640Y-128953004D01*
X158003520Y-128875000D01*
X158055640Y-128796996D01*
X158102905Y-128682889D01*
X158127000Y-128561754D01*
X158127000Y-128438246D01*
X158102905Y-128317111D01*
X158055640Y-128203004D01*
X158003520Y-128125000D01*
X158055640Y-128046996D01*
X158102905Y-127932889D01*
X158115553Y-127869302D01*
X161673000Y-127869302D01*
X161673000Y-128130698D01*
X161723996Y-128387072D01*
X161824028Y-128628570D01*
X161969252Y-128845913D01*
X162154087Y-129030748D01*
X162371430Y-129175972D01*
X162612928Y-129276004D01*
X162869302Y-129327000D01*
X163130698Y-129327000D01*
X163387072Y-129276004D01*
X163628570Y-129175972D01*
X163845913Y-129030748D01*
X164030748Y-128845913D01*
X164175972Y-128628570D01*
X164276004Y-128387072D01*
X164327000Y-128130698D01*
X164327000Y-127869302D01*
X168173000Y-127869302D01*
X168173000Y-128130698D01*
X168223996Y-128387072D01*
X168324028Y-128628570D01*
X168469252Y-128845913D01*
X168654087Y-129030748D01*
X168871430Y-129175972D01*
X169112928Y-129276004D01*
X169369302Y-129327000D01*
X169630698Y-129327000D01*
X169887072Y-129276004D01*
X170128570Y-129175972D01*
X170345913Y-129030748D01*
X170530748Y-128845913D01*
X170675972Y-128628570D01*
X170776004Y-128387072D01*
X170827000Y-128130698D01*
X170827000Y-127869302D01*
X170776004Y-127612928D01*
X170675972Y-127371430D01*
X170530748Y-127154087D01*
X170345913Y-126969252D01*
X170128570Y-126824028D01*
X169887072Y-126723996D01*
X169630698Y-126673000D01*
X169369302Y-126673000D01*
X169112928Y-126723996D01*
X168871430Y-126824028D01*
X168654087Y-126969252D01*
X168469252Y-127154087D01*
X168324028Y-127371430D01*
X168223996Y-127612928D01*
X168173000Y-127869302D01*
X164327000Y-127869302D01*
X164276004Y-127612928D01*
X164175972Y-127371430D01*
X164030748Y-127154087D01*
X163845913Y-126969252D01*
X163628570Y-126824028D01*
X163387072Y-126723996D01*
X163130698Y-126673000D01*
X162869302Y-126673000D01*
X162612928Y-126723996D01*
X162371430Y-126824028D01*
X162154087Y-126969252D01*
X161969252Y-127154087D01*
X161824028Y-127371430D01*
X161723996Y-127612928D01*
X161673000Y-127869302D01*
X158115553Y-127869302D01*
X158127000Y-127811754D01*
X158127000Y-127688246D01*
X158111793Y-127611793D01*
X158188246Y-127627000D01*
X158311754Y-127627000D01*
X158432889Y-127602905D01*
X158546996Y-127555640D01*
X158625000Y-127503520D01*
X158703004Y-127555640D01*
X158817111Y-127602905D01*
X158938246Y-127627000D01*
X159061754Y-127627000D01*
X159182889Y-127602905D01*
X159296996Y-127555640D01*
X159399689Y-127487023D01*
X159487023Y-127399689D01*
X159555640Y-127296996D01*
X159602905Y-127182889D01*
X159627000Y-127061754D01*
X159627000Y-126938246D01*
X159602905Y-126817111D01*
X159587064Y-126778868D01*
X159649689Y-126737023D01*
X159737023Y-126649689D01*
X159805640Y-126546996D01*
X159852905Y-126432889D01*
X159877000Y-126311754D01*
X159877000Y-126188246D01*
X159852905Y-126067111D01*
X159805640Y-125953004D01*
X159753520Y-125875000D01*
X159805640Y-125796996D01*
X159852905Y-125682889D01*
X159877000Y-125561754D01*
X159877000Y-125438246D01*
X159852905Y-125317111D01*
X159805640Y-125203004D01*
X159753520Y-125125000D01*
X159805640Y-125046996D01*
X159852905Y-124932889D01*
X159877000Y-124811754D01*
X159877000Y-124688246D01*
X159852905Y-124567111D01*
X159805640Y-124453004D01*
X159753520Y-124375000D01*
X159805640Y-124296996D01*
X159852905Y-124182889D01*
X159877000Y-124061754D01*
X159877000Y-123938246D01*
X159852905Y-123817111D01*
X159805640Y-123703004D01*
X159753520Y-123625000D01*
X159805640Y-123546996D01*
X159852905Y-123432889D01*
X159865553Y-123369302D01*
X161673000Y-123369302D01*
X161673000Y-123630698D01*
X161723996Y-123887072D01*
X161824028Y-124128570D01*
X161969252Y-124345913D01*
X162154087Y-124530748D01*
X162371430Y-124675972D01*
X162612928Y-124776004D01*
X162869302Y-124827000D01*
X163130698Y-124827000D01*
X163387072Y-124776004D01*
X163628570Y-124675972D01*
X163845913Y-124530748D01*
X164030748Y-124345913D01*
X164175972Y-124128570D01*
X164276004Y-123887072D01*
X164327000Y-123630698D01*
X164327000Y-123369302D01*
X168173000Y-123369302D01*
X168173000Y-123630698D01*
X168223996Y-123887072D01*
X168324028Y-124128570D01*
X168469252Y-124345913D01*
X168654087Y-124530748D01*
X168871430Y-124675972D01*
X169112928Y-124776004D01*
X169369302Y-124827000D01*
X169630698Y-124827000D01*
X169887072Y-124776004D01*
X170128570Y-124675972D01*
X170345913Y-124530748D01*
X170530748Y-124345913D01*
X170675972Y-124128570D01*
X170776004Y-123887072D01*
X170827000Y-123630698D01*
X170827000Y-123369302D01*
X170776004Y-123112928D01*
X170675972Y-122871430D01*
X170530748Y-122654087D01*
X170345913Y-122469252D01*
X170128570Y-122324028D01*
X169887072Y-122223996D01*
X169630698Y-122173000D01*
X169369302Y-122173000D01*
X169112928Y-122223996D01*
X168871430Y-122324028D01*
X168654087Y-122469252D01*
X168469252Y-122654087D01*
X168324028Y-122871430D01*
X168223996Y-123112928D01*
X168173000Y-123369302D01*
X164327000Y-123369302D01*
X164276004Y-123112928D01*
X164175972Y-122871430D01*
X164030748Y-122654087D01*
X163845913Y-122469252D01*
X163628570Y-122324028D01*
X163387072Y-122223996D01*
X163130698Y-122173000D01*
X162869302Y-122173000D01*
X162612928Y-122223996D01*
X162371430Y-122324028D01*
X162154087Y-122469252D01*
X161969252Y-122654087D01*
X161824028Y-122871430D01*
X161723996Y-123112928D01*
X161673000Y-123369302D01*
X159865553Y-123369302D01*
X159877000Y-123311754D01*
X159877000Y-123188246D01*
X159852905Y-123067111D01*
X159805640Y-122953004D01*
X159753520Y-122875000D01*
X159805640Y-122796996D01*
X159852905Y-122682889D01*
X159877000Y-122561754D01*
X159877000Y-122438246D01*
X159852905Y-122317111D01*
X159805640Y-122203004D01*
X159737023Y-122100311D01*
X159649689Y-122012977D01*
X159546996Y-121944360D01*
X159432889Y-121897095D01*
X159311754Y-121873000D01*
X159188246Y-121873000D01*
X159067111Y-121897095D01*
X158953004Y-121944360D01*
X158875000Y-121996480D01*
X158796996Y-121944360D01*
X158682889Y-121897095D01*
X158561754Y-121873000D01*
X158438246Y-121873000D01*
X158361793Y-121888207D01*
X158377000Y-121811754D01*
X158377000Y-121688246D01*
X158352905Y-121567111D01*
X158305640Y-121453004D01*
X158253520Y-121375000D01*
X158305640Y-121296996D01*
X158352905Y-121182889D01*
X158377000Y-121061754D01*
X158377000Y-120938246D01*
X158352905Y-120817111D01*
X158305640Y-120703004D01*
X158237023Y-120600311D01*
X158149689Y-120512977D01*
X158046996Y-120444360D01*
X157932889Y-120397095D01*
X157811754Y-120373000D01*
X157688246Y-120373000D01*
X157567111Y-120397095D01*
X157453004Y-120444360D01*
X157350311Y-120512977D01*
X157262977Y-120600311D01*
X157194360Y-120703004D01*
X157147095Y-120817111D01*
X157123000Y-120938246D01*
X157123000Y-121061754D01*
X157147095Y-121182889D01*
X157194360Y-121296996D01*
X157246480Y-121375000D01*
X157194360Y-121453004D01*
X157147095Y-121567111D01*
X157123000Y-121688246D01*
X157123000Y-121811754D01*
X157147095Y-121932889D01*
X157194360Y-122046996D01*
X157246480Y-122125000D01*
X157194360Y-122203004D01*
X157147095Y-122317111D01*
X157123000Y-122438246D01*
X157123000Y-122561754D01*
X157147095Y-122682889D01*
X157194360Y-122796996D01*
X157262977Y-122899689D01*
X157350311Y-122987023D01*
X157453004Y-123055640D01*
X157567111Y-123102905D01*
X157688246Y-123127000D01*
X157811754Y-123127000D01*
X157932889Y-123102905D01*
X158046996Y-123055640D01*
X158125000Y-123003520D01*
X158203004Y-123055640D01*
X158317111Y-123102905D01*
X158438246Y-123127000D01*
X158561754Y-123127000D01*
X158638207Y-123111793D01*
X158623000Y-123188246D01*
X158623000Y-123311754D01*
X158647095Y-123432889D01*
X158694360Y-123546996D01*
X158746480Y-123625000D01*
X158694360Y-123703004D01*
X158647095Y-123817111D01*
X158623000Y-123938246D01*
X158623000Y-124061754D01*
X158647095Y-124182889D01*
X158694360Y-124296996D01*
X158746480Y-124375000D01*
X158694360Y-124453004D01*
X158647095Y-124567111D01*
X158623000Y-124688246D01*
X158623000Y-124811754D01*
X158647095Y-124932889D01*
X158694360Y-125046996D01*
X158746480Y-125125000D01*
X158694360Y-125203004D01*
X158647095Y-125317111D01*
X158623000Y-125438246D01*
X158623000Y-125561754D01*
X158647095Y-125682889D01*
X158694360Y-125796996D01*
X158746480Y-125875000D01*
X158694360Y-125953004D01*
X158647095Y-126067111D01*
X158623000Y-126188246D01*
X158623000Y-126311754D01*
X158647095Y-126432889D01*
X158662936Y-126471132D01*
X158625000Y-126496480D01*
X158546996Y-126444360D01*
X158432889Y-126397095D01*
X158311754Y-126373000D01*
X158188246Y-126373000D01*
X158067111Y-126397095D01*
X157953004Y-126444360D01*
X157875000Y-126496480D01*
X157796996Y-126444360D01*
X157682889Y-126397095D01*
X157561754Y-126373000D01*
X157438246Y-126373000D01*
X157317111Y-126397095D01*
X157203004Y-126444360D01*
X157100311Y-126512977D01*
X157012977Y-126600311D01*
X156944360Y-126703004D01*
X156897095Y-126817111D01*
X156873000Y-126938246D01*
X156873000Y-127061754D01*
X156897095Y-127182889D01*
X156944360Y-127296996D01*
X156996480Y-127375000D01*
X156944360Y-127453004D01*
X156897095Y-127567111D01*
X156873000Y-127688246D01*
X156873000Y-127811754D01*
X156897095Y-127932889D01*
X156944360Y-128046996D01*
X156996480Y-128125000D01*
X156944360Y-128203004D01*
X156897095Y-128317111D01*
X156873000Y-128438246D01*
X156873000Y-128561754D01*
X156897095Y-128682889D01*
X156944360Y-128796996D01*
X156996480Y-128875000D01*
X156944360Y-128953004D01*
X156897095Y-129067111D01*
X156873000Y-129188246D01*
X156873000Y-129311754D01*
X156885182Y-129373000D01*
X145864022Y-129373000D01*
X145852905Y-129317111D01*
X145805640Y-129203004D01*
X145737023Y-129100311D01*
X145649689Y-129012977D01*
X145546996Y-128944360D01*
X145432889Y-128897095D01*
X145311754Y-128873000D01*
X145224763Y-128873000D01*
X145227000Y-128861754D01*
X145227000Y-128738246D01*
X145202905Y-128617111D01*
X145155640Y-128503004D01*
X145087023Y-128400311D01*
X144999689Y-128312977D01*
X144922296Y-128261265D01*
X144875272Y-127979121D01*
X144868792Y-127955083D01*
X144857746Y-127932771D01*
X144842560Y-127913043D01*
X144823817Y-127896656D01*
X144802237Y-127884241D01*
X144778650Y-127876274D01*
X144750000Y-127873000D01*
X139002183Y-127873000D01*
X138987023Y-127850311D01*
X138899689Y-127762977D01*
X138796996Y-127694360D01*
X138682889Y-127647095D01*
X138627000Y-127635978D01*
X138627000Y-125379151D01*
X138733000Y-125379151D01*
X138733000Y-125620849D01*
X138780153Y-125857903D01*
X138872647Y-126081202D01*
X139006927Y-126282167D01*
X139177833Y-126453073D01*
X139378798Y-126587353D01*
X139602097Y-126679847D01*
X139839151Y-126727000D01*
X140080849Y-126727000D01*
X140317903Y-126679847D01*
X140541202Y-126587353D01*
X140742167Y-126453073D01*
X140913073Y-126282167D01*
X141047353Y-126081202D01*
X141139847Y-125857903D01*
X141187000Y-125620849D01*
X141187000Y-125379151D01*
X141139847Y-125142097D01*
X141047353Y-124918798D01*
X140913073Y-124717833D01*
X140795240Y-124600000D01*
X141271418Y-124600000D01*
X141271418Y-126400000D01*
X141277732Y-126464103D01*
X141296430Y-126525743D01*
X141326794Y-126582550D01*
X141367657Y-126632343D01*
X141417450Y-126673206D01*
X141474257Y-126703570D01*
X141535897Y-126722268D01*
X141600000Y-126728582D01*
X143400000Y-126728582D01*
X143464103Y-126722268D01*
X143525743Y-126703570D01*
X143582550Y-126673206D01*
X143632343Y-126632343D01*
X143673206Y-126582550D01*
X143703570Y-126525743D01*
X143722268Y-126464103D01*
X143728582Y-126400000D01*
X143728582Y-125379151D01*
X145233000Y-125379151D01*
X145233000Y-125620849D01*
X145280153Y-125857903D01*
X145372647Y-126081202D01*
X145506927Y-126282167D01*
X145677833Y-126453073D01*
X145878798Y-126587353D01*
X146102097Y-126679847D01*
X146339151Y-126727000D01*
X146580849Y-126727000D01*
X146817903Y-126679847D01*
X147041202Y-126587353D01*
X147242167Y-126453073D01*
X147413073Y-126282167D01*
X147547353Y-126081202D01*
X147639847Y-125857903D01*
X147687000Y-125620849D01*
X147687000Y-125379151D01*
X147639847Y-125142097D01*
X147547353Y-124918798D01*
X147413073Y-124717833D01*
X147295240Y-124600000D01*
X147771418Y-124600000D01*
X147771418Y-126400000D01*
X147777732Y-126464103D01*
X147796430Y-126525743D01*
X147826794Y-126582550D01*
X147867657Y-126632343D01*
X147917450Y-126673206D01*
X147974257Y-126703570D01*
X148035897Y-126722268D01*
X148100000Y-126728582D01*
X149900000Y-126728582D01*
X149964103Y-126722268D01*
X150025743Y-126703570D01*
X150082550Y-126673206D01*
X150132343Y-126632343D01*
X150173206Y-126582550D01*
X150203570Y-126525743D01*
X150222268Y-126464103D01*
X150228582Y-126400000D01*
X150228582Y-124600000D01*
X150222268Y-124535897D01*
X150203570Y-124474257D01*
X150173206Y-124417450D01*
X150132343Y-124367657D01*
X150082550Y-124326794D01*
X150025743Y-124296430D01*
X149964103Y-124277732D01*
X149900000Y-124271418D01*
X148100000Y-124271418D01*
X148035897Y-124277732D01*
X147974257Y-124296430D01*
X147917450Y-124326794D01*
X147867657Y-124367657D01*
X147826794Y-124417450D01*
X147796430Y-124474257D01*
X147777732Y-124535897D01*
X147771418Y-124600000D01*
X147295240Y-124600000D01*
X147242167Y-124546927D01*
X147041202Y-124412647D01*
X146817903Y-124320153D01*
X146580849Y-124273000D01*
X146339151Y-124273000D01*
X146102097Y-124320153D01*
X145878798Y-124412647D01*
X145677833Y-124546927D01*
X145506927Y-124717833D01*
X145372647Y-124918798D01*
X145280153Y-125142097D01*
X145233000Y-125379151D01*
X143728582Y-125379151D01*
X143728582Y-124600000D01*
X143722268Y-124535897D01*
X143703570Y-124474257D01*
X143673206Y-124417450D01*
X143632343Y-124367657D01*
X143582550Y-124326794D01*
X143525743Y-124296430D01*
X143464103Y-124277732D01*
X143400000Y-124271418D01*
X141600000Y-124271418D01*
X141535897Y-124277732D01*
X141474257Y-124296430D01*
X141417450Y-124326794D01*
X141367657Y-124367657D01*
X141326794Y-124417450D01*
X141296430Y-124474257D01*
X141277732Y-124535897D01*
X141271418Y-124600000D01*
X140795240Y-124600000D01*
X140742167Y-124546927D01*
X140541202Y-124412647D01*
X140317903Y-124320153D01*
X140080849Y-124273000D01*
X139839151Y-124273000D01*
X139602097Y-124320153D01*
X139378798Y-124412647D01*
X139177833Y-124546927D01*
X139006927Y-124717833D01*
X138872647Y-124918798D01*
X138780153Y-125142097D01*
X138733000Y-125379151D01*
X138627000Y-125379151D01*
X138627000Y-117938246D01*
X141373000Y-117938246D01*
X141373000Y-118061754D01*
X141397095Y-118182889D01*
X141444360Y-118296996D01*
X141512977Y-118399689D01*
X141600311Y-118487023D01*
X141703004Y-118555640D01*
X141817111Y-118602905D01*
X141938246Y-118627000D01*
X142061754Y-118627000D01*
X142182889Y-118602905D01*
X142296996Y-118555640D01*
X142399689Y-118487023D01*
X142487023Y-118399689D01*
X142555640Y-118296996D01*
X142602905Y-118182889D01*
X142627000Y-118061754D01*
X142627000Y-117938246D01*
X142602905Y-117817111D01*
X142555640Y-117703004D01*
X142487023Y-117600311D01*
X142399689Y-117512977D01*
X142296996Y-117444360D01*
X142182889Y-117397095D01*
X142061754Y-117373000D01*
X141938246Y-117373000D01*
X141817111Y-117397095D01*
X141703004Y-117444360D01*
X141600311Y-117512977D01*
X141512977Y-117600311D01*
X141444360Y-117703004D01*
X141397095Y-117817111D01*
X141373000Y-117938246D01*
X138627000Y-117938246D01*
X138627000Y-116750000D01*
X146623000Y-116750000D01*
X146623000Y-122250000D01*
X146625440Y-122274776D01*
X146632667Y-122298601D01*
X146644403Y-122320557D01*
X146660197Y-122339803D01*
X146679443Y-122355597D01*
X146701399Y-122367333D01*
X146725224Y-122374560D01*
X146750000Y-122377000D01*
X153135182Y-122377000D01*
X153123000Y-122438246D01*
X153123000Y-122561754D01*
X153147095Y-122682889D01*
X153194360Y-122796996D01*
X153246480Y-122875000D01*
X153194360Y-122953004D01*
X153147095Y-123067111D01*
X153123000Y-123188246D01*
X153123000Y-123311754D01*
X153147095Y-123432889D01*
X153194360Y-123546996D01*
X153246480Y-123625000D01*
X153194360Y-123703004D01*
X153147095Y-123817111D01*
X153123000Y-123938246D01*
X153123000Y-124061754D01*
X153147095Y-124182889D01*
X153194360Y-124296996D01*
X153246480Y-124375000D01*
X153194360Y-124453004D01*
X153147095Y-124567111D01*
X153123000Y-124688246D01*
X153123000Y-124811754D01*
X153147095Y-124932889D01*
X153194360Y-125046996D01*
X153246480Y-125125000D01*
X153194360Y-125203004D01*
X153147095Y-125317111D01*
X153123000Y-125438246D01*
X153123000Y-125561754D01*
X153147095Y-125682889D01*
X153194360Y-125796996D01*
X153246480Y-125875000D01*
X153194360Y-125953004D01*
X153147095Y-126067111D01*
X153123000Y-126188246D01*
X153123000Y-126311754D01*
X153147095Y-126432889D01*
X153194360Y-126546996D01*
X153262977Y-126649689D01*
X153350311Y-126737023D01*
X153412936Y-126778868D01*
X153397095Y-126817111D01*
X153373000Y-126938246D01*
X153373000Y-127061754D01*
X153397095Y-127182889D01*
X153444360Y-127296996D01*
X153512977Y-127399689D01*
X153600311Y-127487023D01*
X153703004Y-127555640D01*
X153817111Y-127602905D01*
X153938246Y-127627000D01*
X154061754Y-127627000D01*
X154182889Y-127602905D01*
X154296996Y-127555640D01*
X154375000Y-127503520D01*
X154453004Y-127555640D01*
X154567111Y-127602905D01*
X154688246Y-127627000D01*
X154811754Y-127627000D01*
X154932889Y-127602905D01*
X155046996Y-127555640D01*
X155125000Y-127503520D01*
X155203004Y-127555640D01*
X155317111Y-127602905D01*
X155438246Y-127627000D01*
X155561754Y-127627000D01*
X155682889Y-127602905D01*
X155796996Y-127555640D01*
X155899689Y-127487023D01*
X155987023Y-127399689D01*
X156055640Y-127296996D01*
X156102905Y-127182889D01*
X156127000Y-127061754D01*
X156127000Y-126938246D01*
X156102905Y-126817111D01*
X156055640Y-126703004D01*
X155987023Y-126600311D01*
X155899689Y-126512977D01*
X155796996Y-126444360D01*
X155682889Y-126397095D01*
X155561754Y-126373000D01*
X155438246Y-126373000D01*
X155317111Y-126397095D01*
X155203004Y-126444360D01*
X155125000Y-126496480D01*
X155046996Y-126444360D01*
X154932889Y-126397095D01*
X154811754Y-126373000D01*
X154688246Y-126373000D01*
X154567111Y-126397095D01*
X154453004Y-126444360D01*
X154375000Y-126496480D01*
X154337064Y-126471132D01*
X154352905Y-126432889D01*
X154377000Y-126311754D01*
X154377000Y-126188246D01*
X154352905Y-126067111D01*
X154305640Y-125953004D01*
X154253520Y-125875000D01*
X154305640Y-125796996D01*
X154352905Y-125682889D01*
X154377000Y-125561754D01*
X154377000Y-125438246D01*
X154352905Y-125317111D01*
X154305640Y-125203004D01*
X154253520Y-125125000D01*
X154305640Y-125046996D01*
X154352905Y-124932889D01*
X154377000Y-124811754D01*
X154377000Y-124688246D01*
X154352905Y-124567111D01*
X154305640Y-124453004D01*
X154253520Y-124375000D01*
X154305640Y-124296996D01*
X154352905Y-124182889D01*
X154377000Y-124061754D01*
X154377000Y-123938246D01*
X154352905Y-123817111D01*
X154305640Y-123703004D01*
X154253520Y-123625000D01*
X154305640Y-123546996D01*
X154352905Y-123432889D01*
X154377000Y-123311754D01*
X154377000Y-123188246D01*
X154361793Y-123111793D01*
X154438246Y-123127000D01*
X154561754Y-123127000D01*
X154682889Y-123102905D01*
X154796996Y-123055640D01*
X154875000Y-123003520D01*
X154953004Y-123055640D01*
X155067111Y-123102905D01*
X155188246Y-123127000D01*
X155311754Y-123127000D01*
X155432889Y-123102905D01*
X155546996Y-123055640D01*
X155649689Y-122987023D01*
X155737023Y-122899689D01*
X155805640Y-122796996D01*
X155852905Y-122682889D01*
X155877000Y-122561754D01*
X155877000Y-122438246D01*
X155862798Y-122366847D01*
X155932889Y-122352905D01*
X156046996Y-122305640D01*
X156149689Y-122237023D01*
X156237023Y-122149689D01*
X156305640Y-122046996D01*
X156352905Y-121932889D01*
X156377000Y-121811754D01*
X156377000Y-121688246D01*
X156352905Y-121567111D01*
X156305640Y-121453004D01*
X156237023Y-121350311D01*
X156149689Y-121262977D01*
X156046996Y-121194360D01*
X155932889Y-121147095D01*
X155811754Y-121123000D01*
X155688246Y-121123000D01*
X155567111Y-121147095D01*
X155453004Y-121194360D01*
X155350311Y-121262977D01*
X155262977Y-121350311D01*
X155194360Y-121453004D01*
X155147095Y-121567111D01*
X155123000Y-121688246D01*
X155123000Y-121811754D01*
X155137202Y-121883153D01*
X155067111Y-121897095D01*
X154953004Y-121944360D01*
X154875000Y-121996480D01*
X154796996Y-121944360D01*
X154682889Y-121897095D01*
X154561754Y-121873000D01*
X154438246Y-121873000D01*
X154317111Y-121897095D01*
X154203004Y-121944360D01*
X154125000Y-121996480D01*
X154046996Y-121944360D01*
X153932889Y-121897095D01*
X153811754Y-121873000D01*
X153688246Y-121873000D01*
X153567111Y-121897095D01*
X153453004Y-121944360D01*
X153377000Y-121995144D01*
X153377000Y-119127000D01*
X155250000Y-119127000D01*
X155273000Y-119124735D01*
X155273000Y-119161754D01*
X155297095Y-119282889D01*
X155344360Y-119396996D01*
X155412977Y-119499689D01*
X155500311Y-119587023D01*
X155603004Y-119655640D01*
X155717111Y-119702905D01*
X155838246Y-119727000D01*
X155961754Y-119727000D01*
X156082889Y-119702905D01*
X156196996Y-119655640D01*
X156299689Y-119587023D01*
X156387023Y-119499689D01*
X156455640Y-119396996D01*
X156502905Y-119282889D01*
X156527000Y-119161754D01*
X156527000Y-119038246D01*
X156502905Y-118917111D01*
X156455640Y-118803004D01*
X156387023Y-118700311D01*
X156336712Y-118650000D01*
X163821418Y-118650000D01*
X163821418Y-120350000D01*
X163827732Y-120414103D01*
X163846430Y-120475743D01*
X163876794Y-120532550D01*
X163917657Y-120582343D01*
X163967450Y-120623206D01*
X164024257Y-120653570D01*
X164085897Y-120672268D01*
X164150000Y-120678582D01*
X165850000Y-120678582D01*
X165914103Y-120672268D01*
X165975743Y-120653570D01*
X166032550Y-120623206D01*
X166082343Y-120582343D01*
X166123206Y-120532550D01*
X166153570Y-120475743D01*
X166172268Y-120414103D01*
X166178582Y-120350000D01*
X166178582Y-118938246D01*
X167373000Y-118938246D01*
X167373000Y-119061754D01*
X167397095Y-119182889D01*
X167444360Y-119296996D01*
X167512977Y-119399689D01*
X167600311Y-119487023D01*
X167703004Y-119555640D01*
X167817111Y-119602905D01*
X167938246Y-119627000D01*
X168061754Y-119627000D01*
X168182889Y-119602905D01*
X168296996Y-119555640D01*
X168399689Y-119487023D01*
X168487023Y-119399689D01*
X168555640Y-119296996D01*
X168602905Y-119182889D01*
X168627000Y-119061754D01*
X168627000Y-118938246D01*
X168602905Y-118817111D01*
X168555640Y-118703004D01*
X168487023Y-118600311D01*
X168399689Y-118512977D01*
X168296996Y-118444360D01*
X168182889Y-118397095D01*
X168061754Y-118373000D01*
X167938246Y-118373000D01*
X167817111Y-118397095D01*
X167703004Y-118444360D01*
X167600311Y-118512977D01*
X167512977Y-118600311D01*
X167444360Y-118703004D01*
X167397095Y-118817111D01*
X167373000Y-118938246D01*
X166178582Y-118938246D01*
X166178582Y-118650000D01*
X166172268Y-118585897D01*
X166153570Y-118524257D01*
X166123206Y-118467450D01*
X166082343Y-118417657D01*
X166032550Y-118376794D01*
X165975743Y-118346430D01*
X165914103Y-118327732D01*
X165850000Y-118321418D01*
X164150000Y-118321418D01*
X164085897Y-118327732D01*
X164024257Y-118346430D01*
X163967450Y-118376794D01*
X163917657Y-118417657D01*
X163876794Y-118467450D01*
X163846430Y-118524257D01*
X163827732Y-118585897D01*
X163821418Y-118650000D01*
X156336712Y-118650000D01*
X156299689Y-118612977D01*
X156196996Y-118544360D01*
X156082889Y-118497095D01*
X155961754Y-118473000D01*
X155838246Y-118473000D01*
X155717111Y-118497095D01*
X155603004Y-118544360D01*
X155500311Y-118612977D01*
X155412977Y-118700311D01*
X155377000Y-118754155D01*
X155377000Y-117000000D01*
X155374560Y-116975224D01*
X155367333Y-116951399D01*
X155360303Y-116938246D01*
X156373000Y-116938246D01*
X156373000Y-117061754D01*
X156397095Y-117182889D01*
X156444360Y-117296996D01*
X156512977Y-117399689D01*
X156600311Y-117487023D01*
X156703004Y-117555640D01*
X156817111Y-117602905D01*
X156938246Y-117627000D01*
X157061754Y-117627000D01*
X157182889Y-117602905D01*
X157296996Y-117555640D01*
X157399689Y-117487023D01*
X157487023Y-117399689D01*
X157555640Y-117296996D01*
X157602905Y-117182889D01*
X157627000Y-117061754D01*
X157627000Y-116938246D01*
X157873000Y-116938246D01*
X157873000Y-117061754D01*
X157897095Y-117182889D01*
X157944360Y-117296996D01*
X158012977Y-117399689D01*
X158100311Y-117487023D01*
X158203004Y-117555640D01*
X158317111Y-117602905D01*
X158438246Y-117627000D01*
X158561754Y-117627000D01*
X158682889Y-117602905D01*
X158796996Y-117555640D01*
X158899689Y-117487023D01*
X158987023Y-117399689D01*
X159055640Y-117296996D01*
X159102905Y-117182889D01*
X159127000Y-117061754D01*
X159127000Y-116938246D01*
X159373000Y-116938246D01*
X159373000Y-117061754D01*
X159397095Y-117182889D01*
X159444360Y-117296996D01*
X159512977Y-117399689D01*
X159600311Y-117487023D01*
X159703004Y-117555640D01*
X159817111Y-117602905D01*
X159938246Y-117627000D01*
X160061754Y-117627000D01*
X160182889Y-117602905D01*
X160296996Y-117555640D01*
X160399689Y-117487023D01*
X160487023Y-117399689D01*
X160555640Y-117296996D01*
X160602905Y-117182889D01*
X160627000Y-117061754D01*
X160627000Y-116938246D01*
X160602905Y-116817111D01*
X160555640Y-116703004D01*
X160487023Y-116600311D01*
X160399689Y-116512977D01*
X160296996Y-116444360D01*
X160182889Y-116397095D01*
X160061754Y-116373000D01*
X159938246Y-116373000D01*
X159817111Y-116397095D01*
X159703004Y-116444360D01*
X159600311Y-116512977D01*
X159512977Y-116600311D01*
X159444360Y-116703004D01*
X159397095Y-116817111D01*
X159373000Y-116938246D01*
X159127000Y-116938246D01*
X159102905Y-116817111D01*
X159055640Y-116703004D01*
X158987023Y-116600311D01*
X158899689Y-116512977D01*
X158796996Y-116444360D01*
X158682889Y-116397095D01*
X158561754Y-116373000D01*
X158438246Y-116373000D01*
X158317111Y-116397095D01*
X158203004Y-116444360D01*
X158100311Y-116512977D01*
X158012977Y-116600311D01*
X157944360Y-116703004D01*
X157897095Y-116817111D01*
X157873000Y-116938246D01*
X157627000Y-116938246D01*
X157602905Y-116817111D01*
X157555640Y-116703004D01*
X157487023Y-116600311D01*
X157399689Y-116512977D01*
X157296996Y-116444360D01*
X157182889Y-116397095D01*
X157061754Y-116373000D01*
X156938246Y-116373000D01*
X156817111Y-116397095D01*
X156703004Y-116444360D01*
X156600311Y-116512977D01*
X156512977Y-116600311D01*
X156444360Y-116703004D01*
X156397095Y-116817111D01*
X156373000Y-116938246D01*
X155360303Y-116938246D01*
X155355597Y-116929443D01*
X155339803Y-116910197D01*
X155320557Y-116894403D01*
X155298601Y-116882667D01*
X155274776Y-116875440D01*
X155250000Y-116873000D01*
X153627000Y-116873000D01*
X153627000Y-116750000D01*
X153624560Y-116725224D01*
X153617333Y-116701399D01*
X153605597Y-116679443D01*
X153589803Y-116660197D01*
X153570557Y-116644403D01*
X153548601Y-116632667D01*
X153524776Y-116625440D01*
X153500000Y-116623000D01*
X146750000Y-116623000D01*
X146725224Y-116625440D01*
X146701399Y-116632667D01*
X146679443Y-116644403D01*
X146660197Y-116660197D01*
X146644403Y-116679443D01*
X146632667Y-116701399D01*
X146625440Y-116725224D01*
X146623000Y-116750000D01*
X138627000Y-116750000D01*
X138627000Y-115438246D01*
X154873000Y-115438246D01*
X154873000Y-115561754D01*
X154897095Y-115682889D01*
X154944360Y-115796996D01*
X155012977Y-115899689D01*
X155100311Y-115987023D01*
X155203004Y-116055640D01*
X155317111Y-116102905D01*
X155438246Y-116127000D01*
X155561754Y-116127000D01*
X155682889Y-116102905D01*
X155796996Y-116055640D01*
X155899689Y-115987023D01*
X155987023Y-115899689D01*
X156055640Y-115796996D01*
X156102905Y-115682889D01*
X156127000Y-115561754D01*
X156127000Y-115438246D01*
X156373000Y-115438246D01*
X156373000Y-115561754D01*
X156397095Y-115682889D01*
X156444360Y-115796996D01*
X156512977Y-115899689D01*
X156600311Y-115987023D01*
X156703004Y-116055640D01*
X156817111Y-116102905D01*
X156938246Y-116127000D01*
X157061754Y-116127000D01*
X157182889Y-116102905D01*
X157296996Y-116055640D01*
X157399689Y-115987023D01*
X157487023Y-115899689D01*
X157555640Y-115796996D01*
X157602905Y-115682889D01*
X157627000Y-115561754D01*
X157627000Y-115438246D01*
X157873000Y-115438246D01*
X157873000Y-115561754D01*
X157897095Y-115682889D01*
X157944360Y-115796996D01*
X158012977Y-115899689D01*
X158100311Y-115987023D01*
X158203004Y-116055640D01*
X158317111Y-116102905D01*
X158438246Y-116127000D01*
X158561754Y-116127000D01*
X158682889Y-116102905D01*
X158796996Y-116055640D01*
X158899689Y-115987023D01*
X158987023Y-115899689D01*
X159055640Y-115796996D01*
X159102905Y-115682889D01*
X159127000Y-115561754D01*
X159127000Y-115438246D01*
X159373000Y-115438246D01*
X159373000Y-115561754D01*
X159397095Y-115682889D01*
X159444360Y-115796996D01*
X159512977Y-115899689D01*
X159600311Y-115987023D01*
X159703004Y-116055640D01*
X159817111Y-116102905D01*
X159938246Y-116127000D01*
X160061754Y-116127000D01*
X160182889Y-116102905D01*
X160296996Y-116055640D01*
X160399689Y-115987023D01*
X160487023Y-115899689D01*
X160555640Y-115796996D01*
X160602905Y-115682889D01*
X160627000Y-115561754D01*
X160627000Y-115438246D01*
X160602905Y-115317111D01*
X160555640Y-115203004D01*
X160487023Y-115100311D01*
X160399689Y-115012977D01*
X160296996Y-114944360D01*
X160182889Y-114897095D01*
X160061754Y-114873000D01*
X159938246Y-114873000D01*
X159817111Y-114897095D01*
X159703004Y-114944360D01*
X159600311Y-115012977D01*
X159512977Y-115100311D01*
X159444360Y-115203004D01*
X159397095Y-115317111D01*
X159373000Y-115438246D01*
X159127000Y-115438246D01*
X159102905Y-115317111D01*
X159055640Y-115203004D01*
X158987023Y-115100311D01*
X158899689Y-115012977D01*
X158796996Y-114944360D01*
X158682889Y-114897095D01*
X158561754Y-114873000D01*
X158438246Y-114873000D01*
X158317111Y-114897095D01*
X158203004Y-114944360D01*
X158100311Y-115012977D01*
X158012977Y-115100311D01*
X157944360Y-115203004D01*
X157897095Y-115317111D01*
X157873000Y-115438246D01*
X157627000Y-115438246D01*
X157602905Y-115317111D01*
X157555640Y-115203004D01*
X157487023Y-115100311D01*
X157399689Y-115012977D01*
X157296996Y-114944360D01*
X157182889Y-114897095D01*
X157061754Y-114873000D01*
X156938246Y-114873000D01*
X156817111Y-114897095D01*
X156703004Y-114944360D01*
X156600311Y-115012977D01*
X156512977Y-115100311D01*
X156444360Y-115203004D01*
X156397095Y-115317111D01*
X156373000Y-115438246D01*
X156127000Y-115438246D01*
X156102905Y-115317111D01*
X156055640Y-115203004D01*
X155987023Y-115100311D01*
X155899689Y-115012977D01*
X155796996Y-114944360D01*
X155682889Y-114897095D01*
X155561754Y-114873000D01*
X155438246Y-114873000D01*
X155317111Y-114897095D01*
X155203004Y-114944360D01*
X155100311Y-115012977D01*
X155012977Y-115100311D01*
X154944360Y-115203004D01*
X154897095Y-115317111D01*
X154873000Y-115438246D01*
X138627000Y-115438246D01*
X138627000Y-113938246D01*
X154873000Y-113938246D01*
X154873000Y-114061754D01*
X154897095Y-114182889D01*
X154944360Y-114296996D01*
X155012977Y-114399689D01*
X155100311Y-114487023D01*
X155203004Y-114555640D01*
X155317111Y-114602905D01*
X155438246Y-114627000D01*
X155561754Y-114627000D01*
X155682889Y-114602905D01*
X155796996Y-114555640D01*
X155899689Y-114487023D01*
X155987023Y-114399689D01*
X156055640Y-114296996D01*
X156102905Y-114182889D01*
X156127000Y-114061754D01*
X156127000Y-113938246D01*
X156373000Y-113938246D01*
X156373000Y-114061754D01*
X156397095Y-114182889D01*
X156444360Y-114296996D01*
X156512977Y-114399689D01*
X156600311Y-114487023D01*
X156703004Y-114555640D01*
X156817111Y-114602905D01*
X156938246Y-114627000D01*
X157061754Y-114627000D01*
X157182889Y-114602905D01*
X157296996Y-114555640D01*
X157399689Y-114487023D01*
X157487023Y-114399689D01*
X157555640Y-114296996D01*
X157602905Y-114182889D01*
X157627000Y-114061754D01*
X157627000Y-113938246D01*
X157873000Y-113938246D01*
X157873000Y-114061754D01*
X157897095Y-114182889D01*
X157944360Y-114296996D01*
X158012977Y-114399689D01*
X158100311Y-114487023D01*
X158203004Y-114555640D01*
X158317111Y-114602905D01*
X158438246Y-114627000D01*
X158561754Y-114627000D01*
X158682889Y-114602905D01*
X158796996Y-114555640D01*
X158899689Y-114487023D01*
X158987023Y-114399689D01*
X159055640Y-114296996D01*
X159102905Y-114182889D01*
X159127000Y-114061754D01*
X159127000Y-113938246D01*
X159373000Y-113938246D01*
X159373000Y-114061754D01*
X159397095Y-114182889D01*
X159444360Y-114296996D01*
X159512977Y-114399689D01*
X159600311Y-114487023D01*
X159703004Y-114555640D01*
X159817111Y-114602905D01*
X159938246Y-114627000D01*
X160061754Y-114627000D01*
X160182889Y-114602905D01*
X160296996Y-114555640D01*
X160399689Y-114487023D01*
X160487023Y-114399689D01*
X160555640Y-114296996D01*
X160602905Y-114182889D01*
X160627000Y-114061754D01*
X160627000Y-113938246D01*
X160602905Y-113817111D01*
X160555640Y-113703004D01*
X160487023Y-113600311D01*
X160399689Y-113512977D01*
X160296996Y-113444360D01*
X160182889Y-113397095D01*
X160061754Y-113373000D01*
X159938246Y-113373000D01*
X159817111Y-113397095D01*
X159703004Y-113444360D01*
X159600311Y-113512977D01*
X159512977Y-113600311D01*
X159444360Y-113703004D01*
X159397095Y-113817111D01*
X159373000Y-113938246D01*
X159127000Y-113938246D01*
X159102905Y-113817111D01*
X159055640Y-113703004D01*
X158987023Y-113600311D01*
X158899689Y-113512977D01*
X158796996Y-113444360D01*
X158682889Y-113397095D01*
X158561754Y-113373000D01*
X158438246Y-113373000D01*
X158317111Y-113397095D01*
X158203004Y-113444360D01*
X158100311Y-113512977D01*
X158012977Y-113600311D01*
X157944360Y-113703004D01*
X157897095Y-113817111D01*
X157873000Y-113938246D01*
X157627000Y-113938246D01*
X157602905Y-113817111D01*
X157555640Y-113703004D01*
X157487023Y-113600311D01*
X157399689Y-113512977D01*
X157296996Y-113444360D01*
X157182889Y-113397095D01*
X157061754Y-113373000D01*
X156938246Y-113373000D01*
X156817111Y-113397095D01*
X156703004Y-113444360D01*
X156600311Y-113512977D01*
X156512977Y-113600311D01*
X156444360Y-113703004D01*
X156397095Y-113817111D01*
X156373000Y-113938246D01*
X156127000Y-113938246D01*
X156102905Y-113817111D01*
X156055640Y-113703004D01*
X155987023Y-113600311D01*
X155899689Y-113512977D01*
X155796996Y-113444360D01*
X155682889Y-113397095D01*
X155561754Y-113373000D01*
X155438246Y-113373000D01*
X155317111Y-113397095D01*
X155203004Y-113444360D01*
X155100311Y-113512977D01*
X155012977Y-113600311D01*
X154944360Y-113703004D01*
X154897095Y-113817111D01*
X154873000Y-113938246D01*
X138627000Y-113938246D01*
X138627000Y-112438246D01*
X154873000Y-112438246D01*
X154873000Y-112561754D01*
X154897095Y-112682889D01*
X154944360Y-112796996D01*
X155012977Y-112899689D01*
X155100311Y-112987023D01*
X155203004Y-113055640D01*
X155317111Y-113102905D01*
X155438246Y-113127000D01*
X155561754Y-113127000D01*
X155682889Y-113102905D01*
X155796996Y-113055640D01*
X155899689Y-112987023D01*
X155987023Y-112899689D01*
X156055640Y-112796996D01*
X156102905Y-112682889D01*
X156127000Y-112561754D01*
X156127000Y-112438246D01*
X156373000Y-112438246D01*
X156373000Y-112561754D01*
X156397095Y-112682889D01*
X156444360Y-112796996D01*
X156512977Y-112899689D01*
X156600311Y-112987023D01*
X156703004Y-113055640D01*
X156817111Y-113102905D01*
X156938246Y-113127000D01*
X157061754Y-113127000D01*
X157182889Y-113102905D01*
X157296996Y-113055640D01*
X157399689Y-112987023D01*
X157487023Y-112899689D01*
X157555640Y-112796996D01*
X157602905Y-112682889D01*
X157627000Y-112561754D01*
X157627000Y-112438246D01*
X157873000Y-112438246D01*
X157873000Y-112561754D01*
X157897095Y-112682889D01*
X157944360Y-112796996D01*
X158012977Y-112899689D01*
X158100311Y-112987023D01*
X158203004Y-113055640D01*
X158317111Y-113102905D01*
X158438246Y-113127000D01*
X158561754Y-113127000D01*
X158682889Y-113102905D01*
X158796996Y-113055640D01*
X158899689Y-112987023D01*
X158987023Y-112899689D01*
X159055640Y-112796996D01*
X159102905Y-112682889D01*
X159127000Y-112561754D01*
X159127000Y-112438246D01*
X159102905Y-112317111D01*
X159055640Y-112203004D01*
X158987023Y-112100311D01*
X158899689Y-112012977D01*
X158796996Y-111944360D01*
X158682889Y-111897095D01*
X158561754Y-111873000D01*
X158438246Y-111873000D01*
X158317111Y-111897095D01*
X158203004Y-111944360D01*
X158100311Y-112012977D01*
X158012977Y-112100311D01*
X157944360Y-112203004D01*
X157897095Y-112317111D01*
X157873000Y-112438246D01*
X157627000Y-112438246D01*
X157602905Y-112317111D01*
X157555640Y-112203004D01*
X157487023Y-112100311D01*
X157399689Y-112012977D01*
X157296996Y-111944360D01*
X157182889Y-111897095D01*
X157061754Y-111873000D01*
X156938246Y-111873000D01*
X156817111Y-111897095D01*
X156703004Y-111944360D01*
X156600311Y-112012977D01*
X156512977Y-112100311D01*
X156444360Y-112203004D01*
X156397095Y-112317111D01*
X156373000Y-112438246D01*
X156127000Y-112438246D01*
X156102905Y-112317111D01*
X156055640Y-112203004D01*
X155987023Y-112100311D01*
X155899689Y-112012977D01*
X155796996Y-111944360D01*
X155682889Y-111897095D01*
X155561754Y-111873000D01*
X155438246Y-111873000D01*
X155317111Y-111897095D01*
X155203004Y-111944360D01*
X155100311Y-112012977D01*
X155012977Y-112100311D01*
X154944360Y-112203004D01*
X154897095Y-112317111D01*
X154873000Y-112438246D01*
X138627000Y-112438246D01*
X138627000Y-107938246D01*
X141373000Y-107938246D01*
X141373000Y-108061754D01*
X141397095Y-108182889D01*
X141444360Y-108296996D01*
X141512977Y-108399689D01*
X141600311Y-108487023D01*
X141703004Y-108555640D01*
X141817111Y-108602905D01*
X141938246Y-108627000D01*
X142061754Y-108627000D01*
X142182889Y-108602905D01*
X142296996Y-108555640D01*
X142399689Y-108487023D01*
X142487023Y-108399689D01*
X142555640Y-108296996D01*
X142602905Y-108182889D01*
X142627000Y-108061754D01*
X142627000Y-107938246D01*
X142602905Y-107817111D01*
X142555640Y-107703004D01*
X142487023Y-107600311D01*
X142399689Y-107512977D01*
X142296996Y-107444360D01*
X142182889Y-107397095D01*
X142061754Y-107373000D01*
X141938246Y-107373000D01*
X141817111Y-107397095D01*
X141703004Y-107444360D01*
X141600311Y-107512977D01*
X141512977Y-107600311D01*
X141444360Y-107703004D01*
X141397095Y-107817111D01*
X141373000Y-107938246D01*
X138627000Y-107938246D01*
X138627000Y-104634076D01*
X149703000Y-104634076D01*
X149703000Y-104865924D01*
X149748231Y-105093318D01*
X149836956Y-105307519D01*
X149965764Y-105500294D01*
X150129706Y-105664236D01*
X150322481Y-105793044D01*
X150536682Y-105881769D01*
X150764076Y-105927000D01*
X150995924Y-105927000D01*
X151223318Y-105881769D01*
X151437519Y-105793044D01*
X151630294Y-105664236D01*
X151794236Y-105500294D01*
X151923044Y-105307519D01*
X152011769Y-105093318D01*
X152057000Y-104865924D01*
X152057000Y-104634076D01*
X152243000Y-104634076D01*
X152243000Y-104865924D01*
X152288231Y-105093318D01*
X152376956Y-105307519D01*
X152505764Y-105500294D01*
X152669706Y-105664236D01*
X152862481Y-105793044D01*
X153076682Y-105881769D01*
X153304076Y-105927000D01*
X153535924Y-105927000D01*
X153763318Y-105881769D01*
X153977519Y-105793044D01*
X154170294Y-105664236D01*
X154334236Y-105500294D01*
X154463044Y-105307519D01*
X154531264Y-105142821D01*
X154615843Y-105381252D01*
X154764822Y-105631355D01*
X154959731Y-105847588D01*
X155193080Y-106021641D01*
X155455901Y-106146825D01*
X155603110Y-106191476D01*
X155833000Y-106070155D01*
X155833000Y-104877000D01*
X155813000Y-104877000D01*
X155813000Y-104623000D01*
X155833000Y-104623000D01*
X155833000Y-103429845D01*
X156087000Y-103429845D01*
X156087000Y-104623000D01*
X156107000Y-104623000D01*
X156107000Y-104877000D01*
X156087000Y-104877000D01*
X156087000Y-106070155D01*
X156316890Y-106191476D01*
X156464099Y-106146825D01*
X156726920Y-106021641D01*
X156960269Y-105847588D01*
X157155178Y-105631355D01*
X157304157Y-105381252D01*
X157321418Y-105332592D01*
X157321418Y-105600000D01*
X157327732Y-105664103D01*
X157346430Y-105725743D01*
X157376794Y-105782550D01*
X157417657Y-105832343D01*
X157467450Y-105873206D01*
X157524257Y-105903570D01*
X157585897Y-105922268D01*
X157650000Y-105928582D01*
X159350000Y-105928582D01*
X159414103Y-105922268D01*
X159475743Y-105903570D01*
X159532550Y-105873206D01*
X159582343Y-105832343D01*
X159623206Y-105782550D01*
X159653570Y-105725743D01*
X159672268Y-105664103D01*
X159678582Y-105600000D01*
X160611928Y-105600000D01*
X160624188Y-105724482D01*
X160660498Y-105844180D01*
X160719463Y-105954494D01*
X160798815Y-106051185D01*
X160895506Y-106130537D01*
X161005820Y-106189502D01*
X161125518Y-106225812D01*
X161250000Y-106238072D01*
X161814250Y-106235000D01*
X161973000Y-106076250D01*
X161973000Y-104877000D01*
X160773750Y-104877000D01*
X160615000Y-105035750D01*
X160611928Y-105600000D01*
X159678582Y-105600000D01*
X159678582Y-103900000D01*
X160611928Y-103900000D01*
X160615000Y-104464250D01*
X160773750Y-104623000D01*
X161973000Y-104623000D01*
X161973000Y-103423750D01*
X162227000Y-103423750D01*
X162227000Y-104623000D01*
X162247000Y-104623000D01*
X162247000Y-104877000D01*
X162227000Y-104877000D01*
X162227000Y-106076250D01*
X162385750Y-106235000D01*
X162950000Y-106238072D01*
X163074482Y-106225812D01*
X163194180Y-106189502D01*
X163304494Y-106130537D01*
X163401185Y-106051185D01*
X163480537Y-105954494D01*
X163539502Y-105844180D01*
X163575812Y-105724482D01*
X163588072Y-105600000D01*
X163586340Y-105281890D01*
X163596956Y-105307519D01*
X163725764Y-105500294D01*
X163889706Y-105664236D01*
X164082481Y-105793044D01*
X164296682Y-105881769D01*
X164524076Y-105927000D01*
X164755924Y-105927000D01*
X164983318Y-105881769D01*
X165197519Y-105793044D01*
X165390294Y-105664236D01*
X165554236Y-105500294D01*
X165595695Y-105438246D01*
X168873000Y-105438246D01*
X168873000Y-105561754D01*
X168897095Y-105682889D01*
X168944360Y-105796996D01*
X169012977Y-105899689D01*
X169100311Y-105987023D01*
X169203004Y-106055640D01*
X169317111Y-106102905D01*
X169438246Y-106127000D01*
X169561754Y-106127000D01*
X169682889Y-106102905D01*
X169796996Y-106055640D01*
X169899689Y-105987023D01*
X169987023Y-105899689D01*
X170055640Y-105796996D01*
X170102905Y-105682889D01*
X170127000Y-105561754D01*
X170127000Y-105438246D01*
X170102905Y-105317111D01*
X170055640Y-105203004D01*
X169987023Y-105100311D01*
X169899689Y-105012977D01*
X169796996Y-104944360D01*
X169682889Y-104897095D01*
X169561754Y-104873000D01*
X169438246Y-104873000D01*
X169317111Y-104897095D01*
X169203004Y-104944360D01*
X169100311Y-105012977D01*
X169012977Y-105100311D01*
X168944360Y-105203004D01*
X168897095Y-105317111D01*
X168873000Y-105438246D01*
X165595695Y-105438246D01*
X165683044Y-105307519D01*
X165771769Y-105093318D01*
X165817000Y-104865924D01*
X165817000Y-104634076D01*
X165771769Y-104406682D01*
X165683044Y-104192481D01*
X165554236Y-103999706D01*
X165390294Y-103835764D01*
X165197519Y-103706956D01*
X164983318Y-103618231D01*
X164755924Y-103573000D01*
X164524076Y-103573000D01*
X164296682Y-103618231D01*
X164082481Y-103706956D01*
X163889706Y-103835764D01*
X163725764Y-103999706D01*
X163596956Y-104192481D01*
X163586340Y-104218110D01*
X163588072Y-103900000D01*
X163575812Y-103775518D01*
X163539502Y-103655820D01*
X163480537Y-103545506D01*
X163401185Y-103448815D01*
X163304494Y-103369463D01*
X163194180Y-103310498D01*
X163074482Y-103274188D01*
X162950000Y-103261928D01*
X162385750Y-103265000D01*
X162227000Y-103423750D01*
X161973000Y-103423750D01*
X161814250Y-103265000D01*
X161250000Y-103261928D01*
X161125518Y-103274188D01*
X161005820Y-103310498D01*
X160895506Y-103369463D01*
X160798815Y-103448815D01*
X160719463Y-103545506D01*
X160660498Y-103655820D01*
X160624188Y-103775518D01*
X160611928Y-103900000D01*
X159678582Y-103900000D01*
X159672268Y-103835897D01*
X159653570Y-103774257D01*
X159623206Y-103717450D01*
X159582343Y-103667657D01*
X159532550Y-103626794D01*
X159475743Y-103596430D01*
X159414103Y-103577732D01*
X159350000Y-103571418D01*
X157650000Y-103571418D01*
X157585897Y-103577732D01*
X157524257Y-103596430D01*
X157467450Y-103626794D01*
X157417657Y-103667657D01*
X157376794Y-103717450D01*
X157346430Y-103774257D01*
X157327732Y-103835897D01*
X157321418Y-103900000D01*
X157321418Y-104167408D01*
X157304157Y-104118748D01*
X157155178Y-103868645D01*
X156960269Y-103652412D01*
X156726920Y-103478359D01*
X156464099Y-103353175D01*
X156316890Y-103308524D01*
X156087000Y-103429845D01*
X155833000Y-103429845D01*
X155603110Y-103308524D01*
X155455901Y-103353175D01*
X155193080Y-103478359D01*
X154959731Y-103652412D01*
X154764822Y-103868645D01*
X154615843Y-104118748D01*
X154531264Y-104357179D01*
X154463044Y-104192481D01*
X154334236Y-103999706D01*
X154170294Y-103835764D01*
X153977519Y-103706956D01*
X153763318Y-103618231D01*
X153535924Y-103573000D01*
X153304076Y-103573000D01*
X153076682Y-103618231D01*
X152862481Y-103706956D01*
X152669706Y-103835764D01*
X152505764Y-103999706D01*
X152376956Y-104192481D01*
X152288231Y-104406682D01*
X152243000Y-104634076D01*
X152057000Y-104634076D01*
X152011769Y-104406682D01*
X151923044Y-104192481D01*
X151794236Y-103999706D01*
X151630294Y-103835764D01*
X151437519Y-103706956D01*
X151223318Y-103618231D01*
X150995924Y-103573000D01*
X150764076Y-103573000D01*
X150536682Y-103618231D01*
X150322481Y-103706956D01*
X150129706Y-103835764D01*
X149965764Y-103999706D01*
X149836956Y-104192481D01*
X149748231Y-104406682D01*
X149703000Y-104634076D01*
X138627000Y-104634076D01*
X138627000Y-100438246D01*
X156373000Y-100438246D01*
X156373000Y-100561754D01*
X156397095Y-100682889D01*
X156444360Y-100796996D01*
X156512977Y-100899689D01*
X156600311Y-100987023D01*
X156703004Y-101055640D01*
X156817111Y-101102905D01*
X156938246Y-101127000D01*
X157061754Y-101127000D01*
X157182889Y-101102905D01*
X157296996Y-101055640D01*
X157399689Y-100987023D01*
X157487023Y-100899689D01*
X157555640Y-100796996D01*
X157602905Y-100682889D01*
X157627000Y-100561754D01*
X157627000Y-100438246D01*
X157602905Y-100317111D01*
X157555640Y-100203004D01*
X157487023Y-100100311D01*
X157399689Y-100012977D01*
X157296996Y-99944360D01*
X157182889Y-99897095D01*
X157061754Y-99873000D01*
X156938246Y-99873000D01*
X156817111Y-99897095D01*
X156703004Y-99944360D01*
X156600311Y-100012977D01*
X156512977Y-100100311D01*
X156444360Y-100203004D01*
X156397095Y-100317111D01*
X156373000Y-100438246D01*
X138627000Y-100438246D01*
X138627000Y-99103582D01*
X140050000Y-99103582D01*
X140114103Y-99097268D01*
X140175743Y-99078570D01*
X140232550Y-99048206D01*
X140282343Y-99007343D01*
X140323206Y-98957550D01*
X140353570Y-98900743D01*
X140372268Y-98839103D01*
X140378582Y-98775000D01*
X140378582Y-97225000D01*
X145241418Y-97225000D01*
X145241418Y-98775000D01*
X145247732Y-98839103D01*
X145266430Y-98900743D01*
X145296794Y-98957550D01*
X145337657Y-99007343D01*
X145387450Y-99048206D01*
X145444257Y-99078570D01*
X145505897Y-99097268D01*
X145570000Y-99103582D01*
X147670000Y-99103582D01*
X147734103Y-99097268D01*
X147795743Y-99078570D01*
X147852550Y-99048206D01*
X147902343Y-99007343D01*
X147943206Y-98957550D01*
X147973570Y-98900743D01*
X147992268Y-98839103D01*
X147998582Y-98775000D01*
X147998582Y-97225000D01*
X147992268Y-97160897D01*
X147973570Y-97099257D01*
X147943206Y-97042450D01*
X147902343Y-96992657D01*
X147852550Y-96951794D01*
X147795743Y-96921430D01*
X147734103Y-96902732D01*
X147670000Y-96896418D01*
X145570000Y-96896418D01*
X145505897Y-96902732D01*
X145444257Y-96921430D01*
X145387450Y-96951794D01*
X145337657Y-96992657D01*
X145296794Y-97042450D01*
X145266430Y-97099257D01*
X145247732Y-97160897D01*
X145241418Y-97225000D01*
X140378582Y-97225000D01*
X140372268Y-97160897D01*
X140353570Y-97099257D01*
X140323206Y-97042450D01*
X140282343Y-96992657D01*
X140232550Y-96951794D01*
X140175743Y-96921430D01*
X140114103Y-96902732D01*
X140050000Y-96896418D01*
X138627000Y-96896418D01*
X138627000Y-95938246D01*
X144373000Y-95938246D01*
X144373000Y-96061754D01*
X144397095Y-96182889D01*
X144444360Y-96296996D01*
X144512977Y-96399689D01*
X144600311Y-96487023D01*
X144703004Y-96555640D01*
X144817111Y-96602905D01*
X144938246Y-96627000D01*
X145061754Y-96627000D01*
X145182889Y-96602905D01*
X145296996Y-96555640D01*
X145399689Y-96487023D01*
X145487023Y-96399689D01*
X145555640Y-96296996D01*
X145602905Y-96182889D01*
X145627000Y-96061754D01*
X145627000Y-95938246D01*
X145602905Y-95817111D01*
X145555640Y-95703004D01*
X145487023Y-95600311D01*
X145399689Y-95512977D01*
X145296996Y-95444360D01*
X145182889Y-95397095D01*
X145061754Y-95373000D01*
X144938246Y-95373000D01*
X144817111Y-95397095D01*
X144703004Y-95444360D01*
X144600311Y-95512977D01*
X144512977Y-95600311D01*
X144444360Y-95703004D01*
X144397095Y-95817111D01*
X144373000Y-95938246D01*
X138627000Y-95938246D01*
X138627000Y-95369302D01*
X161673000Y-95369302D01*
X161673000Y-95630698D01*
X161723996Y-95887072D01*
X161824028Y-96128570D01*
X161969252Y-96345913D01*
X162154087Y-96530748D01*
X162371430Y-96675972D01*
X162550149Y-96750000D01*
X162371430Y-96824028D01*
X162154087Y-96969252D01*
X161969252Y-97154087D01*
X161824028Y-97371430D01*
X161723996Y-97612928D01*
X161673000Y-97869302D01*
X161673000Y-98130698D01*
X161723996Y-98387072D01*
X161824028Y-98628570D01*
X161969252Y-98845913D01*
X162154087Y-99030748D01*
X162371430Y-99175972D01*
X162612928Y-99276004D01*
X162869302Y-99327000D01*
X163130698Y-99327000D01*
X163387072Y-99276004D01*
X163628570Y-99175972D01*
X163845913Y-99030748D01*
X164030748Y-98845913D01*
X164175972Y-98628570D01*
X164276004Y-98387072D01*
X164327000Y-98130698D01*
X164327000Y-97869302D01*
X164276004Y-97612928D01*
X164175972Y-97371430D01*
X164030748Y-97154087D01*
X163845913Y-96969252D01*
X163628570Y-96824028D01*
X163449851Y-96750000D01*
X163628570Y-96675972D01*
X163845913Y-96530748D01*
X164030748Y-96345913D01*
X164175972Y-96128570D01*
X164276004Y-95887072D01*
X164327000Y-95630698D01*
X164327000Y-95369302D01*
X164276004Y-95112928D01*
X164175972Y-94871430D01*
X164030748Y-94654087D01*
X163845913Y-94469252D01*
X163628570Y-94324028D01*
X163387072Y-94223996D01*
X163130698Y-94173000D01*
X162869302Y-94173000D01*
X162612928Y-94223996D01*
X162371430Y-94324028D01*
X162154087Y-94469252D01*
X161969252Y-94654087D01*
X161824028Y-94871430D01*
X161723996Y-95112928D01*
X161673000Y-95369302D01*
X138627000Y-95369302D01*
X138627000Y-92140000D01*
X150381418Y-92140000D01*
X150381418Y-93740000D01*
X150387732Y-93804103D01*
X150406430Y-93865743D01*
X150436794Y-93922550D01*
X150477657Y-93972343D01*
X150527450Y-94013206D01*
X150584257Y-94043570D01*
X150645897Y-94062268D01*
X150710000Y-94068582D01*
X152310000Y-94068582D01*
X152374103Y-94062268D01*
X152435743Y-94043570D01*
X152492550Y-94013206D01*
X152542343Y-93972343D01*
X152583206Y-93922550D01*
X152613570Y-93865743D01*
X152632268Y-93804103D01*
X152638582Y-93740000D01*
X152638582Y-92938246D01*
X168873000Y-92938246D01*
X168873000Y-93061754D01*
X168897095Y-93182889D01*
X168944360Y-93296996D01*
X169012977Y-93399689D01*
X169100311Y-93487023D01*
X169203004Y-93555640D01*
X169317111Y-93602905D01*
X169438246Y-93627000D01*
X169561754Y-93627000D01*
X169682889Y-93602905D01*
X169796996Y-93555640D01*
X169899689Y-93487023D01*
X169987023Y-93399689D01*
X170055640Y-93296996D01*
X170102905Y-93182889D01*
X170127000Y-93061754D01*
X170127000Y-92938246D01*
X170102905Y-92817111D01*
X170055640Y-92703004D01*
X169987023Y-92600311D01*
X169899689Y-92512977D01*
X169796996Y-92444360D01*
X169682889Y-92397095D01*
X169561754Y-92373000D01*
X169438246Y-92373000D01*
X169317111Y-92397095D01*
X169203004Y-92444360D01*
X169100311Y-92512977D01*
X169012977Y-92600311D01*
X168944360Y-92703004D01*
X168897095Y-92817111D01*
X168873000Y-92938246D01*
X152638582Y-92938246D01*
X152638582Y-92140000D01*
X152632268Y-92075897D01*
X152613570Y-92014257D01*
X152583206Y-91957450D01*
X152542343Y-91907657D01*
X152492550Y-91866794D01*
X152435743Y-91836430D01*
X152374103Y-91817732D01*
X152310000Y-91811418D01*
X151868361Y-91811418D01*
X152043835Y-91738734D01*
X152228421Y-91615398D01*
X152385398Y-91458421D01*
X152508734Y-91273835D01*
X152593690Y-91068734D01*
X152637000Y-90851000D01*
X152637000Y-90629000D01*
X152593690Y-90411266D01*
X152508734Y-90206165D01*
X152385398Y-90021579D01*
X152228421Y-89864602D01*
X152043835Y-89741266D01*
X151838734Y-89656310D01*
X151621000Y-89613000D01*
X151399000Y-89613000D01*
X151181266Y-89656310D01*
X150976165Y-89741266D01*
X150791579Y-89864602D01*
X150634602Y-90021579D01*
X150511266Y-90206165D01*
X150426310Y-90411266D01*
X150383000Y-90629000D01*
X150383000Y-90851000D01*
X150426310Y-91068734D01*
X150511266Y-91273835D01*
X150634602Y-91458421D01*
X150791579Y-91615398D01*
X150976165Y-91738734D01*
X151151639Y-91811418D01*
X150710000Y-91811418D01*
X150645897Y-91817732D01*
X150584257Y-91836430D01*
X150527450Y-91866794D01*
X150477657Y-91907657D01*
X150436794Y-91957450D01*
X150406430Y-92014257D01*
X150387732Y-92075897D01*
X150381418Y-92140000D01*
X138627000Y-92140000D01*
X138627000Y-91272000D01*
X144688669Y-91272000D01*
X144701891Y-91273609D01*
X144723235Y-91272000D01*
X144727292Y-91272000D01*
X144740528Y-91270696D01*
X144771031Y-91268397D01*
X144774947Y-91267307D01*
X144779004Y-91266907D01*
X144808333Y-91258010D01*
X144821089Y-91254458D01*
X144824859Y-91252997D01*
X144845356Y-91246779D01*
X144857110Y-91240497D01*
X146112540Y-90753896D01*
X146130708Y-90748665D01*
X146160042Y-90733516D01*
X146189712Y-90718522D01*
X146190940Y-90717561D01*
X146192316Y-90716850D01*
X146218147Y-90696257D01*
X146244305Y-90675775D01*
X146256645Y-90661423D01*
X146373000Y-90548323D01*
X146373000Y-90561754D01*
X146397095Y-90682889D01*
X146444360Y-90796996D01*
X146512977Y-90899689D01*
X146600311Y-90987023D01*
X146703004Y-91055640D01*
X146817111Y-91102905D01*
X146938246Y-91127000D01*
X147061754Y-91127000D01*
X147182889Y-91102905D01*
X147296996Y-91055640D01*
X147399689Y-90987023D01*
X147487023Y-90899689D01*
X147555640Y-90796996D01*
X147602905Y-90682889D01*
X147627000Y-90561754D01*
X147627000Y-90438246D01*
X147602905Y-90317111D01*
X147555640Y-90203004D01*
X147487023Y-90100311D01*
X147399689Y-90012977D01*
X147296996Y-89944360D01*
X147182889Y-89897095D01*
X147066737Y-89873991D01*
X147375424Y-89573940D01*
X147397095Y-89682889D01*
X147444360Y-89796996D01*
X147512977Y-89899689D01*
X147600311Y-89987023D01*
X147703004Y-90055640D01*
X147817111Y-90102905D01*
X147938246Y-90127000D01*
X148061754Y-90127000D01*
X148182889Y-90102905D01*
X148296996Y-90055640D01*
X148399689Y-89987023D01*
X148487023Y-89899689D01*
X148555640Y-89796996D01*
X148602905Y-89682889D01*
X148627000Y-89561754D01*
X148627000Y-89438246D01*
X148602905Y-89317111D01*
X148555640Y-89203004D01*
X148534191Y-89170903D01*
X148600311Y-89237023D01*
X148703004Y-89305640D01*
X148817111Y-89352905D01*
X148938246Y-89377000D01*
X149061754Y-89377000D01*
X149182889Y-89352905D01*
X149296996Y-89305640D01*
X149399689Y-89237023D01*
X149487023Y-89149689D01*
X149555640Y-89046996D01*
X149602905Y-88932889D01*
X149627000Y-88811754D01*
X149627000Y-88688246D01*
X149602905Y-88567111D01*
X149555640Y-88453004D01*
X149487023Y-88350311D01*
X149399689Y-88262977D01*
X149296996Y-88194360D01*
X149182889Y-88147095D01*
X149152167Y-88140984D01*
X149486557Y-87866557D01*
X149623000Y-87700301D01*
X149623000Y-87811754D01*
X149647095Y-87932889D01*
X149694360Y-88046996D01*
X149762977Y-88149689D01*
X149850311Y-88237023D01*
X149953004Y-88305640D01*
X150067111Y-88352905D01*
X150188246Y-88377000D01*
X150311754Y-88377000D01*
X150432889Y-88352905D01*
X150546996Y-88305640D01*
X150649689Y-88237023D01*
X150737023Y-88149689D01*
X150805640Y-88046996D01*
X150852905Y-87932889D01*
X150877000Y-87811754D01*
X150877000Y-87688246D01*
X150852905Y-87567111D01*
X150805640Y-87453004D01*
X150737023Y-87350311D01*
X150670903Y-87284191D01*
X150703004Y-87305640D01*
X150817111Y-87352905D01*
X150938246Y-87377000D01*
X151061754Y-87377000D01*
X151182889Y-87352905D01*
X151296996Y-87305640D01*
X151399689Y-87237023D01*
X151487023Y-87149689D01*
X151555640Y-87046996D01*
X151600686Y-86938246D01*
X156373000Y-86938246D01*
X156373000Y-87061754D01*
X156397095Y-87182889D01*
X156444360Y-87296996D01*
X156512977Y-87399689D01*
X156600311Y-87487023D01*
X156703004Y-87555640D01*
X156817111Y-87602905D01*
X156938246Y-87627000D01*
X157061754Y-87627000D01*
X157182889Y-87602905D01*
X157296996Y-87555640D01*
X157399689Y-87487023D01*
X157487023Y-87399689D01*
X157555640Y-87296996D01*
X157602905Y-87182889D01*
X157627000Y-87061754D01*
X157627000Y-86938246D01*
X157602905Y-86817111D01*
X157555640Y-86703004D01*
X157487023Y-86600311D01*
X157399689Y-86512977D01*
X157296996Y-86444360D01*
X157182889Y-86397095D01*
X157061754Y-86373000D01*
X156938246Y-86373000D01*
X156817111Y-86397095D01*
X156703004Y-86444360D01*
X156600311Y-86512977D01*
X156512977Y-86600311D01*
X156444360Y-86703004D01*
X156397095Y-86817111D01*
X156373000Y-86938246D01*
X151600686Y-86938246D01*
X151602905Y-86932889D01*
X151627000Y-86811754D01*
X151627000Y-86688246D01*
X151602905Y-86567111D01*
X151555640Y-86453004D01*
X151487023Y-86350311D01*
X151399689Y-86262977D01*
X151296996Y-86194360D01*
X151182889Y-86147095D01*
X151061754Y-86123000D01*
X150938246Y-86123000D01*
X150817111Y-86147095D01*
X150703004Y-86194360D01*
X150600311Y-86262977D01*
X150512977Y-86350311D01*
X150444360Y-86453004D01*
X150397095Y-86567111D01*
X150373000Y-86688246D01*
X150373000Y-86811754D01*
X150397095Y-86932889D01*
X150444360Y-87046996D01*
X150512977Y-87149689D01*
X150579097Y-87215809D01*
X150546996Y-87194360D01*
X150432889Y-87147095D01*
X150311754Y-87123000D01*
X150188246Y-87123000D01*
X150067111Y-87147095D01*
X149962406Y-87190466D01*
X150058774Y-87010173D01*
X150208989Y-86514982D01*
X150259710Y-86000000D01*
X150259710Y-85188246D01*
X150373000Y-85188246D01*
X150373000Y-85311754D01*
X150397095Y-85432889D01*
X150444360Y-85546996D01*
X150512977Y-85649689D01*
X150600311Y-85737023D01*
X150703004Y-85805640D01*
X150817111Y-85852905D01*
X150938246Y-85877000D01*
X151061754Y-85877000D01*
X151182889Y-85852905D01*
X151296996Y-85805640D01*
X151399689Y-85737023D01*
X151487023Y-85649689D01*
X151555640Y-85546996D01*
X151602905Y-85432889D01*
X151627000Y-85311754D01*
X151627000Y-85188246D01*
X151602905Y-85067111D01*
X151555640Y-84953004D01*
X151487023Y-84850311D01*
X151399689Y-84762977D01*
X151296996Y-84694360D01*
X151182889Y-84647095D01*
X151061754Y-84623000D01*
X150938246Y-84623000D01*
X150817111Y-84647095D01*
X150703004Y-84694360D01*
X150600311Y-84762977D01*
X150512977Y-84850311D01*
X150444360Y-84953004D01*
X150397095Y-85067111D01*
X150373000Y-85188246D01*
X150259710Y-85188246D01*
X150259710Y-84600000D01*
X150208989Y-84085018D01*
X150088630Y-83688246D01*
X150373000Y-83688246D01*
X150373000Y-83811754D01*
X150397095Y-83932889D01*
X150444360Y-84046996D01*
X150512977Y-84149689D01*
X150600311Y-84237023D01*
X150703004Y-84305640D01*
X150817111Y-84352905D01*
X150938246Y-84377000D01*
X151061754Y-84377000D01*
X151182889Y-84352905D01*
X151296996Y-84305640D01*
X151399689Y-84237023D01*
X151487023Y-84149689D01*
X151555640Y-84046996D01*
X151602905Y-83932889D01*
X151627000Y-83811754D01*
X151627000Y-83738246D01*
X158373000Y-83738246D01*
X158373000Y-83861754D01*
X158397095Y-83982889D01*
X158444360Y-84096996D01*
X158512977Y-84199689D01*
X158600311Y-84287023D01*
X158703004Y-84355640D01*
X158817111Y-84402905D01*
X158938246Y-84427000D01*
X159061754Y-84427000D01*
X159182889Y-84402905D01*
X159296996Y-84355640D01*
X159399689Y-84287023D01*
X159487023Y-84199689D01*
X159555640Y-84096996D01*
X159602905Y-83982889D01*
X159627000Y-83861754D01*
X159627000Y-83738246D01*
X159602905Y-83617111D01*
X159555640Y-83503004D01*
X159487023Y-83400311D01*
X159399689Y-83312977D01*
X159296996Y-83244360D01*
X159182889Y-83197095D01*
X159061754Y-83173000D01*
X158938246Y-83173000D01*
X158817111Y-83197095D01*
X158703004Y-83244360D01*
X158600311Y-83312977D01*
X158512977Y-83400311D01*
X158444360Y-83503004D01*
X158397095Y-83617111D01*
X158373000Y-83738246D01*
X151627000Y-83738246D01*
X151627000Y-83688246D01*
X151602905Y-83567111D01*
X151555640Y-83453004D01*
X151487023Y-83350311D01*
X151399689Y-83262977D01*
X151296996Y-83194360D01*
X151182889Y-83147095D01*
X151061754Y-83123000D01*
X150938246Y-83123000D01*
X150817111Y-83147095D01*
X150703004Y-83194360D01*
X150600311Y-83262977D01*
X150512977Y-83350311D01*
X150444360Y-83453004D01*
X150397095Y-83567111D01*
X150373000Y-83688246D01*
X150088630Y-83688246D01*
X150058774Y-83589827D01*
X149814839Y-83133456D01*
X149486557Y-82733443D01*
X149086544Y-82405161D01*
X148680724Y-82188246D01*
X149623000Y-82188246D01*
X149623000Y-82311754D01*
X149647095Y-82432889D01*
X149694360Y-82546996D01*
X149762977Y-82649689D01*
X149850311Y-82737023D01*
X149953004Y-82805640D01*
X150067111Y-82852905D01*
X150188246Y-82877000D01*
X150311754Y-82877000D01*
X150432889Y-82852905D01*
X150546996Y-82805640D01*
X150649689Y-82737023D01*
X150737023Y-82649689D01*
X150805640Y-82546996D01*
X150852905Y-82432889D01*
X150877000Y-82311754D01*
X150877000Y-82188246D01*
X150852905Y-82067111D01*
X150805640Y-81953004D01*
X150737023Y-81850311D01*
X150649689Y-81762977D01*
X150546996Y-81694360D01*
X150432889Y-81647095D01*
X150311754Y-81623000D01*
X150188246Y-81623000D01*
X150067111Y-81647095D01*
X149953004Y-81694360D01*
X149850311Y-81762977D01*
X149762977Y-81850311D01*
X149694360Y-81953004D01*
X149647095Y-82067111D01*
X149623000Y-82188246D01*
X148680724Y-82188246D01*
X148630173Y-82161226D01*
X148134982Y-82011011D01*
X147620000Y-81960290D01*
X145676422Y-81960290D01*
X145737023Y-81899689D01*
X145805640Y-81796996D01*
X145852905Y-81682889D01*
X145877000Y-81561754D01*
X145877000Y-81438246D01*
X145852905Y-81317111D01*
X145805640Y-81203004D01*
X145737023Y-81100311D01*
X145649689Y-81012977D01*
X145546996Y-80944360D01*
X145432889Y-80897095D01*
X145311754Y-80873000D01*
X145188246Y-80873000D01*
X145067111Y-80897095D01*
X144953004Y-80944360D01*
X144920903Y-80965809D01*
X144987023Y-80899689D01*
X145055640Y-80796996D01*
X145102905Y-80682889D01*
X145127000Y-80561754D01*
X145127000Y-80438246D01*
X145102905Y-80317111D01*
X145055640Y-80203004D01*
X144987023Y-80100311D01*
X144899689Y-80012977D01*
X144796996Y-79944360D01*
X144682889Y-79897095D01*
X144561754Y-79873000D01*
X144438246Y-79873000D01*
X144317111Y-79897095D01*
X144203004Y-79944360D01*
X144100311Y-80012977D01*
X144012977Y-80100311D01*
X143944360Y-80203004D01*
X143897095Y-80317111D01*
X143873000Y-80438246D01*
X143873000Y-80561754D01*
X143897095Y-80682889D01*
X143944360Y-80796996D01*
X144012977Y-80899689D01*
X144100311Y-80987023D01*
X144203004Y-81055640D01*
X144317111Y-81102905D01*
X144438246Y-81127000D01*
X144561754Y-81127000D01*
X144682889Y-81102905D01*
X144796996Y-81055640D01*
X144829097Y-81034191D01*
X144762977Y-81100311D01*
X144694360Y-81203004D01*
X144647095Y-81317111D01*
X144623000Y-81438246D01*
X144623000Y-81561754D01*
X144647095Y-81682889D01*
X144694360Y-81796996D01*
X144762977Y-81899689D01*
X144850311Y-81987023D01*
X144953004Y-82055640D01*
X144955072Y-82056497D01*
X144609827Y-82161226D01*
X144153456Y-82405161D01*
X143753443Y-82733443D01*
X143425161Y-83133456D01*
X143181226Y-83589827D01*
X143031011Y-84085018D01*
X142980290Y-84600000D01*
X142980290Y-84902686D01*
X142881509Y-85050523D01*
X142603775Y-84935482D01*
X142515305Y-84917884D01*
X142588989Y-84674982D01*
X142639710Y-84160000D01*
X142639710Y-82760000D01*
X142588989Y-82245018D01*
X142438774Y-81749827D01*
X142405859Y-81688246D01*
X143123000Y-81688246D01*
X143123000Y-81811754D01*
X143147095Y-81932889D01*
X143194360Y-82046996D01*
X143262977Y-82149689D01*
X143350311Y-82237023D01*
X143453004Y-82305640D01*
X143567111Y-82352905D01*
X143688246Y-82377000D01*
X143811754Y-82377000D01*
X143932889Y-82352905D01*
X144046996Y-82305640D01*
X144149689Y-82237023D01*
X144237023Y-82149689D01*
X144305640Y-82046996D01*
X144352905Y-81932889D01*
X144377000Y-81811754D01*
X144377000Y-81688246D01*
X144352905Y-81567111D01*
X144305640Y-81453004D01*
X144237023Y-81350311D01*
X144149689Y-81262977D01*
X144046996Y-81194360D01*
X143932889Y-81147095D01*
X143811754Y-81123000D01*
X143688246Y-81123000D01*
X143567111Y-81147095D01*
X143453004Y-81194360D01*
X143350311Y-81262977D01*
X143262977Y-81350311D01*
X143194360Y-81453004D01*
X143147095Y-81567111D01*
X143123000Y-81688246D01*
X142405859Y-81688246D01*
X142194839Y-81293456D01*
X141866557Y-80893443D01*
X141466544Y-80565161D01*
X141010173Y-80321226D01*
X140514982Y-80171011D01*
X140000000Y-80120290D01*
X138627000Y-80120290D01*
X138627000Y-78790509D01*
X146873000Y-78790509D01*
X146873000Y-79209491D01*
X146954739Y-79620423D01*
X147115077Y-80007512D01*
X147347851Y-80355884D01*
X147644116Y-80652149D01*
X147992488Y-80884923D01*
X148379577Y-81045261D01*
X148790509Y-81127000D01*
X149209491Y-81127000D01*
X149620423Y-81045261D01*
X150007512Y-80884923D01*
X150355884Y-80652149D01*
X150652149Y-80355884D01*
X150884923Y-80007512D01*
X151045261Y-79620423D01*
X151127000Y-79209491D01*
X151127000Y-78790509D01*
X151045261Y-78379577D01*
X150884923Y-77992488D01*
X150652149Y-77644116D01*
X150355884Y-77347851D01*
X150007512Y-77115077D01*
X149620423Y-76954739D01*
X149209491Y-76873000D01*
X148790509Y-76873000D01*
X148379577Y-76954739D01*
X147992488Y-77115077D01*
X147644116Y-77347851D01*
X147347851Y-77644116D01*
X147115077Y-77992488D01*
X146954739Y-78379577D01*
X146873000Y-78790509D01*
X138627000Y-78790509D01*
X138627000Y-76438246D01*
X139873000Y-76438246D01*
X139873000Y-76561754D01*
X139897095Y-76682889D01*
X139944360Y-76796996D01*
X140012977Y-76899689D01*
X140100311Y-76987023D01*
X140203004Y-77055640D01*
X140317111Y-77102905D01*
X140438246Y-77127000D01*
X140561754Y-77127000D01*
X140682889Y-77102905D01*
X140796996Y-77055640D01*
X140899689Y-76987023D01*
X140987023Y-76899689D01*
X141055640Y-76796996D01*
X141102905Y-76682889D01*
X141127000Y-76561754D01*
X141127000Y-76533647D01*
X160399454Y-76533647D01*
X160399934Y-76538538D01*
X160405034Y-76587062D01*
X160411444Y-76618289D01*
X160417427Y-76649652D01*
X160418848Y-76654357D01*
X160433276Y-76700967D01*
X160445629Y-76730354D01*
X160457592Y-76759963D01*
X160459900Y-76764303D01*
X160483107Y-76807222D01*
X160500929Y-76833643D01*
X160518409Y-76860357D01*
X160521516Y-76864166D01*
X160552616Y-76901760D01*
X160575216Y-76924204D01*
X160597583Y-76947044D01*
X160601371Y-76950177D01*
X160639181Y-76981013D01*
X160665716Y-76998642D01*
X160692069Y-77016687D01*
X160696393Y-77019025D01*
X160739473Y-77041932D01*
X160768930Y-77054074D01*
X160798299Y-77066661D01*
X160802995Y-77068114D01*
X160849703Y-77082216D01*
X160880963Y-77088405D01*
X160912205Y-77095046D01*
X160917092Y-77095559D01*
X160917094Y-77095559D01*
X160964995Y-77100255D01*
X160982708Y-77102000D01*
X162664413Y-77102000D01*
X162437915Y-77147053D01*
X162087223Y-77292315D01*
X161771609Y-77503201D01*
X161503201Y-77771609D01*
X161292315Y-78087223D01*
X161147053Y-78437915D01*
X161073000Y-78810207D01*
X161073000Y-79189793D01*
X161147053Y-79562085D01*
X161292315Y-79912777D01*
X161503201Y-80228391D01*
X161771609Y-80496799D01*
X162087223Y-80707685D01*
X162437915Y-80852947D01*
X162810207Y-80927000D01*
X163189793Y-80927000D01*
X163562085Y-80852947D01*
X163912777Y-80707685D01*
X164228391Y-80496799D01*
X164286944Y-80438246D01*
X168873000Y-80438246D01*
X168873000Y-80561754D01*
X168897095Y-80682889D01*
X168944360Y-80796996D01*
X169012977Y-80899689D01*
X169100311Y-80987023D01*
X169203004Y-81055640D01*
X169317111Y-81102905D01*
X169438246Y-81127000D01*
X169561754Y-81127000D01*
X169682889Y-81102905D01*
X169796996Y-81055640D01*
X169899689Y-80987023D01*
X169987023Y-80899689D01*
X170055640Y-80796996D01*
X170102905Y-80682889D01*
X170127000Y-80561754D01*
X170127000Y-80438246D01*
X170102905Y-80317111D01*
X170055640Y-80203004D01*
X169987023Y-80100311D01*
X169899689Y-80012977D01*
X169796996Y-79944360D01*
X169682889Y-79897095D01*
X169561754Y-79873000D01*
X169438246Y-79873000D01*
X169317111Y-79897095D01*
X169203004Y-79944360D01*
X169100311Y-80012977D01*
X169012977Y-80100311D01*
X168944360Y-80203004D01*
X168897095Y-80317111D01*
X168873000Y-80438246D01*
X164286944Y-80438246D01*
X164496799Y-80228391D01*
X164707685Y-79912777D01*
X164852947Y-79562085D01*
X164927000Y-79189793D01*
X164927000Y-78810207D01*
X164852947Y-78437915D01*
X164707685Y-78087223D01*
X164496799Y-77771609D01*
X164228391Y-77503201D01*
X163912777Y-77292315D01*
X163562085Y-77147053D01*
X163335587Y-77102000D01*
X165017292Y-77102000D01*
X165034594Y-77100296D01*
X165037842Y-77100296D01*
X165042730Y-77099782D01*
X165063724Y-77097427D01*
X165069004Y-77096907D01*
X165069382Y-77096792D01*
X165091217Y-77094343D01*
X165122372Y-77087720D01*
X165153718Y-77081514D01*
X165158413Y-77080060D01*
X165204920Y-77065307D01*
X165234207Y-77052754D01*
X165263740Y-77040582D01*
X165268063Y-77038244D01*
X165310820Y-77014738D01*
X165337126Y-76996725D01*
X165363715Y-76979060D01*
X165367502Y-76975926D01*
X165404879Y-76944564D01*
X165427189Y-76921782D01*
X165449838Y-76899290D01*
X165452945Y-76895481D01*
X165483517Y-76857456D01*
X165500965Y-76830792D01*
X165518827Y-76804312D01*
X165521134Y-76799972D01*
X165543739Y-76756734D01*
X165555697Y-76727136D01*
X165568054Y-76697741D01*
X165569475Y-76693036D01*
X165583251Y-76646229D01*
X165589229Y-76614892D01*
X165595644Y-76583639D01*
X165596123Y-76578747D01*
X165600545Y-76530157D01*
X165600323Y-76498327D01*
X165600546Y-76466353D01*
X165600066Y-76461461D01*
X165594966Y-76412938D01*
X165588556Y-76381711D01*
X165582573Y-76350348D01*
X165581152Y-76345643D01*
X165566724Y-76299033D01*
X165554377Y-76269659D01*
X165542408Y-76240036D01*
X165540100Y-76235697D01*
X165516893Y-76192778D01*
X165499061Y-76166341D01*
X165481591Y-76139643D01*
X165478484Y-76135834D01*
X165447384Y-76098239D01*
X165424781Y-76075793D01*
X165402417Y-76052956D01*
X165398629Y-76049823D01*
X165360818Y-76018986D01*
X165334275Y-76001352D01*
X165307931Y-75983313D01*
X165303608Y-75980976D01*
X165260527Y-75958068D01*
X165231044Y-75945916D01*
X165201700Y-75933339D01*
X165197005Y-75931886D01*
X165150296Y-75917784D01*
X165119045Y-75911596D01*
X165087795Y-75904954D01*
X165082907Y-75904441D01*
X165035002Y-75899744D01*
X165017292Y-75898000D01*
X163335587Y-75898000D01*
X163562085Y-75852947D01*
X163912777Y-75707685D01*
X164228391Y-75496799D01*
X164496799Y-75228391D01*
X164707685Y-74912777D01*
X164852947Y-74562085D01*
X164927000Y-74189793D01*
X164927000Y-73810207D01*
X164852947Y-73437915D01*
X164707685Y-73087223D01*
X164496799Y-72771609D01*
X164228391Y-72503201D01*
X163912777Y-72292315D01*
X163562085Y-72147053D01*
X163189793Y-72073000D01*
X162810207Y-72073000D01*
X162437915Y-72147053D01*
X162087223Y-72292315D01*
X161771609Y-72503201D01*
X161503201Y-72771609D01*
X161292315Y-73087223D01*
X161147053Y-73437915D01*
X161073000Y-73810207D01*
X161073000Y-74189793D01*
X161147053Y-74562085D01*
X161292315Y-74912777D01*
X161503201Y-75228391D01*
X161771609Y-75496799D01*
X162087223Y-75707685D01*
X162437915Y-75852947D01*
X162664413Y-75898000D01*
X160982708Y-75898000D01*
X160965406Y-75899704D01*
X160962158Y-75899704D01*
X160957270Y-75900218D01*
X160936276Y-75902573D01*
X160930996Y-75903093D01*
X160930618Y-75903208D01*
X160908783Y-75905657D01*
X160877628Y-75912280D01*
X160846282Y-75918486D01*
X160841587Y-75919940D01*
X160795080Y-75934693D01*
X160765744Y-75947267D01*
X160736260Y-75959419D01*
X160731942Y-75961754D01*
X160731938Y-75961756D01*
X160731937Y-75961757D01*
X160689180Y-75985262D01*
X160662874Y-76003275D01*
X160636285Y-76020940D01*
X160632498Y-76024074D01*
X160595122Y-76055436D01*
X160572833Y-76078196D01*
X160550161Y-76100710D01*
X160547055Y-76104519D01*
X160516482Y-76142544D01*
X160499017Y-76169234D01*
X160481173Y-76195688D01*
X160478866Y-76200028D01*
X160456261Y-76243267D01*
X160444315Y-76272834D01*
X160431946Y-76302259D01*
X160430525Y-76306964D01*
X160416749Y-76353771D01*
X160410771Y-76385108D01*
X160404356Y-76416361D01*
X160403877Y-76421252D01*
X160399455Y-76469843D01*
X160399677Y-76501673D01*
X160399454Y-76533647D01*
X141127000Y-76533647D01*
X141127000Y-76438246D01*
X141102905Y-76317111D01*
X141055640Y-76203004D01*
X140987023Y-76100311D01*
X140899689Y-76012977D01*
X140796996Y-75944360D01*
X140682889Y-75897095D01*
X140561754Y-75873000D01*
X140438246Y-75873000D01*
X140317111Y-75897095D01*
X140203004Y-75944360D01*
X140100311Y-76012977D01*
X140012977Y-76100311D01*
X139944360Y-76203004D01*
X139897095Y-76317111D01*
X139873000Y-76438246D01*
X138627000Y-76438246D01*
X138627000Y-73938246D01*
X156373000Y-73938246D01*
X156373000Y-74061754D01*
X156397095Y-74182889D01*
X156444360Y-74296996D01*
X156512977Y-74399689D01*
X156600311Y-74487023D01*
X156703004Y-74555640D01*
X156817111Y-74602905D01*
X156938246Y-74627000D01*
X157061754Y-74627000D01*
X157182889Y-74602905D01*
X157296996Y-74555640D01*
X157399689Y-74487023D01*
X157487023Y-74399689D01*
X157555640Y-74296996D01*
X157602905Y-74182889D01*
X157627000Y-74061754D01*
X157627000Y-73938246D01*
X157602905Y-73817111D01*
X157555640Y-73703004D01*
X157487023Y-73600311D01*
X157399689Y-73512977D01*
X157296996Y-73444360D01*
X157182889Y-73397095D01*
X157061754Y-73373000D01*
X156938246Y-73373000D01*
X156817111Y-73397095D01*
X156703004Y-73444360D01*
X156600311Y-73512977D01*
X156512977Y-73600311D01*
X156444360Y-73703004D01*
X156397095Y-73817111D01*
X156373000Y-73938246D01*
X138627000Y-73938246D01*
X138627000Y-63651746D01*
X144957014Y-63651746D01*
X144957248Y-63656656D01*
X144960355Y-63713472D01*
X144965196Y-63745000D01*
X144969598Y-63776602D01*
X144970781Y-63781369D01*
X144970782Y-63781374D01*
X144970784Y-63781379D01*
X144984865Y-63836502D01*
X144995724Y-63866452D01*
X145006195Y-63896638D01*
X145008283Y-63901088D01*
X145032806Y-63952432D01*
X145049279Y-63979706D01*
X145065410Y-64007279D01*
X145068322Y-64011238D01*
X145102351Y-64056841D01*
X145123827Y-64080417D01*
X145144985Y-64104308D01*
X145148611Y-64107626D01*
X145190850Y-64145752D01*
X145216470Y-64164689D01*
X145241894Y-64184036D01*
X145246095Y-64186587D01*
X145294934Y-64215782D01*
X145323749Y-64229384D01*
X145352446Y-64243424D01*
X145357063Y-64245110D01*
X145410643Y-64264262D01*
X145441558Y-64272010D01*
X145472419Y-64280204D01*
X145477275Y-64280962D01*
X145533555Y-64289343D01*
X145565381Y-64290938D01*
X145597256Y-64292983D01*
X145602167Y-64292783D01*
X145659003Y-64290073D01*
X145690582Y-64285449D01*
X145722199Y-64281270D01*
X145726977Y-64280120D01*
X145782204Y-64266422D01*
X145812233Y-64255770D01*
X145842487Y-64245512D01*
X145846951Y-64243456D01*
X145898465Y-64219291D01*
X145925868Y-64203001D01*
X145953537Y-64187071D01*
X145957517Y-64184187D01*
X146003357Y-64150477D01*
X146027077Y-64129172D01*
X146051121Y-64108175D01*
X146054465Y-64104572D01*
X146087820Y-64068133D01*
X147082901Y-63070168D01*
X146954739Y-63379577D01*
X146873000Y-63790509D01*
X146873000Y-64209491D01*
X146954739Y-64620423D01*
X147115077Y-65007512D01*
X147347851Y-65355884D01*
X147644116Y-65652149D01*
X147992488Y-65884923D01*
X148379577Y-66045261D01*
X148790509Y-66127000D01*
X149209491Y-66127000D01*
X149620423Y-66045261D01*
X150007512Y-65884923D01*
X150159082Y-65783647D01*
X154899454Y-65783647D01*
X154899934Y-65788538D01*
X154905034Y-65837062D01*
X154911444Y-65868289D01*
X154917427Y-65899652D01*
X154918848Y-65904357D01*
X154933276Y-65950967D01*
X154945629Y-65980354D01*
X154957592Y-66009963D01*
X154959900Y-66014303D01*
X154983107Y-66057222D01*
X155000929Y-66083643D01*
X155018409Y-66110357D01*
X155021516Y-66114166D01*
X155052616Y-66151760D01*
X155075216Y-66174204D01*
X155097583Y-66197044D01*
X155101371Y-66200177D01*
X155139181Y-66231013D01*
X155165716Y-66248642D01*
X155192069Y-66266687D01*
X155196393Y-66269025D01*
X155239473Y-66291932D01*
X155268930Y-66304074D01*
X155298299Y-66316661D01*
X155302995Y-66318114D01*
X155349703Y-66332216D01*
X155380963Y-66338405D01*
X155412205Y-66345046D01*
X155417092Y-66345559D01*
X155417094Y-66345559D01*
X155464995Y-66350255D01*
X155482708Y-66352000D01*
X156139967Y-66352000D01*
X155847851Y-66644116D01*
X155615077Y-66992488D01*
X155454739Y-67379577D01*
X155373000Y-67790509D01*
X155373000Y-68209491D01*
X155454739Y-68620423D01*
X155615077Y-69007512D01*
X155847851Y-69355884D01*
X156144116Y-69652149D01*
X156492488Y-69884923D01*
X156879577Y-70045261D01*
X157290509Y-70127000D01*
X157709491Y-70127000D01*
X158120423Y-70045261D01*
X158507512Y-69884923D01*
X158855884Y-69652149D01*
X159152149Y-69355884D01*
X159384923Y-69007512D01*
X159545261Y-68620423D01*
X159627000Y-68209491D01*
X159627000Y-67790509D01*
X165373000Y-67790509D01*
X165373000Y-68209491D01*
X165454739Y-68620423D01*
X165615077Y-69007512D01*
X165847851Y-69355884D01*
X166144116Y-69652149D01*
X166492488Y-69884923D01*
X166879577Y-70045261D01*
X167290509Y-70127000D01*
X167709491Y-70127000D01*
X168120423Y-70045261D01*
X168378779Y-69938246D01*
X168873000Y-69938246D01*
X168873000Y-70061754D01*
X168897095Y-70182889D01*
X168944360Y-70296996D01*
X169012977Y-70399689D01*
X169100311Y-70487023D01*
X169203004Y-70555640D01*
X169317111Y-70602905D01*
X169438246Y-70627000D01*
X169561754Y-70627000D01*
X169682889Y-70602905D01*
X169796996Y-70555640D01*
X169899689Y-70487023D01*
X169987023Y-70399689D01*
X170055640Y-70296996D01*
X170102905Y-70182889D01*
X170127000Y-70061754D01*
X170127000Y-69938246D01*
X170102905Y-69817111D01*
X170055640Y-69703004D01*
X169987023Y-69600311D01*
X169899689Y-69512977D01*
X169796996Y-69444360D01*
X169682889Y-69397095D01*
X169561754Y-69373000D01*
X169438246Y-69373000D01*
X169317111Y-69397095D01*
X169203004Y-69444360D01*
X169100311Y-69512977D01*
X169012977Y-69600311D01*
X168944360Y-69703004D01*
X168897095Y-69817111D01*
X168873000Y-69938246D01*
X168378779Y-69938246D01*
X168507512Y-69884923D01*
X168855884Y-69652149D01*
X169152149Y-69355884D01*
X169384923Y-69007512D01*
X169545261Y-68620423D01*
X169627000Y-68209491D01*
X169627000Y-67790509D01*
X169545261Y-67379577D01*
X169384923Y-66992488D01*
X169152149Y-66644116D01*
X168855884Y-66347851D01*
X168507512Y-66115077D01*
X168120423Y-65954739D01*
X167709491Y-65873000D01*
X167290509Y-65873000D01*
X166879577Y-65954739D01*
X166492488Y-66115077D01*
X166144116Y-66347851D01*
X165847851Y-66644116D01*
X165615077Y-66992488D01*
X165454739Y-67379577D01*
X165373000Y-67790509D01*
X159627000Y-67790509D01*
X159545261Y-67379577D01*
X159384923Y-66992488D01*
X159152149Y-66644116D01*
X158860033Y-66352000D01*
X159517292Y-66352000D01*
X159534594Y-66350296D01*
X159537842Y-66350296D01*
X159542730Y-66349782D01*
X159563724Y-66347427D01*
X159569004Y-66346907D01*
X159569382Y-66346792D01*
X159591217Y-66344343D01*
X159622372Y-66337720D01*
X159653718Y-66331514D01*
X159658413Y-66330060D01*
X159704920Y-66315307D01*
X159734207Y-66302754D01*
X159763740Y-66290582D01*
X159768063Y-66288244D01*
X159810820Y-66264738D01*
X159837126Y-66246725D01*
X159863715Y-66229060D01*
X159867502Y-66225926D01*
X159904879Y-66194564D01*
X159927189Y-66171782D01*
X159949838Y-66149290D01*
X159952945Y-66145481D01*
X159983517Y-66107456D01*
X160000965Y-66080792D01*
X160018827Y-66054312D01*
X160021134Y-66049972D01*
X160043739Y-66006734D01*
X160055697Y-65977136D01*
X160068054Y-65947741D01*
X160069475Y-65943036D01*
X160083251Y-65896229D01*
X160089229Y-65864892D01*
X160095644Y-65833639D01*
X160096123Y-65828747D01*
X160100545Y-65780157D01*
X160100323Y-65748327D01*
X160100546Y-65716353D01*
X160100066Y-65711461D01*
X160094966Y-65662938D01*
X160088556Y-65631711D01*
X160082573Y-65600348D01*
X160081152Y-65595643D01*
X160066724Y-65549033D01*
X160054377Y-65519659D01*
X160042408Y-65490036D01*
X160040100Y-65485697D01*
X160016893Y-65442778D01*
X159999061Y-65416341D01*
X159981591Y-65389643D01*
X159978484Y-65385834D01*
X159947384Y-65348239D01*
X159924781Y-65325793D01*
X159902417Y-65302956D01*
X159898629Y-65299823D01*
X159860818Y-65268986D01*
X159834275Y-65251352D01*
X159807931Y-65233313D01*
X159803608Y-65230976D01*
X159760527Y-65208068D01*
X159731044Y-65195916D01*
X159701700Y-65183339D01*
X159697005Y-65181886D01*
X159650296Y-65167784D01*
X159619045Y-65161596D01*
X159587795Y-65154954D01*
X159582907Y-65154441D01*
X159535002Y-65149744D01*
X159517292Y-65148000D01*
X158860033Y-65148000D01*
X159152149Y-64855884D01*
X159384923Y-64507512D01*
X159545261Y-64120423D01*
X159627000Y-63709491D01*
X159627000Y-63290509D01*
X165373000Y-63290509D01*
X165373000Y-63709491D01*
X165454739Y-64120423D01*
X165615077Y-64507512D01*
X165847851Y-64855884D01*
X166144116Y-65152149D01*
X166492488Y-65384923D01*
X166879577Y-65545261D01*
X167290509Y-65627000D01*
X167709491Y-65627000D01*
X168120423Y-65545261D01*
X168507512Y-65384923D01*
X168855884Y-65152149D01*
X169152149Y-64855884D01*
X169384923Y-64507512D01*
X169545261Y-64120423D01*
X169627000Y-63709491D01*
X169627000Y-63290509D01*
X169545261Y-62879577D01*
X169384923Y-62492488D01*
X169152149Y-62144116D01*
X168855884Y-61847851D01*
X168507512Y-61615077D01*
X168120423Y-61454739D01*
X167709491Y-61373000D01*
X167290509Y-61373000D01*
X166879577Y-61454739D01*
X166492488Y-61615077D01*
X166144116Y-61847851D01*
X165847851Y-62144116D01*
X165615077Y-62492488D01*
X165454739Y-62879577D01*
X165373000Y-63290509D01*
X159627000Y-63290509D01*
X159545261Y-62879577D01*
X159384923Y-62492488D01*
X159152149Y-62144116D01*
X158855884Y-61847851D01*
X158507512Y-61615077D01*
X158120423Y-61454739D01*
X157709491Y-61373000D01*
X157290509Y-61373000D01*
X156879577Y-61454739D01*
X156492488Y-61615077D01*
X156144116Y-61847851D01*
X155847851Y-62144116D01*
X155615077Y-62492488D01*
X155454739Y-62879577D01*
X155373000Y-63290509D01*
X155373000Y-63709491D01*
X155454739Y-64120423D01*
X155615077Y-64507512D01*
X155847851Y-64855884D01*
X156139967Y-65148000D01*
X155482708Y-65148000D01*
X155465406Y-65149704D01*
X155462158Y-65149704D01*
X155457270Y-65150218D01*
X155436276Y-65152573D01*
X155430996Y-65153093D01*
X155430618Y-65153208D01*
X155408783Y-65155657D01*
X155377628Y-65162280D01*
X155346282Y-65168486D01*
X155341587Y-65169940D01*
X155295080Y-65184693D01*
X155265744Y-65197267D01*
X155236260Y-65209419D01*
X155231942Y-65211754D01*
X155231938Y-65211756D01*
X155231937Y-65211757D01*
X155189180Y-65235262D01*
X155162874Y-65253275D01*
X155136285Y-65270940D01*
X155132498Y-65274074D01*
X155095122Y-65305436D01*
X155072833Y-65328196D01*
X155050161Y-65350710D01*
X155047055Y-65354519D01*
X155016482Y-65392544D01*
X154999017Y-65419234D01*
X154981173Y-65445688D01*
X154978866Y-65450028D01*
X154956261Y-65493267D01*
X154944315Y-65522834D01*
X154931946Y-65552259D01*
X154930525Y-65556964D01*
X154916749Y-65603771D01*
X154910771Y-65635108D01*
X154904356Y-65666361D01*
X154903877Y-65671252D01*
X154899455Y-65719843D01*
X154899677Y-65751673D01*
X154899454Y-65783647D01*
X150159082Y-65783647D01*
X150355884Y-65652149D01*
X150652149Y-65355884D01*
X150884923Y-65007512D01*
X151045261Y-64620423D01*
X151127000Y-64209491D01*
X151127000Y-63790509D01*
X151045261Y-63379577D01*
X150884923Y-62992488D01*
X150652149Y-62644116D01*
X150355884Y-62347851D01*
X150007512Y-62115077D01*
X149620423Y-61954739D01*
X149209491Y-61873000D01*
X148790509Y-61873000D01*
X148379577Y-61954739D01*
X148065306Y-62084915D01*
X148796102Y-61352000D01*
X151117292Y-61352000D01*
X151134594Y-61350296D01*
X151137842Y-61350296D01*
X151142730Y-61349782D01*
X151163724Y-61347427D01*
X151169004Y-61346907D01*
X151169382Y-61346792D01*
X151191217Y-61344343D01*
X151222372Y-61337720D01*
X151253718Y-61331514D01*
X151258413Y-61330060D01*
X151304920Y-61315307D01*
X151334207Y-61302754D01*
X151363740Y-61290582D01*
X151368063Y-61288244D01*
X151410820Y-61264738D01*
X151437126Y-61246725D01*
X151463715Y-61229060D01*
X151467502Y-61225926D01*
X151504879Y-61194564D01*
X151527189Y-61171782D01*
X151549838Y-61149290D01*
X151552945Y-61145481D01*
X151583517Y-61107456D01*
X151600965Y-61080792D01*
X151618827Y-61054312D01*
X151621134Y-61049972D01*
X151643739Y-61006734D01*
X151655697Y-60977136D01*
X151668054Y-60947741D01*
X151669475Y-60943036D01*
X151683251Y-60896229D01*
X151689229Y-60864892D01*
X151695644Y-60833639D01*
X151696123Y-60828747D01*
X151700545Y-60780157D01*
X151700323Y-60748327D01*
X151700546Y-60716353D01*
X151700066Y-60711461D01*
X151694966Y-60662938D01*
X151688556Y-60631711D01*
X151682573Y-60600348D01*
X151681152Y-60595643D01*
X151666724Y-60549033D01*
X151654377Y-60519659D01*
X151642408Y-60490036D01*
X151640100Y-60485697D01*
X151616893Y-60442778D01*
X151599061Y-60416341D01*
X151581591Y-60389643D01*
X151578484Y-60385834D01*
X151547384Y-60348239D01*
X151524781Y-60325793D01*
X151502417Y-60302956D01*
X151498629Y-60299823D01*
X151460818Y-60268986D01*
X151434275Y-60251352D01*
X151407931Y-60233313D01*
X151403608Y-60230976D01*
X151360527Y-60208068D01*
X151331044Y-60195916D01*
X151301700Y-60183339D01*
X151297005Y-60181886D01*
X151250296Y-60167784D01*
X151219045Y-60161596D01*
X151187795Y-60154954D01*
X151182907Y-60154441D01*
X151135002Y-60149744D01*
X151117292Y-60148000D01*
X148435989Y-60148000D01*
X148420653Y-60146319D01*
X148401419Y-60148000D01*
X148399470Y-60148000D01*
X148384105Y-60149513D01*
X148351579Y-60152356D01*
X148349709Y-60152901D01*
X148347758Y-60153093D01*
X148316372Y-60162614D01*
X148285009Y-60171752D01*
X148283277Y-60172653D01*
X148281406Y-60173221D01*
X148252535Y-60188653D01*
X148223502Y-60203763D01*
X148221978Y-60204986D01*
X148220255Y-60205907D01*
X148194955Y-60226670D01*
X148182975Y-60236283D01*
X148181588Y-60237640D01*
X148166656Y-60249894D01*
X148156865Y-60261825D01*
X145091492Y-63260467D01*
X145080029Y-63274125D01*
X145080024Y-63274130D01*
X145080020Y-63274136D01*
X145058087Y-63300269D01*
X145041300Y-63330862D01*
X145041294Y-63330870D01*
X145041233Y-63330983D01*
X145024731Y-63361056D01*
X145023576Y-63364719D01*
X145015306Y-63384866D01*
X145004864Y-63406592D01*
X145003210Y-63411220D01*
X144984432Y-63464932D01*
X144976892Y-63495933D01*
X144968921Y-63526821D01*
X144968197Y-63531683D01*
X144960209Y-63588018D01*
X144958835Y-63619875D01*
X144957014Y-63651746D01*
X138627000Y-63651746D01*
X138627000Y-57985486D01*
X138679847Y-57857903D01*
X138727000Y-57620849D01*
X138727000Y-57379151D01*
X138679847Y-57142097D01*
X138627000Y-57014514D01*
X138627000Y-56000000D01*
X138818515Y-56000000D01*
X138818515Y-59000000D01*
X138836413Y-59181724D01*
X138889420Y-59356464D01*
X138975499Y-59517505D01*
X139091341Y-59658659D01*
X139232495Y-59774501D01*
X139393536Y-59860580D01*
X139568276Y-59913587D01*
X139750000Y-59931485D01*
X142750000Y-59931485D01*
X142931724Y-59913587D01*
X143106464Y-59860580D01*
X143267505Y-59774501D01*
X143408659Y-59658659D01*
X143524501Y-59517505D01*
X143557103Y-59456511D01*
X143578218Y-59477189D01*
X143600710Y-59499838D01*
X143604519Y-59502945D01*
X143642544Y-59533517D01*
X143669208Y-59550965D01*
X143695688Y-59568827D01*
X143700028Y-59571134D01*
X143743266Y-59593739D01*
X143772864Y-59605697D01*
X143802259Y-59618054D01*
X143806964Y-59619475D01*
X143853771Y-59633251D01*
X143885108Y-59639229D01*
X143916361Y-59645644D01*
X143921251Y-59646123D01*
X143921253Y-59646123D01*
X143969843Y-59650545D01*
X144001673Y-59650323D01*
X144033647Y-59650546D01*
X144038538Y-59650066D01*
X144087062Y-59644966D01*
X144118289Y-59638556D01*
X144149652Y-59632573D01*
X144154357Y-59631152D01*
X144200967Y-59616724D01*
X144230354Y-59604371D01*
X144259963Y-59592408D01*
X144264303Y-59590100D01*
X144307222Y-59566893D01*
X144333643Y-59549071D01*
X144360357Y-59531591D01*
X144364166Y-59528484D01*
X144401760Y-59497384D01*
X144424204Y-59474784D01*
X144447044Y-59452417D01*
X144450177Y-59448629D01*
X144481013Y-59410819D01*
X144498642Y-59384284D01*
X144516687Y-59357931D01*
X144519025Y-59353607D01*
X144541932Y-59310527D01*
X144554074Y-59281070D01*
X144566661Y-59251701D01*
X144568114Y-59247005D01*
X144582216Y-59200297D01*
X144588405Y-59169037D01*
X144595046Y-59137795D01*
X144595559Y-59132906D01*
X144600320Y-59084347D01*
X144602000Y-59067292D01*
X144602000Y-58921454D01*
X144910370Y-59229824D01*
X145275120Y-59473542D01*
X145680408Y-59641418D01*
X146110660Y-59727000D01*
X146549340Y-59727000D01*
X146979592Y-59641418D01*
X147384880Y-59473542D01*
X147749630Y-59229824D01*
X148059824Y-58919630D01*
X148303542Y-58554880D01*
X148442230Y-58220056D01*
X166673000Y-58220056D01*
X166673000Y-58579944D01*
X166743211Y-58932916D01*
X166880934Y-59265409D01*
X167080876Y-59564645D01*
X167335355Y-59819124D01*
X167634591Y-60019066D01*
X167967084Y-60156789D01*
X168320056Y-60227000D01*
X168679944Y-60227000D01*
X169032916Y-60156789D01*
X169365409Y-60019066D01*
X169664645Y-59819124D01*
X169919124Y-59564645D01*
X170119066Y-59265409D01*
X170256789Y-58932916D01*
X170327000Y-58579944D01*
X170327000Y-58220056D01*
X170256789Y-57867084D01*
X170119066Y-57534591D01*
X169919124Y-57235355D01*
X169664645Y-56980876D01*
X169365409Y-56780934D01*
X169032916Y-56643211D01*
X168679944Y-56573000D01*
X168320056Y-56573000D01*
X167967084Y-56643211D01*
X167634591Y-56780934D01*
X167335355Y-56980876D01*
X167080876Y-57235355D01*
X166880934Y-57534591D01*
X166743211Y-57867084D01*
X166673000Y-58220056D01*
X148442230Y-58220056D01*
X148471418Y-58149592D01*
X148557000Y-57719340D01*
X148557000Y-57280660D01*
X148471418Y-56850408D01*
X148303542Y-56445120D01*
X148059824Y-56080370D01*
X147749630Y-55770176D01*
X147384880Y-55526458D01*
X146979592Y-55358582D01*
X146549340Y-55273000D01*
X146110660Y-55273000D01*
X145680408Y-55358582D01*
X145275120Y-55526458D01*
X144910370Y-55770176D01*
X144602000Y-56078546D01*
X144602000Y-55032708D01*
X144600519Y-55017667D01*
X144600540Y-55014608D01*
X144600060Y-55009716D01*
X144589860Y-54912668D01*
X144583446Y-54881422D01*
X144577467Y-54850077D01*
X144576046Y-54845372D01*
X144547190Y-54752153D01*
X144534838Y-54722770D01*
X144522875Y-54693160D01*
X144520567Y-54688820D01*
X144474154Y-54602983D01*
X144456329Y-54576556D01*
X144438846Y-54549839D01*
X144435739Y-54546030D01*
X144373537Y-54470841D01*
X144350926Y-54448387D01*
X144328581Y-54425569D01*
X144324793Y-54422436D01*
X144249173Y-54360760D01*
X144222594Y-54343101D01*
X144196272Y-54325078D01*
X144191948Y-54322740D01*
X144105787Y-54276929D01*
X144076319Y-54264783D01*
X144046971Y-54252204D01*
X144042276Y-54250751D01*
X143948858Y-54222546D01*
X143917591Y-54216355D01*
X143886353Y-54209715D01*
X143881471Y-54209203D01*
X143881468Y-54209202D01*
X143881465Y-54209202D01*
X143784784Y-54199723D01*
X143767292Y-54198000D01*
X141732708Y-54198000D01*
X141715406Y-54199704D01*
X141712158Y-54199704D01*
X141707270Y-54200218D01*
X141686276Y-54202573D01*
X141680996Y-54203093D01*
X141680618Y-54203208D01*
X141658783Y-54205657D01*
X141627628Y-54212280D01*
X141596282Y-54218486D01*
X141591587Y-54219940D01*
X141545080Y-54234693D01*
X141515744Y-54247267D01*
X141486260Y-54259419D01*
X141481942Y-54261754D01*
X141481938Y-54261756D01*
X141481937Y-54261757D01*
X141439180Y-54285262D01*
X141412874Y-54303275D01*
X141386285Y-54320940D01*
X141382498Y-54324074D01*
X141345122Y-54355436D01*
X141322833Y-54378196D01*
X141300161Y-54400710D01*
X141297055Y-54404519D01*
X141266482Y-54442544D01*
X141249017Y-54469234D01*
X141231173Y-54495688D01*
X141228866Y-54500028D01*
X141206261Y-54543267D01*
X141194315Y-54572834D01*
X141181946Y-54602259D01*
X141180525Y-54606964D01*
X141166749Y-54653771D01*
X141160771Y-54685108D01*
X141154356Y-54716361D01*
X141153877Y-54721252D01*
X141149455Y-54769843D01*
X141149677Y-54801673D01*
X141149454Y-54833647D01*
X141149934Y-54838538D01*
X141155034Y-54887062D01*
X141161444Y-54918289D01*
X141167427Y-54949652D01*
X141168848Y-54954357D01*
X141183276Y-55000967D01*
X141195629Y-55030354D01*
X141207592Y-55059963D01*
X141209900Y-55064303D01*
X141212177Y-55068515D01*
X139750000Y-55068515D01*
X139568276Y-55086413D01*
X139393536Y-55139420D01*
X139232495Y-55225499D01*
X139091341Y-55341341D01*
X138975499Y-55482495D01*
X138889420Y-55643536D01*
X138836413Y-55818276D01*
X138818515Y-56000000D01*
X138627000Y-56000000D01*
X138627000Y-54127000D01*
X159789231Y-54127000D01*
X159580876Y-54335355D01*
M02*
