G04 #@! TF.GenerationSoftware,KiCad,Pcbnew,(5.1.5)-3*
G04 #@! TF.CreationDate,2021-07-22T12:57:42-03:00*
G04 #@! TF.ProjectId,relayer_hw,72656c61-7965-4725-9f68-772e6b696361,rev?*
G04 #@! TF.SameCoordinates,Original*
G04 #@! TF.FileFunction,Legend,Bot*
G04 #@! TF.FilePolarity,Positive*
%FSLAX46Y46*%
G04 Gerber Fmt 4.6, Leading zero omitted, Abs format (unit mm)*
G04 Created by KiCad (PCBNEW (5.1.5)-3) date 2021-07-22 12:57:42*
%MOMM*%
%LPD*%
G04 APERTURE LIST*
%ADD10C,0.250000*%
%ADD11C,0.127000*%
%ADD12C,0.120000*%
%ADD13C,0.200000*%
%ADD14C,0.150000*%
G04 APERTURE END LIST*
D10*
X155900000Y-121500000D02*
X155900000Y-121500000D01*
D11*
X154200000Y-118150000D02*
X154545000Y-118150000D01*
X154200000Y-111050000D02*
X154545000Y-111050000D01*
X161300000Y-118150000D02*
X160955000Y-118150000D01*
X161300000Y-111050000D02*
X160955000Y-111050000D01*
X154200000Y-118150000D02*
X154200000Y-117805000D01*
X154200000Y-111050000D02*
X154200000Y-111395000D01*
X161300000Y-118150000D02*
X161300000Y-117805000D01*
X161300000Y-111050000D02*
X161300000Y-111395000D01*
X147150000Y-105850000D02*
X147150000Y-106150000D01*
X146250000Y-105850000D02*
X146250000Y-106150000D01*
D12*
X145900000Y-106000000D02*
X145900000Y-104200000D01*
X145900000Y-104200000D02*
X147500000Y-104200000D01*
X147500000Y-104200000D02*
X147500000Y-106000000D01*
X142300000Y-103800000D02*
X140500000Y-103800000D01*
X142300000Y-102200000D02*
X142300000Y-103800000D01*
X140500000Y-102200000D02*
X142300000Y-102200000D01*
D11*
X140650000Y-102550000D02*
X140350000Y-102550000D01*
X140650000Y-103450000D02*
X140350000Y-103450000D01*
X141400000Y-97015000D02*
X142600000Y-97015000D01*
D13*
X143650000Y-96500000D02*
G75*
G03X143650000Y-96500000I-50000J0D01*
G01*
D11*
X142600000Y-95985000D02*
X141400000Y-95985000D01*
D12*
X139740000Y-94580000D02*
X139740000Y-93650000D01*
X139740000Y-91420000D02*
X139740000Y-92350000D01*
X139740000Y-91420000D02*
X141900000Y-91420000D01*
X139740000Y-94580000D02*
X141200000Y-94580000D01*
X167210000Y-101261252D02*
X167210000Y-100738748D01*
X165790000Y-101261252D02*
X165790000Y-100738748D01*
X167160000Y-108761252D02*
X167160000Y-108238748D01*
X165740000Y-108761252D02*
X165740000Y-108238748D01*
X169210000Y-87261252D02*
X169210000Y-86738748D01*
X167790000Y-87261252D02*
X167790000Y-86738748D01*
X168938748Y-116590000D02*
X169461252Y-116590000D01*
X168938748Y-118010000D02*
X169461252Y-118010000D01*
X144710000Y-92738748D02*
X144710000Y-93261252D01*
X143290000Y-92738748D02*
X143290000Y-93261252D01*
X147710000Y-93261252D02*
X147710000Y-92738748D01*
X146290000Y-93261252D02*
X146290000Y-92738748D01*
X145710000Y-117738748D02*
X145710000Y-118261252D01*
X144290000Y-117738748D02*
X144290000Y-118261252D01*
X141261252Y-116210000D02*
X140738748Y-116210000D01*
X141261252Y-114790000D02*
X140738748Y-114790000D01*
X163700000Y-88500000D02*
G75*
G03X163700000Y-88500000I-700000J0D01*
G01*
X158700000Y-91000000D02*
G75*
G03X158700000Y-91000000I-700000J0D01*
G01*
X158500000Y-124600000D02*
X158500000Y-125030000D01*
X158500000Y-124600000D02*
X158500000Y-124170000D01*
X154500000Y-124600000D02*
X154500000Y-125030000D01*
X154500000Y-124600000D02*
X154500000Y-124170000D01*
X145110000Y-110410000D02*
X143850000Y-110410000D01*
X138290000Y-110410000D02*
X139550000Y-110410000D01*
X145110000Y-106650000D02*
X145110000Y-110410000D01*
X138290000Y-104400000D02*
X138290000Y-110410000D01*
X152700000Y-117250000D02*
X152700000Y-121750000D01*
X152700000Y-121750000D02*
X147300000Y-121750000D01*
X163250000Y-112700000D02*
X166100000Y-112700000D01*
X166100000Y-112700000D02*
X166100000Y-114300000D01*
X166100000Y-114300000D02*
X163250000Y-114300000D01*
D14*
X138735238Y-92237619D02*
X138830476Y-92190000D01*
X138925714Y-92094761D01*
X139068571Y-91951904D01*
X139163809Y-91904285D01*
X139259047Y-91904285D01*
X139211428Y-92142380D02*
X139306666Y-92094761D01*
X139401904Y-91999523D01*
X139449523Y-91809047D01*
X139449523Y-91475714D01*
X139401904Y-91285238D01*
X139306666Y-91190000D01*
X139211428Y-91142380D01*
X139020952Y-91142380D01*
X138925714Y-91190000D01*
X138830476Y-91285238D01*
X138782857Y-91475714D01*
X138782857Y-91809047D01*
X138830476Y-91999523D01*
X138925714Y-92094761D01*
X139020952Y-92142380D01*
X139211428Y-92142380D01*
X137830476Y-92142380D02*
X138401904Y-92142380D01*
X138116190Y-92142380D02*
X138116190Y-91142380D01*
X138211428Y-91285238D01*
X138306666Y-91380476D01*
X138401904Y-91428095D01*
X168602380Y-100833333D02*
X168126190Y-100500000D01*
X168602380Y-100261904D02*
X167602380Y-100261904D01*
X167602380Y-100642857D01*
X167650000Y-100738095D01*
X167697619Y-100785714D01*
X167792857Y-100833333D01*
X167935714Y-100833333D01*
X168030952Y-100785714D01*
X168078571Y-100738095D01*
X168126190Y-100642857D01*
X168126190Y-100261904D01*
X168602380Y-101785714D02*
X168602380Y-101214285D01*
X168602380Y-101500000D02*
X167602380Y-101500000D01*
X167745238Y-101404761D01*
X167840476Y-101309523D01*
X167888095Y-101214285D01*
X168552380Y-108333333D02*
X168076190Y-108000000D01*
X168552380Y-107761904D02*
X167552380Y-107761904D01*
X167552380Y-108142857D01*
X167600000Y-108238095D01*
X167647619Y-108285714D01*
X167742857Y-108333333D01*
X167885714Y-108333333D01*
X167980952Y-108285714D01*
X168028571Y-108238095D01*
X168076190Y-108142857D01*
X168076190Y-107761904D01*
X167647619Y-108714285D02*
X167600000Y-108761904D01*
X167552380Y-108857142D01*
X167552380Y-109095238D01*
X167600000Y-109190476D01*
X167647619Y-109238095D01*
X167742857Y-109285714D01*
X167838095Y-109285714D01*
X167980952Y-109238095D01*
X168552380Y-108666666D01*
X168552380Y-109285714D01*
X170602380Y-86833333D02*
X170126190Y-86500000D01*
X170602380Y-86261904D02*
X169602380Y-86261904D01*
X169602380Y-86642857D01*
X169650000Y-86738095D01*
X169697619Y-86785714D01*
X169792857Y-86833333D01*
X169935714Y-86833333D01*
X170030952Y-86785714D01*
X170078571Y-86738095D01*
X170126190Y-86642857D01*
X170126190Y-86261904D01*
X169602380Y-87166666D02*
X169602380Y-87785714D01*
X169983333Y-87452380D01*
X169983333Y-87595238D01*
X170030952Y-87690476D01*
X170078571Y-87738095D01*
X170173809Y-87785714D01*
X170411904Y-87785714D01*
X170507142Y-87738095D01*
X170554761Y-87690476D01*
X170602380Y-87595238D01*
X170602380Y-87309523D01*
X170554761Y-87214285D01*
X170507142Y-87166666D01*
X169366666Y-116252380D02*
X169700000Y-115776190D01*
X169938095Y-116252380D02*
X169938095Y-115252380D01*
X169557142Y-115252380D01*
X169461904Y-115300000D01*
X169414285Y-115347619D01*
X169366666Y-115442857D01*
X169366666Y-115585714D01*
X169414285Y-115680952D01*
X169461904Y-115728571D01*
X169557142Y-115776190D01*
X169938095Y-115776190D01*
X168509523Y-115585714D02*
X168509523Y-116252380D01*
X168747619Y-115204761D02*
X168985714Y-115919047D01*
X168366666Y-115919047D01*
X143652380Y-117833333D02*
X143176190Y-117500000D01*
X143652380Y-117261904D02*
X142652380Y-117261904D01*
X142652380Y-117642857D01*
X142700000Y-117738095D01*
X142747619Y-117785714D01*
X142842857Y-117833333D01*
X142985714Y-117833333D01*
X143080952Y-117785714D01*
X143128571Y-117738095D01*
X143176190Y-117642857D01*
X143176190Y-117261904D01*
X142652380Y-118166666D02*
X142652380Y-118833333D01*
X143652380Y-118404761D01*
X141166666Y-117552380D02*
X141500000Y-117076190D01*
X141738095Y-117552380D02*
X141738095Y-116552380D01*
X141357142Y-116552380D01*
X141261904Y-116600000D01*
X141214285Y-116647619D01*
X141166666Y-116742857D01*
X141166666Y-116885714D01*
X141214285Y-116980952D01*
X141261904Y-117028571D01*
X141357142Y-117076190D01*
X141738095Y-117076190D01*
X140595238Y-116980952D02*
X140690476Y-116933333D01*
X140738095Y-116885714D01*
X140785714Y-116790476D01*
X140785714Y-116742857D01*
X140738095Y-116647619D01*
X140690476Y-116600000D01*
X140595238Y-116552380D01*
X140404761Y-116552380D01*
X140309523Y-116600000D01*
X140261904Y-116647619D01*
X140214285Y-116742857D01*
X140214285Y-116790476D01*
X140261904Y-116885714D01*
X140309523Y-116933333D01*
X140404761Y-116980952D01*
X140595238Y-116980952D01*
X140690476Y-117028571D01*
X140738095Y-117076190D01*
X140785714Y-117171428D01*
X140785714Y-117361904D01*
X140738095Y-117457142D01*
X140690476Y-117504761D01*
X140595238Y-117552380D01*
X140404761Y-117552380D01*
X140309523Y-117504761D01*
X140261904Y-117457142D01*
X140214285Y-117361904D01*
X140214285Y-117171428D01*
X140261904Y-117076190D01*
X140309523Y-117028571D01*
X140404761Y-116980952D01*
X166511904Y-87952380D02*
X165940476Y-87952380D01*
X166226190Y-88952380D02*
X166226190Y-87952380D01*
X165607142Y-88952380D02*
X165607142Y-87952380D01*
X165226190Y-87952380D01*
X165130952Y-88000000D01*
X165083333Y-88047619D01*
X165035714Y-88142857D01*
X165035714Y-88285714D01*
X165083333Y-88380952D01*
X165130952Y-88428571D01*
X165226190Y-88476190D01*
X165607142Y-88476190D01*
X164654761Y-88047619D02*
X164607142Y-88000000D01*
X164511904Y-87952380D01*
X164273809Y-87952380D01*
X164178571Y-88000000D01*
X164130952Y-88047619D01*
X164083333Y-88142857D01*
X164083333Y-88238095D01*
X164130952Y-88380952D01*
X164702380Y-88952380D01*
X164083333Y-88952380D01*
X159261904Y-91952380D02*
X158690476Y-91952380D01*
X158976190Y-92952380D02*
X158976190Y-91952380D01*
X158357142Y-92952380D02*
X158357142Y-91952380D01*
X157976190Y-91952380D01*
X157880952Y-92000000D01*
X157833333Y-92047619D01*
X157785714Y-92142857D01*
X157785714Y-92285714D01*
X157833333Y-92380952D01*
X157880952Y-92428571D01*
X157976190Y-92476190D01*
X158357142Y-92476190D01*
X157452380Y-91952380D02*
X156833333Y-91952380D01*
X157166666Y-92333333D01*
X157023809Y-92333333D01*
X156928571Y-92380952D01*
X156880952Y-92428571D01*
X156833333Y-92523809D01*
X156833333Y-92761904D01*
X156880952Y-92857142D01*
X156928571Y-92904761D01*
X157023809Y-92952380D01*
X157309523Y-92952380D01*
X157404761Y-92904761D01*
X157452380Y-92857142D01*
X152561904Y-123890476D02*
X153209523Y-123890476D01*
X153285714Y-123928571D01*
X153323809Y-123966666D01*
X153361904Y-124042857D01*
X153361904Y-124195238D01*
X153323809Y-124271428D01*
X153285714Y-124309523D01*
X153209523Y-124347619D01*
X152561904Y-124347619D01*
X152638095Y-124690476D02*
X152600000Y-124728571D01*
X152561904Y-124804761D01*
X152561904Y-124995238D01*
X152600000Y-125071428D01*
X152638095Y-125109523D01*
X152714285Y-125147619D01*
X152790476Y-125147619D01*
X152904761Y-125109523D01*
X153361904Y-124652380D01*
X153361904Y-125147619D01*
X138352380Y-107738095D02*
X139161904Y-107738095D01*
X139257142Y-107785714D01*
X139304761Y-107833333D01*
X139352380Y-107928571D01*
X139352380Y-108119047D01*
X139304761Y-108214285D01*
X139257142Y-108261904D01*
X139161904Y-108309523D01*
X138352380Y-108309523D01*
X138352380Y-108690476D02*
X138352380Y-109309523D01*
X138733333Y-108976190D01*
X138733333Y-109119047D01*
X138780952Y-109214285D01*
X138828571Y-109261904D01*
X138923809Y-109309523D01*
X139161904Y-109309523D01*
X139257142Y-109261904D01*
X139304761Y-109214285D01*
X139352380Y-109119047D01*
X139352380Y-108833333D01*
X139304761Y-108738095D01*
X139257142Y-108690476D01*
X154351904Y-137642380D02*
X154351904Y-138175714D01*
X155151904Y-137642380D01*
X155151904Y-138175714D01*
X154618571Y-138823333D02*
X155151904Y-138823333D01*
X154313809Y-138632857D02*
X154885238Y-138442380D01*
X154885238Y-138937619D01*
X150476190Y-116426190D02*
X150476190Y-116902380D01*
X150809523Y-115902380D02*
X150476190Y-116426190D01*
X150142857Y-115902380D01*
X149857142Y-115997619D02*
X149809523Y-115950000D01*
X149714285Y-115902380D01*
X149476190Y-115902380D01*
X149380952Y-115950000D01*
X149333333Y-115997619D01*
X149285714Y-116092857D01*
X149285714Y-116188095D01*
X149333333Y-116330952D01*
X149904761Y-116902380D01*
X149285714Y-116902380D01*
X167426190Y-113476190D02*
X167426190Y-113952380D01*
X167759523Y-112952380D02*
X167426190Y-113476190D01*
X167092857Y-112952380D01*
X166235714Y-113952380D02*
X166807142Y-113952380D01*
X166521428Y-113952380D02*
X166521428Y-112952380D01*
X166616666Y-113095238D01*
X166711904Y-113190476D01*
X166807142Y-113238095D01*
X152616666Y-109837142D02*
X152664285Y-109884761D01*
X152807142Y-109932380D01*
X152902380Y-109932380D01*
X153045238Y-109884761D01*
X153140476Y-109789523D01*
X153188095Y-109694285D01*
X153235714Y-109503809D01*
X153235714Y-109360952D01*
X153188095Y-109170476D01*
X153140476Y-109075238D01*
X153045238Y-108980000D01*
X152902380Y-108932380D01*
X152807142Y-108932380D01*
X152664285Y-108980000D01*
X152616666Y-109027619D01*
X151711904Y-108932380D02*
X152188095Y-108932380D01*
X152235714Y-109408571D01*
X152188095Y-109360952D01*
X152092857Y-109313333D01*
X151854761Y-109313333D01*
X151759523Y-109360952D01*
X151711904Y-109408571D01*
X151664285Y-109503809D01*
X151664285Y-109741904D01*
X151711904Y-109837142D01*
X151759523Y-109884761D01*
X151854761Y-109932380D01*
X152092857Y-109932380D01*
X152188095Y-109884761D01*
X152235714Y-109837142D01*
X150137142Y-112907142D02*
X150184761Y-112859523D01*
X150232380Y-112716666D01*
X150232380Y-112621428D01*
X150184761Y-112478571D01*
X150089523Y-112383333D01*
X149994285Y-112335714D01*
X149803809Y-112288095D01*
X149660952Y-112288095D01*
X149470476Y-112335714D01*
X149375238Y-112383333D01*
X149280000Y-112478571D01*
X149232380Y-112621428D01*
X149232380Y-112716666D01*
X149280000Y-112859523D01*
X149327619Y-112907142D01*
X150232380Y-113859523D02*
X150232380Y-113288095D01*
X150232380Y-113573809D02*
X149232380Y-113573809D01*
X149375238Y-113478571D01*
X149470476Y-113383333D01*
X149518095Y-113288095D01*
X149327619Y-114240476D02*
X149280000Y-114288095D01*
X149232380Y-114383333D01*
X149232380Y-114621428D01*
X149280000Y-114716666D01*
X149327619Y-114764285D01*
X149422857Y-114811904D01*
X149518095Y-114811904D01*
X149660952Y-114764285D01*
X150232380Y-114192857D01*
X150232380Y-114811904D01*
M02*
